<?xml version='1.0' encoding='utf-8'?>
<svg xmlns="http://www.w3.org/2000/svg" xmlns:xlink="http://www.w3.org/1999/xlink" width="198px" height="56px" viewBox="0 0 1987 568" version="1.1">
<defs>
<path id="gl2314" d="M 74 37 C 69 37 42 38 34 38 C 30 37 24 40 24 42 C 22 45 25 48 30 49 C 39 50 45 56 46 64 C 48 75 49 79 49 123 C 48 181 48 188 45 194 C 44 196 42 199 41 200 C 39 202 31 206 29 206 C 23 206 20 211 24 216 C 26 217 26 217 49 216 C 58 216 67 216 76 216 C 103 217 108 216 103 210 C 102 208 99 207 94 206 C 87 205 79 201 76 197 C 73 191 73 195 73 121 C 73 42 72 49 80 48 C 87 46 105 53 114 60 C 124 67 130 79 130 93 C 130 105 128 110 121 118 C 116 123 111 127 105 129 C 100 130 96 133 94 135 C 92 138 97 141 103 140 C 104 140 108 139 111 139 C 120 138 136 129 146 120 C 162 104 162 75 147 58 C 131 42 107 35 74 37 z" fill="black"/><!-- width=170 height=228 -->
<path id="gl2079" d="M 87 30 C 83 30 80 32 76 37 C 69 44 66 44 64 36 C 61 28 59 28 44 33 C 33 36 31 37 31 40 C 30 43 31 45 36 48 C 40 50 42 51 42 54 C 43 54 43 55 44 56 C 44 66 44 76 44 87 C 43 124 43 124 36 129 C 30 132 28 135 32 138 C 34 139 81 139 85 138 C 91 136 87 130 79 130 C 70 129 65 125 64 115 C 64 113 64 102 64 89 C 64 65 64 65 69 58 C 75 48 80 46 91 51 C 101 55 106 54 109 48 C 112 42 111 36 106 33 C 102 30 91 28 87 30 z" fill="black"/><!-- width=123 height=153 -->
<path id="gl2315" d="M 33 14 C 14 24 4 38 4 67 C 4 139 115 144 129 72 C 139 24 76 -10 33 14 M 86 19 C 105 33 110 81 91 100 C 57 134 19 96 33 48 C 38 19 67 4 86 19 z" fill="black"/><!-- width=144 height=129 -->
<path id="gl2316" d="M 86 9 C 81 14 81 19 86 24 C 91 33 96 43 96 52 C 96 62 96 67 96 72 C 86 72 76 76 67 76 C 24 76 0 115 9 158 C 14 187 52 206 76 187 C 91 177 96 177 96 187 C 96 196 115 196 129 192 C 139 187 139 187 129 182 C 120 177 120 177 120 91 C 120 62 120 33 120 4 C 115 4 110 4 105 4 C 100 4 91 9 86 9 M 86 96 C 100 110 96 163 81 172 C 43 196 9 134 38 96 C 48 86 72 86 86 96 z" fill="black"/><!-- width=144 height=206 -->
<path id="gl2317" d="M 34 8 C 25 9 17 11 15 12 C 9 14 9 19 15 24 C 18 25 21 28 22 31 C 23 33 23 36 24 66 C 24 101 24 102 28 109 C 33 120 44 124 58 123 C 69 121 73 119 84 111 C 91 106 94 108 97 117 C 100 123 103 124 120 118 C 129 115 131 114 131 111 C 131 109 130 108 126 106 C 121 105 119 103 118 99 C 117 97 117 93 117 60 C 118 10 118 14 117 12 C 114 7 112 7 96 9 C 81 12 79 12 78 15 C 74 19 76 21 85 24 C 91 25 95 28 96 32 C 97 36 97 89 96 91 C 94 99 87 103 73 106 C 57 108 48 103 45 91 C 44 88 43 79 44 51 C 44 11 44 12 41 9 C 39 9 36 7 34 8 z" fill="black"/><!-- width=143 height=136 -->
<path id="gl2318" d="M 33 19 C -24 62 24 153 86 120 C 110 110 105 105 81 105 C 62 110 57 105 43 96 C 14 72 28 9 67 24 C 86 33 96 33 96 24 C 100 4 62 0 33 19 z" fill="black"/><!-- width=110 height=139 -->
<path id="gl2319" d="M 14 19 C 4 33 0 38 9 38 C 14 43 14 48 14 81 C 14 134 19 139 48 139 C 72 139 86 139 81 129 C 81 129 72 124 67 124 C 43 124 38 124 38 81 C 38 67 38 52 38 43 C 48 43 52 43 62 43 C 72 43 81 38 81 33 C 81 28 72 28 62 28 C 43 28 38 24 38 19 C 38 0 33 0 14 19 z" fill="black"/><!-- width=91 height=153 -->
<path id="gl2320" d="M 32 9 C 25 11 22 20 25 27 C 29 36 44 37 49 28 C 57 18 45 4 32 9 M 39 72 C 37 72 34 73 32 73 C 30 75 26 76 22 77 C 14 81 12 82 11 87 C 11 89 13 91 18 93 C 24 94 27 97 28 100 C 29 103 29 161 28 164 C 27 170 24 173 16 175 C 10 177 9 180 12 183 C 15 186 15 186 38 186 C 59 186 60 186 61 184 C 66 181 66 178 58 175 C 55 173 54 172 53 170 C 49 165 49 164 50 118 C 50 86 50 76 49 75 C 48 72 44 70 39 72 z" fill="black"/><!-- width=76 height=233 -->
<path id="gl2321" d="M 25 32 C 19 34 20 39 28 43 C 30 44 32 46 33 47 C 35 49 43 64 45 70 C 46 75 50 84 51 87 C 52 88 53 92 55 95 C 63 115 67 124 69 128 C 74 144 79 149 85 144 C 87 143 88 139 96 123 C 97 118 100 113 101 111 C 102 108 104 105 105 103 C 106 101 108 97 108 95 C 109 93 111 88 112 85 C 116 78 117 74 120 69 C 124 55 126 52 138 42 C 142 38 142 35 136 33 C 132 31 112 30 105 32 C 97 34 97 39 106 43 C 109 45 109 46 110 47 C 112 52 111 62 108 66 C 108 67 106 69 106 71 C 105 73 104 75 103 76 C 102 80 98 89 97 93 C 96 96 92 107 91 109 C 90 110 86 111 85 111 C 83 110 80 105 78 100 C 77 97 76 93 75 91 C 74 90 73 86 72 83 C 69 77 63 60 61 57 C 58 50 59 47 65 41 C 70 36 70 36 67 33 C 66 32 65 32 54 32 C 48 32 39 31 34 31 C 30 31 27 32 25 32 z" fill="black"/><!-- width=152 height=157 -->
<path id="gl2320" d="M 32 9 C 25 11 22 20 25 27 C 29 36 44 37 49 28 C 57 18 45 4 32 9 M 39 72 C 37 72 34 73 32 73 C 30 75 26 76 22 77 C 14 81 12 82 11 87 C 11 89 13 91 18 93 C 24 94 27 97 28 100 C 29 103 29 161 28 164 C 27 170 24 173 16 175 C 10 177 9 180 12 183 C 15 186 15 186 38 186 C 59 186 60 186 61 184 C 66 181 66 178 58 175 C 55 173 54 172 53 170 C 49 165 49 164 50 118 C 50 86 50 76 49 75 C 48 72 44 70 39 72 z" fill="black"/><!-- width=76 height=233 -->
<path id="gl2322" d="M 19 14 C 4 28 4 43 9 43 C 14 43 14 57 14 86 C 14 139 19 144 67 144 C 86 139 81 129 62 124 C 57 124 48 124 43 124 C 43 110 43 96 43 81 C 43 67 38 52 38 38 C 43 38 52 43 57 43 C 76 43 91 38 91 28 C 91 24 81 24 67 24 C 43 28 38 28 38 19 C 38 0 33 0 19 14 z" fill="black"/><!-- width=96 height=153 -->
<path id="gl2323" d="M 14 4 C 9 4 9 9 9 14 C 52 120 52 120 48 144 C 43 153 38 163 33 158 C 14 158 9 163 14 172 C 14 187 33 187 43 172 C 48 168 57 144 67 120 C 86 62 105 24 110 19 C 124 14 120 0 100 0 C 81 0 76 4 86 19 C 91 28 76 86 67 86 C 57 91 38 33 43 19 C 43 4 33 0 14 4 z" fill="black"/><!-- width=129 height=196 -->
<path id="gl2314" d="M 74 37 C 69 37 42 38 34 38 C 30 37 24 40 24 42 C 22 45 25 48 30 49 C 39 50 45 56 46 64 C 48 75 49 79 49 123 C 48 181 48 188 45 194 C 44 196 42 199 41 200 C 39 202 31 206 29 206 C 23 206 20 211 24 216 C 26 217 26 217 49 216 C 58 216 67 216 76 216 C 103 217 108 216 103 210 C 102 208 99 207 94 206 C 87 205 79 201 76 197 C 73 191 73 195 73 121 C 73 42 72 49 80 48 C 87 46 105 53 114 60 C 124 67 130 79 130 93 C 130 105 128 110 121 118 C 116 123 111 127 105 129 C 100 130 96 133 94 135 C 92 138 97 141 103 140 C 104 140 108 139 111 139 C 120 138 136 129 146 120 C 162 104 162 75 147 58 C 131 42 107 35 74 37 z" fill="black"/><!-- width=170 height=228 -->
<path id="gl2324" d="M 57 14 C 43 24 38 24 38 14 C 38 4 28 4 14 14 C 9 14 9 19 9 28 C 19 43 19 105 9 115 C 0 120 0 120 28 120 C 57 120 72 115 52 110 C 43 110 38 105 38 76 C 38 33 52 14 67 33 C 72 38 76 38 81 33 C 100 14 76 0 57 14 z" fill="black"/><!-- width=96 height=134 -->
<path id="gl2325" d="M 76 13 C 63 15 55 19 45 28 C 30 44 25 73 33 96 C 43 123 69 136 95 127 C 111 121 126 105 121 100 C 119 99 116 99 114 100 C 113 101 110 103 107 105 C 88 118 64 112 55 93 C 48 79 46 64 50 59 C 54 54 57 54 67 55 C 79 56 120 56 122 54 C 127 51 126 44 117 31 C 108 18 93 11 76 13 M 82 24 C 92 26 100 36 97 42 C 95 46 93 47 82 46 C 76 46 69 47 67 47 C 54 48 51 40 60 31 C 66 24 73 21 82 24 z" fill="black"/><!-- width=138 height=144 -->
<path id="gl2326" d="M 42 10 C 21 14 9 34 18 52 C 22 61 26 64 46 74 C 64 83 69 87 69 96 C 69 106 61 113 49 113 C 39 113 33 109 27 100 C 23 95 21 93 19 93 C 14 93 13 97 14 108 C 15 122 16 124 27 123 C 31 123 33 123 39 123 C 54 126 66 124 76 117 C 89 106 92 86 81 72 C 76 66 74 65 53 55 C 45 51 40 48 39 46 C 27 36 34 19 52 20 C 60 20 64 23 70 32 C 74 37 75 39 78 38 C 82 38 82 36 82 27 C 82 16 80 13 72 10 C 67 9 48 9 42 10 z" fill="black"/><!-- width=102 height=137 -->
<path id="gl2326" d="M 42 10 C 21 14 9 34 18 52 C 22 61 26 64 46 74 C 64 83 69 87 69 96 C 69 106 61 113 49 113 C 39 113 33 109 27 100 C 23 95 21 93 19 93 C 14 93 13 97 14 108 C 15 122 16 124 27 123 C 31 123 33 123 39 123 C 54 126 66 124 76 117 C 89 106 92 86 81 72 C 76 66 74 65 53 55 C 45 51 40 48 39 46 C 27 36 34 19 52 20 C 60 20 64 23 70 32 C 74 37 75 39 78 38 C 82 38 82 36 82 27 C 82 16 80 13 72 10 C 67 9 48 9 42 10 z" fill="black"/><!-- width=102 height=137 -->
<path id="gl2327" d="M 0 14 C 0 14 4 19 9 19 C 19 19 24 28 24 81 C 28 129 28 129 14 144 C 0 163 0 163 33 163 C 72 163 76 158 57 148 C 48 144 48 139 48 76 C 48 9 48 9 76 24 C 96 38 96 72 72 81 C 62 86 62 96 72 96 C 115 96 129 33 91 14 C 72 4 0 4 0 14 z" fill="black"/><!-- width=124 height=168 -->
<path id="gl517" d="M 55 10 C 29 17 14 37 14 65 C 14 93 37 117 66 117 C 97 117 120 96 120 65 C 120 40 106 20 84 12 C 78 10 78 10 67 10 C 61 10 55 10 55 10 M 70 21 C 84 25 94 36 98 55 C 105 84 91 108 68 106 C 38 105 22 52 45 29 C 52 22 61 19 70 21 z" fill="black"/><!-- width=134 height=128 -->
<path id="gl258" d="M 78 29 C 76 30 73 33 70 35 C 66 39 66 39 64 39 C 61 38 61 37 60 34 C 57 27 54 27 40 31 C 33 34 31 34 30 37 C 28 40 30 42 34 45 C 37 47 39 48 40 51 C 40 51 41 52 42 54 C 42 63 42 72 42 81 C 41 115 41 115 34 120 C 30 123 29 124 31 127 C 32 129 34 130 55 130 C 80 130 81 129 81 126 C 81 123 79 122 74 121 C 68 120 66 120 64 117 C 60 113 60 111 60 86 C 60 62 60 62 63 56 C 68 46 74 43 85 48 C 91 51 94 51 98 49 C 102 46 104 38 101 34 C 98 28 84 25 78 29 z" fill="black"/><!-- width=115 height=144 -->
<path id="gl6" d="M 43 15 C 42 15 40 18 39 20 C 37 26 34 30 30 35 C 23 42 22 44 28 48 C 33 52 33 52 33 82 C 33 112 33 119 35 124 C 40 135 53 141 65 138 C 79 134 88 120 80 117 C 79 117 77 117 71 121 C 66 124 60 123 55 119 C 51 115 51 114 51 84 C 51 54 51 52 53 49 C 55 48 55 48 71 48 C 79 48 80 48 82 45 C 84 42 84 40 83 37 C 81 33 77 33 67 34 C 55 36 53 34 52 23 C 52 16 51 14 49 13 C 47 12 45 12 43 15 z" fill="black"/><!-- width=96 height=153 -->
<path id="gl2328" d="M 26 11 C 16 15 13 16 12 18 C 11 22 13 24 18 26 C 22 27 24 28 25 31 C 27 34 27 149 25 154 C 24 158 20 162 16 163 C 12 165 11 166 11 168 C 11 172 13 172 34 172 C 55 172 56 172 56 168 C 57 166 56 166 52 163 C 51 163 49 161 48 160 C 45 156 45 157 45 82 C 45 33 45 13 45 12 C 42 7 38 7 26 11 z" fill="black"/><!-- width=70 height=186 -->
<path id="gl2329" d="M 39 8 C 31 10 17 21 12 28 C 8 34 12 42 18 40 C 24 39 26 36 29 30 C 34 20 38 17 46 19 C 55 22 59 29 60 43 C 60 55 57 59 47 62 C 45 63 39 64 36 64 C 18 69 10 76 10 88 C 9 109 30 118 51 105 C 56 101 58 101 63 106 C 70 112 75 112 85 108 C 91 105 93 102 93 99 C 92 96 91 96 87 94 C 77 93 78 94 77 58 C 77 28 77 28 76 24 C 71 12 54 4 39 8 M 55 67 C 61 70 61 83 57 90 C 54 97 42 100 35 97 C 30 94 27 89 29 83 C 30 78 35 75 48 68 C 52 66 53 66 55 67 z" fill="black"/><!-- width=105 height=133 -->
<path id="gl2330" d="M 28 17 C 18 21 15 22 15 27 C 15 29 16 30 21 33 C 24 35 26 38 27 41 C 28 44 27 94 27 97 C 25 100 24 103 20 106 C 15 110 14 113 19 115 C 21 117 51 117 55 115 C 60 114 60 110 54 106 C 47 102 47 101 46 80 C 46 42 46 43 52 37 C 61 28 84 27 90 34 C 95 40 96 45 95 72 C 94 99 94 100 86 105 C 80 109 79 112 82 115 C 82 115 83 115 84 116 C 90 116 96 116 103 116 C 121 116 122 116 124 115 C 127 112 127 109 121 106 C 114 103 113 101 114 87 C 115 48 115 43 112 33 C 106 14 87 9 67 21 C 64 22 61 24 61 25 C 58 27 55 28 52 28 C 49 27 49 27 46 20 C 43 13 40 13 28 17 z" fill="black"/><!-- width=137 height=131 -->
<path id="gl2331" d="M 90 5 C 89 5 87 6 85 7 C 77 11 76 12 80 20 C 84 27 84 30 85 43 C 85 55 85 57 82 60 C 80 61 80 61 75 61 C 60 60 58 60 53 61 C 43 63 40 64 29 71 C 24 75 19 81 16 88 C 1 117 12 154 39 163 C 51 167 60 165 72 157 C 79 153 82 153 85 158 C 87 163 91 165 97 165 C 102 163 110 161 112 160 C 112 159 114 158 114 158 C 115 158 117 156 116 154 C 116 153 115 152 113 151 C 105 144 105 146 105 107 C 105 90 104 75 104 73 C 104 72 104 62 104 52 C 106 7 106 6 98 4 C 94 4 93 4 90 5 M 68 73 C 75 75 80 79 83 85 C 85 89 85 98 85 117 C 85 133 85 134 84 137 C 80 144 73 148 63 149 C 50 150 37 142 32 128 C 27 114 30 91 39 79 C 45 72 57 69 68 73 z" fill="black"/><!-- width=139 height=201 -->
<path id="gl2332" d="M 9 4 C 4 14 9 19 19 24 C 33 28 33 38 24 52 C 19 57 14 62 19 62 C 24 72 48 38 43 28 C 38 4 19 0 9 4 z" fill="black"/><!-- width=52 height=72 -->
<path id="gl2333" d="M 72 4 C 33 14 14 38 14 76 C 9 139 57 177 115 163 C 211 129 172 -15 72 4 M 120 28 C 148 57 153 110 124 139 C 86 172 33 139 33 76 C 33 24 81 0 120 28 z" fill="black"/><!-- width=182 height=172 -->
<path id="gl258" d="M 78 29 C 76 30 73 33 70 35 C 66 39 66 39 64 39 C 61 38 61 37 60 34 C 57 27 54 27 40 31 C 33 34 31 34 30 37 C 28 40 30 42 34 45 C 37 47 39 48 40 51 C 40 51 41 52 42 54 C 42 63 42 72 42 81 C 41 115 41 115 34 120 C 30 123 29 124 31 127 C 32 129 34 130 55 130 C 80 130 81 129 81 126 C 81 123 79 122 74 121 C 68 120 66 120 64 117 C 60 113 60 111 60 86 C 60 62 60 62 63 56 C 68 46 74 43 85 48 C 91 51 94 51 98 49 C 102 46 104 38 101 34 C 98 28 84 25 78 29 z" fill="black"/><!-- width=115 height=144 -->
<path id="gl2334" d="M 66 15 C 39 21 23 49 29 81 C 34 112 63 129 90 117 C 94 115 101 111 106 106 C 112 100 114 97 111 94 C 109 92 106 93 100 97 C 77 112 52 101 46 73 C 43 57 48 49 63 52 C 69 53 106 54 110 52 C 115 51 117 46 112 38 C 107 26 99 19 90 16 C 84 14 71 13 66 15 M 79 25 C 87 29 91 37 88 42 C 86 45 85 45 70 45 C 57 45 57 45 55 44 C 51 42 51 37 54 32 C 60 24 70 21 79 25 z" fill="black"/><!-- width=129 height=135 -->
<path id="gl2335" d="M 61 15 C 43 18 29 30 26 45 C 24 57 26 66 34 75 C 40 82 40 84 36 88 C 30 93 28 94 27 97 C 24 102 26 107 33 113 C 41 120 40 121 31 130 C 22 139 20 146 22 154 C 27 169 47 177 74 174 C 108 170 132 150 128 126 C 126 116 119 109 107 106 C 102 105 85 104 74 104 C 63 105 54 103 51 102 C 45 99 44 93 49 90 C 53 87 58 87 70 86 C 87 85 93 83 100 76 C 106 69 109 61 109 50 C 109 40 110 40 119 39 C 127 38 130 36 130 30 C 130 27 129 24 125 23 C 122 22 121 22 112 23 C 104 25 100 24 91 20 C 80 16 69 14 61 15 M 75 27 C 84 32 89 41 89 52 C 89 75 70 88 56 75 C 44 63 42 43 52 31 C 59 25 67 23 75 27 M 81 121 C 96 122 99 123 103 124 C 110 128 112 135 108 143 C 96 169 36 165 41 139 C 43 127 52 120 64 120 C 67 120 75 121 81 121 z" fill="black"/><!-- width=142 height=187 -->
<path id="gl4" d="M 60 12 C 31 15 12 39 14 70 C 15 93 28 110 51 118 C 57 120 75 120 83 118 C 102 113 114 99 119 79 C 120 74 120 61 119 54 C 114 27 88 9 60 12 M 70 24 C 82 27 92 37 97 52 C 103 70 99 90 89 101 C 79 111 66 112 54 104 C 34 90 27 52 42 34 C 49 25 60 21 70 24 z" fill="black"/><!-- width=135 height=133 -->
<path id="gl1536" d="M 38 15 C 34 15 22 20 19 22 C 15 25 16 28 22 32 C 25 34 27 36 28 37 C 28 38 29 39 30 40 C 30 49 30 58 30 68 C 30 78 30 87 30 96 C 29 97 28 98 28 99 C 27 101 25 103 24 104 C 18 109 17 109 17 111 C 17 112 19 115 22 115 C 24 117 54 117 57 115 C 62 114 63 111 58 107 C 49 100 49 102 49 70 C 49 42 49 43 53 38 C 60 31 76 27 85 30 C 90 31 95 36 96 40 C 98 46 98 89 96 96 C 94 100 92 103 88 105 C 82 108 81 111 84 114 C 85 116 87 116 106 116 C 123 116 126 116 128 114 C 131 111 129 108 124 106 C 116 103 115 101 116 82 C 117 48 117 37 112 28 C 105 12 85 9 67 22 C 60 27 58 27 55 27 C 52 27 51 26 49 22 C 48 18 46 16 44 15 C 42 13 42 13 38 15 z" fill="black"/><!-- width=142 height=130 -->
</defs>
<use xlink:href="#gl2314" x="0" y="0"/>
<use xlink:href="#gl2079" x="146" y="74"/>
<use xlink:href="#gl2315" x="267" y="96"/>
<use xlink:href="#gl2316" x="411" y="24"/>
<use xlink:href="#gl2317" x="551" y="95"/>
<use xlink:href="#gl2318" x="699" y="91"/>
<use xlink:href="#gl2319" x="814" y="77"/>
<use xlink:href="#gl2320" x="889" y="29"/>
<use xlink:href="#gl2321" x="940" y="70"/>
<use xlink:href="#gl2320" x="1075" y="29"/>
<use xlink:href="#gl2322" x="1155" y="77"/>
<use xlink:href="#gl2323" x="1236" y="96"/>
<use xlink:href="#gl2314" x="1418" y="2"/>
<use xlink:href="#gl2324" x="1587" y="96"/>
<use xlink:href="#gl2325" x="1660" y="90"/>
<use xlink:href="#gl2326" x="1792" y="93"/>
<use xlink:href="#gl2326" x="1885" y="94"/>
<use xlink:href="#gl2327" x="176" y="341"/>
<use xlink:href="#gl517" x="291" y="385"/>
<use xlink:href="#gl258" x="398" y="371"/>
<use xlink:href="#gl6" x="492" y="366"/>
<use xlink:href="#gl2328" x="572" y="333"/>
<use xlink:href="#gl2329" x="635" y="390"/>
<use xlink:href="#gl2330" x="725" y="384"/>
<use xlink:href="#gl2331" x="853" y="339"/>
<use xlink:href="#gl2332" x="987" y="475"/>
<use xlink:href="#gl2333" x="1102" y="341"/>
<use xlink:href="#gl258" x="1261" y="373"/>
<use xlink:href="#gl2334" x="1344" y="383"/>
<use xlink:href="#gl2335" x="1450" y="381"/>
<use xlink:href="#gl4" x="1578" y="385"/>
<use xlink:href="#gl1536" x="1694" y="386"/>
</svg>
