<?xml version='1.0' encoding='utf-8'?>
<svg xmlns="http://www.w3.org/2000/svg" xmlns:xlink="http://www.w3.org/1999/xlink" width="462px" height="41px" viewBox="0 0 4629 412" version="1.1">
<defs>
<path id="gl26626" d="M 33 37 C 27 39 27 39 28 78 C 28 98 28 114 28 123 C 27 146 27 150 28 154 C 30 157 31 159 36 159 C 40 159 42 157 43 153 C 44 153 45 151 45 150 C 45 145 45 139 44 133 C 43 115 43 114 47 111 C 48 110 48 109 49 109 C 52 109 55 109 58 109 C 78 109 87 103 93 87 C 96 80 96 78 96 69 C 94 58 91 53 85 46 C 81 42 73 38 66 37 C 59 37 36 37 33 37 M 67 54 C 82 60 82 85 67 92 C 62 95 52 96 49 93 C 44 90 44 90 44 74 C 44 58 45 56 48 54 C 51 52 62 52 67 54 z" fill="black"/><!-- width=108 height=170 -->
<path id="gl26627" d="M 25 22 C 22 23 19 25 18 28 C 18 30 18 39 18 60 C 18 78 18 97 18 112 C 17 139 17 139 21 142 C 25 144 32 143 34 139 C 35 136 35 123 34 109 C 33 91 36 88 52 90 C 60 91 63 93 66 98 C 67 99 67 101 68 102 C 68 107 68 112 69 117 C 69 135 70 138 74 141 C 78 144 85 143 87 139 C 88 137 88 129 87 124 C 86 122 85 117 85 112 C 84 101 84 97 79 91 C 75 84 75 82 80 73 C 84 66 85 60 85 52 C 84 36 77 27 63 24 C 57 22 28 21 25 22 M 56 38 C 65 41 70 51 68 61 C 65 73 59 78 46 77 C 35 76 34 75 34 58 C 34 44 34 42 37 39 C 40 37 49 36 56 38 z" fill="black"/><!-- width=100 height=155 -->
<path id="gl26114" d="M 45 14 C 29 18 20 30 16 50 C 14 59 14 92 16 102 C 21 127 33 139 55 139 C 77 139 89 126 93 97 C 95 89 94 55 93 49 C 88 30 81 20 67 15 C 63 13 49 13 45 14 M 62 31 C 69 34 73 40 75 51 C 78 62 78 90 75 100 C 73 113 70 118 63 121 C 52 126 42 122 36 111 C 31 100 30 72 33 54 C 36 40 39 35 45 31 C 51 28 57 28 62 31 z" fill="black"/><!-- width=109 height=154 -->
<path id="gl26628" d="M 27 13 C 24 15 23 16 22 18 C 21 22 21 124 22 127 C 24 133 24 133 42 133 C 69 133 76 130 85 118 C 92 108 96 94 96 73 C 96 33 85 15 58 13 C 48 12 28 12 27 13 M 60 29 C 73 32 78 43 79 69 C 80 101 71 117 52 117 C 44 118 41 117 39 113 C 39 112 38 111 37 111 C 37 97 37 85 37 72 C 37 30 37 32 42 29 C 44 28 54 28 60 29 z" fill="black"/><!-- width=111 height=147 -->
<path id="gl26629" d="M 14 9 C 9 9 9 38 14 67 C 14 120 14 120 28 124 C 48 134 67 129 72 115 C 81 91 81 9 72 9 C 62 9 62 9 62 48 C 67 100 62 115 43 110 C 38 110 33 110 28 110 C 28 96 28 76 28 62 C 24 9 24 0 14 9 z" fill="black"/><!-- width=91 height=139 -->
<path id="gl26630" d="M 54 8 C 39 10 28 21 23 39 C 19 52 18 83 21 94 C 24 113 27 118 34 126 C 43 135 63 138 73 132 C 73 132 75 131 76 130 C 83 128 91 116 93 105 C 94 97 94 95 93 93 C 88 88 78 90 76 98 C 73 113 69 118 58 119 C 50 120 43 114 40 105 C 36 90 36 48 40 36 C 43 28 48 25 54 24 C 60 22 62 22 66 25 C 72 27 74 30 76 38 C 79 48 82 51 88 49 C 91 49 91 48 94 45 C 98 37 90 18 80 13 C 71 8 63 7 54 8 z" fill="black"/><!-- width=105 height=144 -->
<path id="gl26631" d="M 18 46 C 12 48 10 53 12 58 C 14 63 15 63 25 63 C 36 63 37 63 40 67 C 41 69 41 69 40 116 C 39 162 39 161 40 163 C 44 170 54 171 57 164 C 58 161 58 139 57 91 C 57 72 57 70 57 67 C 59 63 61 62 69 63 C 84 64 88 61 87 54 C 87 48 82 45 71 46 C 63 46 34 46 25 46 C 22 46 19 46 18 46 z" fill="black"/><!-- width=98 height=180 -->
<path id="gl24839" d="M 18 14 C 15 18 15 19 16 31 C 17 43 17 112 16 124 C 15 132 15 132 16 135 C 21 142 31 141 34 133 C 34 132 34 129 34 120 C 33 112 33 94 33 63 C 33 48 33 33 33 18 C 33 17 32 16 32 15 C 29 11 22 10 18 14 z" fill="black"/><!-- width=50 height=153 -->
<path id="gl26632" d="M 67 9 C 62 9 57 28 57 43 C 48 91 48 96 43 96 C 38 96 33 72 28 52 C 24 14 19 9 9 9 C 4 9 0 9 4 19 C 4 24 14 48 19 72 C 33 153 43 148 67 67 C 81 14 81 -5 67 9 z" fill="black"/><!-- width=91 height=139 -->
<path id="gl24839" d="M 18 14 C 15 18 15 19 16 31 C 17 43 17 112 16 124 C 15 132 15 132 16 135 C 21 142 31 141 34 133 C 34 132 34 129 34 120 C 33 112 33 94 33 63 C 33 48 33 33 33 18 C 33 17 32 16 32 15 C 29 11 22 10 18 14 z" fill="black"/><!-- width=50 height=153 -->
<path id="gl26631" d="M 18 46 C 12 48 10 53 12 58 C 14 63 15 63 25 63 C 36 63 37 63 40 67 C 41 69 41 69 40 116 C 39 162 39 161 40 163 C 44 170 54 171 57 164 C 58 161 58 139 57 91 C 57 72 57 70 57 67 C 59 63 61 62 69 63 C 84 64 88 61 87 54 C 87 48 82 45 71 46 C 63 46 34 46 25 46 C 22 46 19 46 18 46 z" fill="black"/><!-- width=98 height=180 -->
<path id="gl26633" d="M 9 9 C 9 14 14 33 19 48 C 28 67 33 81 33 100 C 33 124 33 124 43 124 C 48 124 48 124 48 100 C 48 86 57 67 62 43 C 72 24 76 9 76 4 C 67 0 62 4 52 33 C 43 57 33 57 28 28 C 24 4 9 -5 9 9 z" fill="black"/><!-- width=86 height=139 -->
<path id="gl26634" d="M 12 16 C 8 19 8 27 12 33 C 15 38 15 41 10 48 C 9 50 9 51 10 52 C 12 57 16 57 19 53 C 23 49 26 30 24 21 C 24 16 16 13 12 16 z" fill="black"/><!-- width=34 height=68 -->
<path id="gl24839" d="M 18 14 C 15 18 15 19 16 31 C 17 43 17 112 16 124 C 15 132 15 132 16 135 C 21 142 31 141 34 133 C 34 132 34 129 34 120 C 33 112 33 94 33 63 C 33 48 33 33 33 18 C 33 17 32 16 32 15 C 29 11 22 10 18 14 z" fill="black"/><!-- width=50 height=153 -->
<path id="gl26635" d="M 20 11 C 13 13 13 16 13 30 C 15 39 14 58 13 71 C 12 88 12 124 13 127 C 15 133 25 135 28 129 C 30 126 30 122 30 107 C 29 99 28 87 28 79 C 27 61 28 57 30 54 C 34 51 37 55 42 72 C 44 77 48 87 50 92 C 52 97 56 108 58 114 C 63 129 65 132 73 132 C 83 132 85 127 84 116 C 84 111 84 89 85 37 C 85 19 85 18 84 16 C 80 8 69 10 68 18 C 67 20 68 28 68 37 C 69 63 70 84 69 87 C 68 90 66 91 64 91 C 61 90 59 85 52 68 C 49 59 46 51 45 48 C 42 41 40 34 38 28 C 34 14 33 12 25 11 C 23 11 21 11 20 11 z" fill="black"/><!-- width=98 height=145 -->
<path id="gl26630" d="M 54 8 C 39 10 28 21 23 39 C 19 52 18 83 21 94 C 24 113 27 118 34 126 C 43 135 63 138 73 132 C 73 132 75 131 76 130 C 83 128 91 116 93 105 C 94 97 94 95 93 93 C 88 88 78 90 76 98 C 73 113 69 118 58 119 C 50 120 43 114 40 105 C 36 90 36 48 40 36 C 43 28 48 25 54 24 C 60 22 62 22 66 25 C 72 27 74 30 76 38 C 79 48 82 51 88 49 C 91 49 91 48 94 45 C 98 37 90 18 80 13 C 71 8 63 7 54 8 z" fill="black"/><!-- width=105 height=144 -->
<path id="gl2844" d="M 19 14 C 15 16 12 21 13 26 C 15 33 28 35 32 28 C 37 20 28 10 19 14 z" fill="black"/><!-- width=47 height=46 -->
<path id="gl25116" d="M 17 15 C 13 18 12 27 15 33 C 18 38 18 41 16 45 C 13 50 13 51 14 54 C 15 58 22 58 25 53 C 28 46 30 24 27 19 C 25 15 24 14 21 14 C 19 14 18 15 17 15 z" fill="black"/><!-- width=42 height=69 -->
<path id="gl26628" d="M 27 13 C 24 15 23 16 22 18 C 21 22 21 124 22 127 C 24 133 24 133 42 133 C 69 133 76 130 85 118 C 92 108 96 94 96 73 C 96 33 85 15 58 13 C 48 12 28 12 27 13 M 60 29 C 73 32 78 43 79 69 C 80 101 71 117 52 117 C 44 118 41 117 39 113 C 39 112 38 111 37 111 C 37 97 37 85 37 72 C 37 30 37 32 42 29 C 44 28 54 28 60 29 z" fill="black"/><!-- width=111 height=147 -->
<path id="gl26636" d="M 69 12 C 64 12 58 12 51 12 C 30 12 28 12 27 21 C 27 23 27 36 27 48 C 27 75 27 73 27 100 C 26 130 27 132 34 133 C 36 134 39 134 43 133 C 47 133 54 133 66 134 C 84 135 84 135 86 133 C 91 130 90 120 83 117 C 81 116 73 117 62 118 C 50 120 46 118 43 114 C 42 110 42 85 43 83 C 46 79 49 79 57 80 C 76 82 83 82 85 78 C 87 73 87 70 84 67 C 80 63 79 63 61 66 C 50 67 46 66 43 61 C 42 60 42 58 42 48 C 42 34 43 31 46 29 C 49 28 61 28 72 29 C 80 30 82 30 86 27 C 89 25 90 18 87 15 C 84 11 81 10 69 12 z" fill="black"/><!-- width=99 height=147 -->
<path id="gl26637" d="M 32 37 C 28 40 28 37 28 82 C 28 104 27 129 27 136 C 26 154 27 156 31 158 C 37 160 42 159 44 155 C 46 152 46 148 45 136 C 42 110 43 108 58 109 C 83 109 94 97 94 72 C 94 57 93 53 87 48 C 77 39 73 37 51 37 C 34 36 34 36 32 37 M 67 54 C 79 60 82 78 72 88 C 67 94 51 96 47 93 C 44 90 43 88 43 73 C 44 53 45 52 57 52 C 63 52 64 53 67 54 z" fill="black"/><!-- width=107 height=171 -->
<path id="gl26631" d="M 18 46 C 12 48 10 53 12 58 C 14 63 15 63 25 63 C 36 63 37 63 40 67 C 41 69 41 69 40 116 C 39 162 39 161 40 163 C 44 170 54 171 57 164 C 58 161 58 139 57 91 C 57 72 57 70 57 67 C 59 63 61 62 69 63 C 84 64 88 61 87 54 C 87 48 82 45 71 46 C 63 46 34 46 25 46 C 22 46 19 46 18 46 z" fill="black"/><!-- width=98 height=180 -->
<path id="gl2844" d="M 19 14 C 15 16 12 21 13 26 C 15 33 28 35 32 28 C 37 20 28 10 19 14 z" fill="black"/><!-- width=47 height=46 -->
<path id="gl26638" d="M 9 67 C 9 86 9 105 9 124 C 14 124 24 124 33 124 C 67 124 86 100 67 72 C 62 67 62 62 67 52 C 81 28 67 9 33 9 C 24 9 14 9 9 4 C 9 28 9 48 9 67 M 52 33 C 57 48 48 62 28 62 C 24 62 24 57 24 38 C 24 24 24 19 33 19 C 48 19 52 24 52 33 M 48 76 C 62 91 62 96 52 105 C 38 115 24 115 24 96 C 19 67 33 62 48 76 z" fill="black"/><!-- width=86 height=139 -->
<path id="gl26639" d="M 85 11 C 82 12 80 13 78 17 C 70 29 66 36 63 41 C 55 56 52 58 48 58 C 43 58 42 54 43 41 C 44 30 45 18 44 16 C 42 12 37 9 33 12 C 27 14 27 18 28 37 C 29 55 28 78 28 99 C 27 115 27 126 28 128 C 30 132 35 133 40 131 C 45 129 45 125 44 108 C 42 88 46 79 54 79 C 58 79 61 84 69 100 C 70 104 73 110 75 114 C 77 117 79 121 79 123 C 83 132 93 135 98 129 C 101 126 100 121 93 111 C 91 109 90 105 88 103 C 87 100 85 97 83 94 C 66 66 66 67 66 63 C 66 60 68 57 73 51 C 79 43 95 22 96 20 C 98 13 93 8 85 11 z" fill="black"/><!-- width=111 height=144 -->
<path id="gl25116" d="M 17 15 C 13 18 12 27 15 33 C 18 38 18 41 16 45 C 13 50 13 51 14 54 C 15 58 22 58 25 53 C 28 46 30 24 27 19 C 25 15 24 14 21 14 C 19 14 18 15 17 15 z" fill="black"/><!-- width=42 height=69 -->
<path id="gl26637" d="M 32 37 C 28 40 28 37 28 82 C 28 104 27 129 27 136 C 26 154 27 156 31 158 C 37 160 42 159 44 155 C 46 152 46 148 45 136 C 42 110 43 108 58 109 C 83 109 94 97 94 72 C 94 57 93 53 87 48 C 77 39 73 37 51 37 C 34 36 34 36 32 37 M 67 54 C 79 60 82 78 72 88 C 67 94 51 96 47 93 C 44 90 43 88 43 73 C 44 53 45 52 57 52 C 63 52 64 53 67 54 z" fill="black"/><!-- width=107 height=171 -->
<path id="gl2844" d="M 19 14 C 15 16 12 21 13 26 C 15 33 28 35 32 28 C 37 20 28 10 19 14 z" fill="black"/><!-- width=47 height=46 -->
<path id="gl26640" d="M 46 12 C 30 16 22 24 16 40 C 13 52 12 87 15 102 C 19 127 32 139 54 139 C 73 139 85 127 90 102 C 92 91 92 61 90 49 C 87 33 80 22 72 17 C 65 13 52 10 46 12 M 60 30 C 70 34 75 48 75 76 C 75 110 69 123 52 123 C 40 123 35 116 31 99 C 27 78 30 45 37 36 C 43 28 51 25 60 30 z" fill="black"/><!-- width=105 height=152 -->
<path id="gl2844" d="M 19 14 C 15 16 12 21 13 26 C 15 33 28 35 32 28 C 37 20 28 10 19 14 z" fill="black"/><!-- width=47 height=46 -->
<path id="gl26641" d="M 24 13 C 20 16 20 13 19 66 C 19 131 19 125 21 127 C 23 132 25 132 45 132 C 67 131 72 130 80 122 C 86 115 88 111 89 99 C 90 91 87 83 81 77 C 76 70 75 67 79 63 C 85 55 86 52 87 43 C 87 28 79 18 65 14 C 58 12 27 12 24 13 M 55 28 C 72 30 76 55 61 62 C 52 66 42 66 38 62 C 36 60 35 57 35 46 C 35 28 39 25 55 28 M 52 76 C 63 78 70 84 72 94 C 74 109 63 118 45 117 C 37 116 36 113 35 94 C 35 76 37 73 52 76 z" fill="black"/><!-- width=103 height=145 -->
<path id="gl26114" d="M 45 14 C 29 18 20 30 16 50 C 14 59 14 92 16 102 C 21 127 33 139 55 139 C 77 139 89 126 93 97 C 95 89 94 55 93 49 C 88 30 81 20 67 15 C 63 13 49 13 45 14 M 62 31 C 69 34 73 40 75 51 C 78 62 78 90 75 100 C 73 113 70 118 63 121 C 52 126 42 122 36 111 C 31 100 30 72 33 54 C 36 40 39 35 45 31 C 51 28 57 28 62 31 z" fill="black"/><!-- width=109 height=154 -->
<path id="gl26642" d="M 69 13 C 64 15 63 18 57 33 C 52 47 50 49 46 49 C 42 49 40 47 33 29 C 28 14 27 13 18 13 C 7 14 8 18 30 56 C 36 67 37 73 35 78 C 33 81 30 87 30 88 C 29 88 27 93 24 98 C 15 114 14 116 12 119 C 8 126 8 128 12 132 C 18 137 25 133 29 123 C 34 111 40 97 42 95 C 43 93 43 93 46 93 C 49 93 52 96 56 108 C 59 116 65 129 67 130 C 72 136 78 135 82 130 C 84 127 82 124 77 115 C 75 111 72 106 71 104 C 69 99 65 93 63 89 C 53 74 53 71 61 57 C 63 55 66 49 68 45 C 70 40 74 34 75 31 C 79 25 80 22 80 18 C 80 13 75 10 69 13 z" fill="black"/><!-- width=92 height=146 -->
<path id="gl26643" d="M 34 24 C 33 25 31 28 30 30 C 27 37 24 39 15 40 C 8 41 6 43 6 48 C 6 52 7 54 16 54 C 28 54 29 56 28 74 C 28 80 27 90 28 97 C 28 103 27 114 27 120 C 27 124 27 128 27 132 C 27 133 28 134 28 135 C 32 141 39 142 42 136 C 44 133 44 139 44 83 C 43 63 44 42 44 37 C 44 33 44 30 45 27 C 44 26 43 25 42 24 C 40 21 37 21 34 24 z" fill="black"/><!-- width=67 height=152 -->
<path id="gl26644" d="M 14 14 C 9 24 4 48 9 48 C 14 48 19 38 24 33 C 28 24 38 19 43 24 C 52 28 52 52 38 57 C 24 62 24 72 38 72 C 52 72 57 105 43 115 C 33 120 28 120 24 105 C 19 91 9 91 9 105 C 9 115 24 129 38 129 C 52 129 72 110 67 91 C 67 81 62 67 62 48 C 67 9 38 -5 14 14 z" fill="black"/><!-- width=81 height=139 -->
<path id="gl26645" d="M 27 9 C 23 10 15 15 12 18 C 10 20 9 22 7 28 C 5 36 5 37 7 41 C 10 48 19 45 21 37 C 24 27 30 22 36 22 C 45 22 50 29 50 40 C 50 52 46 58 34 60 C 29 61 28 62 27 65 C 27 67 27 68 27 70 C 28 73 29 73 40 75 C 45 76 48 79 50 83 C 52 88 52 98 51 104 C 48 114 34 118 27 112 C 25 109 24 108 22 102 C 19 94 16 91 12 91 C 6 91 3 99 7 109 C 12 120 18 126 29 129 C 34 130 47 129 50 127 C 57 124 64 115 66 107 C 69 99 69 88 66 81 C 64 78 63 75 62 74 C 56 68 55 65 60 58 C 67 45 68 37 61 23 C 56 12 51 9 37 9 C 33 9 28 9 27 9 z" fill="black"/><!-- width=82 height=139 -->
<path id="gl26646" d="M 30 15 C 16 21 9 34 9 54 C 9 72 13 82 24 88 C 33 93 39 94 49 89 C 55 86 58 85 60 88 C 61 90 62 93 61 99 C 58 114 47 123 36 119 C 33 118 31 116 27 111 C 19 99 7 105 13 118 C 19 130 25 134 39 134 C 60 135 69 126 75 102 C 75 99 76 94 76 93 C 78 88 78 69 77 57 C 77 51 72 35 70 30 C 66 23 61 18 54 15 C 49 13 35 13 30 15 M 48 28 C 55 32 60 42 60 57 C 60 66 58 70 54 74 C 46 82 33 79 27 69 C 24 63 24 48 27 40 C 30 30 40 25 48 28 z" fill="black"/><!-- width=93 height=147 -->
<path id="gl26647" d="M 40 11 C 31 13 22 22 18 33 C 14 45 13 54 14 77 C 14 95 14 95 16 103 C 21 124 31 133 51 132 C 65 132 73 124 78 109 C 83 94 84 61 81 44 C 77 30 76 28 74 25 C 67 13 55 9 40 11 M 53 26 C 64 30 67 42 66 76 C 66 100 63 111 57 115 C 48 121 37 117 33 107 C 29 94 28 56 33 38 C 36 28 45 22 53 26 z" fill="black"/><!-- width=96 height=145 -->
<path id="gl26634" d="M 12 16 C 8 19 8 27 12 33 C 15 38 15 41 10 48 C 9 50 9 51 10 52 C 12 57 16 57 19 53 C 23 49 26 30 24 21 C 24 16 16 13 12 16 z" fill="black"/><!-- width=34 height=68 -->
<path id="gl26626" d="M 33 37 C 27 39 27 39 28 78 C 28 98 28 114 28 123 C 27 146 27 150 28 154 C 30 157 31 159 36 159 C 40 159 42 157 43 153 C 44 153 45 151 45 150 C 45 145 45 139 44 133 C 43 115 43 114 47 111 C 48 110 48 109 49 109 C 52 109 55 109 58 109 C 78 109 87 103 93 87 C 96 80 96 78 96 69 C 94 58 91 53 85 46 C 81 42 73 38 66 37 C 59 37 36 37 33 37 M 67 54 C 82 60 82 85 67 92 C 62 95 52 96 49 93 C 44 90 44 90 44 74 C 44 58 45 56 48 54 C 51 52 62 52 67 54 z" fill="black"/><!-- width=108 height=170 -->
<path id="gl26640" d="M 46 12 C 30 16 22 24 16 40 C 13 52 12 87 15 102 C 19 127 32 139 54 139 C 73 139 85 127 90 102 C 92 91 92 61 90 49 C 87 33 80 22 72 17 C 65 13 52 10 46 12 M 60 30 C 70 34 75 48 75 76 C 75 110 69 123 52 123 C 40 123 35 116 31 99 C 27 78 30 45 37 36 C 43 28 51 25 60 30 z" fill="black"/><!-- width=105 height=152 -->
<path id="gl26627" d="M 25 22 C 22 23 19 25 18 28 C 18 30 18 39 18 60 C 18 78 18 97 18 112 C 17 139 17 139 21 142 C 25 144 32 143 34 139 C 35 136 35 123 34 109 C 33 91 36 88 52 90 C 60 91 63 93 66 98 C 67 99 67 101 68 102 C 68 107 68 112 69 117 C 69 135 70 138 74 141 C 78 144 85 143 87 139 C 88 137 88 129 87 124 C 86 122 85 117 85 112 C 84 101 84 97 79 91 C 75 84 75 82 80 73 C 84 66 85 60 85 52 C 84 36 77 27 63 24 C 57 22 28 21 25 22 M 56 38 C 65 41 70 51 68 61 C 65 73 59 78 46 77 C 35 76 34 75 34 58 C 34 44 34 42 37 39 C 40 37 49 36 56 38 z" fill="black"/><!-- width=100 height=155 -->
<path id="gl26631" d="M 18 46 C 12 48 10 53 12 58 C 14 63 15 63 25 63 C 36 63 37 63 40 67 C 41 69 41 69 40 116 C 39 162 39 161 40 163 C 44 170 54 171 57 164 C 58 161 58 139 57 91 C 57 72 57 70 57 67 C 59 63 61 62 69 63 C 84 64 88 61 87 54 C 87 48 82 45 71 46 C 63 46 34 46 25 46 C 22 46 19 46 18 46 z" fill="black"/><!-- width=98 height=180 -->
<path id="gl26648" d="M 40 4 C 34 6 33 11 34 24 C 34 28 35 46 35 73 C 35 117 35 118 36 120 C 39 126 39 126 60 126 C 71 126 82 127 84 127 C 90 127 93 126 94 123 C 96 119 94 108 93 107 C 93 107 90 107 87 108 C 79 109 69 110 62 110 C 57 110 57 109 55 108 C 51 105 51 103 51 80 C 52 49 52 11 51 9 C 49 4 45 3 40 4 z" fill="black"/><!-- width=102 height=160 -->
<path id="gl26649" d="M 38 14 C 33 19 28 43 19 67 C 14 86 9 105 4 110 C 0 120 0 124 14 124 C 19 124 24 120 24 110 C 28 86 57 86 67 110 C 72 129 91 134 86 115 C 62 19 48 -10 38 14 M 52 43 C 52 48 57 57 57 62 C 62 76 57 76 48 76 C 33 76 33 72 38 52 C 43 38 48 38 52 43 z" fill="black"/><!-- width=100 height=139 -->
<path id="gl26635" d="M 20 11 C 13 13 13 16 13 30 C 15 39 14 58 13 71 C 12 88 12 124 13 127 C 15 133 25 135 28 129 C 30 126 30 122 30 107 C 29 99 28 87 28 79 C 27 61 28 57 30 54 C 34 51 37 55 42 72 C 44 77 48 87 50 92 C 52 97 56 108 58 114 C 63 129 65 132 73 132 C 83 132 85 127 84 116 C 84 111 84 89 85 37 C 85 19 85 18 84 16 C 80 8 69 10 68 18 C 67 20 68 28 68 37 C 69 63 70 84 69 87 C 68 90 66 91 64 91 C 61 90 59 85 52 68 C 49 59 46 51 45 48 C 42 41 40 34 38 28 C 34 14 33 12 25 11 C 23 11 21 11 20 11 z" fill="black"/><!-- width=98 height=145 -->
<path id="gl26628" d="M 27 13 C 24 15 23 16 22 18 C 21 22 21 124 22 127 C 24 133 24 133 42 133 C 69 133 76 130 85 118 C 92 108 96 94 96 73 C 96 33 85 15 58 13 C 48 12 28 12 27 13 M 60 29 C 73 32 78 43 79 69 C 80 101 71 117 52 117 C 44 118 41 117 39 113 C 39 112 38 111 37 111 C 37 97 37 85 37 72 C 37 30 37 32 42 29 C 44 28 54 28 60 29 z" fill="black"/><!-- width=111 height=147 -->
<path id="gl26650" d="M 14 15 C 12 15 11 16 10 21 C 9 24 11 30 13 32 C 16 35 16 39 13 44 C 7 52 13 58 20 51 C 23 49 24 47 25 39 C 26 26 25 18 22 15 C 21 14 16 14 14 15 z" fill="black"/><!-- width=37 height=64 -->
<path id="gl26651" d="M 46 10 C 29 13 18 25 14 48 C 11 63 12 91 15 104 C 22 130 42 140 66 131 C 75 128 84 115 87 99 C 90 88 90 60 88 49 C 83 25 73 13 55 10 C 50 10 50 10 46 10 M 59 28 C 69 33 72 45 72 73 C 72 91 72 97 69 105 C 62 122 41 123 34 107 C 27 92 27 51 34 37 C 39 27 49 23 59 28 z" fill="black"/><!-- width=102 height=147 -->
<path id="gl26652" d="M 27 22 C 22 22 21 23 19 25 C 18 27 17 41 18 54 C 18 58 18 76 18 93 C 17 142 16 138 19 140 C 22 145 31 144 33 139 C 34 136 35 124 34 120 C 34 120 33 114 33 108 C 33 97 33 97 34 94 C 37 90 43 88 54 90 C 66 93 68 98 67 118 C 67 137 70 143 79 143 C 84 143 85 142 87 139 C 88 136 87 136 86 127 C 85 123 84 115 84 110 C 84 100 82 96 78 88 C 75 84 75 81 78 75 C 85 61 86 48 80 36 C 75 25 67 22 48 22 C 40 22 34 21 33 21 C 32 21 29 21 27 22 M 55 37 C 63 40 67 46 67 55 C 67 65 64 71 57 75 C 53 77 42 78 38 76 C 34 73 33 72 33 58 C 33 42 33 40 39 37 C 41 36 51 36 55 37 z" fill="black"/><!-- width=99 height=154 -->
<path id="gl26646" d="M 30 15 C 16 21 9 34 9 54 C 9 72 13 82 24 88 C 33 93 39 94 49 89 C 55 86 58 85 60 88 C 61 90 62 93 61 99 C 58 114 47 123 36 119 C 33 118 31 116 27 111 C 19 99 7 105 13 118 C 19 130 25 134 39 134 C 60 135 69 126 75 102 C 75 99 76 94 76 93 C 78 88 78 69 77 57 C 77 51 72 35 70 30 C 66 23 61 18 54 15 C 49 13 35 13 30 15 M 48 28 C 55 32 60 42 60 57 C 60 66 58 70 54 74 C 46 82 33 79 27 69 C 24 63 24 48 27 40 C 30 30 40 25 48 28 z" fill="black"/><!-- width=93 height=147 -->
<path id="gl26653" d="M 15 37 C 9 40 9 49 14 52 C 16 54 24 54 37 53 C 57 51 60 55 49 70 C 42 81 40 85 32 106 C 27 122 22 139 22 145 C 22 150 25 154 30 154 C 37 154 40 150 42 139 C 44 117 57 81 70 60 C 77 51 78 45 75 41 C 73 37 71 37 52 37 C 43 37 31 37 25 37 C 18 36 16 37 15 37 z" fill="black"/><!-- width=89 height=163 -->
<path id="gl26654" d="M 14 14 C 4 24 4 43 14 43 C 19 43 24 38 24 33 C 28 14 38 14 48 24 C 57 33 57 48 38 67 C 19 86 4 110 9 120 C 19 124 72 120 72 115 C 76 110 67 110 52 110 C 24 110 24 105 48 76 C 67 57 67 52 67 38 C 67 4 38 -5 14 14 z" fill="black"/><!-- width=81 height=134 -->
<path id="gl26655" d="M 37 21 C 36 22 34 24 33 26 C 29 33 26 35 17 37 C 10 38 9 39 7 42 C 6 48 10 51 18 51 C 25 49 29 51 31 55 C 31 58 31 58 31 99 C 31 109 31 120 31 131 C 31 132 31 132 32 133 C 36 139 45 138 46 132 C 48 129 48 117 46 70 C 46 55 46 45 47 37 C 48 25 47 23 45 21 C 43 19 39 19 37 21 z" fill="black"/><!-- width=73 height=146 -->
<path id="gl26656" d="M 19 14 C 9 24 9 28 9 33 C 9 48 14 48 24 33 C 38 14 48 19 48 38 C 48 52 48 57 38 57 C 28 62 28 72 43 76 C 57 81 57 100 48 110 C 38 120 38 120 28 105 C 24 100 14 96 14 96 C 4 96 4 110 19 120 C 48 148 86 110 67 72 C 62 67 62 62 67 52 C 76 19 43 -5 19 14 z" fill="black"/><!-- width=81 height=139 -->
<path id="gl3333" d="M 11 15 C 8 18 8 21 11 24 C 12 25 12 25 13 26 C 18 26 23 26 28 26 C 33 26 39 26 43 26 C 45 25 45 25 46 24 C 49 21 49 18 45 15 C 44 13 43 13 42 12 C 39 12 36 12 33 12 C 21 13 19 13 16 12 C 13 12 13 12 11 15 z" fill="black"/><!-- width=57 height=39 -->
<path id="gl26647" d="M 40 11 C 31 13 22 22 18 33 C 14 45 13 54 14 77 C 14 95 14 95 16 103 C 21 124 31 133 51 132 C 65 132 73 124 78 109 C 83 94 84 61 81 44 C 77 30 76 28 74 25 C 67 13 55 9 40 11 M 53 26 C 64 30 67 42 66 76 C 66 100 63 111 57 115 C 48 121 37 117 33 107 C 29 94 28 56 33 38 C 36 28 45 22 53 26 z" fill="black"/><!-- width=96 height=145 -->
<path id="gl26657" d="M 14 14 C 4 24 4 38 9 43 C 14 43 19 38 24 33 C 38 19 48 19 48 38 C 48 48 48 57 38 57 C 24 67 24 72 38 72 C 48 72 57 86 52 100 C 48 115 28 115 24 105 C 24 91 9 91 9 100 C 9 124 48 134 62 120 C 72 110 72 86 62 72 C 62 67 62 62 67 52 C 76 19 38 -5 14 14 z" fill="black"/><!-- width=81 height=139 -->
<path id="gl26646" d="M 30 15 C 16 21 9 34 9 54 C 9 72 13 82 24 88 C 33 93 39 94 49 89 C 55 86 58 85 60 88 C 61 90 62 93 61 99 C 58 114 47 123 36 119 C 33 118 31 116 27 111 C 19 99 7 105 13 118 C 19 130 25 134 39 134 C 60 135 69 126 75 102 C 75 99 76 94 76 93 C 78 88 78 69 77 57 C 77 51 72 35 70 30 C 66 23 61 18 54 15 C 49 13 35 13 30 15 M 48 28 C 55 32 60 42 60 57 C 60 66 58 70 54 74 C 46 82 33 79 27 69 C 24 63 24 48 27 40 C 30 30 40 25 48 28 z" fill="black"/><!-- width=93 height=147 -->
<path id="gl26647" d="M 40 11 C 31 13 22 22 18 33 C 14 45 13 54 14 77 C 14 95 14 95 16 103 C 21 124 31 133 51 132 C 65 132 73 124 78 109 C 83 94 84 61 81 44 C 77 30 76 28 74 25 C 67 13 55 9 40 11 M 53 26 C 64 30 67 42 66 76 C 66 100 63 111 57 115 C 48 121 37 117 33 107 C 29 94 28 56 33 38 C 36 28 45 22 53 26 z" fill="black"/><!-- width=96 height=145 -->
<path id="gl25377" d="M 20 46 C 12 49 13 66 21 68 C 24 69 25 69 31 68 C 42 67 45 69 45 78 C 45 101 44 144 43 154 C 43 174 45 177 60 176 C 64 176 67 175 69 172 C 70 169 70 172 70 116 C 69 76 69 75 70 73 C 72 69 75 68 85 68 C 93 69 93 69 96 67 C 100 64 101 57 99 50 C 96 45 96 45 83 45 C 64 46 42 46 32 45 C 23 45 22 45 20 46 z" fill="black"/><!-- width=115 height=190 -->
<path id="gl26658" d="M 42 16 C 32 19 28 21 24 28 C 18 37 14 57 15 71 C 18 94 24 104 42 108 C 51 111 52 111 61 109 C 72 106 76 103 81 94 C 85 85 85 80 79 77 C 74 73 68 76 63 85 C 59 90 56 93 51 93 C 45 93 40 87 39 78 C 39 68 48 64 65 67 C 77 70 81 69 84 65 C 88 58 84 33 75 23 C 69 15 55 13 42 16 M 56 33 C 63 37 66 48 59 53 C 54 56 45 54 42 50 C 36 42 47 29 56 33 z" fill="black"/><!-- width=100 height=124 -->
<path id="gl26659" d="M 19 9 C 15 11 14 13 15 23 C 15 32 15 112 14 119 C 13 132 14 134 25 135 C 38 136 41 134 39 121 C 39 112 38 37 39 29 C 40 16 40 12 36 10 C 34 8 24 8 19 9 z" fill="black"/><!-- width=54 height=146 -->
<path id="gl26658" d="M 42 16 C 32 19 28 21 24 28 C 18 37 14 57 15 71 C 18 94 24 104 42 108 C 51 111 52 111 61 109 C 72 106 76 103 81 94 C 85 85 85 80 79 77 C 74 73 68 76 63 85 C 59 90 56 93 51 93 C 45 93 40 87 39 78 C 39 68 48 64 65 67 C 77 70 81 69 84 65 C 88 58 84 33 75 23 C 69 15 55 13 42 16 M 56 33 C 63 37 66 48 59 53 C 54 56 45 54 42 50 C 36 42 47 29 56 33 z" fill="black"/><!-- width=100 height=124 -->
<path id="gl26660" d="M 63 26 C 62 27 59 28 57 29 C 52 32 50 32 44 29 C 38 26 31 25 28 28 C 24 31 24 31 24 61 C 25 84 25 114 24 136 C 24 148 25 150 37 150 C 43 150 43 150 46 148 C 49 145 50 144 49 132 C 48 121 49 118 52 117 C 54 117 55 117 61 118 C 75 123 82 121 89 112 C 93 106 94 103 95 96 C 96 92 96 87 97 85 C 98 80 98 69 97 63 C 96 60 96 55 95 51 C 93 39 88 32 79 28 C 73 25 68 24 63 26 M 64 46 C 67 46 71 51 73 56 C 75 63 75 85 72 91 C 68 105 55 105 49 93 C 47 86 46 64 49 57 C 51 48 57 43 64 46 z" fill="black"/><!-- width=114 height=162 -->
<path id="gl25378" d="M 27 9 C 21 11 21 13 21 24 C 22 45 22 60 22 74 C 21 99 21 131 22 133 C 24 138 27 139 34 139 C 40 139 43 138 45 135 C 46 132 46 132 46 115 C 45 105 45 92 45 85 C 45 81 44 77 44 73 C 45 72 45 70 46 69 C 50 60 60 58 66 64 C 70 69 70 70 69 110 C 68 132 68 133 71 136 C 75 141 87 141 91 137 C 94 134 94 132 93 120 C 93 113 93 97 93 84 C 93 63 93 61 91 57 C 87 42 72 37 58 45 C 52 48 51 48 48 45 C 45 43 44 41 45 33 C 48 12 46 9 34 9 C 31 9 28 9 27 9 z" fill="black"/><!-- width=108 height=159 -->
<path id="gl26661" d="M 43 14 C 24 19 14 37 15 64 C 16 89 21 100 34 106 C 45 111 54 112 66 108 C 85 102 93 76 85 42 C 82 30 82 28 77 24 C 68 15 54 11 43 14 M 55 31 C 58 33 60 36 62 40 C 63 41 63 42 64 43 C 64 49 64 55 64 62 C 64 78 64 80 63 82 C 57 95 44 94 40 81 C 39 78 38 52 39 46 C 40 37 45 31 52 31 C 52 31 54 31 55 31 z" fill="black"/><!-- width=104 height=124 -->
<path id="gl25615" d="M 60 21 C 58 21 54 22 51 24 C 45 27 43 27 38 25 C 30 21 19 21 17 26 C 16 28 16 41 16 45 C 16 46 16 61 16 80 C 16 117 15 116 19 119 C 22 121 34 121 37 119 C 41 116 41 115 40 96 C 39 62 39 52 41 48 C 46 37 58 36 63 46 C 64 48 64 48 65 49 C 65 54 65 58 65 63 C 65 70 64 85 64 95 C 63 119 63 120 75 120 C 84 121 88 119 88 114 C 88 113 88 96 88 75 C 88 33 88 34 82 28 C 78 22 67 19 60 21 z" fill="black"/><!-- width=104 height=135 -->
<path id="gl26662" d="M 51 16 C 30 18 22 27 18 51 C 16 59 16 83 18 88 C 19 90 19 93 19 94 C 21 100 27 107 34 112 C 42 116 58 117 68 114 C 77 111 81 108 85 98 C 92 85 84 75 72 81 C 69 82 69 84 65 90 C 60 99 52 101 45 94 C 38 85 39 72 48 69 C 50 68 67 68 74 69 C 84 70 88 69 90 63 C 91 57 88 39 83 30 C 77 19 65 14 51 16 M 60 35 C 65 37 67 45 65 51 C 63 54 61 55 54 55 C 45 55 42 52 42 45 C 43 36 51 31 60 35 z" fill="black"/><!-- width=105 height=131 -->
<path id="gl26663" d="M 17 15 C 14 16 13 19 13 30 C 13 43 15 45 25 45 C 34 45 36 43 36 29 C 36 19 36 17 32 15 C 30 14 19 14 17 15 M 21 78 C 14 78 13 81 13 91 C 13 104 15 106 25 106 C 33 106 36 105 36 100 C 37 95 36 82 35 81 C 32 78 27 76 21 78 z" fill="black"/><!-- width=49 height=120 -->
<path id="gl26664" d="M 39 22 C 37 22 34 25 32 30 C 28 39 25 40 16 41 C 10 42 10 42 7 44 C 5 46 5 46 5 51 C 5 58 7 61 14 61 C 24 60 25 60 27 61 C 30 65 30 65 30 84 C 28 123 28 142 29 144 C 31 147 33 148 41 148 C 48 148 48 148 51 146 C 54 144 54 142 54 128 C 52 115 52 61 54 42 C 54 27 54 26 51 23 C 49 22 43 21 39 22 z" fill="black"/><!-- width=76 height=162 -->
<path id="gl26402" d="M 16 17 C 15 19 13 22 14 27 C 15 33 18 35 25 34 C 36 34 39 33 48 34 C 59 35 61 34 63 31 C 65 28 64 18 60 16 C 60 16 53 16 39 16 C 18 16 18 16 16 17 z" fill="black"/><!-- width=78 height=51 -->
<path id="gl26880" d="M 39 12 C 27 14 23 17 18 25 C 11 37 11 52 18 62 C 23 68 23 72 18 78 C 16 80 13 83 13 85 C 12 86 11 87 10 88 C 10 92 10 96 10 99 C 10 115 11 118 20 126 C 27 133 35 136 48 136 C 64 136 75 131 82 120 C 82 118 84 115 86 114 C 90 109 91 106 91 96 C 91 88 90 79 89 79 C 89 78 88 79 88 79 C 85 84 84 84 81 81 C 73 75 72 67 78 60 C 81 57 82 55 84 51 C 84 49 85 48 85 46 C 85 45 84 43 84 41 C 80 26 75 19 67 15 C 61 12 49 10 39 12 M 53 30 C 58 31 61 37 61 45 C 61 64 42 70 36 54 C 30 40 40 25 53 30 M 54 80 C 57 81 61 87 63 91 C 65 101 61 114 54 117 C 42 123 30 112 33 94 C 34 82 44 76 54 80 z" fill="black"/><!-- width=99 height=150 -->
<path id="gl26881" d="M 44 12 C 36 14 33 16 29 19 C 23 25 18 36 16 44 C 15 49 14 101 15 106 C 19 129 40 141 64 134 C 75 131 82 124 86 114 C 87 112 89 108 90 106 C 94 99 95 96 94 70 C 94 63 94 57 94 51 C 93 49 92 47 91 45 C 90 42 88 37 87 33 C 84 25 81 21 76 18 C 67 11 55 9 44 12 M 59 31 C 63 33 66 37 67 46 C 68 52 68 94 67 101 C 65 112 60 118 52 118 C 45 118 41 113 39 101 C 38 97 37 92 38 72 C 38 64 38 56 38 48 C 39 46 39 45 40 43 C 42 36 43 34 46 31 C 49 28 54 28 59 31 z" fill="black"/><!-- width=108 height=148 -->
<path id="gl26882" d="M 49 12 C 32 15 21 25 17 40 C 15 50 15 106 18 115 C 21 126 31 134 46 137 C 55 139 70 135 77 129 C 87 120 94 97 92 77 C 92 75 91 67 91 61 C 90 36 85 22 73 16 C 66 13 56 11 49 12 M 59 31 C 67 35 67 39 67 73 C 67 102 67 106 63 112 C 59 119 51 121 45 116 C 39 112 38 106 38 76 C 37 52 38 46 41 39 C 43 31 52 27 59 31 z" fill="black"/><!-- width=108 height=151 -->
<path id="gl26402" d="M 16 17 C 15 19 13 22 14 27 C 15 33 18 35 25 34 C 36 34 39 33 48 34 C 59 35 61 34 63 31 C 65 28 64 18 60 16 C 60 16 53 16 39 16 C 18 16 18 16 16 17 z" fill="black"/><!-- width=78 height=51 -->
<path id="gl26883" d="M 43 9 C 43 9 39 10 35 11 C 21 13 14 19 10 33 C 7 46 12 52 22 50 C 27 49 30 46 31 40 C 36 26 47 23 54 34 C 58 41 56 54 51 60 C 49 61 44 62 41 62 C 35 62 31 69 33 75 C 34 79 36 80 43 81 C 54 81 57 85 57 99 C 57 110 52 117 44 117 C 37 117 33 113 30 102 C 30 100 29 99 27 97 C 27 96 26 96 25 95 C 23 95 21 95 19 95 C 9 95 6 97 7 106 C 10 125 29 137 51 133 C 70 130 80 120 81 103 C 82 92 80 84 75 79 C 69 73 67 70 70 65 C 82 44 82 42 76 29 C 72 19 66 13 60 12 C 48 9 44 9 43 9 M 85 42 C 84 48 85 51 87 49 C 88 48 88 47 87 43 C 87 41 86 41 85 42 z" fill="black"/><!-- width=99 height=145 -->
<path id="gl26884" d="M 28 14 C 9 19 0 62 14 81 C 24 91 24 96 43 91 C 57 86 62 86 57 100 C 57 115 43 120 33 110 C 28 100 9 100 9 110 C 9 120 24 134 43 134 C 62 134 81 120 81 110 C 81 105 81 100 81 100 C 91 100 86 67 76 33 C 72 9 52 0 28 14 M 57 48 C 62 67 57 76 43 72 C 38 72 33 67 33 57 C 28 28 52 19 57 48 z" fill="black"/><!-- width=96 height=144 -->
<path id="gl26885" d="M 24 48 C 0 100 0 105 24 105 C 43 105 48 110 48 120 C 48 139 67 134 67 120 C 72 115 72 105 76 105 C 81 105 81 91 72 86 C 67 86 62 76 62 52 C 67 4 67 4 52 4 C 43 4 38 14 24 48 M 43 72 C 43 81 38 86 33 86 C 24 91 24 76 33 62 C 38 48 48 52 43 72 z" fill="black"/><!-- width=86 height=144 -->
<path id="gl26402" d="M 16 17 C 15 19 13 22 14 27 C 15 33 18 35 25 34 C 36 34 39 33 48 34 C 59 35 61 34 63 31 C 65 28 64 18 60 16 C 60 16 53 16 39 16 C 18 16 18 16 16 17 z" fill="black"/><!-- width=78 height=51 -->
<path id="gl26886" d="M 48 11 C 39 13 36 13 31 18 C 21 28 16 47 16 86 C 16 100 19 110 24 120 C 30 129 40 135 55 136 C 64 137 78 132 84 125 C 96 112 99 95 93 76 C 85 56 73 50 53 57 C 42 61 37 52 42 39 C 45 32 48 29 54 28 C 61 28 64 30 68 36 C 72 43 79 45 87 43 C 93 42 94 37 90 28 C 82 14 67 7 48 11 M 63 73 C 68 76 70 83 70 96 C 70 105 69 109 64 114 C 60 118 54 119 49 115 C 43 111 42 107 43 91 C 43 81 43 81 45 78 C 48 72 56 70 63 73 z" fill="black"/><!-- width=109 height=148 -->
<path id="gl26887" d="M 36 13 C 28 15 27 16 23 19 C 12 29 9 47 16 58 C 23 67 23 70 15 79 C 10 85 10 87 10 99 C 10 114 12 118 20 127 C 25 132 27 133 35 135 C 45 138 55 137 66 133 C 72 132 76 127 82 119 C 84 116 87 112 88 111 C 88 110 89 109 90 108 C 90 105 90 102 90 99 C 90 89 90 82 88 80 C 88 79 88 79 86 80 C 82 82 74 75 74 69 C 74 65 75 63 84 52 C 87 49 86 48 83 37 C 79 25 75 19 69 16 C 59 12 47 10 36 13 M 55 31 C 64 37 63 55 53 61 C 44 65 36 59 35 47 C 34 39 37 33 43 30 C 46 29 52 29 55 31 M 52 79 C 67 84 67 114 52 118 C 42 121 34 114 33 100 C 31 85 41 75 52 79 z" fill="black"/><!-- width=99 height=150 -->
<path id="gl26888" d="M 54 7 C 31 12 25 18 19 43 C 17 53 16 95 18 103 C 19 108 23 115 26 119 C 30 124 34 127 42 130 C 55 134 62 134 72 129 C 81 126 84 123 89 115 C 91 112 92 111 94 109 C 97 108 98 107 98 96 C 99 85 98 81 95 77 C 94 75 92 72 91 69 C 87 62 80 55 75 54 C 69 52 63 52 58 54 C 46 58 40 55 41 43 C 42 34 48 25 56 25 C 62 25 64 27 69 36 C 72 40 73 41 79 41 C 87 42 91 39 92 35 C 93 28 85 16 76 12 C 69 9 59 7 54 7 M 63 71 C 65 72 67 75 69 78 C 70 81 70 82 70 91 C 70 103 70 105 66 111 C 60 117 48 115 44 107 C 43 104 42 87 43 82 C 45 71 54 66 63 71 z" fill="black"/><!-- width=110 height=144 -->
<path id="gl26887" d="M 36 13 C 28 15 27 16 23 19 C 12 29 9 47 16 58 C 23 67 23 70 15 79 C 10 85 10 87 10 99 C 10 114 12 118 20 127 C 25 132 27 133 35 135 C 45 138 55 137 66 133 C 72 132 76 127 82 119 C 84 116 87 112 88 111 C 88 110 89 109 90 108 C 90 105 90 102 90 99 C 90 89 90 82 88 80 C 88 79 88 79 86 80 C 82 82 74 75 74 69 C 74 65 75 63 84 52 C 87 49 86 48 83 37 C 79 25 75 19 69 16 C 59 12 47 10 36 13 M 55 31 C 64 37 63 55 53 61 C 44 65 36 59 35 47 C 34 39 37 33 43 30 C 46 29 52 29 55 31 M 52 79 C 67 84 67 114 52 118 C 42 121 34 114 33 100 C 31 85 41 75 52 79 z" fill="black"/><!-- width=99 height=150 -->
<path id="gl26889" d="M 84 31 C 81 31 69 31 58 31 C 51 31 44 31 37 31 C 36 32 36 33 35 33 C 32 35 31 37 32 56 C 33 75 33 122 31 139 C 31 154 32 157 40 159 C 46 160 54 159 56 156 C 58 154 58 148 57 138 C 54 105 55 103 75 105 C 94 108 96 107 99 99 C 102 87 96 82 79 85 C 63 87 60 86 57 80 C 55 77 55 76 55 69 C 55 60 56 58 59 55 C 61 53 69 52 75 54 C 77 54 82 54 87 54 C 99 55 101 53 101 42 C 101 31 98 30 84 31 z" fill="black"/><!-- width=113 height=170 -->
<path id="gl26890" d="M 37 10 C 36 10 33 11 30 12 C 19 14 11 24 10 34 C 10 41 12 43 21 42 C 23 42 25 42 25 42 C 27 42 30 37 31 36 C 36 22 52 24 52 37 C 52 46 47 51 37 52 C 26 53 13 60 10 66 C 9 69 9 88 10 93 C 13 101 21 107 30 107 C 35 107 38 106 45 102 C 46 101 48 100 50 99 C 51 99 51 99 52 99 C 54 100 55 101 57 102 C 62 106 72 107 76 104 C 78 102 78 101 76 93 C 75 87 75 83 75 58 C 74 34 74 29 73 27 C 70 19 68 16 63 13 C 57 10 42 8 37 10 M 48 63 C 52 64 54 66 54 73 C 54 78 52 81 49 84 C 41 95 27 87 31 73 C 33 68 36 65 42 63 C 43 63 45 63 45 63 C 45 62 46 63 48 63 z" fill="black"/><!-- width=88 height=121 -->
<path id="gl26891" d="M 16 14 C 11 17 12 21 17 29 C 30 50 33 58 31 64 C 30 69 21 84 16 91 C 10 99 10 105 13 108 C 15 109 16 109 22 109 C 33 109 35 108 38 97 C 40 87 45 84 50 86 C 54 88 55 90 56 95 C 58 106 61 109 71 109 C 79 109 83 107 83 103 C 83 100 82 99 78 91 C 61 65 61 63 63 56 C 63 53 76 31 80 25 C 85 18 82 13 72 13 C 62 13 59 15 56 25 C 53 34 49 37 43 34 C 41 32 40 30 38 24 C 36 15 33 13 24 13 C 18 13 18 13 16 14 z" fill="black"/><!-- width=94 height=123 -->
<path id="gl26663" d="M 17 15 C 14 16 13 19 13 30 C 13 43 15 45 25 45 C 34 45 36 43 36 29 C 36 19 36 17 32 15 C 30 14 19 14 17 15 M 21 78 C 14 78 13 81 13 91 C 13 104 15 106 25 106 C 33 106 36 105 36 100 C 37 95 36 82 35 81 C 32 78 27 76 21 78 z" fill="black"/><!-- width=49 height=120 -->
<path id="gl26664" d="M 39 22 C 37 22 34 25 32 30 C 28 39 25 40 16 41 C 10 42 10 42 7 44 C 5 46 5 46 5 51 C 5 58 7 61 14 61 C 24 60 25 60 27 61 C 30 65 30 65 30 84 C 28 123 28 142 29 144 C 31 147 33 148 41 148 C 48 148 48 148 51 146 C 54 144 54 142 54 128 C 52 115 52 61 54 42 C 54 27 54 26 51 23 C 49 22 43 21 39 22 z" fill="black"/><!-- width=76 height=162 -->
<path id="gl26402" d="M 16 17 C 15 19 13 22 14 27 C 15 33 18 35 25 34 C 36 34 39 33 48 34 C 59 35 61 34 63 31 C 65 28 64 18 60 16 C 60 16 53 16 39 16 C 18 16 18 16 16 17 z" fill="black"/><!-- width=78 height=51 -->
<path id="gl26892" d="M 40 12 C 24 16 15 28 16 45 C 16 51 16 52 22 61 C 24 64 25 67 25 68 C 25 70 22 75 19 78 C 11 88 10 105 16 118 C 19 123 26 130 30 133 C 43 140 67 138 78 129 C 81 126 88 116 90 112 C 92 108 93 87 91 82 C 90 80 90 79 88 79 C 84 79 77 73 77 69 C 77 66 78 64 81 60 C 83 58 85 55 86 54 C 90 49 90 43 84 30 C 80 21 75 16 64 13 C 59 11 47 11 40 12 M 55 29 C 67 32 68 53 57 60 C 51 64 43 61 40 54 C 38 49 38 39 40 36 C 43 30 49 27 55 29 M 57 78 C 64 82 66 88 66 100 C 65 115 58 121 47 118 C 34 115 32 87 44 79 C 48 76 54 76 57 78 z" fill="black"/><!-- width=105 height=150 -->
<path id="gl26881" d="M 44 12 C 36 14 33 16 29 19 C 23 25 18 36 16 44 C 15 49 14 101 15 106 C 19 129 40 141 64 134 C 75 131 82 124 86 114 C 87 112 89 108 90 106 C 94 99 95 96 94 70 C 94 63 94 57 94 51 C 93 49 92 47 91 45 C 90 42 88 37 87 33 C 84 25 81 21 76 18 C 67 11 55 9 44 12 M 59 31 C 63 33 66 37 67 46 C 68 52 68 94 67 101 C 65 112 60 118 52 118 C 45 118 41 113 39 101 C 38 97 37 92 38 72 C 38 64 38 56 38 48 C 39 46 39 45 40 43 C 42 36 43 34 46 31 C 49 28 54 28 59 31 z" fill="black"/><!-- width=108 height=148 -->
<path id="gl26881" d="M 44 12 C 36 14 33 16 29 19 C 23 25 18 36 16 44 C 15 49 14 101 15 106 C 19 129 40 141 64 134 C 75 131 82 124 86 114 C 87 112 89 108 90 106 C 94 99 95 96 94 70 C 94 63 94 57 94 51 C 93 49 92 47 91 45 C 90 42 88 37 87 33 C 84 25 81 21 76 18 C 67 11 55 9 44 12 M 59 31 C 63 33 66 37 67 46 C 68 52 68 94 67 101 C 65 112 60 118 52 118 C 45 118 41 113 39 101 C 38 97 37 92 38 72 C 38 64 38 56 38 48 C 39 46 39 45 40 43 C 42 36 43 34 46 31 C 49 28 54 28 59 31 z" fill="black"/><!-- width=108 height=148 -->
<path id="gl26893" d="M 12 15 C 11 16 11 29 12 31 C 12 33 12 33 13 34 C 15 33 16 33 18 33 C 24 33 47 33 52 33 C 58 34 60 32 60 25 C 60 16 58 13 51 14 C 42 14 24 14 18 13 C 13 13 13 13 12 15 z" fill="black"/><!-- width=71 height=47 -->
<path id="gl26894" d="M 31 12 C 19 14 12 21 9 33 C 4 46 9 52 21 49 C 25 49 27 47 28 41 C 31 32 34 28 41 28 C 49 28 55 38 52 49 C 51 55 51 57 48 58 C 45 62 45 63 40 63 C 32 64 30 66 30 73 C 30 79 33 81 39 81 C 46 81 49 82 51 87 C 55 96 56 102 53 109 C 50 117 43 120 36 117 C 32 115 30 112 28 103 C 26 97 25 96 17 96 C 5 96 2 99 6 112 C 10 123 18 132 30 135 C 40 138 58 135 64 130 C 70 125 78 113 79 108 C 79 107 79 102 79 98 C 78 88 77 87 70 79 C 65 73 65 69 70 61 C 76 52 77 47 76 39 C 74 31 72 25 66 19 C 59 12 45 9 31 12 z" fill="black"/><!-- width=93 height=148 -->
<path id="gl26895" d="M 46 10 C 36 12 24 18 21 24 C 14 34 12 42 13 57 C 13 73 15 79 22 85 C 30 93 37 94 49 91 C 56 90 60 90 62 91 C 69 95 64 113 55 116 C 49 118 43 117 40 112 C 36 104 33 102 24 103 C 15 103 13 105 14 112 C 18 129 37 138 60 133 C 73 131 79 126 85 112 C 87 108 89 105 90 105 C 90 105 91 106 93 106 C 96 110 97 108 97 96 C 97 82 97 79 93 79 C 90 78 89 76 89 62 C 89 43 85 28 78 20 C 73 15 54 9 46 10 M 54 29 C 57 30 61 33 63 36 C 64 40 65 63 63 67 C 60 74 55 77 48 75 C 40 74 35 66 35 53 C 35 36 43 26 54 29 z" fill="black"/><!-- width=108 height=147 -->
<path id="gl26896" d="M 50 10 C 44 11 42 13 36 27 C 34 33 30 40 28 43 C 27 47 23 52 21 56 C 19 59 16 65 14 68 C 9 77 9 78 9 94 C 9 113 8 112 17 111 C 26 109 27 109 33 109 C 40 108 43 109 45 112 C 47 114 47 114 47 121 C 47 130 48 132 52 133 C 57 136 65 135 68 130 C 69 129 69 128 69 122 C 69 114 70 112 75 110 C 80 107 81 105 81 99 C 81 93 80 92 75 90 C 68 87 68 87 68 60 C 68 48 69 33 69 27 C 70 12 69 10 58 10 C 55 10 51 10 50 10 M 46 60 C 49 65 48 82 45 86 C 43 90 37 91 33 89 C 28 87 27 82 30 75 C 36 60 43 53 46 60 z" fill="black"/><!-- width=93 height=148 -->
<path id="gl26402" d="M 16 17 C 15 19 13 22 14 27 C 15 33 18 35 25 34 C 36 34 39 33 48 34 C 59 35 61 34 63 31 C 65 28 64 18 60 16 C 60 16 53 16 39 16 C 18 16 18 16 16 17 z" fill="black"/><!-- width=78 height=51 -->
<path id="gl26886" d="M 48 11 C 39 13 36 13 31 18 C 21 28 16 47 16 86 C 16 100 19 110 24 120 C 30 129 40 135 55 136 C 64 137 78 132 84 125 C 96 112 99 95 93 76 C 85 56 73 50 53 57 C 42 61 37 52 42 39 C 45 32 48 29 54 28 C 61 28 64 30 68 36 C 72 43 79 45 87 43 C 93 42 94 37 90 28 C 82 14 67 7 48 11 M 63 73 C 68 76 70 83 70 96 C 70 105 69 109 64 114 C 60 118 54 119 49 115 C 43 111 42 107 43 91 C 43 81 43 81 45 78 C 48 72 56 70 63 73 z" fill="black"/><!-- width=109 height=148 -->
<path id="gl26897" d="M 19 19 C 4 28 0 43 9 52 C 19 57 19 57 33 33 C 38 24 57 28 57 43 C 57 52 48 62 38 72 C 19 91 4 110 4 120 C 4 129 9 134 43 134 C 76 134 81 129 81 120 C 81 110 76 105 62 110 C 48 115 38 110 38 105 C 38 105 48 91 62 81 C 81 57 86 38 67 19 C 52 4 38 4 19 19 z" fill="black"/><!-- width=91 height=144 -->
<path id="gl26892" d="M 40 12 C 24 16 15 28 16 45 C 16 51 16 52 22 61 C 24 64 25 67 25 68 C 25 70 22 75 19 78 C 11 88 10 105 16 118 C 19 123 26 130 30 133 C 43 140 67 138 78 129 C 81 126 88 116 90 112 C 92 108 93 87 91 82 C 90 80 90 79 88 79 C 84 79 77 73 77 69 C 77 66 78 64 81 60 C 83 58 85 55 86 54 C 90 49 90 43 84 30 C 80 21 75 16 64 13 C 59 11 47 11 40 12 M 55 29 C 67 32 68 53 57 60 C 51 64 43 61 40 54 C 38 49 38 39 40 36 C 43 30 49 27 55 29 M 57 78 C 64 82 66 88 66 100 C 65 115 58 121 47 118 C 34 115 32 87 44 79 C 48 76 54 76 57 78 z" fill="black"/><!-- width=105 height=150 -->
<path id="gl26898" d="M 45 12 C 32 16 27 20 21 32 C 17 42 16 46 16 80 C 16 111 16 109 21 117 C 27 127 31 130 44 133 C 54 136 57 136 65 133 C 85 128 93 116 91 91 C 91 77 89 71 82 64 C 75 56 66 54 55 58 C 48 61 45 61 43 60 C 34 55 39 35 49 30 C 54 28 61 30 64 35 C 70 45 71 45 78 45 C 89 46 93 40 88 30 C 85 24 78 16 75 15 C 65 10 57 10 45 12 M 60 75 C 66 78 69 84 69 95 C 69 104 68 108 65 112 C 59 120 47 119 42 110 C 40 105 39 89 42 83 C 44 75 52 72 60 75 z" fill="black"/><!-- width=105 height=149 -->
</defs>
<use xlink:href="#gl26626" x="0" y="11"/>
<use xlink:href="#gl26627" x="88" y="26"/>
<use xlink:href="#gl26114" x="173" y="31"/>
<use xlink:href="#gl26628" x="260" y="34"/>
<use xlink:href="#gl26629" x="358" y="41"/>
<use xlink:href="#gl26630" x="430" y="36"/>
<use xlink:href="#gl26631" x="517" y="0"/>
<use xlink:href="#gl24839" x="596" y="30"/>
<use xlink:href="#gl26632" x="632" y="41"/>
<use xlink:href="#gl24839" x="702" y="31"/>
<use xlink:href="#gl26631" x="732" y="0"/>
<use xlink:href="#gl26633" x="814" y="41"/>
<use xlink:href="#gl26634" x="896" y="134"/>
<use xlink:href="#gl24839" x="963" y="31"/>
<use xlink:href="#gl26635" x="998" y="36"/>
<use xlink:href="#gl26630" x="1078" y="36"/>
<use xlink:href="#gl2844" x="1172" y="136"/>
<use xlink:href="#gl25116" x="1213" y="133"/>
<use xlink:href="#gl26628" x="1279" y="34"/>
<use xlink:href="#gl26636" x="1363" y="34"/>
<use xlink:href="#gl26637" x="1437" y="9"/>
<use xlink:href="#gl26631" x="1520" y="0"/>
<use xlink:href="#gl2844" x="1603" y="135"/>
<use xlink:href="#gl26638" x="1688" y="41"/>
<use xlink:href="#gl26639" x="1746" y="36"/>
<use xlink:href="#gl25116" x="1846" y="133"/>
<use xlink:href="#gl26637" x="1903" y="9"/>
<use xlink:href="#gl2844" x="1982" y="135"/>
<use xlink:href="#gl26640" x="2017" y="31"/>
<use xlink:href="#gl2844" x="2109" y="135"/>
<use xlink:href="#gl26641" x="2179" y="34"/>
<use xlink:href="#gl26114" x="2264" y="30"/>
<use xlink:href="#gl26642" x="2356" y="34"/>
<use xlink:href="#gl26643" x="2483" y="28"/>
<use xlink:href="#gl26644" x="2557" y="41"/>
<use xlink:href="#gl26645" x="2634" y="40"/>
<use xlink:href="#gl26646" x="2704" y="35"/>
<use xlink:href="#gl26647" x="2775" y="38"/>
<use xlink:href="#gl26634" x="2864" y="133"/>
<use xlink:href="#gl26626" x="2919" y="10"/>
<use xlink:href="#gl26640" x="3007" y="31"/>
<use xlink:href="#gl26627" x="3093" y="25"/>
<use xlink:href="#gl26631" x="3174" y="1"/>
<use xlink:href="#gl26648" x="3234" y="41"/>
<use xlink:href="#gl26649" x="3325" y="41"/>
<use xlink:href="#gl26635" x="3407" y="35"/>
<use xlink:href="#gl26628" x="3487" y="33"/>
<use xlink:href="#gl26650" x="3590" y="135"/>
<use xlink:href="#gl26651" x="3659" y="34"/>
<use xlink:href="#gl26652" x="3745" y="25"/>
<use xlink:href="#gl26646" x="3868" y="35"/>
<use xlink:href="#gl26653" x="3946" y="14"/>
<use xlink:href="#gl26654" x="4026" y="46"/>
<use xlink:href="#gl26655" x="4105" y="30"/>
<use xlink:href="#gl26656" x="4179" y="41"/>
<use xlink:href="#gl3333" x="4256" y="101"/>
<use xlink:href="#gl26647" x="4303" y="37"/>
<use xlink:href="#gl26657" x="4390" y="41"/>
<use xlink:href="#gl26646" x="4462" y="34"/>
<use xlink:href="#gl26647" x="4533" y="36"/>
<use xlink:href="#gl25377" x="591" y="197"/>
<use xlink:href="#gl26658" x="678" y="262"/>
<use xlink:href="#gl26659" x="763" y="235"/>
<use xlink:href="#gl26658" x="798" y="262"/>
<use xlink:href="#gl26660" x="871" y="250"/>
<use xlink:href="#gl25378" x="958" y="233"/>
<use xlink:href="#gl26661" x="1049" y="262"/>
<use xlink:href="#gl25615" x="1132" y="254"/>
<use xlink:href="#gl26662" x="1213" y="258"/>
<use xlink:href="#gl26663" x="1302" y="264"/>
<use xlink:href="#gl26664" x="1390" y="223"/>
<use xlink:href="#gl26402" x="1463" y="297"/>
<use xlink:href="#gl26880" x="1526" y="235"/>
<use xlink:href="#gl26881" x="1604" y="236"/>
<use xlink:href="#gl26882" x="1684" y="234"/>
<use xlink:href="#gl26402" x="1769" y="296"/>
<use xlink:href="#gl26883" x="1836" y="237"/>
<use xlink:href="#gl26884" x="1918" y="238"/>
<use xlink:href="#gl26885" x="2005" y="238"/>
<use xlink:href="#gl26402" x="2077" y="296"/>
<use xlink:href="#gl26886" x="2136" y="237"/>
<use xlink:href="#gl26887" x="2224" y="235"/>
<use xlink:href="#gl26888" x="2298" y="239"/>
<use xlink:href="#gl26887" x="2386" y="235"/>
<use xlink:href="#gl26889" x="2616" y="212"/>
<use xlink:href="#gl26890" x="2713" y="265"/>
<use xlink:href="#gl26891" x="2788" y="262"/>
<use xlink:href="#gl26663" x="2872" y="264"/>
<use xlink:href="#gl26664" x="2960" y="223"/>
<use xlink:href="#gl26402" x="3031" y="296"/>
<use xlink:href="#gl26892" x="3090" y="235"/>
<use xlink:href="#gl26881" x="3170" y="236"/>
<use xlink:href="#gl26881" x="3250" y="235"/>
<use xlink:href="#gl26893" x="3340" y="298"/>
<use xlink:href="#gl26894" x="3405" y="236"/>
<use xlink:href="#gl26895" x="3478" y="236"/>
<use xlink:href="#gl26896" x="3568" y="236"/>
<use xlink:href="#gl26402" x="3643" y="296"/>
<use xlink:href="#gl26886" x="3700" y="236"/>
<use xlink:href="#gl26897" x="3795" y="238"/>
<use xlink:href="#gl26892" x="3868" y="235"/>
<use xlink:href="#gl26898" x="3946" y="236"/>
</svg>
