<?xml version='1.0' encoding='utf-8'?>
<svg xmlns="http://www.w3.org/2000/svg" xmlns:xlink="http://www.w3.org/1999/xlink" width="275px" height="144px" viewBox="0 0 2751 1447" version="1.1">
<defs>
<path id="gl3102" d="M 35 29 C 21 31 19 37 30 42 C 34 43 36 46 37 51 C 38 55 37 144 37 148 C 35 154 33 156 27 159 C 22 160 22 166 26 168 C 28 169 65 169 67 168 C 72 165 72 160 65 157 C 60 155 58 153 57 148 C 56 145 56 138 56 99 C 56 53 56 48 58 44 C 62 36 82 40 89 51 C 100 68 95 91 76 100 C 68 104 67 111 75 111 C 82 112 95 108 100 102 C 112 91 117 79 114 63 C 112 46 100 35 80 30 C 76 29 43 28 35 29 z" fill="black"/><!-- width=128 height=179 -->
<path id="gl2337" d="M 40 25 C 32 30 31 33 36 40 C 36 42 37 44 38 46 C 38 52 38 59 38 66 C 39 91 38 93 32 99 C 28 103 27 106 31 108 C 33 110 63 110 66 109 C 71 106 70 102 64 100 C 55 97 54 94 54 73 C 54 41 57 36 70 40 C 81 44 87 41 87 33 C 87 23 78 20 66 27 C 60 30 58 30 54 26 C 50 22 48 22 40 25 z" fill="black"/><!-- width=103 height=126 -->
<path id="gl2572" d="M 45 12 C 25 17 13 34 13 56 C 13 70 16 78 25 87 C 34 96 40 98 55 98 C 67 98 72 96 80 89 C 94 77 100 51 91 33 C 82 16 63 7 45 12 M 61 24 C 77 31 82 60 71 78 C 64 90 49 90 40 80 C 28 68 28 39 39 28 C 46 21 52 19 61 24 z" fill="black"/><!-- width=109 height=111 -->
<path id="gl2569" d="M 79 8 C 78 8 74 9 72 11 C 63 15 62 18 66 26 C 69 33 70 38 70 51 C 70 68 70 69 55 70 C 37 70 25 76 16 90 C 4 109 7 138 24 149 C 34 156 44 157 56 154 C 64 151 66 151 69 153 C 75 158 78 158 91 154 C 102 150 103 144 94 140 C 91 138 90 138 88 135 C 88 135 88 133 87 133 C 87 123 87 112 87 102 C 87 85 87 58 88 43 C 88 13 88 11 86 9 C 84 7 82 7 79 8 M 59 81 C 63 82 66 85 68 90 C 69 91 69 92 70 93 C 70 99 70 105 70 110 C 70 132 69 136 63 139 C 59 141 47 141 42 138 C 21 128 23 90 45 82 C 48 81 55 81 59 81 z" fill="black"/><!-- width=119 height=198 -->
<path id="gl2589" d="M 24 10 C 14 12 11 16 16 22 C 21 28 21 28 21 53 C 21 75 21 77 24 83 C 27 90 34 94 43 94 C 50 94 54 94 61 90 C 69 85 70 86 75 90 C 78 94 79 94 83 94 C 87 93 99 90 100 89 C 105 86 104 82 98 79 C 95 78 94 77 93 75 C 93 74 92 73 91 72 C 91 63 91 53 91 44 C 91 11 91 14 90 12 C 88 9 84 9 78 10 C 64 12 61 15 69 22 C 75 28 75 28 75 51 C 75 68 75 68 74 71 C 69 81 50 85 42 76 C 37 72 37 71 37 40 C 37 12 37 12 34 10 C 32 9 30 9 24 10 z" fill="black"/><!-- width=116 height=111 -->
<path id="gl2850" d="M 64 9 C 51 12 42 16 36 25 C 16 51 26 87 55 94 C 63 96 76 95 84 91 C 99 84 104 72 94 70 C 92 69 91 70 88 72 C 82 77 81 77 78 79 C 58 84 42 70 42 50 C 42 26 64 13 81 26 C 90 33 97 30 97 21 C 97 15 93 12 87 10 C 84 9 68 8 64 9 z" fill="black"/><!-- width=111 height=111 -->
<path id="gl2834" d="M 38 15 C 37 15 36 17 34 19 C 33 21 30 24 27 27 C 21 33 21 34 25 39 C 29 43 29 43 29 67 C 28 101 30 106 41 111 C 52 117 71 110 71 102 C 71 97 67 97 60 99 C 52 100 48 97 45 89 C 45 88 45 78 45 66 C 44 38 44 38 58 39 C 66 39 67 39 69 37 C 73 34 72 30 68 27 C 66 27 64 27 58 27 C 55 27 52 27 50 27 C 49 27 49 26 48 25 C 48 24 46 22 46 19 C 43 13 42 12 38 15 z" fill="black"/><!-- width=84 height=127 -->
<path id="gl2571" d="M 26 7 C 20 9 17 16 19 22 C 24 33 39 31 42 21 C 43 12 34 4 26 7 M 32 57 C 30 58 23 61 20 63 C 16 66 16 70 19 76 C 22 82 23 83 23 105 C 23 130 23 130 16 136 C 12 141 11 144 16 146 C 18 147 42 148 45 147 C 50 144 50 141 45 136 C 39 130 39 129 39 105 C 39 94 40 80 40 73 C 40 61 40 60 37 58 C 35 57 34 57 32 57 z" fill="black"/><!-- width=61 height=186 -->
<path id="gl2839" d="M 86 28 C 75 28 72 33 78 39 C 82 44 83 47 79 56 C 78 58 76 64 74 69 C 70 81 69 82 65 82 C 61 82 59 78 51 57 C 47 45 47 43 50 38 C 53 33 52 31 48 29 C 44 28 22 28 20 30 C 16 31 16 36 21 39 C 27 44 30 48 37 64 C 39 69 42 77 44 82 C 46 87 49 95 51 100 C 55 112 58 115 63 114 C 66 112 68 110 71 100 C 73 96 77 87 81 80 C 84 73 88 64 90 60 C 94 51 96 48 102 42 C 106 37 106 36 106 34 C 106 29 102 27 86 28 z" fill="black"/><!-- width=120 height=127 -->
<path id="gl2571" d="M 26 7 C 20 9 17 16 19 22 C 24 33 39 31 42 21 C 43 12 34 4 26 7 M 32 57 C 30 58 23 61 20 63 C 16 66 16 70 19 76 C 22 82 23 83 23 105 C 23 130 23 130 16 136 C 12 141 11 144 16 146 C 18 147 42 148 45 147 C 50 144 50 141 45 136 C 39 130 39 129 39 105 C 39 94 40 80 40 73 C 40 61 40 60 37 58 C 35 57 34 57 32 57 z" fill="black"/><!-- width=61 height=186 -->
<path id="gl2834" d="M 38 15 C 37 15 36 17 34 19 C 33 21 30 24 27 27 C 21 33 21 34 25 39 C 29 43 29 43 29 67 C 28 101 30 106 41 111 C 52 117 71 110 71 102 C 71 97 67 97 60 99 C 52 100 48 97 45 89 C 45 88 45 78 45 66 C 44 38 44 38 58 39 C 66 39 67 39 69 37 C 73 34 72 30 68 27 C 66 27 64 27 58 27 C 55 27 52 27 50 27 C 49 27 49 26 48 25 C 48 24 46 22 46 19 C 43 13 42 12 38 15 z" fill="black"/><!-- width=84 height=127 -->
<path id="gl2822" d="M 87 45 C 81 46 79 49 84 55 C 88 62 87 65 81 81 C 75 96 73 99 71 99 C 67 99 66 96 63 87 C 56 67 55 61 58 55 C 61 51 61 48 58 46 C 57 45 56 45 44 45 C 29 45 27 45 25 48 C 24 51 25 53 30 58 C 36 62 38 66 42 79 C 45 85 47 91 48 92 C 51 98 57 121 57 127 C 57 135 51 150 45 156 C 42 159 42 160 34 163 C 28 165 27 168 27 174 C 27 178 28 181 32 183 C 40 187 48 182 53 171 C 61 155 66 144 67 140 C 68 138 71 132 73 126 C 75 121 78 115 79 112 C 81 109 84 102 86 97 C 89 92 93 84 94 80 C 100 67 102 64 111 56 C 115 52 116 48 111 45 C 109 44 94 44 87 45 z" fill="black"/><!-- width=126 height=196 -->
<path id="gl3103" d="M 4 9 C 4 14 9 19 14 24 C 24 28 24 124 14 134 C 4 144 4 144 33 144 C 57 144 57 144 48 139 C 43 129 43 120 43 72 C 43 57 43 38 43 19 C 48 19 52 19 57 19 C 81 24 86 52 67 72 C 52 86 52 91 62 91 C 81 91 100 67 100 48 C 100 24 76 9 38 9 C 19 9 4 9 4 9 z" fill="black"/><!-- width=110 height=158 -->
<path id="gl2337" d="M 40 25 C 32 30 31 33 36 40 C 36 42 37 44 38 46 C 38 52 38 59 38 66 C 39 91 38 93 32 99 C 28 103 27 106 31 108 C 33 110 63 110 66 109 C 71 106 70 102 64 100 C 55 97 54 94 54 73 C 54 41 57 36 70 40 C 81 44 87 41 87 33 C 87 23 78 20 66 27 C 60 30 58 30 54 26 C 50 22 48 22 40 25 z" fill="black"/><!-- width=103 height=126 -->
<path id="gl2841" d="M 55 15 C 34 19 19 46 25 71 C 28 87 42 100 58 101 C 76 102 98 88 91 79 C 89 78 86 78 81 81 C 64 92 43 83 40 63 C 39 55 40 50 45 48 C 46 47 48 47 66 48 C 88 48 89 48 92 44 C 96 39 90 25 82 19 C 75 15 64 13 55 15 M 67 25 C 75 29 74 37 66 39 C 54 43 45 40 46 34 C 48 26 60 22 67 25 z" fill="black"/><!-- width=109 height=114 -->
<path id="gl2568" d="M 43 8 C 26 9 16 19 18 33 C 18 43 24 49 39 58 C 51 64 55 73 48 81 C 41 88 31 84 24 73 C 20 67 18 66 16 66 C 12 66 10 69 11 75 C 12 87 17 92 29 94 C 48 96 63 90 66 79 C 70 65 64 54 48 45 C 36 37 32 33 32 27 C 32 22 37 18 43 17 C 47 17 50 19 55 24 C 62 31 67 30 67 22 C 69 15 63 9 56 8 C 49 7 48 7 43 8 z" fill="black"/><!-- width=82 height=106 -->
<path id="gl2568" d="M 43 8 C 26 9 16 19 18 33 C 18 43 24 49 39 58 C 51 64 55 73 48 81 C 41 88 31 84 24 73 C 20 67 18 66 16 66 C 12 66 10 69 11 75 C 12 87 17 92 29 94 C 48 96 63 90 66 79 C 70 65 64 54 48 45 C 36 37 32 33 32 27 C 32 22 37 18 43 17 C 47 17 50 19 55 24 C 62 31 67 30 67 22 C 69 15 63 9 56 8 C 49 7 48 7 43 8 z" fill="black"/><!-- width=82 height=106 -->
<path id="gl3104" d="M 76 3 C 73 5 70 9 68 10 C 67 12 65 15 63 17 C 62 19 59 22 57 25 C 55 28 53 32 52 33 C 50 35 45 43 36 54 C 36 55 33 58 32 60 C 30 62 28 65 27 67 C 20 76 19 78 16 82 C 10 90 6 97 5 101 C 4 103 7 106 10 108 C 13 109 15 109 31 108 C 50 106 55 107 57 108 C 60 111 61 114 61 120 C 61 130 58 136 51 138 C 46 139 45 141 45 144 C 45 146 48 148 50 149 C 64 149 82 149 84 148 C 87 148 89 146 89 145 C 89 142 88 140 85 138 C 78 133 75 121 78 112 C 80 109 82 108 87 106 C 93 105 96 103 93 99 C 92 97 91 97 89 97 C 78 96 77 94 78 78 C 78 73 78 64 78 61 C 78 58 78 56 78 54 C 77 52 76 52 76 51 C 72 48 66 49 63 55 C 61 58 61 58 61 74 C 61 99 61 99 36 97 C 24 96 23 91 35 75 C 38 72 42 67 44 64 C 46 61 50 56 53 52 C 56 49 59 45 61 43 C 65 36 70 30 75 24 C 84 15 85 13 84 9 C 84 7 84 6 83 5 C 82 4 77 3 76 3 z" fill="black"/><!-- width=115 height=178 -->
<path id="gl3104" d="M 76 3 C 73 5 70 9 68 10 C 67 12 65 15 63 17 C 62 19 59 22 57 25 C 55 28 53 32 52 33 C 50 35 45 43 36 54 C 36 55 33 58 32 60 C 30 62 28 65 27 67 C 20 76 19 78 16 82 C 10 90 6 97 5 101 C 4 103 7 106 10 108 C 13 109 15 109 31 108 C 50 106 55 107 57 108 C 60 111 61 114 61 120 C 61 130 58 136 51 138 C 46 139 45 141 45 144 C 45 146 48 148 50 149 C 64 149 82 149 84 148 C 87 148 89 146 89 145 C 89 142 88 140 85 138 C 78 133 75 121 78 112 C 80 109 82 108 87 106 C 93 105 96 103 93 99 C 92 97 91 97 89 97 C 78 96 77 94 78 78 C 78 73 78 64 78 61 C 78 58 78 56 78 54 C 77 52 76 52 76 51 C 72 48 66 49 63 55 C 61 58 61 58 61 74 C 61 99 61 99 36 97 C 24 96 23 91 35 75 C 38 72 42 67 44 64 C 46 61 50 56 53 52 C 56 49 59 45 61 43 C 65 36 70 30 75 24 C 84 15 85 13 84 9 C 84 7 84 6 83 5 C 82 4 77 3 76 3 z" fill="black"/><!-- width=115 height=178 -->
<path id="gl3104" d="M 76 3 C 73 5 70 9 68 10 C 67 12 65 15 63 17 C 62 19 59 22 57 25 C 55 28 53 32 52 33 C 50 35 45 43 36 54 C 36 55 33 58 32 60 C 30 62 28 65 27 67 C 20 76 19 78 16 82 C 10 90 6 97 5 101 C 4 103 7 106 10 108 C 13 109 15 109 31 108 C 50 106 55 107 57 108 C 60 111 61 114 61 120 C 61 130 58 136 51 138 C 46 139 45 141 45 144 C 45 146 48 148 50 149 C 64 149 82 149 84 148 C 87 148 89 146 89 145 C 89 142 88 140 85 138 C 78 133 75 121 78 112 C 80 109 82 108 87 106 C 93 105 96 103 93 99 C 92 97 91 97 89 97 C 78 96 77 94 78 78 C 78 73 78 64 78 61 C 78 58 78 56 78 54 C 77 52 76 52 76 51 C 72 48 66 49 63 55 C 61 58 61 58 61 74 C 61 99 61 99 36 97 C 24 96 23 91 35 75 C 38 72 42 67 44 64 C 46 61 50 56 53 52 C 56 49 59 45 61 43 C 65 36 70 30 75 24 C 84 15 85 13 84 9 C 84 7 84 6 83 5 C 82 4 77 3 76 3 z" fill="black"/><!-- width=115 height=178 -->
<path id="gl3102" d="M 35 29 C 21 31 19 37 30 42 C 34 43 36 46 37 51 C 38 55 37 144 37 148 C 35 154 33 156 27 159 C 22 160 22 166 26 168 C 28 169 65 169 67 168 C 72 165 72 160 65 157 C 60 155 58 153 57 148 C 56 145 56 138 56 99 C 56 53 56 48 58 44 C 62 36 82 40 89 51 C 100 68 95 91 76 100 C 68 104 67 111 75 111 C 82 112 95 108 100 102 C 112 91 117 79 114 63 C 112 46 100 35 80 30 C 76 29 43 28 35 29 z" fill="black"/><!-- width=128 height=179 -->
<path id="gl3072" d="M 47 9 C 29 10 10 29 19 36 C 23 40 30 36 34 28 C 39 20 45 17 51 21 C 61 25 61 46 52 51 C 51 51 46 52 40 54 C 21 60 15 64 16 77 C 17 88 24 93 35 93 C 37 93 39 93 42 93 C 44 92 46 91 48 90 C 55 87 57 86 61 88 C 71 94 75 95 82 91 C 91 87 92 82 84 80 C 75 78 74 78 74 49 C 75 25 74 24 71 18 C 67 11 58 7 47 9 M 55 59 C 61 62 60 75 53 79 C 45 85 34 81 34 72 C 34 64 48 55 55 59 z" fill="black"/><!-- width=105 height=114 -->
<path id="gl2337" d="M 40 25 C 32 30 31 33 36 40 C 36 42 37 44 38 46 C 38 52 38 59 38 66 C 39 91 38 93 32 99 C 28 103 27 106 31 108 C 33 110 63 110 66 109 C 71 106 70 102 64 100 C 55 97 54 94 54 73 C 54 41 57 36 70 40 C 81 44 87 41 87 33 C 87 23 78 20 66 27 C 60 30 58 30 54 26 C 50 22 48 22 40 25 z" fill="black"/><!-- width=103 height=126 -->
<path id="gl2821" d="M 52 7 C 49 8 39 13 39 14 C 37 17 37 19 40 25 C 44 34 44 33 45 84 C 45 138 45 138 38 144 C 34 148 34 150 34 152 C 35 155 38 156 50 156 C 69 156 73 154 67 145 C 61 138 60 130 61 121 C 63 111 72 114 83 132 C 88 139 88 139 88 145 C 88 155 91 156 110 156 C 123 156 125 155 126 153 C 129 149 126 146 120 142 C 114 139 109 135 101 127 C 84 110 82 106 86 100 C 88 95 105 84 115 79 C 123 76 124 74 121 70 C 120 66 117 66 105 66 C 87 67 85 68 87 77 C 87 81 87 84 83 89 C 76 99 69 104 64 101 C 61 99 60 96 61 67 C 63 37 63 13 62 10 C 60 7 57 6 52 7 z" fill="black"/><!-- width=139 height=195 -->
<path id="gl3105" d="M 62 14 C 57 19 48 48 38 72 C 28 96 14 124 9 129 C 0 139 0 139 19 139 C 28 139 33 139 38 139 C 38 134 38 129 38 120 C 38 91 48 81 67 86 C 91 86 100 115 91 134 C 86 139 86 139 105 139 C 129 139 139 134 124 129 C 120 129 110 100 96 67 C 76 0 72 0 62 14 M 76 52 C 81 72 81 76 62 76 C 57 72 52 72 52 72 C 52 67 62 43 67 43 C 67 43 72 48 76 52 z" fill="black"/><!-- width=144 height=153 -->
<path id="gl2839" d="M 86 28 C 75 28 72 33 78 39 C 82 44 83 47 79 56 C 78 58 76 64 74 69 C 70 81 69 82 65 82 C 61 82 59 78 51 57 C 47 45 47 43 50 38 C 53 33 52 31 48 29 C 44 28 22 28 20 30 C 16 31 16 36 21 39 C 27 44 30 48 37 64 C 39 69 42 77 44 82 C 46 87 49 95 51 100 C 55 112 58 115 63 114 C 66 112 68 110 71 100 C 73 96 77 87 81 80 C 84 73 88 64 90 60 C 94 51 96 48 102 42 C 106 37 106 36 106 34 C 106 29 102 27 86 28 z" fill="black"/><!-- width=120 height=127 -->
<path id="gl2567" d="M 51 16 C 40 19 33 27 27 42 C 21 53 21 66 27 78 C 30 88 43 98 52 100 C 68 103 91 92 90 82 C 90 77 86 76 80 81 C 73 85 68 86 61 84 C 47 81 39 71 39 57 C 39 52 39 50 43 48 C 45 46 49 46 61 47 C 73 48 85 48 87 46 C 90 45 91 42 91 38 C 90 28 85 22 77 18 C 75 17 73 16 72 15 C 69 15 66 15 63 15 C 57 15 54 15 51 16 M 66 25 C 73 28 72 36 64 39 C 59 40 48 40 46 39 C 39 31 55 21 66 25 z" fill="black"/><!-- width=106 height=114 -->
<path id="gl2561" d="M 30 16 C 25 18 22 20 21 22 C 19 25 19 26 24 36 C 25 38 25 39 25 60 C 25 85 25 84 20 90 C 15 95 15 97 18 100 C 18 100 19 100 19 101 C 24 101 29 101 34 101 C 39 101 43 101 48 101 C 49 100 49 100 50 100 C 53 97 52 95 47 90 C 42 85 42 83 42 61 C 42 54 42 48 42 42 C 43 40 43 39 44 37 C 51 24 75 25 80 39 C 81 42 81 45 81 57 C 82 79 81 85 76 90 C 70 94 70 98 73 100 C 76 102 100 102 103 100 C 108 98 108 94 103 91 C 102 90 100 87 99 85 C 99 84 98 83 97 82 C 97 74 97 66 97 58 C 97 39 97 35 96 32 C 91 15 74 10 55 19 C 48 22 46 22 42 18 C 38 14 36 13 30 16 z" fill="black"/><!-- width=120 height=116 -->
<path id="gl2589" d="M 24 10 C 14 12 11 16 16 22 C 21 28 21 28 21 53 C 21 75 21 77 24 83 C 27 90 34 94 43 94 C 50 94 54 94 61 90 C 69 85 70 86 75 90 C 78 94 79 94 83 94 C 87 93 99 90 100 89 C 105 86 104 82 98 79 C 95 78 94 77 93 75 C 93 74 92 73 91 72 C 91 63 91 53 91 44 C 91 11 91 14 90 12 C 88 9 84 9 78 10 C 64 12 61 15 69 22 C 75 28 75 28 75 51 C 75 68 75 68 74 71 C 69 81 50 85 42 76 C 37 72 37 71 37 40 C 37 12 37 12 34 10 C 32 9 30 9 24 10 z" fill="black"/><!-- width=116 height=111 -->
<path id="gl2841" d="M 55 15 C 34 19 19 46 25 71 C 28 87 42 100 58 101 C 76 102 98 88 91 79 C 89 78 86 78 81 81 C 64 92 43 83 40 63 C 39 55 40 50 45 48 C 46 47 48 47 66 48 C 88 48 89 48 92 44 C 96 39 90 25 82 19 C 75 15 64 13 55 15 M 67 25 C 75 29 74 37 66 39 C 54 43 45 40 46 34 C 48 26 60 22 67 25 z" fill="black"/><!-- width=109 height=114 -->
<path id="gl3106" d="M 48 8 C 43 8 41 9 39 10 C 37 10 34 12 34 12 C 28 14 23 18 20 22 C 9 39 12 56 30 70 C 34 75 39 78 42 79 C 44 80 48 82 57 88 C 66 94 71 106 69 115 C 64 128 54 135 42 133 C 30 132 22 125 16 112 C 15 109 14 108 12 107 C 11 106 10 106 9 106 C 9 106 9 107 8 108 C 6 109 5 114 6 118 C 7 121 7 123 7 125 C 9 136 12 140 27 145 C 34 147 52 147 60 143 C 68 139 69 139 73 135 C 85 123 88 112 84 95 C 82 85 75 76 63 69 C 36 54 30 48 30 38 C 30 32 33 26 37 23 C 44 19 60 19 66 24 C 69 26 70 27 73 33 C 75 36 78 37 80 37 C 86 36 87 34 84 19 C 82 13 81 12 75 9 C 72 9 58 7 55 7 C 54 7 51 7 48 8 z" fill="black"/><!-- width=98 height=158 -->
<path id="gl2572" d="M 45 12 C 25 17 13 34 13 56 C 13 70 16 78 25 87 C 34 96 40 98 55 98 C 67 98 72 96 80 89 C 94 77 100 51 91 33 C 82 16 63 7 45 12 M 61 24 C 77 31 82 60 71 78 C 64 90 49 90 40 80 C 28 68 28 39 39 28 C 46 21 52 19 61 24 z" fill="black"/><!-- width=109 height=111 -->
<path id="gl2589" d="M 24 10 C 14 12 11 16 16 22 C 21 28 21 28 21 53 C 21 75 21 77 24 83 C 27 90 34 94 43 94 C 50 94 54 94 61 90 C 69 85 70 86 75 90 C 78 94 79 94 83 94 C 87 93 99 90 100 89 C 105 86 104 82 98 79 C 95 78 94 77 93 75 C 93 74 92 73 91 72 C 91 63 91 53 91 44 C 91 11 91 14 90 12 C 88 9 84 9 78 10 C 64 12 61 15 69 22 C 75 28 75 28 75 51 C 75 68 75 68 74 71 C 69 81 50 85 42 76 C 37 72 37 71 37 40 C 37 12 37 12 34 10 C 32 9 30 9 24 10 z" fill="black"/><!-- width=116 height=111 -->
<path id="gl2570" d="M 39 14 C 38 15 36 16 34 20 C 32 23 29 27 27 29 C 22 34 22 36 25 42 C 29 47 29 46 29 75 C 29 99 29 99 30 103 C 36 117 55 121 66 110 C 71 106 72 101 69 99 C 67 98 67 98 62 100 C 54 104 48 101 45 93 C 44 89 44 47 45 45 C 47 41 50 40 56 40 C 66 42 69 41 71 37 C 72 34 72 32 69 30 C 67 28 67 28 59 29 C 48 30 46 29 45 21 C 44 13 43 12 39 14 z" fill="black"/><!-- width=84 height=131 -->
<path id="gl2591" d="M 43 9 C 37 11 30 16 28 19 C 27 22 27 24 31 27 C 33 28 34 30 36 33 C 36 34 36 35 37 36 C 37 52 37 68 37 84 C 37 119 36 132 36 135 C 35 139 33 143 31 145 C 26 148 26 152 30 154 C 32 156 33 156 45 156 C 58 156 61 155 63 153 C 64 150 64 148 60 145 C 55 138 55 138 55 114 C 54 91 55 90 58 86 C 64 79 78 77 87 84 C 93 88 96 101 93 127 C 93 137 91 140 87 144 C 84 148 83 150 84 152 C 85 155 88 156 103 156 C 118 156 121 155 122 152 C 123 149 123 149 117 144 C 112 139 112 138 112 113 C 111 84 111 80 105 74 C 97 65 84 64 69 71 C 62 74 59 75 57 72 C 54 69 54 66 55 41 C 55 29 55 18 55 16 C 54 10 51 7 43 9 z" fill="black"/><!-- width=135 height=190 -->
<path id="gl2573" d="M 19 19 C 13 22 13 32 18 37 C 25 42 25 48 18 55 C 12 60 13 66 20 65 C 25 64 30 60 33 51 C 36 45 36 27 33 22 C 30 19 23 18 19 19 z" fill="black"/><!-- width=51 height=78 -->
<path id="gl3106" d="M 48 8 C 43 8 41 9 39 10 C 37 10 34 12 34 12 C 28 14 23 18 20 22 C 9 39 12 56 30 70 C 34 75 39 78 42 79 C 44 80 48 82 57 88 C 66 94 71 106 69 115 C 64 128 54 135 42 133 C 30 132 22 125 16 112 C 15 109 14 108 12 107 C 11 106 10 106 9 106 C 9 106 9 107 8 108 C 6 109 5 114 6 118 C 7 121 7 123 7 125 C 9 136 12 140 27 145 C 34 147 52 147 60 143 C 68 139 69 139 73 135 C 85 123 88 112 84 95 C 82 85 75 76 63 69 C 36 54 30 48 30 38 C 30 32 33 26 37 23 C 44 19 60 19 66 24 C 69 26 70 27 73 33 C 75 36 78 37 80 37 C 86 36 87 34 84 19 C 82 13 81 12 75 9 C 72 9 58 7 55 7 C 54 7 51 7 48 8 z" fill="black"/><!-- width=98 height=158 -->
<path id="gl2589" d="M 24 10 C 14 12 11 16 16 22 C 21 28 21 28 21 53 C 21 75 21 77 24 83 C 27 90 34 94 43 94 C 50 94 54 94 61 90 C 69 85 70 86 75 90 C 78 94 79 94 83 94 C 87 93 99 90 100 89 C 105 86 104 82 98 79 C 95 78 94 77 93 75 C 93 74 92 73 91 72 C 91 63 91 53 91 44 C 91 11 91 14 90 12 C 88 9 84 9 78 10 C 64 12 61 15 69 22 C 75 28 75 28 75 51 C 75 68 75 68 74 71 C 69 81 50 85 42 76 C 37 72 37 71 37 40 C 37 12 37 12 34 10 C 32 9 30 9 24 10 z" fill="black"/><!-- width=116 height=111 -->
<path id="gl2571" d="M 26 7 C 20 9 17 16 19 22 C 24 33 39 31 42 21 C 43 12 34 4 26 7 M 32 57 C 30 58 23 61 20 63 C 16 66 16 70 19 76 C 22 82 23 83 23 105 C 23 130 23 130 16 136 C 12 141 11 144 16 146 C 18 147 42 148 45 147 C 50 144 50 141 45 136 C 39 130 39 129 39 105 C 39 94 40 80 40 73 C 40 61 40 60 37 58 C 35 57 34 57 32 57 z" fill="black"/><!-- width=61 height=186 -->
<path id="gl2834" d="M 38 15 C 37 15 36 17 34 19 C 33 21 30 24 27 27 C 21 33 21 34 25 39 C 29 43 29 43 29 67 C 28 101 30 106 41 111 C 52 117 71 110 71 102 C 71 97 67 97 60 99 C 52 100 48 97 45 89 C 45 88 45 78 45 66 C 44 38 44 38 58 39 C 66 39 67 39 69 37 C 73 34 72 30 68 27 C 66 27 64 27 58 27 C 55 27 52 27 50 27 C 49 27 49 26 48 25 C 48 24 46 22 46 19 C 43 13 42 12 38 15 z" fill="black"/><!-- width=84 height=127 -->
<path id="gl2567" d="M 51 16 C 40 19 33 27 27 42 C 21 53 21 66 27 78 C 30 88 43 98 52 100 C 68 103 91 92 90 82 C 90 77 86 76 80 81 C 73 85 68 86 61 84 C 47 81 39 71 39 57 C 39 52 39 50 43 48 C 45 46 49 46 61 47 C 73 48 85 48 87 46 C 90 45 91 42 91 38 C 90 28 85 22 77 18 C 75 17 73 16 72 15 C 69 15 66 15 63 15 C 57 15 54 15 51 16 M 66 25 C 73 28 72 36 64 39 C 59 40 48 40 46 39 C 39 31 55 21 66 25 z" fill="black"/><!-- width=106 height=114 -->
<path id="gl3328" d="M 88 3 C 87 3 85 4 84 4 C 83 5 80 6 78 7 C 76 7 73 9 72 9 C 72 10 69 11 67 12 C 65 13 63 13 62 14 C 61 15 60 16 59 16 C 51 20 33 38 29 46 C 23 57 19 66 18 70 C 18 71 18 73 17 74 C 16 76 15 81 15 92 C 15 95 15 98 15 101 C 15 104 16 107 17 110 C 18 115 20 121 21 123 C 24 131 33 140 38 141 C 39 142 42 142 43 143 C 46 145 55 146 61 145 C 78 145 90 135 97 121 C 101 110 102 95 98 85 C 91 69 77 61 59 66 C 55 66 50 70 50 72 C 50 74 54 76 57 76 C 72 76 81 85 81 102 C 82 108 81 114 79 118 C 73 132 63 137 52 132 C 41 126 37 119 34 99 C 33 90 34 80 36 75 C 36 73 37 71 37 69 C 41 51 60 28 77 22 C 79 21 81 20 82 19 C 84 18 86 17 90 16 C 91 16 93 15 94 14 C 96 13 97 12 98 11 C 99 10 99 10 100 10 C 99 9 99 8 99 7 C 96 3 93 1 88 3 z" fill="black"/><!-- width=111 height=173 -->
<path id="gl3092" d="M 51 9 C 40 10 34 13 26 24 C 13 41 9 78 16 107 C 20 120 30 133 38 138 C 45 141 58 141 66 139 C 78 135 88 121 92 105 C 95 94 95 90 96 80 C 97 36 79 6 51 9 M 58 20 C 75 25 83 74 72 110 C 69 120 61 129 54 130 C 40 130 31 108 31 74 C 31 38 43 15 58 20 z" fill="black"/><!-- width=109 height=151 -->
<path id="gl3104" d="M 76 3 C 73 5 70 9 68 10 C 67 12 65 15 63 17 C 62 19 59 22 57 25 C 55 28 53 32 52 33 C 50 35 45 43 36 54 C 36 55 33 58 32 60 C 30 62 28 65 27 67 C 20 76 19 78 16 82 C 10 90 6 97 5 101 C 4 103 7 106 10 108 C 13 109 15 109 31 108 C 50 106 55 107 57 108 C 60 111 61 114 61 120 C 61 130 58 136 51 138 C 46 139 45 141 45 144 C 45 146 48 148 50 149 C 64 149 82 149 84 148 C 87 148 89 146 89 145 C 89 142 88 140 85 138 C 78 133 75 121 78 112 C 80 109 82 108 87 106 C 93 105 96 103 93 99 C 92 97 91 97 89 97 C 78 96 77 94 78 78 C 78 73 78 64 78 61 C 78 58 78 56 78 54 C 77 52 76 52 76 51 C 72 48 66 49 63 55 C 61 58 61 58 61 74 C 61 99 61 99 36 97 C 24 96 23 91 35 75 C 38 72 42 67 44 64 C 46 61 50 56 53 52 C 56 49 59 45 61 43 C 65 36 70 30 75 24 C 84 15 85 13 84 9 C 84 7 84 6 83 5 C 82 4 77 3 76 3 z" fill="black"/><!-- width=115 height=178 -->
<path id="gl3329" d="M 15 19 C 11 19 10 20 10 23 C 9 27 10 27 18 31 C 22 34 24 34 25 37 C 29 43 29 45 27 78 C 27 85 27 94 27 97 C 28 111 27 135 25 139 C 24 145 22 147 19 148 C 13 152 12 160 18 161 C 24 163 50 162 54 160 C 55 160 58 157 58 156 C 58 154 54 151 50 149 C 42 145 40 139 40 105 C 40 95 39 82 39 77 C 38 63 39 58 44 58 C 46 58 56 68 63 78 C 66 83 77 97 84 104 C 87 107 90 111 91 112 C 94 116 100 124 107 132 C 110 136 115 142 118 145 C 126 156 129 158 133 157 C 138 156 138 155 137 137 C 137 130 137 123 138 114 C 138 106 138 88 138 72 C 139 35 138 37 150 28 C 153 25 152 21 150 19 C 147 18 113 18 111 19 C 105 21 106 28 114 30 C 123 33 126 40 125 69 C 125 78 126 89 126 95 C 127 107 126 111 124 114 C 122 118 118 117 113 111 C 111 108 108 104 105 100 C 102 97 99 93 96 90 C 94 87 90 82 87 78 C 80 71 73 63 69 58 C 67 55 63 51 61 47 C 58 44 54 38 51 34 C 45 25 45 24 42 22 C 37 19 24 18 15 19 z" fill="black"/><!-- width=160 height=174 -->
<path id="gl2841" d="M 55 15 C 34 19 19 46 25 71 C 28 87 42 100 58 101 C 76 102 98 88 91 79 C 89 78 86 78 81 81 C 64 92 43 83 40 63 C 39 55 40 50 45 48 C 46 47 48 47 66 48 C 88 48 89 48 92 44 C 96 39 90 25 82 19 C 75 15 64 13 55 15 M 67 25 C 75 29 74 37 66 39 C 54 43 45 40 46 34 C 48 26 60 22 67 25 z" fill="black"/><!-- width=109 height=114 -->
<path id="gl3075" d="M 127 23 C 121 24 120 27 123 33 C 126 39 125 42 117 64 C 114 75 109 76 104 68 C 102 63 95 45 95 42 C 94 38 96 34 99 33 C 102 30 103 26 99 24 C 97 24 70 23 68 24 C 64 27 65 30 72 35 C 77 39 78 48 72 59 C 70 61 69 66 68 67 C 63 78 58 75 52 60 C 45 42 45 38 51 31 C 52 29 52 29 51 27 C 50 24 48 24 33 24 C 28 24 23 24 18 24 C 18 24 17 25 16 25 C 13 29 15 31 21 36 C 25 39 28 43 34 58 C 36 62 39 69 40 74 C 45 83 48 93 48 95 C 48 98 51 106 53 108 C 58 112 63 109 66 98 C 70 84 73 74 76 69 C 79 62 80 61 83 62 C 86 62 87 63 89 67 C 93 77 94 82 99 98 C 102 108 103 111 109 109 C 112 108 113 107 117 96 C 124 72 141 37 144 36 C 145 36 146 35 148 33 C 153 30 152 26 147 24 C 145 22 132 22 127 23 z" fill="black"/><!-- width=162 height=120 -->
<path id="gl3330" d="M 119 25 C 119 25 115 25 111 26 C 102 27 101 27 100 31 C 99 33 99 34 101 36 C 106 41 105 46 96 61 C 95 63 93 67 91 70 C 86 84 84 88 81 89 C 76 93 72 88 64 67 C 63 65 60 59 58 55 C 53 44 53 41 58 36 C 60 33 61 33 60 30 C 60 26 59 26 37 26 C 16 27 16 27 16 31 C 17 34 19 36 24 40 C 30 43 33 47 36 54 C 37 56 39 59 40 60 C 40 62 42 64 42 66 C 43 69 50 81 53 86 C 63 102 66 112 65 132 C 65 151 63 155 53 157 C 51 157 50 157 48 160 C 46 163 46 164 49 167 C 49 168 50 168 50 169 C 58 169 66 169 73 169 C 86 169 97 169 97 169 C 98 169 99 167 100 166 C 100 165 101 164 102 163 C 101 162 101 162 100 160 C 99 159 98 158 94 157 C 85 154 84 150 84 126 C 85 106 87 101 98 85 C 99 84 100 82 100 82 C 100 81 101 79 103 77 C 105 74 110 64 110 63 C 110 62 115 55 118 51 C 122 45 124 43 127 40 C 135 36 137 34 137 31 C 137 30 138 29 138 28 C 136 27 135 27 135 26 C 132 25 122 24 119 25 M 116 120 C 115 121 115 135 116 136 C 117 138 118 134 118 127 C 118 120 117 117 116 120 z" fill="black"/><!-- width=147 height=177 -->
<path id="gl2572" d="M 45 12 C 25 17 13 34 13 56 C 13 70 16 78 25 87 C 34 96 40 98 55 98 C 67 98 72 96 80 89 C 94 77 100 51 91 33 C 82 16 63 7 45 12 M 61 24 C 77 31 82 60 71 78 C 64 90 49 90 40 80 C 28 68 28 39 39 28 C 46 21 52 19 61 24 z" fill="black"/><!-- width=109 height=111 -->
<path id="gl2337" d="M 40 25 C 32 30 31 33 36 40 C 36 42 37 44 38 46 C 38 52 38 59 38 66 C 39 91 38 93 32 99 C 28 103 27 106 31 108 C 33 110 63 110 66 109 C 71 106 70 102 64 100 C 55 97 54 94 54 73 C 54 41 57 36 70 40 C 81 44 87 41 87 33 C 87 23 78 20 66 27 C 60 30 58 30 54 26 C 50 22 48 22 40 25 z" fill="black"/><!-- width=103 height=126 -->
<path id="gl2821" d="M 52 7 C 49 8 39 13 39 14 C 37 17 37 19 40 25 C 44 34 44 33 45 84 C 45 138 45 138 38 144 C 34 148 34 150 34 152 C 35 155 38 156 50 156 C 69 156 73 154 67 145 C 61 138 60 130 61 121 C 63 111 72 114 83 132 C 88 139 88 139 88 145 C 88 155 91 156 110 156 C 123 156 125 155 126 153 C 129 149 126 146 120 142 C 114 139 109 135 101 127 C 84 110 82 106 86 100 C 88 95 105 84 115 79 C 123 76 124 74 121 70 C 120 66 117 66 105 66 C 87 67 85 68 87 77 C 87 81 87 84 83 89 C 76 99 69 104 64 101 C 61 99 60 96 61 67 C 63 37 63 13 62 10 C 60 7 57 6 52 7 z" fill="black"/><!-- width=139 height=195 -->
<path id="gl2573" d="M 19 19 C 13 22 13 32 18 37 C 25 42 25 48 18 55 C 12 60 13 66 20 65 C 25 64 30 60 33 51 C 36 45 36 27 33 22 C 30 19 23 18 19 19 z" fill="black"/><!-- width=51 height=78 -->
<path id="gl3329" d="M 15 19 C 11 19 10 20 10 23 C 9 27 10 27 18 31 C 22 34 24 34 25 37 C 29 43 29 45 27 78 C 27 85 27 94 27 97 C 28 111 27 135 25 139 C 24 145 22 147 19 148 C 13 152 12 160 18 161 C 24 163 50 162 54 160 C 55 160 58 157 58 156 C 58 154 54 151 50 149 C 42 145 40 139 40 105 C 40 95 39 82 39 77 C 38 63 39 58 44 58 C 46 58 56 68 63 78 C 66 83 77 97 84 104 C 87 107 90 111 91 112 C 94 116 100 124 107 132 C 110 136 115 142 118 145 C 126 156 129 158 133 157 C 138 156 138 155 137 137 C 137 130 137 123 138 114 C 138 106 138 88 138 72 C 139 35 138 37 150 28 C 153 25 152 21 150 19 C 147 18 113 18 111 19 C 105 21 106 28 114 30 C 123 33 126 40 125 69 C 125 78 126 89 126 95 C 127 107 126 111 124 114 C 122 118 118 117 113 111 C 111 108 108 104 105 100 C 102 97 99 93 96 90 C 94 87 90 82 87 78 C 80 71 73 63 69 58 C 67 55 63 51 61 47 C 58 44 54 38 51 34 C 45 25 45 24 42 22 C 37 19 24 18 15 19 z" fill="black"/><!-- width=160 height=174 -->
<path id="gl3330" d="M 119 25 C 119 25 115 25 111 26 C 102 27 101 27 100 31 C 99 33 99 34 101 36 C 106 41 105 46 96 61 C 95 63 93 67 91 70 C 86 84 84 88 81 89 C 76 93 72 88 64 67 C 63 65 60 59 58 55 C 53 44 53 41 58 36 C 60 33 61 33 60 30 C 60 26 59 26 37 26 C 16 27 16 27 16 31 C 17 34 19 36 24 40 C 30 43 33 47 36 54 C 37 56 39 59 40 60 C 40 62 42 64 42 66 C 43 69 50 81 53 86 C 63 102 66 112 65 132 C 65 151 63 155 53 157 C 51 157 50 157 48 160 C 46 163 46 164 49 167 C 49 168 50 168 50 169 C 58 169 66 169 73 169 C 86 169 97 169 97 169 C 98 169 99 167 100 166 C 100 165 101 164 102 163 C 101 162 101 162 100 160 C 99 159 98 158 94 157 C 85 154 84 150 84 126 C 85 106 87 101 98 85 C 99 84 100 82 100 82 C 100 81 101 79 103 77 C 105 74 110 64 110 63 C 110 62 115 55 118 51 C 122 45 124 43 127 40 C 135 36 137 34 137 31 C 137 30 138 29 138 28 C 136 27 135 27 135 26 C 132 25 122 24 119 25 M 116 120 C 115 121 115 135 116 136 C 117 138 118 134 118 127 C 118 120 117 117 116 120 z" fill="black"/><!-- width=147 height=177 -->
<path id="gl3331" d="M 32 10 C 28 12 25 13 20 13 C 15 15 14 15 12 17 C 9 21 10 24 18 26 C 24 27 25 28 27 32 C 27 33 28 34 28 36 C 28 49 28 63 28 76 C 28 99 28 118 28 120 C 27 124 24 127 19 129 C 13 131 12 135 16 138 C 18 139 53 139 57 137 C 61 135 60 131 54 129 C 49 127 47 125 46 121 C 45 119 45 115 45 72 C 45 46 45 23 45 21 C 46 14 45 10 42 8 C 40 7 38 7 32 10 z" fill="black"/><!-- width=71 height=151 -->
<path id="gl3092" d="M 51 9 C 40 10 34 13 26 24 C 13 41 9 78 16 107 C 20 120 30 133 38 138 C 45 141 58 141 66 139 C 78 135 88 121 92 105 C 95 94 95 90 96 80 C 97 36 79 6 51 9 M 58 20 C 75 25 83 74 72 110 C 69 120 61 129 54 130 C 40 130 31 108 31 74 C 31 38 43 15 58 20 z" fill="black"/><!-- width=109 height=151 -->
<path id="gl3092" d="M 51 9 C 40 10 34 13 26 24 C 13 41 9 78 16 107 C 20 120 30 133 38 138 C 45 141 58 141 66 139 C 78 135 88 121 92 105 C 95 94 95 90 96 80 C 97 36 79 6 51 9 M 58 20 C 75 25 83 74 72 110 C 69 120 61 129 54 130 C 40 130 31 108 31 74 C 31 38 43 15 58 20 z" fill="black"/><!-- width=109 height=151 -->
<path id="gl2826" d="M 36 7 C 34 7 32 9 30 9 C 28 10 24 12 21 12 C 13 13 9 17 10 21 C 12 23 13 24 18 25 C 22 26 25 28 27 30 C 28 34 28 118 26 122 C 24 126 22 128 18 130 C 12 132 10 135 14 138 C 16 140 19 140 30 139 C 35 139 37 139 44 139 C 53 141 55 140 58 137 C 61 134 59 132 52 129 C 44 125 43 123 43 103 C 43 94 44 72 44 54 C 44 36 45 20 45 18 C 45 8 42 5 36 7 z" fill="black"/><!-- width=70 height=152 -->
<path id="gl3096" d="M 92 6 C 66 12 40 33 28 59 C 14 87 14 115 27 135 C 31 141 43 148 51 150 C 55 151 69 150 73 149 C 91 145 103 127 103 108 C 103 87 91 72 73 71 C 62 70 52 75 54 81 C 55 82 57 83 63 84 C 77 85 85 98 83 115 C 81 129 72 139 62 138 C 43 136 33 112 39 82 C 45 56 57 38 79 27 C 81 25 84 24 85 23 C 87 22 89 21 92 20 C 100 16 103 12 101 9 C 99 6 96 5 92 6 z" fill="black"/><!-- width=117 height=180 -->
<path id="gl2820" d="M 19 44 C 15 46 15 48 13 57 C 10 70 10 76 15 76 C 18 76 18 76 22 70 C 29 61 34 58 51 58 C 61 57 63 58 65 62 C 66 63 66 64 66 64 C 66 81 66 97 66 114 C 66 168 66 166 63 171 C 61 174 60 174 57 176 C 51 178 51 178 49 181 C 48 184 49 185 52 186 C 55 187 95 187 99 186 C 106 184 105 180 97 177 C 91 175 88 172 87 168 C 87 166 87 154 87 115 C 87 58 86 61 92 59 C 94 57 95 57 104 58 C 119 58 123 60 129 68 C 136 80 141 78 142 63 C 142 45 140 42 129 43 C 115 46 44 46 31 44 C 23 42 22 42 19 44 z" fill="black"/><!-- width=154 height=202 -->
<path id="gl2841" d="M 55 15 C 34 19 19 46 25 71 C 28 87 42 100 58 101 C 76 102 98 88 91 79 C 89 78 86 78 81 81 C 64 92 43 83 40 63 C 39 55 40 50 45 48 C 46 47 48 47 66 48 C 88 48 89 48 92 44 C 96 39 90 25 82 19 C 75 15 64 13 55 15 M 67 25 C 75 29 74 37 66 39 C 54 43 45 40 46 34 C 48 26 60 22 67 25 z" fill="black"/><!-- width=109 height=114 -->
<path id="gl2832" d="M 25 12 C 18 15 14 18 14 21 C 14 21 16 24 18 25 C 25 32 24 27 24 85 C 24 115 24 137 23 139 C 22 142 21 145 17 147 C 12 151 11 154 15 156 C 18 157 44 157 47 157 C 51 155 51 152 46 147 C 40 141 40 144 41 72 C 42 39 42 16 41 15 C 40 9 35 8 25 12 z" fill="black"/><!-- width=64 height=172 -->
<path id="gl2841" d="M 55 15 C 34 19 19 46 25 71 C 28 87 42 100 58 101 C 76 102 98 88 91 79 C 89 78 86 78 81 81 C 64 92 43 83 40 63 C 39 55 40 50 45 48 C 46 47 48 47 66 48 C 88 48 89 48 92 44 C 96 39 90 25 82 19 C 75 15 64 13 55 15 M 67 25 C 75 29 74 37 66 39 C 54 43 45 40 46 34 C 48 26 60 22 67 25 z" fill="black"/><!-- width=109 height=114 -->
<path id="gl2846" d="M 45 33 C 40 34 33 39 32 41 C 30 44 30 46 33 52 C 37 59 37 59 37 104 C 37 153 37 153 30 159 C 27 162 26 165 27 167 C 28 171 30 171 48 171 C 64 171 67 170 67 167 C 69 163 68 163 60 158 C 55 155 54 151 54 137 C 54 120 54 120 69 120 C 82 120 87 118 94 114 C 117 99 123 63 105 45 C 94 33 85 31 69 37 C 60 40 58 40 55 36 C 51 31 49 31 45 33 M 79 49 C 90 53 96 62 96 76 C 96 96 87 108 72 108 C 63 108 57 105 55 98 C 54 95 53 63 54 58 C 58 49 67 45 79 49 z" fill="black"/><!-- width=130 height=184 -->
<path id="gl2591" d="M 43 9 C 37 11 30 16 28 19 C 27 22 27 24 31 27 C 33 28 34 30 36 33 C 36 34 36 35 37 36 C 37 52 37 68 37 84 C 37 119 36 132 36 135 C 35 139 33 143 31 145 C 26 148 26 152 30 154 C 32 156 33 156 45 156 C 58 156 61 155 63 153 C 64 150 64 148 60 145 C 55 138 55 138 55 114 C 54 91 55 90 58 86 C 64 79 78 77 87 84 C 93 88 96 101 93 127 C 93 137 91 140 87 144 C 84 148 83 150 84 152 C 85 155 88 156 103 156 C 118 156 121 155 122 152 C 123 149 123 149 117 144 C 112 139 112 138 112 113 C 111 84 111 80 105 74 C 97 65 84 64 69 71 C 62 74 59 75 57 72 C 54 69 54 66 55 41 C 55 29 55 18 55 16 C 54 10 51 7 43 9 z" fill="black"/><!-- width=135 height=190 -->
<path id="gl2572" d="M 45 12 C 25 17 13 34 13 56 C 13 70 16 78 25 87 C 34 96 40 98 55 98 C 67 98 72 96 80 89 C 94 77 100 51 91 33 C 82 16 63 7 45 12 M 61 24 C 77 31 82 60 71 78 C 64 90 49 90 40 80 C 28 68 28 39 39 28 C 46 21 52 19 61 24 z" fill="black"/><!-- width=109 height=111 -->
<path id="gl2561" d="M 30 16 C 25 18 22 20 21 22 C 19 25 19 26 24 36 C 25 38 25 39 25 60 C 25 85 25 84 20 90 C 15 95 15 97 18 100 C 18 100 19 100 19 101 C 24 101 29 101 34 101 C 39 101 43 101 48 101 C 49 100 49 100 50 100 C 53 97 52 95 47 90 C 42 85 42 83 42 61 C 42 54 42 48 42 42 C 43 40 43 39 44 37 C 51 24 75 25 80 39 C 81 42 81 45 81 57 C 82 79 81 85 76 90 C 70 94 70 98 73 100 C 76 102 100 102 103 100 C 108 98 108 94 103 91 C 102 90 100 87 99 85 C 99 84 98 83 97 82 C 97 74 97 66 97 58 C 97 39 97 35 96 32 C 91 15 74 10 55 19 C 48 22 46 22 42 18 C 38 14 36 13 30 16 z" fill="black"/><!-- width=120 height=116 -->
<path id="gl2841" d="M 55 15 C 34 19 19 46 25 71 C 28 87 42 100 58 101 C 76 102 98 88 91 79 C 89 78 86 78 81 81 C 64 92 43 83 40 63 C 39 55 40 50 45 48 C 46 47 48 47 66 48 C 88 48 89 48 92 44 C 96 39 90 25 82 19 C 75 15 64 13 55 15 M 67 25 C 75 29 74 37 66 39 C 54 43 45 40 46 34 C 48 26 60 22 67 25 z" fill="black"/><!-- width=109 height=114 -->
<path id="gl3101" d="M 16 12 C 6 19 13 37 25 34 C 27 33 31 30 32 27 C 34 23 32 16 29 13 C 26 10 19 10 16 12 M 19 72 C 10 75 8 88 16 93 C 24 97 31 93 33 83 C 34 75 27 70 19 72 z" fill="black"/><!-- width=44 height=105 -->
<path id="gl3332" d="M 42 8 C 30 9 19 16 13 25 C 7 34 8 42 14 42 C 17 42 18 41 22 35 C 24 32 27 29 28 28 C 31 26 39 22 43 22 C 62 21 70 47 58 71 C 50 87 28 115 17 123 C 7 129 4 133 7 138 C 10 140 12 140 26 139 C 34 139 44 139 54 139 C 82 141 85 139 90 126 C 93 119 93 117 90 114 C 90 112 88 112 88 112 C 87 112 87 112 86 112 C 85 112 83 114 81 117 C 75 121 72 123 63 124 C 50 126 41 125 40 122 C 37 118 39 115 51 103 C 64 89 71 80 78 66 C 89 44 83 19 65 10 C 58 7 52 7 42 8 z" fill="black"/><!-- width=107 height=157 -->
<path id="gl3331" d="M 32 10 C 28 12 25 13 20 13 C 15 15 14 15 12 17 C 9 21 10 24 18 26 C 24 27 25 28 27 32 C 27 33 28 34 28 36 C 28 49 28 63 28 76 C 28 99 28 118 28 120 C 27 124 24 127 19 129 C 13 131 12 135 16 138 C 18 139 53 139 57 137 C 61 135 60 131 54 129 C 49 127 47 125 46 121 C 45 119 45 115 45 72 C 45 46 45 23 45 21 C 46 14 45 10 42 8 C 40 7 38 7 32 10 z" fill="black"/><!-- width=71 height=151 -->
<path id="gl3332" d="M 42 8 C 30 9 19 16 13 25 C 7 34 8 42 14 42 C 17 42 18 41 22 35 C 24 32 27 29 28 28 C 31 26 39 22 43 22 C 62 21 70 47 58 71 C 50 87 28 115 17 123 C 7 129 4 133 7 138 C 10 140 12 140 26 139 C 34 139 44 139 54 139 C 82 141 85 139 90 126 C 93 119 93 117 90 114 C 90 112 88 112 88 112 C 87 112 87 112 86 112 C 85 112 83 114 81 117 C 75 121 72 123 63 124 C 50 126 41 125 40 122 C 37 118 39 115 51 103 C 64 89 71 80 78 66 C 89 44 83 19 65 10 C 58 7 52 7 42 8 z" fill="black"/><!-- width=107 height=157 -->
<path id="gl3093" d="M 51 15 C 49 15 41 15 33 15 C 18 15 16 16 15 19 C 12 23 13 27 15 29 C 18 31 16 31 41 31 C 47 31 53 30 58 30 C 59 30 60 29 60 28 C 63 26 63 22 62 19 C 60 15 57 14 51 15 z" fill="black"/><!-- width=76 height=46 -->
<path id="gl3096" d="M 92 6 C 66 12 40 33 28 59 C 14 87 14 115 27 135 C 31 141 43 148 51 150 C 55 151 69 150 73 149 C 91 145 103 127 103 108 C 103 87 91 72 73 71 C 62 70 52 75 54 81 C 55 82 57 83 63 84 C 77 85 85 98 83 115 C 81 129 72 139 62 138 C 43 136 33 112 39 82 C 45 56 57 38 79 27 C 81 25 84 24 85 23 C 87 22 89 21 92 20 C 100 16 103 12 101 9 C 99 6 96 5 92 6 z" fill="black"/><!-- width=117 height=180 -->
<path id="gl3098" d="M 40 12 C 27 15 21 22 16 34 C 13 47 15 55 24 66 C 33 75 33 77 23 85 C 17 90 16 91 15 95 C 4 115 13 136 33 143 C 40 145 57 145 65 143 C 78 139 87 126 88 111 C 89 99 86 92 73 80 C 66 73 66 72 76 62 C 85 53 85 51 85 41 C 85 38 85 35 85 33 C 85 31 84 30 83 28 C 81 23 73 15 70 13 C 63 10 49 9 40 12 M 57 23 C 65 27 67 31 69 39 C 70 53 62 67 53 66 C 44 66 33 54 33 43 C 31 28 46 16 57 23 M 52 85 C 64 91 72 105 71 114 C 69 126 62 133 50 133 C 43 133 40 132 36 128 C 26 120 25 104 33 91 C 38 82 45 81 52 85 z" fill="black"/><!-- width=100 height=157 -->
<path id="gl3096" d="M 92 6 C 66 12 40 33 28 59 C 14 87 14 115 27 135 C 31 141 43 148 51 150 C 55 151 69 150 73 149 C 91 145 103 127 103 108 C 103 87 91 72 73 71 C 62 70 52 75 54 81 C 55 82 57 83 63 84 C 77 85 85 98 83 115 C 81 129 72 139 62 138 C 43 136 33 112 39 82 C 45 56 57 38 79 27 C 81 25 84 24 85 23 C 87 22 89 21 92 20 C 100 16 103 12 101 9 C 99 6 96 5 92 6 z" fill="black"/><!-- width=117 height=180 -->
<path id="gl3333" d="M 11 15 C 8 18 8 21 11 24 C 12 25 12 25 13 26 C 18 26 23 26 28 26 C 33 26 39 26 43 26 C 45 25 45 25 46 24 C 49 21 49 18 45 15 C 44 13 43 13 42 12 C 39 12 36 12 33 12 C 21 13 19 13 16 12 C 13 12 13 12 11 15 z" fill="black"/><!-- width=57 height=39 -->
<path id="gl3334" d="M 58 27 C 55 28 49 29 46 30 C 38 31 26 33 24 34 C 19 36 18 40 15 51 C 14 54 13 57 13 58 C 12 61 8 76 8 78 C 8 82 12 85 21 86 C 36 88 43 90 51 95 C 66 105 67 128 52 144 C 46 152 29 162 20 162 C 13 163 12 164 9 168 C 7 168 7 169 6 171 C 6 171 7 172 7 172 C 7 174 8 175 8 175 C 9 178 18 178 23 176 C 24 175 28 174 31 173 C 39 171 49 166 55 161 C 56 160 59 157 61 156 C 68 150 70 147 75 137 C 80 126 81 121 80 111 C 79 97 70 83 56 76 C 52 75 37 70 30 69 C 24 68 22 63 24 57 C 27 51 31 49 44 48 C 66 46 73 43 76 34 C 76 33 76 32 76 31 C 76 30 75 30 75 28 C 72 25 67 25 58 27 z" fill="black"/><!-- width=94 height=185 -->
<path id="gl2836" d="M 40 34 C 17 38 4 61 10 89 C 14 106 25 115 40 114 C 46 113 51 111 52 108 C 52 105 51 103 45 101 C 34 97 30 93 27 82 C 23 63 32 45 46 45 C 55 45 63 52 66 66 C 75 101 63 141 39 156 C 34 159 17 168 16 168 C 15 168 14 169 13 170 C 7 175 12 181 21 179 C 37 176 61 159 73 142 C 85 124 90 97 87 75 C 84 51 73 37 56 34 C 49 33 49 33 40 34 z" fill="black"/><!-- width=102 height=190 -->
<path id="gl3092" d="M 51 9 C 40 10 34 13 26 24 C 13 41 9 78 16 107 C 20 120 30 133 38 138 C 45 141 58 141 66 139 C 78 135 88 121 92 105 C 95 94 95 90 96 80 C 97 36 79 6 51 9 M 58 20 C 75 25 83 74 72 110 C 69 120 61 129 54 130 C 40 130 31 108 31 74 C 31 38 43 15 58 20 z" fill="black"/><!-- width=109 height=151 -->
<path id="gl3092" d="M 51 9 C 40 10 34 13 26 24 C 13 41 9 78 16 107 C 20 120 30 133 38 138 C 45 141 58 141 66 139 C 78 135 88 121 92 105 C 95 94 95 90 96 80 C 97 36 79 6 51 9 M 58 20 C 75 25 83 74 72 110 C 69 120 61 129 54 130 C 40 130 31 108 31 74 C 31 38 43 15 58 20 z" fill="black"/><!-- width=109 height=151 -->
<path id="gl3335" d="M 89 27 C 85 27 73 27 62 27 C 49 28 41 28 40 28 C 36 27 31 27 28 30 C 25 33 26 37 31 40 C 39 46 39 44 39 93 C 39 149 39 150 29 155 C 26 157 24 160 24 161 C 24 163 25 166 27 166 C 29 167 69 167 71 166 C 77 164 75 157 67 155 C 59 152 58 150 57 135 C 57 123 57 111 58 108 C 59 107 60 105 61 105 C 63 104 63 103 64 103 C 67 103 70 103 74 103 C 88 104 90 105 96 114 C 104 128 109 115 107 87 C 106 80 105 78 101 78 C 99 79 97 80 96 83 C 92 91 87 93 73 93 C 57 94 58 94 58 67 C 58 47 58 45 60 42 C 63 40 66 39 73 39 C 88 39 96 42 100 49 C 106 58 107 60 110 59 C 114 58 115 57 115 48 C 115 31 112 26 101 27 C 99 27 93 27 89 27 z" fill="black"/><!-- width=124 height=180 -->
<path id="gl3072" d="M 47 9 C 29 10 10 29 19 36 C 23 40 30 36 34 28 C 39 20 45 17 51 21 C 61 25 61 46 52 51 C 51 51 46 52 40 54 C 21 60 15 64 16 77 C 17 88 24 93 35 93 C 37 93 39 93 42 93 C 44 92 46 91 48 90 C 55 87 57 86 61 88 C 71 94 75 95 82 91 C 91 87 92 82 84 80 C 75 78 74 78 74 49 C 75 25 74 24 71 18 C 67 11 58 7 47 9 M 55 59 C 61 62 60 75 53 79 C 45 85 34 81 34 72 C 34 64 48 55 55 59 z" fill="black"/><!-- width=105 height=114 -->
<path id="gl3336" d="M 15 9 C 9 13 10 17 18 20 C 25 22 33 32 40 46 C 43 52 42 58 38 63 C 37 64 35 66 33 69 C 27 78 22 82 16 83 C 12 83 11 85 11 89 C 11 95 12 96 27 96 C 40 96 42 94 40 86 C 39 81 39 78 42 73 C 45 67 48 64 51 64 C 54 64 61 76 61 81 C 61 82 59 85 57 88 C 55 91 55 92 58 93 C 61 95 88 96 91 94 C 97 91 96 88 88 84 C 82 81 76 74 72 67 C 71 66 69 64 67 62 C 57 49 57 46 71 31 C 77 25 79 24 84 22 C 90 19 92 17 92 14 C 92 9 88 8 76 8 C 64 8 64 9 63 19 C 63 25 63 26 60 31 C 55 37 49 36 45 28 C 43 26 43 24 43 19 C 43 16 43 12 43 12 C 42 10 38 9 31 9 C 28 9 24 8 22 8 C 19 8 18 8 15 9 z" fill="black"/><!-- width=105 height=107 -->
<path id="gl3101" d="M 16 12 C 6 19 13 37 25 34 C 27 33 31 30 32 27 C 34 23 32 16 29 13 C 26 10 19 10 16 12 M 19 72 C 10 75 8 88 16 93 C 24 97 31 93 33 83 C 34 75 27 70 19 72 z" fill="black"/><!-- width=44 height=105 -->
<path id="gl3332" d="M 42 8 C 30 9 19 16 13 25 C 7 34 8 42 14 42 C 17 42 18 41 22 35 C 24 32 27 29 28 28 C 31 26 39 22 43 22 C 62 21 70 47 58 71 C 50 87 28 115 17 123 C 7 129 4 133 7 138 C 10 140 12 140 26 139 C 34 139 44 139 54 139 C 82 141 85 139 90 126 C 93 119 93 117 90 114 C 90 112 88 112 88 112 C 87 112 87 112 86 112 C 85 112 83 114 81 117 C 75 121 72 123 63 124 C 50 126 41 125 40 122 C 37 118 39 115 51 103 C 64 89 71 80 78 66 C 89 44 83 19 65 10 C 58 7 52 7 42 8 z" fill="black"/><!-- width=107 height=157 -->
<path id="gl3331" d="M 32 10 C 28 12 25 13 20 13 C 15 15 14 15 12 17 C 9 21 10 24 18 26 C 24 27 25 28 27 32 C 27 33 28 34 28 36 C 28 49 28 63 28 76 C 28 99 28 118 28 120 C 27 124 24 127 19 129 C 13 131 12 135 16 138 C 18 139 53 139 57 137 C 61 135 60 131 54 129 C 49 127 47 125 46 121 C 45 119 45 115 45 72 C 45 46 45 23 45 21 C 46 14 45 10 42 8 C 40 7 38 7 32 10 z" fill="black"/><!-- width=71 height=151 -->
<path id="gl3332" d="M 42 8 C 30 9 19 16 13 25 C 7 34 8 42 14 42 C 17 42 18 41 22 35 C 24 32 27 29 28 28 C 31 26 39 22 43 22 C 62 21 70 47 58 71 C 50 87 28 115 17 123 C 7 129 4 133 7 138 C 10 140 12 140 26 139 C 34 139 44 139 54 139 C 82 141 85 139 90 126 C 93 119 93 117 90 114 C 90 112 88 112 88 112 C 87 112 87 112 86 112 C 85 112 83 114 81 117 C 75 121 72 123 63 124 C 50 126 41 125 40 122 C 37 118 39 115 51 103 C 64 89 71 80 78 66 C 89 44 83 19 65 10 C 58 7 52 7 42 8 z" fill="black"/><!-- width=107 height=157 -->
<path id="gl3093" d="M 51 15 C 49 15 41 15 33 15 C 18 15 16 16 15 19 C 12 23 13 27 15 29 C 18 31 16 31 41 31 C 47 31 53 30 58 30 C 59 30 60 29 60 28 C 63 26 63 22 62 19 C 60 15 57 14 51 15 z" fill="black"/><!-- width=76 height=46 -->
<path id="gl3096" d="M 92 6 C 66 12 40 33 28 59 C 14 87 14 115 27 135 C 31 141 43 148 51 150 C 55 151 69 150 73 149 C 91 145 103 127 103 108 C 103 87 91 72 73 71 C 62 70 52 75 54 81 C 55 82 57 83 63 84 C 77 85 85 98 83 115 C 81 129 72 139 62 138 C 43 136 33 112 39 82 C 45 56 57 38 79 27 C 81 25 84 24 85 23 C 87 22 89 21 92 20 C 100 16 103 12 101 9 C 99 6 96 5 92 6 z" fill="black"/><!-- width=117 height=180 -->
<path id="gl3097" d="M 41 9 C 34 9 31 10 23 18 C 18 24 17 25 15 33 C 11 43 13 55 20 62 C 27 69 28 70 28 72 C 29 75 28 78 22 83 C 15 88 13 91 10 99 C 4 118 15 137 34 141 C 46 144 64 141 72 136 C 83 127 87 118 86 104 C 85 94 84 90 73 81 C 66 73 65 72 69 66 C 70 64 71 63 72 63 C 72 63 73 61 76 59 C 82 54 84 50 84 41 C 84 25 78 15 63 10 C 55 7 51 7 41 9 M 57 21 C 68 28 70 46 61 59 C 55 69 45 66 35 52 C 29 43 29 36 34 28 C 36 25 42 20 45 19 C 49 19 54 19 57 21 M 51 83 C 57 87 63 93 66 99 C 70 107 70 110 67 118 C 65 124 63 127 58 129 C 48 133 43 132 35 127 C 25 120 23 110 27 96 C 29 90 36 82 39 82 C 40 82 42 81 42 81 C 43 81 48 82 51 83 z" fill="black"/><!-- width=96 height=151 -->
<path id="gl3096" d="M 92 6 C 66 12 40 33 28 59 C 14 87 14 115 27 135 C 31 141 43 148 51 150 C 55 151 69 150 73 149 C 91 145 103 127 103 108 C 103 87 91 72 73 71 C 62 70 52 75 54 81 C 55 82 57 83 63 84 C 77 85 85 98 83 115 C 81 129 72 139 62 138 C 43 136 33 112 39 82 C 45 56 57 38 79 27 C 81 25 84 24 85 23 C 87 22 89 21 92 20 C 100 16 103 12 101 9 C 99 6 96 5 92 6 z" fill="black"/><!-- width=117 height=180 -->
<path id="gl3093" d="M 51 15 C 49 15 41 15 33 15 C 18 15 16 16 15 19 C 12 23 13 27 15 29 C 18 31 16 31 41 31 C 47 31 53 30 58 30 C 59 30 60 29 60 28 C 63 26 63 22 62 19 C 60 15 57 14 51 15 z" fill="black"/><!-- width=76 height=46 -->
<path id="gl3337" d="M 38 4 C 19 9 14 14 9 38 C 4 57 9 62 28 62 C 72 67 67 124 24 134 C 9 139 4 144 9 153 C 14 153 24 148 38 144 C 91 120 91 67 43 48 C 19 38 19 28 43 24 C 67 24 72 19 72 9 C 72 0 67 0 38 4 z" fill="black"/><!-- width=86 height=163 -->
<path id="gl3095" d="M 74 7 C 71 9 66 15 64 18 C 64 19 63 21 63 22 C 62 22 61 24 60 25 C 58 28 55 32 48 45 C 45 48 43 51 42 52 C 41 54 39 57 36 60 C 32 66 29 70 27 73 C 27 75 25 76 25 77 C 24 78 21 82 19 85 C 16 89 13 94 12 96 C 4 106 3 112 9 115 C 11 116 30 117 46 115 C 59 115 61 117 61 127 C 61 137 58 141 51 144 C 45 146 43 150 46 153 C 48 155 46 155 69 155 C 87 155 87 155 89 151 C 90 149 89 145 85 144 C 79 139 78 136 78 127 C 78 119 80 117 88 115 C 93 114 94 112 94 109 C 94 106 93 105 88 105 C 82 104 81 103 79 101 C 78 98 78 90 78 78 C 79 61 78 58 73 55 C 72 54 67 55 65 58 C 61 61 61 63 61 80 C 61 106 61 106 43 105 C 23 105 22 102 39 79 C 41 76 45 70 48 66 C 50 63 53 59 54 58 C 57 54 59 51 63 46 C 67 39 70 35 73 32 C 75 30 78 27 79 25 C 80 24 82 21 82 21 C 89 13 82 2 74 7 z" fill="black"/><!-- width=115 height=189 -->
<path id="gl3338" d="M 24 4 C 24 9 24 9 14 9 C 0 9 0 19 14 24 C 24 28 24 38 24 120 C 24 120 14 120 9 124 C 0 129 4 134 24 134 C 48 134 57 129 43 120 C 38 120 33 105 33 57 C 33 24 33 0 33 0 C 28 0 24 4 24 4 z" fill="black"/><!-- width=62 height=144 -->
<path id="gl3339" d="M 34 7 C 34 7 32 8 31 9 C 28 10 23 12 15 14 C 6 16 6 23 16 25 C 22 27 25 29 26 34 C 26 34 26 54 26 76 C 27 90 27 103 27 117 C 26 118 25 119 25 120 C 24 123 21 126 18 127 C 11 129 9 134 15 136 C 17 138 49 137 52 136 C 59 134 58 130 51 126 C 42 122 42 126 42 62 C 43 34 43 10 43 10 C 42 7 38 6 34 7 z" fill="black"/><!-- width=67 height=150 -->
<path id="gl2831" d="M 85 9 C 76 9 62 9 54 9 C 36 9 33 9 33 12 C 31 16 31 16 34 19 C 42 25 43 27 44 30 C 45 34 45 118 45 126 C 43 133 40 137 35 139 C 29 141 26 144 28 148 C 29 149 30 150 31 150 C 33 151 41 151 45 150 C 50 150 69 150 76 150 C 79 151 90 151 101 151 C 108 151 114 151 120 151 C 121 151 123 150 124 150 C 130 147 132 142 135 132 C 137 121 137 120 134 117 C 131 114 127 115 123 124 C 116 135 111 137 89 138 C 84 138 80 138 75 138 C 74 137 73 136 72 136 C 68 134 65 130 64 126 C 63 121 63 94 64 91 C 66 84 70 82 81 84 C 95 85 95 85 99 91 C 105 100 111 98 112 87 C 112 82 111 66 110 63 C 108 55 103 56 99 64 C 96 71 93 72 81 73 C 71 74 68 73 65 69 C 64 67 64 67 64 48 C 64 20 64 20 84 21 C 102 22 106 23 111 33 C 115 40 117 42 121 41 C 126 39 126 32 124 21 C 121 8 120 7 85 9 z" fill="black"/><!-- width=147 height=164 -->
<path id="gl3093" d="M 51 15 C 49 15 41 15 33 15 C 18 15 16 16 15 19 C 12 23 13 27 15 29 C 18 31 16 31 41 31 C 47 31 53 30 58 30 C 59 30 60 29 60 28 C 63 26 63 22 62 19 C 60 15 57 14 51 15 z" fill="black"/><!-- width=76 height=46 -->
<path id="gl2816" d="M 32 16 C 23 21 21 24 25 33 C 28 40 29 43 28 61 C 28 84 27 87 21 91 C 16 95 15 99 20 101 C 24 103 47 103 51 100 C 55 99 55 95 51 90 C 46 84 45 78 45 57 C 45 42 46 39 49 34 C 57 25 73 26 78 36 C 81 40 81 43 81 58 C 81 80 81 84 75 91 C 70 96 71 100 77 102 C 80 102 99 102 102 101 C 108 100 109 96 104 91 C 99 84 98 82 98 61 C 98 42 99 39 102 34 C 108 27 122 26 129 33 C 133 38 135 43 134 64 C 134 83 133 84 129 90 C 124 95 124 98 127 100 C 130 102 154 103 157 101 C 162 99 162 96 157 90 C 151 84 151 84 151 59 C 151 35 151 33 147 26 C 139 12 126 10 106 20 C 97 25 95 25 88 20 C 80 13 72 13 58 18 C 51 21 49 21 45 16 C 41 13 39 13 32 16 z" fill="black"/><!-- width=175 height=115 -->
<path id="gl3072" d="M 47 9 C 29 10 10 29 19 36 C 23 40 30 36 34 28 C 39 20 45 17 51 21 C 61 25 61 46 52 51 C 51 51 46 52 40 54 C 21 60 15 64 16 77 C 17 88 24 93 35 93 C 37 93 39 93 42 93 C 44 92 46 91 48 90 C 55 87 57 86 61 88 C 71 94 75 95 82 91 C 91 87 92 82 84 80 C 75 78 74 78 74 49 C 75 25 74 24 71 18 C 67 11 58 7 47 9 M 55 59 C 61 62 60 75 53 79 C 45 85 34 81 34 72 C 34 64 48 55 55 59 z" fill="black"/><!-- width=105 height=114 -->
<path id="gl2571" d="M 26 7 C 20 9 17 16 19 22 C 24 33 39 31 42 21 C 43 12 34 4 26 7 M 32 57 C 30 58 23 61 20 63 C 16 66 16 70 19 76 C 22 82 23 83 23 105 C 23 130 23 130 16 136 C 12 141 11 144 16 146 C 18 147 42 148 45 147 C 50 144 50 141 45 136 C 39 130 39 129 39 105 C 39 94 40 80 40 73 C 40 61 40 60 37 58 C 35 57 34 57 32 57 z" fill="black"/><!-- width=61 height=186 -->
<path id="gl2563" d="M 28 9 C 16 14 14 18 19 24 C 24 30 24 25 24 84 C 24 145 24 139 17 145 C 12 150 11 151 16 154 C 18 156 42 156 45 155 C 51 153 52 151 46 145 C 41 139 40 135 40 118 C 40 114 40 88 41 61 C 41 44 41 27 41 10 C 40 10 40 9 39 9 C 36 7 34 7 28 9 z" fill="black"/><!-- width=64 height=170 -->
<path id="gl3101" d="M 16 12 C 6 19 13 37 25 34 C 27 33 31 30 32 27 C 34 23 32 16 29 13 C 26 10 19 10 16 12 M 19 72 C 10 75 8 88 16 93 C 24 97 31 93 33 83 C 34 75 27 70 19 72 z" fill="black"/><!-- width=44 height=105 -->
<path id="gl2571" d="M 26 7 C 20 9 17 16 19 22 C 24 33 39 31 42 21 C 43 12 34 4 26 7 M 32 57 C 30 58 23 61 20 63 C 16 66 16 70 19 76 C 22 82 23 83 23 105 C 23 130 23 130 16 136 C 12 141 11 144 16 146 C 18 147 42 148 45 147 C 50 144 50 141 45 136 C 39 130 39 129 39 105 C 39 94 40 80 40 73 C 40 61 40 60 37 58 C 35 57 34 57 32 57 z" fill="black"/><!-- width=61 height=186 -->
<path id="gl2561" d="M 30 16 C 25 18 22 20 21 22 C 19 25 19 26 24 36 C 25 38 25 39 25 60 C 25 85 25 84 20 90 C 15 95 15 97 18 100 C 18 100 19 100 19 101 C 24 101 29 101 34 101 C 39 101 43 101 48 101 C 49 100 49 100 50 100 C 53 97 52 95 47 90 C 42 85 42 83 42 61 C 42 54 42 48 42 42 C 43 40 43 39 44 37 C 51 24 75 25 80 39 C 81 42 81 45 81 57 C 82 79 81 85 76 90 C 70 94 70 98 73 100 C 76 102 100 102 103 100 C 108 98 108 94 103 91 C 102 90 100 87 99 85 C 99 84 98 83 97 82 C 97 74 97 66 97 58 C 97 39 97 35 96 32 C 91 15 74 10 55 19 C 48 22 46 22 42 18 C 38 14 36 13 30 16 z" fill="black"/><!-- width=120 height=116 -->
<path id="gl3340" d="M 93 13 C 85 15 80 17 72 22 C 59 33 52 43 50 62 C 49 70 48 73 43 76 C 37 81 37 83 44 88 C 49 91 49 96 48 132 C 48 146 48 147 43 153 C 38 157 39 160 43 162 C 48 163 79 162 82 161 C 85 160 85 159 85 157 C 84 156 84 155 78 153 C 68 150 67 148 67 117 C 67 87 67 88 78 87 C 87 86 90 83 87 78 C 86 75 84 75 78 74 C 69 73 67 72 67 61 C 67 40 75 30 87 30 C 92 30 96 31 103 34 C 107 36 110 37 111 37 C 118 37 123 28 118 21 C 115 16 103 12 93 13 z" fill="black"/><!-- width=133 height=177 -->
<path id="gl2572" d="M 45 12 C 25 17 13 34 13 56 C 13 70 16 78 25 87 C 34 96 40 98 55 98 C 67 98 72 96 80 89 C 94 77 100 51 91 33 C 82 16 63 7 45 12 M 61 24 C 77 31 82 60 71 78 C 64 90 49 90 40 80 C 28 68 28 39 39 28 C 46 21 52 19 61 24 z" fill="black"/><!-- width=109 height=111 -->
<path id="gl3341" d="M 52 14 C -24 52 19 177 100 148 C 120 139 115 129 96 134 C 43 144 9 100 33 52 C 57 4 129 9 129 62 C 129 81 120 100 105 100 C 96 100 96 96 110 67 C 115 52 115 43 115 43 C 110 33 76 48 62 62 C 33 91 33 120 62 105 C 72 100 76 100 81 105 C 100 129 144 100 144 62 C 144 19 96 -5 52 14 M 96 62 C 96 67 72 96 67 96 C 57 96 57 91 67 72 C 76 57 96 48 96 62 z" fill="black"/><!-- width=158 height=158 -->
<path id="gl2846" d="M 45 33 C 40 34 33 39 32 41 C 30 44 30 46 33 52 C 37 59 37 59 37 104 C 37 153 37 153 30 159 C 27 162 26 165 27 167 C 28 171 30 171 48 171 C 64 171 67 170 67 167 C 69 163 68 163 60 158 C 55 155 54 151 54 137 C 54 120 54 120 69 120 C 82 120 87 118 94 114 C 117 99 123 63 105 45 C 94 33 85 31 69 37 C 60 40 58 40 55 36 C 51 31 49 31 45 33 M 79 49 C 90 53 96 62 96 76 C 96 96 87 108 72 108 C 63 108 57 105 55 98 C 54 95 53 63 54 58 C 58 49 67 45 79 49 z" fill="black"/><!-- width=130 height=184 -->
<path id="gl2337" d="M 40 25 C 32 30 31 33 36 40 C 36 42 37 44 38 46 C 38 52 38 59 38 66 C 39 91 38 93 32 99 C 28 103 27 106 31 108 C 33 110 63 110 66 109 C 71 106 70 102 64 100 C 55 97 54 94 54 73 C 54 41 57 36 70 40 C 81 44 87 41 87 33 C 87 23 78 20 66 27 C 60 30 58 30 54 26 C 50 22 48 22 40 25 z" fill="black"/><!-- width=103 height=126 -->
<path id="gl2572" d="M 45 12 C 25 17 13 34 13 56 C 13 70 16 78 25 87 C 34 96 40 98 55 98 C 67 98 72 96 80 89 C 94 77 100 51 91 33 C 82 16 63 7 45 12 M 61 24 C 77 31 82 60 71 78 C 64 90 49 90 40 80 C 28 68 28 39 39 28 C 46 21 52 19 61 24 z" fill="black"/><!-- width=109 height=111 -->
<path id="gl2569" d="M 79 8 C 78 8 74 9 72 11 C 63 15 62 18 66 26 C 69 33 70 38 70 51 C 70 68 70 69 55 70 C 37 70 25 76 16 90 C 4 109 7 138 24 149 C 34 156 44 157 56 154 C 64 151 66 151 69 153 C 75 158 78 158 91 154 C 102 150 103 144 94 140 C 91 138 90 138 88 135 C 88 135 88 133 87 133 C 87 123 87 112 87 102 C 87 85 87 58 88 43 C 88 13 88 11 86 9 C 84 7 82 7 79 8 M 59 81 C 63 82 66 85 68 90 C 69 91 69 92 70 93 C 70 99 70 105 70 110 C 70 132 69 136 63 139 C 59 141 47 141 42 138 C 21 128 23 90 45 82 C 48 81 55 81 59 81 z" fill="black"/><!-- width=119 height=198 -->
<path id="gl2589" d="M 24 10 C 14 12 11 16 16 22 C 21 28 21 28 21 53 C 21 75 21 77 24 83 C 27 90 34 94 43 94 C 50 94 54 94 61 90 C 69 85 70 86 75 90 C 78 94 79 94 83 94 C 87 93 99 90 100 89 C 105 86 104 82 98 79 C 95 78 94 77 93 75 C 93 74 92 73 91 72 C 91 63 91 53 91 44 C 91 11 91 14 90 12 C 88 9 84 9 78 10 C 64 12 61 15 69 22 C 75 28 75 28 75 51 C 75 68 75 68 74 71 C 69 81 50 85 42 76 C 37 72 37 71 37 40 C 37 12 37 12 34 10 C 32 9 30 9 24 10 z" fill="black"/><!-- width=116 height=111 -->
<path id="gl2850" d="M 64 9 C 51 12 42 16 36 25 C 16 51 26 87 55 94 C 63 96 76 95 84 91 C 99 84 104 72 94 70 C 92 69 91 70 88 72 C 82 77 81 77 78 79 C 58 84 42 70 42 50 C 42 26 64 13 81 26 C 90 33 97 30 97 21 C 97 15 93 12 87 10 C 84 9 68 8 64 9 z" fill="black"/><!-- width=111 height=111 -->
<path id="gl2834" d="M 38 15 C 37 15 36 17 34 19 C 33 21 30 24 27 27 C 21 33 21 34 25 39 C 29 43 29 43 29 67 C 28 101 30 106 41 111 C 52 117 71 110 71 102 C 71 97 67 97 60 99 C 52 100 48 97 45 89 C 45 88 45 78 45 66 C 44 38 44 38 58 39 C 66 39 67 39 69 37 C 73 34 72 30 68 27 C 66 27 64 27 58 27 C 55 27 52 27 50 27 C 49 27 49 26 48 25 C 48 24 46 22 46 19 C 43 13 42 12 38 15 z" fill="black"/><!-- width=84 height=127 -->
<path id="gl2571" d="M 26 7 C 20 9 17 16 19 22 C 24 33 39 31 42 21 C 43 12 34 4 26 7 M 32 57 C 30 58 23 61 20 63 C 16 66 16 70 19 76 C 22 82 23 83 23 105 C 23 130 23 130 16 136 C 12 141 11 144 16 146 C 18 147 42 148 45 147 C 50 144 50 141 45 136 C 39 130 39 129 39 105 C 39 94 40 80 40 73 C 40 61 40 60 37 58 C 35 57 34 57 32 57 z" fill="black"/><!-- width=61 height=186 -->
<path id="gl2839" d="M 86 28 C 75 28 72 33 78 39 C 82 44 83 47 79 56 C 78 58 76 64 74 69 C 70 81 69 82 65 82 C 61 82 59 78 51 57 C 47 45 47 43 50 38 C 53 33 52 31 48 29 C 44 28 22 28 20 30 C 16 31 16 36 21 39 C 27 44 30 48 37 64 C 39 69 42 77 44 82 C 46 87 49 95 51 100 C 55 112 58 115 63 114 C 66 112 68 110 71 100 C 73 96 77 87 81 80 C 84 73 88 64 90 60 C 94 51 96 48 102 42 C 106 37 106 36 106 34 C 106 29 102 27 86 28 z" fill="black"/><!-- width=120 height=127 -->
<path id="gl2571" d="M 26 7 C 20 9 17 16 19 22 C 24 33 39 31 42 21 C 43 12 34 4 26 7 M 32 57 C 30 58 23 61 20 63 C 16 66 16 70 19 76 C 22 82 23 83 23 105 C 23 130 23 130 16 136 C 12 141 11 144 16 146 C 18 147 42 148 45 147 C 50 144 50 141 45 136 C 39 130 39 129 39 105 C 39 94 40 80 40 73 C 40 61 40 60 37 58 C 35 57 34 57 32 57 z" fill="black"/><!-- width=61 height=186 -->
<path id="gl3342" d="M 14 14 C 9 19 9 86 19 96 C 24 105 52 100 52 96 C 57 91 52 86 43 86 C 38 86 33 86 28 86 C 28 76 28 62 28 48 C 28 9 24 0 14 14 M 33 19 C 33 24 38 28 43 28 C 57 33 57 33 57 24 C 57 19 57 19 48 19 C 38 19 33 19 33 19 z" fill="black"/><!-- width=67 height=110 -->
<path id="gl2822" d="M 87 45 C 81 46 79 49 84 55 C 88 62 87 65 81 81 C 75 96 73 99 71 99 C 67 99 66 96 63 87 C 56 67 55 61 58 55 C 61 51 61 48 58 46 C 57 45 56 45 44 45 C 29 45 27 45 25 48 C 24 51 25 53 30 58 C 36 62 38 66 42 79 C 45 85 47 91 48 92 C 51 98 57 121 57 127 C 57 135 51 150 45 156 C 42 159 42 160 34 163 C 28 165 27 168 27 174 C 27 178 28 181 32 183 C 40 187 48 182 53 171 C 61 155 66 144 67 140 C 68 138 71 132 73 126 C 75 121 78 115 79 112 C 81 109 84 102 86 97 C 89 92 93 84 94 80 C 100 67 102 64 111 56 C 115 52 116 48 111 45 C 109 44 94 44 87 45 z" fill="black"/><!-- width=126 height=196 -->
<path id="gl3082" d="M 24 8 C 15 13 15 25 24 30 C 26 31 33 31 35 30 C 43 27 43 13 36 9 C 32 6 28 6 24 8 M 26 61 C 16 67 15 69 19 78 C 22 84 22 89 22 105 C 22 126 21 132 16 136 C 12 139 11 144 15 146 C 19 147 46 146 48 145 C 51 142 49 138 45 136 C 43 135 42 133 41 131 C 40 130 40 129 39 127 C 39 116 39 105 39 94 C 39 61 39 60 38 59 C 36 57 33 58 26 61 z" fill="black"/><!-- width=61 height=183 -->
<path id="gl2561" d="M 30 16 C 25 18 22 20 21 22 C 19 25 19 26 24 36 C 25 38 25 39 25 60 C 25 85 25 84 20 90 C 15 95 15 97 18 100 C 18 100 19 100 19 101 C 24 101 29 101 34 101 C 39 101 43 101 48 101 C 49 100 49 100 50 100 C 53 97 52 95 47 90 C 42 85 42 83 42 61 C 42 54 42 48 42 42 C 43 40 43 39 44 37 C 51 24 75 25 80 39 C 81 42 81 45 81 57 C 82 79 81 85 76 90 C 70 94 70 98 73 100 C 76 102 100 102 103 100 C 108 98 108 94 103 91 C 102 90 100 87 99 85 C 99 84 98 83 97 82 C 97 74 97 66 97 58 C 97 39 97 35 96 32 C 91 15 74 10 55 19 C 48 22 46 22 42 18 C 38 14 36 13 30 16 z" fill="black"/><!-- width=120 height=116 -->
<path id="gl2850" d="M 64 9 C 51 12 42 16 36 25 C 16 51 26 87 55 94 C 63 96 76 95 84 91 C 99 84 104 72 94 70 C 92 69 91 70 88 72 C 82 77 81 77 78 79 C 58 84 42 70 42 50 C 42 26 64 13 81 26 C 90 33 97 30 97 21 C 97 15 93 12 87 10 C 84 9 68 8 64 9 z" fill="black"/><!-- width=111 height=111 -->
<path id="gl1028" d="M 22 15 C 13 16 11 30 19 34 C 27 39 36 32 34 24 C 33 16 29 13 22 15 z" fill="black"/><!-- width=49 height=50 -->
<path id="gl2850" d="M 64 9 C 51 12 42 16 36 25 C 16 51 26 87 55 94 C 63 96 76 95 84 91 C 99 84 104 72 94 70 C 92 69 91 70 88 72 C 82 77 81 77 78 79 C 58 84 42 70 42 50 C 42 26 64 13 81 26 C 90 33 97 30 97 21 C 97 15 93 12 87 10 C 84 9 68 8 64 9 z" fill="black"/><!-- width=111 height=111 -->
<path id="gl2572" d="M 45 12 C 25 17 13 34 13 56 C 13 70 16 78 25 87 C 34 96 40 98 55 98 C 67 98 72 96 80 89 C 94 77 100 51 91 33 C 82 16 63 7 45 12 M 61 24 C 77 31 82 60 71 78 C 64 90 49 90 40 80 C 28 68 28 39 39 28 C 46 21 52 19 61 24 z" fill="black"/><!-- width=109 height=111 -->
<path id="gl2816" d="M 32 16 C 23 21 21 24 25 33 C 28 40 29 43 28 61 C 28 84 27 87 21 91 C 16 95 15 99 20 101 C 24 103 47 103 51 100 C 55 99 55 95 51 90 C 46 84 45 78 45 57 C 45 42 46 39 49 34 C 57 25 73 26 78 36 C 81 40 81 43 81 58 C 81 80 81 84 75 91 C 70 96 71 100 77 102 C 80 102 99 102 102 101 C 108 100 109 96 104 91 C 99 84 98 82 98 61 C 98 42 99 39 102 34 C 108 27 122 26 129 33 C 133 38 135 43 134 64 C 134 83 133 84 129 90 C 124 95 124 98 127 100 C 130 102 154 103 157 101 C 162 99 162 96 157 90 C 151 84 151 84 151 59 C 151 35 151 33 147 26 C 139 12 126 10 106 20 C 97 25 95 25 88 20 C 80 13 72 13 58 18 C 51 21 49 21 45 16 C 41 13 39 13 32 16 z" fill="black"/><!-- width=175 height=115 -->
</defs>
<use xlink:href="#gl3102" x="665" y="0"/>
<use xlink:href="#gl2337" x="760" y="60"/>
<use xlink:href="#gl2572" x="841" y="71"/>
<use xlink:href="#gl2569" x="941" y="12"/>
<use xlink:href="#gl2589" x="1041" y="75"/>
<use xlink:href="#gl2850" x="1128" y="73"/>
<use xlink:href="#gl2834" x="1213" y="56"/>
<use xlink:href="#gl2571" x="1284" y="22"/>
<use xlink:href="#gl2839" x="1322" y="52"/>
<use xlink:href="#gl2571" x="1420" y="22"/>
<use xlink:href="#gl2834" x="1464" y="55"/>
<use xlink:href="#gl2822" x="1513" y="35"/>
<use xlink:href="#gl3103" x="1687" y="21"/>
<use xlink:href="#gl2337" x="1765" y="59"/>
<use xlink:href="#gl2841" x="1833" y="66"/>
<use xlink:href="#gl2568" x="1920" y="73"/>
<use xlink:href="#gl2568" x="1986" y="74"/>
<use xlink:href="#gl3104" x="0" y="264"/>
<use xlink:href="#gl3104" x="98" y="264"/>
<use xlink:href="#gl3104" x="198" y="264"/>
<use xlink:href="#gl3102" x="343" y="245"/>
<use xlink:href="#gl3072" x="448" y="317"/>
<use xlink:href="#gl2337" x="515" y="304"/>
<use xlink:href="#gl2821" x="574" y="259"/>
<use xlink:href="#gl3105" x="803" y="271"/>
<use xlink:href="#gl2839" x="907" y="296"/>
<use xlink:href="#gl2567" x="994" y="311"/>
<use xlink:href="#gl2561" x="1081" y="312"/>
<use xlink:href="#gl2589" x="1186" y="318"/>
<use xlink:href="#gl2841" x="1278" y="311"/>
<use xlink:href="#gl3106" x="1430" y="266"/>
<use xlink:href="#gl2572" x="1519" y="314"/>
<use xlink:href="#gl2589" x="1616" y="318"/>
<use xlink:href="#gl2570" x="1711" y="297"/>
<use xlink:href="#gl2591" x="1761" y="258"/>
<use xlink:href="#gl2573" x="1889" y="368"/>
<use xlink:href="#gl3106" x="1994" y="265"/>
<use xlink:href="#gl2589" x="2082" y="318"/>
<use xlink:href="#gl2571" x="2183" y="266"/>
<use xlink:href="#gl2834" x="2228" y="298"/>
<use xlink:href="#gl2567" x="2285" y="310"/>
<use xlink:href="#gl3328" x="2429" y="266"/>
<use xlink:href="#gl3092" x="2532" y="270"/>
<use xlink:href="#gl3104" x="2636" y="261"/>
<use xlink:href="#gl3329" x="515" y="495"/>
<use xlink:href="#gl2841" x="651" y="554"/>
<use xlink:href="#gl3075" x="732" y="544"/>
<use xlink:href="#gl3330" x="917" y="487"/>
<use xlink:href="#gl2572" x="1023" y="557"/>
<use xlink:href="#gl2337" x="1104" y="546"/>
<use xlink:href="#gl2821" x="1160" y="500"/>
<use xlink:href="#gl2573" x="1286" y="611"/>
<use xlink:href="#gl3329" x="1386" y="494"/>
<use xlink:href="#gl3330" x="1530" y="486"/>
<use xlink:href="#gl3331" x="1730" y="515"/>
<use xlink:href="#gl3092" x="1813" y="513"/>
<use xlink:href="#gl3092" x="1911" y="513"/>
<use xlink:href="#gl2826" x="2031" y="515"/>
<use xlink:href="#gl3096" x="2108" y="503"/>
<use xlink:href="#gl2820" x="341" y="709"/>
<use xlink:href="#gl2841" x="441" y="795"/>
<use xlink:href="#gl2832" x="529" y="741"/>
<use xlink:href="#gl2841" x="570" y="795"/>
<use xlink:href="#gl2846" x="645" y="776"/>
<use xlink:href="#gl2591" x="743" y="741"/>
<use xlink:href="#gl2572" x="863" y="798"/>
<use xlink:href="#gl2561" x="958" y="795"/>
<use xlink:href="#gl2841" x="1055" y="795"/>
<use xlink:href="#gl3101" x="1153" y="801"/>
<use xlink:href="#gl3332" x="1257" y="756"/>
<use xlink:href="#gl3331" x="1367" y="757"/>
<use xlink:href="#gl3332" x="1455" y="755"/>
<use xlink:href="#gl3093" x="1549" y="828"/>
<use xlink:href="#gl3096" x="1608" y="746"/>
<use xlink:href="#gl3098" x="1718" y="751"/>
<use xlink:href="#gl3096" x="1810" y="746"/>
<use xlink:href="#gl3333" x="1913" y="833"/>
<use xlink:href="#gl3334" x="1988" y="733"/>
<use xlink:href="#gl2836" x="2084" y="727"/>
<use xlink:href="#gl3092" x="2178" y="753"/>
<use xlink:href="#gl3092" x="2278" y="753"/>
<use xlink:href="#gl3335" x="604" y="972"/>
<use xlink:href="#gl3072" x="706" y="1044"/>
<use xlink:href="#gl3336" x="785" y="1044"/>
<use xlink:href="#gl3101" x="884" y="1044"/>
<use xlink:href="#gl3332" x="987" y="999"/>
<use xlink:href="#gl3331" x="1100" y="1000"/>
<use xlink:href="#gl3332" x="1186" y="999"/>
<use xlink:href="#gl3093" x="1280" y="1072"/>
<use xlink:href="#gl3096" x="1341" y="989"/>
<use xlink:href="#gl3097" x="1451" y="997"/>
<use xlink:href="#gl3096" x="1540" y="989"/>
<use xlink:href="#gl3093" x="1643" y="1072"/>
<use xlink:href="#gl3337" x="1720" y="1000"/>
<use xlink:href="#gl3095" x="1810" y="983"/>
<use xlink:href="#gl3338" x="1936" y="1005"/>
<use xlink:href="#gl3339" x="2028" y="1000"/>
<use xlink:href="#gl2831" x="17" y="1234"/>
<use xlink:href="#gl3093" x="148" y="1317"/>
<use xlink:href="#gl2816" x="208" y="1283"/>
<use xlink:href="#gl3072" x="365" y="1289"/>
<use xlink:href="#gl2571" x="451" y="1236"/>
<use xlink:href="#gl2563" x="498" y="1229"/>
<use xlink:href="#gl3101" x="560" y="1288"/>
<use xlink:href="#gl2571" x="657" y="1237"/>
<use xlink:href="#gl2561" x="705" y="1283"/>
<use xlink:href="#gl3340" x="785" y="1219"/>
<use xlink:href="#gl2572" x="869" y="1285"/>
<use xlink:href="#gl3341" x="971" y="1235"/>
<use xlink:href="#gl2846" x="1103" y="1263"/>
<use xlink:href="#gl2337" x="1204" y="1274"/>
<use xlink:href="#gl2572" x="1285" y="1285"/>
<use xlink:href="#gl2569" x="1386" y="1226"/>
<use xlink:href="#gl2589" x="1485" y="1289"/>
<use xlink:href="#gl2850" x="1573" y="1287"/>
<use xlink:href="#gl2834" x="1659" y="1270"/>
<use xlink:href="#gl2571" x="1728" y="1235"/>
<use xlink:href="#gl2839" x="1766" y="1267"/>
<use xlink:href="#gl2571" x="1865" y="1235"/>
<use xlink:href="#gl3342" x="1927" y="1279"/>
<use xlink:href="#gl2822" x="1958" y="1250"/>
<use xlink:href="#gl3082" x="2067" y="1234"/>
<use xlink:href="#gl2561" x="2113" y="1281"/>
<use xlink:href="#gl2850" x="2209" y="1285"/>
<use xlink:href="#gl1028" x="2307" y="1344"/>
<use xlink:href="#gl2850" x="2339" y="1285"/>
<use xlink:href="#gl2572" x="2432" y="1283"/>
<use xlink:href="#gl2816" x="2523" y="1280"/>
</svg>
