<?xml version='1.0' encoding='utf-8'?>
<svg xmlns="http://www.w3.org/2000/svg" xmlns:xlink="http://www.w3.org/1999/xlink" width="462px" height="41px" viewBox="0 0 4629 415" version="1.1">
<defs>
<path id="gl26626" d="M 33 37 C 27 39 27 39 28 78 C 28 98 28 114 28 123 C 27 146 27 150 28 154 C 30 157 31 159 36 159 C 40 159 42 157 43 153 C 44 153 45 151 45 150 C 45 145 45 139 44 133 C 43 115 43 114 47 111 C 48 110 48 109 49 109 C 52 109 55 109 58 109 C 78 109 87 103 93 87 C 96 80 96 78 96 69 C 94 58 91 53 85 46 C 81 42 73 38 66 37 C 59 37 36 37 33 37 M 67 54 C 82 60 82 85 67 92 C 62 95 52 96 49 93 C 44 90 44 90 44 74 C 44 58 45 56 48 54 C 51 52 62 52 67 54 z" fill="black"/><!-- width=108 height=170 -->
<path id="gl29462" d="M 22 22 C 19 22 16 25 15 27 C 15 28 15 50 15 76 C 15 81 15 96 15 111 C 15 120 15 129 15 137 C 15 138 16 138 16 139 C 18 141 21 142 24 141 C 31 141 32 138 31 125 C 30 96 30 97 31 94 C 33 90 35 89 41 89 C 51 88 59 91 61 95 C 64 99 65 102 65 117 C 65 121 65 126 65 131 C 66 132 66 133 67 135 C 70 142 77 144 82 139 C 84 137 84 134 83 126 C 82 123 82 115 82 110 C 81 99 81 97 77 91 C 72 84 72 81 76 75 C 84 62 84 49 77 36 C 73 28 69 25 56 22 C 51 22 31 21 22 22 M 52 37 C 63 40 69 53 64 66 C 61 72 55 76 45 76 C 37 77 33 75 31 71 C 30 69 30 46 31 43 C 33 37 40 35 52 37 z" fill="black"/><!-- width=94 height=153 -->
<path id="gl26120" d="M 42 15 C 30 19 22 28 17 46 C 15 54 14 81 15 94 C 18 125 33 142 58 140 C 79 139 90 127 94 103 C 96 96 97 61 96 54 C 91 32 82 19 66 15 C 62 14 46 14 42 15 M 63 32 C 75 37 79 51 79 78 C 79 109 71 124 54 123 C 39 123 31 108 31 78 C 31 56 35 42 41 36 C 48 30 56 28 63 32 z" fill="black"/><!-- width=111 height=155 -->
<path id="gl26628" d="M 27 13 C 24 15 23 16 22 18 C 21 22 21 124 22 127 C 24 133 24 133 42 133 C 69 133 76 130 85 118 C 92 108 96 94 96 73 C 96 33 85 15 58 13 C 48 12 28 12 27 13 M 60 29 C 73 32 78 43 79 69 C 80 101 71 117 52 117 C 44 118 41 117 39 113 C 39 112 38 111 37 111 C 37 97 37 85 37 72 C 37 30 37 32 42 29 C 44 28 54 28 60 29 z" fill="black"/><!-- width=111 height=147 -->
<path id="gl28427" d="M 18 8 C 14 10 13 13 13 24 C 13 30 14 49 14 66 C 14 76 14 87 14 97 C 15 99 15 102 16 103 C 21 121 31 129 49 129 C 67 129 75 123 82 104 C 83 102 84 100 84 99 C 84 84 84 70 84 56 C 84 9 85 12 81 9 C 77 6 70 7 68 11 C 67 13 67 15 67 46 C 67 103 68 101 63 107 C 58 113 52 115 44 113 C 39 112 34 108 32 102 C 32 100 31 99 31 97 C 31 84 31 70 31 56 C 31 28 31 13 30 13 C 28 7 23 6 18 8 z" fill="black"/><!-- width=99 height=145 -->
<path id="gl29463" d="M 52 11 C 45 13 40 15 38 16 C 32 20 24 34 22 45 C 21 47 21 50 20 51 C 19 55 19 90 20 93 C 21 94 21 97 22 100 C 24 121 40 136 59 135 C 69 134 81 129 84 124 C 85 123 87 120 88 118 C 93 110 95 93 91 91 C 90 91 88 90 85 90 C 79 90 78 91 76 102 C 74 109 72 112 69 115 C 59 122 46 118 41 108 C 37 100 34 65 37 54 C 37 51 38 48 39 46 C 39 42 43 34 45 31 C 50 25 62 24 69 28 C 71 30 75 36 77 41 C 80 52 88 55 93 47 C 97 41 93 28 87 21 C 79 13 62 8 52 11 z" fill="black"/><!-- width=105 height=146 -->
<path id="gl29464" d="M 16 43 C 9 45 7 55 15 59 C 16 60 18 60 25 60 C 34 59 34 59 36 61 C 40 63 40 64 40 79 C 40 87 39 107 39 125 C 39 135 39 146 39 157 C 39 158 40 159 40 160 C 43 165 51 166 54 162 C 57 159 57 159 56 117 C 56 95 55 75 55 72 C 55 61 58 59 69 60 C 79 60 81 60 83 59 C 88 55 87 48 82 45 C 80 43 79 43 67 44 C 50 44 40 44 29 43 C 23 43 18 43 16 43 z" fill="black"/><!-- width=96 height=174 -->
<path id="gl24839" d="M 18 14 C 15 18 15 19 16 31 C 17 43 17 112 16 124 C 15 132 15 132 16 135 C 21 142 31 141 34 133 C 34 132 34 129 34 120 C 33 112 33 94 33 63 C 33 48 33 33 33 18 C 33 17 32 16 32 15 C 29 11 22 10 18 14 z" fill="black"/><!-- width=50 height=153 -->
<path id="gl28430" d="M 16 16 C 12 20 12 26 18 45 C 20 50 22 58 23 62 C 24 69 26 74 32 96 C 35 106 37 116 39 123 C 39 132 42 135 50 135 C 59 135 60 133 65 112 C 67 104 70 94 71 92 C 72 89 73 85 73 83 C 73 81 75 76 76 71 C 78 66 80 58 81 52 C 84 43 86 36 88 31 C 90 27 90 24 89 21 C 87 17 85 16 81 16 C 72 16 71 18 66 45 C 66 50 64 56 63 60 C 63 63 61 66 61 67 C 61 69 60 75 59 79 C 58 85 57 90 57 92 C 55 100 49 103 47 98 C 46 96 45 90 42 78 C 42 73 40 66 39 62 C 39 58 37 52 36 48 C 33 24 30 17 24 16 C 21 15 18 15 16 16 z" fill="black"/><!-- width=102 height=148 -->
<path id="gl28429" d="M 16 18 C 12 21 13 21 13 44 C 13 56 13 80 13 97 C 13 132 13 133 16 136 C 18 138 22 138 25 136 C 27 135 30 131 30 128 C 30 127 30 106 30 82 C 30 50 30 38 30 33 C 31 27 31 24 28 21 C 25 16 19 15 16 18 z" fill="black"/><!-- width=43 height=153 -->
<path id="gl29464" d="M 16 43 C 9 45 7 55 15 59 C 16 60 18 60 25 60 C 34 59 34 59 36 61 C 40 63 40 64 40 79 C 40 87 39 107 39 125 C 39 135 39 146 39 157 C 39 158 40 159 40 160 C 43 165 51 166 54 162 C 57 159 57 159 56 117 C 56 95 55 75 55 72 C 55 61 58 59 69 60 C 79 60 81 60 83 59 C 88 55 87 48 82 45 C 80 43 79 43 67 44 C 50 44 40 44 29 43 C 23 43 18 43 16 43 z" fill="black"/><!-- width=96 height=174 -->
<path id="gl29465" d="M 12 31 C 11 31 10 32 9 33 C 5 38 6 42 12 48 C 16 51 19 58 19 60 C 19 60 27 76 32 85 C 39 100 39 104 38 125 C 37 141 37 144 40 147 C 41 150 43 151 47 151 C 55 151 57 148 56 131 C 54 106 55 97 63 83 C 64 81 67 74 70 69 C 85 37 84 39 79 34 C 79 33 78 31 76 31 C 75 31 75 31 73 31 C 68 32 65 36 61 48 C 53 74 49 80 43 75 C 41 73 40 71 36 60 C 28 36 28 35 24 33 C 21 31 14 30 12 31 z" fill="black"/><!-- width=92 height=162 -->
<path id="gl25116" d="M 17 15 C 13 18 12 27 15 33 C 18 38 18 41 16 45 C 13 50 13 51 14 54 C 15 58 22 58 25 53 C 28 46 30 24 27 19 C 25 15 24 14 21 14 C 19 14 18 15 17 15 z" fill="black"/><!-- width=42 height=69 -->
<path id="gl28431" d="M 18 14 C 14 17 14 12 14 73 C 14 133 14 130 18 132 C 21 133 25 133 27 132 C 31 129 31 131 31 82 C 31 46 31 37 31 31 C 33 22 32 20 30 17 C 27 13 22 12 18 14 z" fill="black"/><!-- width=45 height=145 -->
<path id="gl26635" d="M 20 11 C 13 13 13 16 13 30 C 15 39 14 58 13 71 C 12 88 12 124 13 127 C 15 133 25 135 28 129 C 30 126 30 122 30 107 C 29 99 28 87 28 79 C 27 61 28 57 30 54 C 34 51 37 55 42 72 C 44 77 48 87 50 92 C 52 97 56 108 58 114 C 63 129 65 132 73 132 C 83 132 85 127 84 116 C 84 111 84 89 85 37 C 85 19 85 18 84 16 C 80 8 69 10 68 18 C 67 20 68 28 68 37 C 69 63 70 84 69 87 C 68 90 66 91 64 91 C 61 90 59 85 52 68 C 49 59 46 51 45 48 C 42 41 40 34 38 28 C 34 14 33 12 25 11 C 23 11 21 11 20 11 z" fill="black"/><!-- width=98 height=145 -->
<path id="gl28428" d="M 52 13 C 35 18 29 26 23 49 C 20 61 20 85 24 102 C 27 119 35 130 48 135 C 56 137 71 136 77 132 C 87 126 94 114 95 101 C 95 99 96 97 96 96 C 94 94 94 94 93 93 C 91 91 90 90 88 90 C 82 90 79 94 77 104 C 74 115 70 120 60 120 C 45 120 38 106 38 74 C 39 55 40 45 43 39 C 48 31 52 28 60 28 C 69 27 75 31 77 41 C 80 51 82 52 88 52 C 93 52 95 51 96 47 C 98 40 93 28 85 20 C 79 14 61 10 52 13 z" fill="black"/><!-- width=108 height=150 -->
<path id="gl2844" d="M 19 14 C 15 16 12 21 13 26 C 15 33 28 35 32 28 C 37 20 28 10 19 14 z" fill="black"/><!-- width=47 height=46 -->
<path id="gl25116" d="M 17 15 C 13 18 12 27 15 33 C 18 38 18 41 16 45 C 13 50 13 51 14 54 C 15 58 22 58 25 53 C 28 46 30 24 27 19 C 25 15 24 14 21 14 C 19 14 18 15 17 15 z" fill="black"/><!-- width=42 height=69 -->
<path id="gl26628" d="M 27 13 C 24 15 23 16 22 18 C 21 22 21 124 22 127 C 24 133 24 133 42 133 C 69 133 76 130 85 118 C 92 108 96 94 96 73 C 96 33 85 15 58 13 C 48 12 28 12 27 13 M 60 29 C 73 32 78 43 79 69 C 80 101 71 117 52 117 C 44 118 41 117 39 113 C 39 112 38 111 37 111 C 37 97 37 85 37 72 C 37 30 37 32 42 29 C 44 28 54 28 60 29 z" fill="black"/><!-- width=111 height=147 -->
<path id="gl29466" d="M 46 9 C 25 10 27 8 27 36 C 27 62 27 62 27 94 C 27 124 27 123 31 127 C 31 127 32 128 33 129 C 38 129 43 129 49 129 C 58 129 69 129 73 129 C 82 130 85 130 87 127 C 89 125 90 121 88 117 C 87 112 85 112 75 112 C 57 114 49 114 48 112 C 44 111 43 106 42 92 C 42 74 43 73 63 75 C 83 78 88 76 87 66 C 87 59 84 58 69 60 C 42 62 43 63 42 43 C 42 24 43 22 64 25 C 81 27 84 26 88 22 C 91 18 90 12 85 10 C 83 9 75 9 46 9 z" fill="black"/><!-- width=99 height=140 -->
<path id="gl26637" d="M 32 37 C 28 40 28 37 28 82 C 28 104 27 129 27 136 C 26 154 27 156 31 158 C 37 160 42 159 44 155 C 46 152 46 148 45 136 C 42 110 43 108 58 109 C 83 109 94 97 94 72 C 94 57 93 53 87 48 C 77 39 73 37 51 37 C 34 36 34 36 32 37 M 67 54 C 79 60 82 78 72 88 C 67 94 51 96 47 93 C 44 90 43 88 43 73 C 44 53 45 52 57 52 C 63 52 64 53 67 54 z" fill="black"/><!-- width=107 height=171 -->
<path id="gl29467" d="M 70 43 C 66 44 31 44 27 43 C 20 43 13 43 11 46 C 9 47 9 48 10 52 C 10 60 10 60 25 59 C 31 58 32 59 34 60 C 39 63 39 60 39 110 C 37 160 38 162 42 163 C 48 165 53 163 55 158 C 55 156 55 102 55 79 C 54 66 55 64 57 61 C 60 59 61 59 72 60 C 74 60 76 60 79 60 C 80 60 80 59 81 58 C 82 56 83 55 82 49 C 82 43 80 42 70 43 z" fill="black"/><!-- width=94 height=174 -->
<path id="gl2844" d="M 19 14 C 15 16 12 21 13 26 C 15 33 28 35 32 28 C 37 20 28 10 19 14 z" fill="black"/><!-- width=47 height=46 -->
<path id="gl28436" d="M 24 13 C 22 13 21 15 20 16 C 20 16 19 17 19 18 C 19 28 19 38 19 48 C 19 66 19 89 18 100 C 18 124 18 126 21 129 C 21 130 22 131 22 132 C 28 132 34 132 40 132 C 64 132 69 130 77 123 C 85 116 88 109 87 97 C 87 88 85 84 80 77 C 76 72 75 67 77 63 C 78 63 79 61 80 59 C 86 50 87 39 81 28 C 78 21 73 17 64 14 C 59 13 28 12 24 13 M 57 28 C 67 31 72 48 66 57 C 61 63 45 67 39 63 C 34 61 34 60 34 47 C 34 31 36 28 43 27 C 46 27 54 27 57 28 M 54 76 C 70 81 76 101 65 112 C 60 115 57 117 48 117 C 39 117 36 115 34 109 C 34 106 34 82 35 80 C 37 75 44 74 54 76 z" fill="black"/><!-- width=100 height=145 -->
<path id="gl26639" d="M 85 11 C 82 12 80 13 78 17 C 70 29 66 36 63 41 C 55 56 52 58 48 58 C 43 58 42 54 43 41 C 44 30 45 18 44 16 C 42 12 37 9 33 12 C 27 14 27 18 28 37 C 29 55 28 78 28 99 C 27 115 27 126 28 128 C 30 132 35 133 40 131 C 45 129 45 125 44 108 C 42 88 46 79 54 79 C 58 79 61 84 69 100 C 70 104 73 110 75 114 C 77 117 79 121 79 123 C 83 132 93 135 98 129 C 101 126 100 121 93 111 C 91 109 90 105 88 103 C 87 100 85 97 83 94 C 66 66 66 67 66 63 C 66 60 68 57 73 51 C 79 43 95 22 96 20 C 98 13 93 8 85 11 z" fill="black"/><!-- width=111 height=144 -->
<path id="gl26650" d="M 14 15 C 12 15 11 16 10 21 C 9 24 11 30 13 32 C 16 35 16 39 13 44 C 7 52 13 58 20 51 C 23 49 24 47 25 39 C 26 26 25 18 22 15 C 21 14 16 14 14 15 z" fill="black"/><!-- width=37 height=64 -->
<path id="gl26637" d="M 32 37 C 28 40 28 37 28 82 C 28 104 27 129 27 136 C 26 154 27 156 31 158 C 37 160 42 159 44 155 C 46 152 46 148 45 136 C 42 110 43 108 58 109 C 83 109 94 97 94 72 C 94 57 93 53 87 48 C 77 39 73 37 51 37 C 34 36 34 36 32 37 M 67 54 C 79 60 82 78 72 88 C 67 94 51 96 47 93 C 44 90 43 88 43 73 C 44 53 45 52 57 52 C 63 52 64 53 67 54 z" fill="black"/><!-- width=107 height=171 -->
<path id="gl2844" d="M 19 14 C 15 16 12 21 13 26 C 15 33 28 35 32 28 C 37 20 28 10 19 14 z" fill="black"/><!-- width=47 height=46 -->
<path id="gl26114" d="M 45 14 C 29 18 20 30 16 50 C 14 59 14 92 16 102 C 21 127 33 139 55 139 C 77 139 89 126 93 97 C 95 89 94 55 93 49 C 88 30 81 20 67 15 C 63 13 49 13 45 14 M 62 31 C 69 34 73 40 75 51 C 78 62 78 90 75 100 C 73 113 70 118 63 121 C 52 126 42 122 36 111 C 31 100 30 72 33 54 C 36 40 39 35 45 31 C 51 28 57 28 62 31 z" fill="black"/><!-- width=109 height=154 -->
<path id="gl2844" d="M 19 14 C 15 16 12 21 13 26 C 15 33 28 35 32 28 C 37 20 28 10 19 14 z" fill="black"/><!-- width=47 height=46 -->
<path id="gl29468" d="M 9 9 C 4 14 4 124 9 129 C 33 129 57 124 67 120 C 76 110 76 76 67 72 C 62 67 62 62 67 57 C 86 28 67 9 33 9 C 24 9 9 9 9 9 M 48 28 C 57 38 57 52 43 57 C 28 62 24 57 24 43 C 24 19 33 14 48 28 M 52 76 C 67 91 57 115 33 110 C 24 110 24 105 24 96 C 19 72 38 62 52 76 z" fill="black"/><!-- width=86 height=139 -->
<path id="gl26114" d="M 45 14 C 29 18 20 30 16 50 C 14 59 14 92 16 102 C 21 127 33 139 55 139 C 77 139 89 126 93 97 C 95 89 94 55 93 49 C 88 30 81 20 67 15 C 63 13 49 13 45 14 M 62 31 C 69 34 73 40 75 51 C 78 62 78 90 75 100 C 73 113 70 118 63 121 C 52 126 42 122 36 111 C 31 100 30 72 33 54 C 36 40 39 35 45 31 C 51 28 57 28 62 31 z" fill="black"/><!-- width=109 height=154 -->
<path id="gl26642" d="M 69 13 C 64 15 63 18 57 33 C 52 47 50 49 46 49 C 42 49 40 47 33 29 C 28 14 27 13 18 13 C 7 14 8 18 30 56 C 36 67 37 73 35 78 C 33 81 30 87 30 88 C 29 88 27 93 24 98 C 15 114 14 116 12 119 C 8 126 8 128 12 132 C 18 137 25 133 29 123 C 34 111 40 97 42 95 C 43 93 43 93 46 93 C 49 93 52 96 56 108 C 59 116 65 129 67 130 C 72 136 78 135 82 130 C 84 127 82 124 77 115 C 75 111 72 106 71 104 C 69 99 65 93 63 89 C 53 74 53 71 61 57 C 63 55 66 49 68 45 C 70 40 74 34 75 31 C 79 25 80 22 80 18 C 80 13 75 10 69 13 z" fill="black"/><!-- width=92 height=146 -->
<path id="gl26655" d="M 37 21 C 36 22 34 24 33 26 C 29 33 26 35 17 37 C 10 38 9 39 7 42 C 6 48 10 51 18 51 C 25 49 29 51 31 55 C 31 58 31 58 31 99 C 31 109 31 120 31 131 C 31 132 31 132 32 133 C 36 139 45 138 46 132 C 48 129 48 117 46 70 C 46 55 46 45 47 37 C 48 25 47 23 45 21 C 43 19 39 19 37 21 z" fill="black"/><!-- width=73 height=146 -->
<path id="gl28445" d="M 34 12 C 20 13 12 19 8 33 C 6 40 7 45 12 47 C 17 48 21 46 23 39 C 27 30 31 25 38 25 C 46 25 52 32 52 43 C 52 55 48 60 35 63 C 30 64 27 69 29 72 C 31 75 33 76 39 77 C 50 79 54 85 54 98 C 53 112 43 121 33 116 C 28 114 27 112 24 103 C 22 97 20 95 17 94 C 7 92 4 102 10 115 C 17 127 28 133 43 132 C 54 130 61 125 66 114 C 73 100 72 87 63 75 C 58 69 58 66 62 59 C 69 49 69 38 63 26 C 58 15 50 11 34 12 z" fill="black"/><!-- width=86 height=145 -->
<path id="gl28445" d="M 34 12 C 20 13 12 19 8 33 C 6 40 7 45 12 47 C 17 48 21 46 23 39 C 27 30 31 25 38 25 C 46 25 52 32 52 43 C 52 55 48 60 35 63 C 30 64 27 69 29 72 C 31 75 33 76 39 77 C 50 79 54 85 54 98 C 53 112 43 121 33 116 C 28 114 27 112 24 103 C 22 97 20 95 17 94 C 7 92 4 102 10 115 C 17 127 28 133 43 132 C 54 130 61 125 66 114 C 73 100 72 87 63 75 C 58 69 58 66 62 59 C 69 49 69 38 63 26 C 58 15 50 11 34 12 z" fill="black"/><!-- width=86 height=145 -->
<path id="gl26646" d="M 30 15 C 16 21 9 34 9 54 C 9 72 13 82 24 88 C 33 93 39 94 49 89 C 55 86 58 85 60 88 C 61 90 62 93 61 99 C 58 114 47 123 36 119 C 33 118 31 116 27 111 C 19 99 7 105 13 118 C 19 130 25 134 39 134 C 60 135 69 126 75 102 C 75 99 76 94 76 93 C 78 88 78 69 77 57 C 77 51 72 35 70 30 C 66 23 61 18 54 15 C 49 13 35 13 30 15 M 48 28 C 55 32 60 42 60 57 C 60 66 58 70 54 74 C 46 82 33 79 27 69 C 24 63 24 48 27 40 C 30 30 40 25 48 28 z" fill="black"/><!-- width=93 height=147 -->
<path id="gl26647" d="M 40 11 C 31 13 22 22 18 33 C 14 45 13 54 14 77 C 14 95 14 95 16 103 C 21 124 31 133 51 132 C 65 132 73 124 78 109 C 83 94 84 61 81 44 C 77 30 76 28 74 25 C 67 13 55 9 40 11 M 53 26 C 64 30 67 42 66 76 C 66 100 63 111 57 115 C 48 121 37 117 33 107 C 29 94 28 56 33 38 C 36 28 45 22 53 26 z" fill="black"/><!-- width=96 height=145 -->
<path id="gl25116" d="M 17 15 C 13 18 12 27 15 33 C 18 38 18 41 16 45 C 13 50 13 51 14 54 C 15 58 22 58 25 53 C 28 46 30 24 27 19 C 25 15 24 14 21 14 C 19 14 18 15 17 15 z" fill="black"/><!-- width=42 height=69 -->
<path id="gl26626" d="M 33 37 C 27 39 27 39 28 78 C 28 98 28 114 28 123 C 27 146 27 150 28 154 C 30 157 31 159 36 159 C 40 159 42 157 43 153 C 44 153 45 151 45 150 C 45 145 45 139 44 133 C 43 115 43 114 47 111 C 48 110 48 109 49 109 C 52 109 55 109 58 109 C 78 109 87 103 93 87 C 96 80 96 78 96 69 C 94 58 91 53 85 46 C 81 42 73 38 66 37 C 59 37 36 37 33 37 M 67 54 C 82 60 82 85 67 92 C 62 95 52 96 49 93 C 44 90 44 90 44 74 C 44 58 45 56 48 54 C 51 52 62 52 67 54 z" fill="black"/><!-- width=108 height=170 -->
<path id="gl26114" d="M 45 14 C 29 18 20 30 16 50 C 14 59 14 92 16 102 C 21 127 33 139 55 139 C 77 139 89 126 93 97 C 95 89 94 55 93 49 C 88 30 81 20 67 15 C 63 13 49 13 45 14 M 62 31 C 69 34 73 40 75 51 C 78 62 78 90 75 100 C 73 113 70 118 63 121 C 52 126 42 122 36 111 C 31 100 30 72 33 54 C 36 40 39 35 45 31 C 51 28 57 28 62 31 z" fill="black"/><!-- width=109 height=154 -->
<path id="gl26627" d="M 25 22 C 22 23 19 25 18 28 C 18 30 18 39 18 60 C 18 78 18 97 18 112 C 17 139 17 139 21 142 C 25 144 32 143 34 139 C 35 136 35 123 34 109 C 33 91 36 88 52 90 C 60 91 63 93 66 98 C 67 99 67 101 68 102 C 68 107 68 112 69 117 C 69 135 70 138 74 141 C 78 144 85 143 87 139 C 88 137 88 129 87 124 C 86 122 85 117 85 112 C 84 101 84 97 79 91 C 75 84 75 82 80 73 C 84 66 85 60 85 52 C 84 36 77 27 63 24 C 57 22 28 21 25 22 M 56 38 C 65 41 70 51 68 61 C 65 73 59 78 46 77 C 35 76 34 75 34 58 C 34 44 34 42 37 39 C 40 37 49 36 56 38 z" fill="black"/><!-- width=100 height=155 -->
<path id="gl29464" d="M 16 43 C 9 45 7 55 15 59 C 16 60 18 60 25 60 C 34 59 34 59 36 61 C 40 63 40 64 40 79 C 40 87 39 107 39 125 C 39 135 39 146 39 157 C 39 158 40 159 40 160 C 43 165 51 166 54 162 C 57 159 57 159 56 117 C 56 95 55 75 55 72 C 55 61 58 59 69 60 C 79 60 81 60 83 59 C 88 55 87 48 82 45 C 80 43 79 43 67 44 C 50 44 40 44 29 43 C 23 43 18 43 16 43 z" fill="black"/><!-- width=96 height=174 -->
<path id="gl28439" d="M 39 4 C 35 7 35 5 35 64 C 35 126 35 123 40 125 C 42 126 43 126 51 126 C 55 126 64 126 71 126 C 97 127 95 127 96 126 C 99 124 99 112 96 109 C 95 108 92 108 90 108 C 87 109 63 110 59 110 C 56 109 54 108 52 104 C 52 102 52 95 52 61 C 53 4 54 8 49 5 C 47 3 41 3 39 4 z" fill="black"/><!-- width=105 height=160 -->
<path id="gl28440" d="M 47 5 C 44 6 43 7 42 14 C 40 17 40 20 39 21 C 39 22 38 25 37 28 C 37 31 36 35 35 36 C 34 38 33 42 33 45 C 32 48 31 52 30 54 C 29 55 28 60 28 63 C 27 66 26 70 25 72 C 25 73 24 77 23 81 C 21 89 18 97 15 102 C 14 103 13 105 13 106 C 13 109 13 112 13 115 C 12 126 13 128 17 127 C 26 126 29 123 31 109 C 33 99 35 94 40 93 C 41 92 61 92 66 93 C 70 93 72 96 76 120 C 76 121 78 123 79 124 C 82 126 82 127 85 127 C 94 127 99 117 93 109 C 91 108 86 91 84 84 C 84 82 83 79 82 78 C 82 77 81 73 79 69 C 78 59 75 49 73 44 C 71 39 69 28 67 21 C 66 12 64 7 61 6 C 57 4 51 4 47 5 M 58 40 C 59 43 60 47 61 52 C 62 55 63 60 64 63 C 67 75 65 80 54 80 C 41 80 38 75 43 60 C 44 57 45 52 46 48 C 48 41 48 39 51 36 C 52 36 52 35 54 34 C 54 34 54 35 55 36 C 55 36 57 39 58 40 z" fill="black"/><!-- width=106 height=139 -->
<path id="gl26635" d="M 20 11 C 13 13 13 16 13 30 C 15 39 14 58 13 71 C 12 88 12 124 13 127 C 15 133 25 135 28 129 C 30 126 30 122 30 107 C 29 99 28 87 28 79 C 27 61 28 57 30 54 C 34 51 37 55 42 72 C 44 77 48 87 50 92 C 52 97 56 108 58 114 C 63 129 65 132 73 132 C 83 132 85 127 84 116 C 84 111 84 89 85 37 C 85 19 85 18 84 16 C 80 8 69 10 68 18 C 67 20 68 28 68 37 C 69 63 70 84 69 87 C 68 90 66 91 64 91 C 61 90 59 85 52 68 C 49 59 46 51 45 48 C 42 41 40 34 38 28 C 34 14 33 12 25 11 C 23 11 21 11 20 11 z" fill="black"/><!-- width=98 height=145 -->
<path id="gl26628" d="M 27 13 C 24 15 23 16 22 18 C 21 22 21 124 22 127 C 24 133 24 133 42 133 C 69 133 76 130 85 118 C 92 108 96 94 96 73 C 96 33 85 15 58 13 C 48 12 28 12 27 13 M 60 29 C 73 32 78 43 79 69 C 80 101 71 117 52 117 C 44 118 41 117 39 113 C 39 112 38 111 37 111 C 37 97 37 85 37 72 C 37 30 37 32 42 29 C 44 28 54 28 60 29 z" fill="black"/><!-- width=111 height=147 -->
<path id="gl26650" d="M 14 15 C 12 15 11 16 10 21 C 9 24 11 30 13 32 C 16 35 16 39 13 44 C 7 52 13 58 20 51 C 23 49 24 47 25 39 C 26 26 25 18 22 15 C 21 14 16 14 14 15 z" fill="black"/><!-- width=37 height=64 -->
<path id="gl26114" d="M 45 14 C 29 18 20 30 16 50 C 14 59 14 92 16 102 C 21 127 33 139 55 139 C 77 139 89 126 93 97 C 95 89 94 55 93 49 C 88 30 81 20 67 15 C 63 13 49 13 45 14 M 62 31 C 69 34 73 40 75 51 C 78 62 78 90 75 100 C 73 113 70 118 63 121 C 52 126 42 122 36 111 C 31 100 30 72 33 54 C 36 40 39 35 45 31 C 51 28 57 28 62 31 z" fill="black"/><!-- width=109 height=154 -->
<path id="gl26652" d="M 27 22 C 22 22 21 23 19 25 C 18 27 17 41 18 54 C 18 58 18 76 18 93 C 17 142 16 138 19 140 C 22 145 31 144 33 139 C 34 136 35 124 34 120 C 34 120 33 114 33 108 C 33 97 33 97 34 94 C 37 90 43 88 54 90 C 66 93 68 98 67 118 C 67 137 70 143 79 143 C 84 143 85 142 87 139 C 88 136 87 136 86 127 C 85 123 84 115 84 110 C 84 100 82 96 78 88 C 75 84 75 81 78 75 C 85 61 86 48 80 36 C 75 25 67 22 48 22 C 40 22 34 21 33 21 C 32 21 29 21 27 22 M 55 37 C 63 40 67 46 67 55 C 67 65 64 71 57 75 C 53 77 42 78 38 76 C 34 73 33 72 33 58 C 33 42 33 40 39 37 C 41 36 51 36 55 37 z" fill="black"/><!-- width=99 height=154 -->
<path id="gl29469" d="M 37 13 C 24 15 15 21 12 29 C 7 43 6 53 9 67 C 10 75 12 78 15 82 C 24 91 37 93 46 88 C 57 81 63 87 58 100 C 54 111 54 112 48 115 C 39 121 31 119 25 109 C 22 103 17 102 12 105 C 9 106 9 109 10 115 C 15 126 24 132 37 132 C 58 133 66 126 72 104 C 75 90 76 83 75 71 C 75 66 75 60 75 60 C 75 55 71 36 67 28 C 62 18 51 12 37 13 M 46 28 C 54 31 58 42 57 58 C 57 66 56 67 53 72 C 50 76 48 76 41 76 C 34 76 34 76 31 75 C 24 70 22 65 22 52 C 22 43 23 39 26 34 C 31 27 38 25 46 28 z" fill="black"/><!-- width=87 height=145 -->
<path id="gl26653" d="M 15 37 C 9 40 9 49 14 52 C 16 54 24 54 37 53 C 57 51 60 55 49 70 C 42 81 40 85 32 106 C 27 122 22 139 22 145 C 22 150 25 154 30 154 C 37 154 40 150 42 139 C 44 117 57 81 70 60 C 77 51 78 45 75 41 C 73 37 71 37 52 37 C 43 37 31 37 25 37 C 18 36 16 37 15 37 z" fill="black"/><!-- width=89 height=163 -->
<path id="gl29470" d="M 38 7 C 22 11 15 18 10 34 C 9 43 13 49 20 46 C 24 45 25 43 27 39 C 27 37 28 34 28 34 C 32 19 51 19 57 34 C 61 46 55 59 38 72 C 30 78 27 82 21 91 C 10 107 7 120 15 123 C 16 124 49 125 66 125 C 76 125 78 112 69 109 C 66 108 66 108 51 109 C 36 110 34 110 31 107 C 27 103 31 97 40 90 C 46 85 66 66 68 61 C 71 57 73 48 73 41 C 74 28 67 16 58 11 C 52 8 43 6 38 7 z" fill="black"/><!-- width=85 height=136 -->
<path id="gl26655" d="M 37 21 C 36 22 34 24 33 26 C 29 33 26 35 17 37 C 10 38 9 39 7 42 C 6 48 10 51 18 51 C 25 49 29 51 31 55 C 31 58 31 58 31 99 C 31 109 31 120 31 131 C 31 132 31 132 32 133 C 36 139 45 138 46 132 C 48 129 48 117 46 70 C 46 55 46 45 47 37 C 48 25 47 23 45 21 C 43 19 39 19 37 21 z" fill="black"/><!-- width=73 height=146 -->
<path id="gl28445" d="M 34 12 C 20 13 12 19 8 33 C 6 40 7 45 12 47 C 17 48 21 46 23 39 C 27 30 31 25 38 25 C 46 25 52 32 52 43 C 52 55 48 60 35 63 C 30 64 27 69 29 72 C 31 75 33 76 39 77 C 50 79 54 85 54 98 C 53 112 43 121 33 116 C 28 114 27 112 24 103 C 22 97 20 95 17 94 C 7 92 4 102 10 115 C 17 127 28 133 43 132 C 54 130 61 125 66 114 C 73 100 72 87 63 75 C 58 69 58 66 62 59 C 69 49 69 38 63 26 C 58 15 50 11 34 12 z" fill="black"/><!-- width=86 height=145 -->
<path id="gl3333" d="M 11 15 C 8 18 8 21 11 24 C 12 25 12 25 13 26 C 18 26 23 26 28 26 C 33 26 39 26 43 26 C 45 25 45 25 46 24 C 49 21 49 18 45 15 C 44 13 43 13 42 12 C 39 12 36 12 33 12 C 21 13 19 13 16 12 C 13 12 13 12 11 15 z" fill="black"/><!-- width=57 height=39 -->
<path id="gl29471" d="M 37 10 C 28 11 18 19 15 30 C 11 40 9 51 9 67 C 9 85 10 93 13 109 C 16 117 21 124 28 128 C 36 131 53 132 57 129 C 68 121 72 117 75 100 C 78 90 78 90 78 73 C 78 63 78 54 77 52 C 77 50 76 47 76 45 C 72 18 60 8 37 10 M 48 25 C 49 25 51 26 52 27 C 61 34 62 43 61 80 C 61 85 61 90 61 96 C 60 98 59 100 58 102 C 55 111 52 114 47 116 C 37 119 30 113 27 98 C 25 91 25 51 27 42 C 30 28 37 22 48 25 z" fill="black"/><!-- width=87 height=142 -->
<path id="gl28445" d="M 34 12 C 20 13 12 19 8 33 C 6 40 7 45 12 47 C 17 48 21 46 23 39 C 27 30 31 25 38 25 C 46 25 52 32 52 43 C 52 55 48 60 35 63 C 30 64 27 69 29 72 C 31 75 33 76 39 77 C 50 79 54 85 54 98 C 53 112 43 121 33 116 C 28 114 27 112 24 103 C 22 97 20 95 17 94 C 7 92 4 102 10 115 C 17 127 28 133 43 132 C 54 130 61 125 66 114 C 73 100 72 87 63 75 C 58 69 58 66 62 59 C 69 49 69 38 63 26 C 58 15 50 11 34 12 z" fill="black"/><!-- width=86 height=145 -->
<path id="gl26646" d="M 30 15 C 16 21 9 34 9 54 C 9 72 13 82 24 88 C 33 93 39 94 49 89 C 55 86 58 85 60 88 C 61 90 62 93 61 99 C 58 114 47 123 36 119 C 33 118 31 116 27 111 C 19 99 7 105 13 118 C 19 130 25 134 39 134 C 60 135 69 126 75 102 C 75 99 76 94 76 93 C 78 88 78 69 77 57 C 77 51 72 35 70 30 C 66 23 61 18 54 15 C 49 13 35 13 30 15 M 48 28 C 55 32 60 42 60 57 C 60 66 58 70 54 74 C 46 82 33 79 27 69 C 24 63 24 48 27 40 C 30 30 40 25 48 28 z" fill="black"/><!-- width=93 height=147 -->
<path id="gl26647" d="M 40 11 C 31 13 22 22 18 33 C 14 45 13 54 14 77 C 14 95 14 95 16 103 C 21 124 31 133 51 132 C 65 132 73 124 78 109 C 83 94 84 61 81 44 C 77 30 76 28 74 25 C 67 13 55 9 40 11 M 53 26 C 64 30 67 42 66 76 C 66 100 63 111 57 115 C 48 121 37 117 33 107 C 29 94 28 56 33 38 C 36 28 45 22 53 26 z" fill="black"/><!-- width=96 height=145 -->
<path id="gl25377" d="M 20 46 C 12 49 13 66 21 68 C 24 69 25 69 31 68 C 42 67 45 69 45 78 C 45 101 44 144 43 154 C 43 174 45 177 60 176 C 64 176 67 175 69 172 C 70 169 70 172 70 116 C 69 76 69 75 70 73 C 72 69 75 68 85 68 C 93 69 93 69 96 67 C 100 64 101 57 99 50 C 96 45 96 45 83 45 C 64 46 42 46 32 45 C 23 45 22 45 20 46 z" fill="black"/><!-- width=115 height=190 -->
<path id="gl26662" d="M 51 16 C 30 18 22 27 18 51 C 16 59 16 83 18 88 C 19 90 19 93 19 94 C 21 100 27 107 34 112 C 42 116 58 117 68 114 C 77 111 81 108 85 98 C 92 85 84 75 72 81 C 69 82 69 84 65 90 C 60 99 52 101 45 94 C 38 85 39 72 48 69 C 50 68 67 68 74 69 C 84 70 88 69 90 63 C 91 57 88 39 83 30 C 77 19 65 14 51 16 M 60 35 C 65 37 67 45 65 51 C 63 54 61 55 54 55 C 45 55 42 52 42 45 C 43 36 51 31 60 35 z" fill="black"/><!-- width=105 height=131 -->
<path id="gl27420" d="M 22 12 C 15 13 15 13 15 33 C 15 51 15 101 15 123 C 15 139 15 141 19 142 C 23 144 35 144 37 142 C 41 140 41 141 40 103 C 40 84 40 59 40 48 C 41 18 41 18 40 16 C 37 12 30 11 22 12 z" fill="black"/><!-- width=56 height=156 -->
<path id="gl26662" d="M 51 16 C 30 18 22 27 18 51 C 16 59 16 83 18 88 C 19 90 19 93 19 94 C 21 100 27 107 34 112 C 42 116 58 117 68 114 C 77 111 81 108 85 98 C 92 85 84 75 72 81 C 69 82 69 84 65 90 C 60 99 52 101 45 94 C 38 85 39 72 48 69 C 50 68 67 68 74 69 C 84 70 88 69 90 63 C 91 57 88 39 83 30 C 77 19 65 14 51 16 M 60 35 C 65 37 67 45 65 51 C 63 54 61 55 54 55 C 45 55 42 52 42 45 C 43 36 51 31 60 35 z" fill="black"/><!-- width=105 height=131 -->
<path id="gl25612" d="M 64 30 C 63 30 60 31 57 32 C 52 34 49 34 43 33 C 38 31 30 30 27 32 C 23 34 23 30 23 86 C 23 114 22 139 22 144 C 21 160 24 163 36 162 C 48 162 49 159 47 141 C 45 129 49 123 58 127 C 67 132 67 132 73 131 C 84 130 91 122 96 105 C 97 103 97 100 98 98 C 98 92 98 87 98 81 C 98 75 98 69 98 63 C 97 61 97 58 96 56 C 91 38 84 30 71 30 C 68 30 65 30 64 30 M 64 50 C 74 53 78 77 72 99 C 69 111 58 115 51 105 C 45 97 45 69 49 57 C 52 51 59 48 64 50 z" fill="black"/><!-- width=112 height=177 -->
<path id="gl25378" d="M 27 9 C 21 11 21 13 21 24 C 22 45 22 60 22 74 C 21 99 21 131 22 133 C 24 138 27 139 34 139 C 40 139 43 138 45 135 C 46 132 46 132 46 115 C 45 105 45 92 45 85 C 45 81 44 77 44 73 C 45 72 45 70 46 69 C 50 60 60 58 66 64 C 70 69 70 70 69 110 C 68 132 68 133 71 136 C 75 141 87 141 91 137 C 94 134 94 132 93 120 C 93 113 93 97 93 84 C 93 63 93 61 91 57 C 87 42 72 37 58 45 C 52 48 51 48 48 45 C 45 43 44 41 45 33 C 48 12 46 9 34 9 C 31 9 28 9 27 9 z" fill="black"/><!-- width=108 height=159 -->
<path id="gl26661" d="M 43 14 C 24 19 14 37 15 64 C 16 89 21 100 34 106 C 45 111 54 112 66 108 C 85 102 93 76 85 42 C 82 30 82 28 77 24 C 68 15 54 11 43 14 M 55 31 C 58 33 60 36 62 40 C 63 41 63 42 64 43 C 64 49 64 55 64 62 C 64 78 64 80 63 82 C 57 95 44 94 40 81 C 39 78 38 52 39 46 C 40 37 45 31 52 31 C 52 31 54 31 55 31 z" fill="black"/><!-- width=104 height=124 -->
<path id="gl25615" d="M 60 21 C 58 21 54 22 51 24 C 45 27 43 27 38 25 C 30 21 19 21 17 26 C 16 28 16 41 16 45 C 16 46 16 61 16 80 C 16 117 15 116 19 119 C 22 121 34 121 37 119 C 41 116 41 115 40 96 C 39 62 39 52 41 48 C 46 37 58 36 63 46 C 64 48 64 48 65 49 C 65 54 65 58 65 63 C 65 70 64 85 64 95 C 63 119 63 120 75 120 C 84 121 88 119 88 114 C 88 113 88 96 88 75 C 88 33 88 34 82 28 C 78 22 67 19 60 21 z" fill="black"/><!-- width=104 height=135 -->
<path id="gl26662" d="M 51 16 C 30 18 22 27 18 51 C 16 59 16 83 18 88 C 19 90 19 93 19 94 C 21 100 27 107 34 112 C 42 116 58 117 68 114 C 77 111 81 108 85 98 C 92 85 84 75 72 81 C 69 82 69 84 65 90 C 60 99 52 101 45 94 C 38 85 39 72 48 69 C 50 68 67 68 74 69 C 84 70 88 69 90 63 C 91 57 88 39 83 30 C 77 19 65 14 51 16 M 60 35 C 65 37 67 45 65 51 C 63 54 61 55 54 55 C 45 55 42 52 42 45 C 43 36 51 31 60 35 z" fill="black"/><!-- width=105 height=131 -->
<path id="gl26663" d="M 17 15 C 14 16 13 19 13 30 C 13 43 15 45 25 45 C 34 45 36 43 36 29 C 36 19 36 17 32 15 C 30 14 19 14 17 15 M 21 78 C 14 78 13 81 13 91 C 13 104 15 106 25 106 C 33 106 36 105 36 100 C 37 95 36 82 35 81 C 32 78 27 76 21 78 z" fill="black"/><!-- width=49 height=120 -->
<path id="gl26664" d="M 39 22 C 37 22 34 25 32 30 C 28 39 25 40 16 41 C 10 42 10 42 7 44 C 5 46 5 46 5 51 C 5 58 7 61 14 61 C 24 60 25 60 27 61 C 30 65 30 65 30 84 C 28 123 28 142 29 144 C 31 147 33 148 41 148 C 48 148 48 148 51 146 C 54 144 54 142 54 128 C 52 115 52 61 54 42 C 54 27 54 26 51 23 C 49 22 43 21 39 22 z" fill="black"/><!-- width=76 height=162 -->
<path id="gl26402" d="M 16 17 C 15 19 13 22 14 27 C 15 33 18 35 25 34 C 36 34 39 33 48 34 C 59 35 61 34 63 31 C 65 28 64 18 60 16 C 60 16 53 16 39 16 C 18 16 18 16 16 17 z" fill="black"/><!-- width=78 height=51 -->
<path id="gl26892" d="M 40 12 C 24 16 15 28 16 45 C 16 51 16 52 22 61 C 24 64 25 67 25 68 C 25 70 22 75 19 78 C 11 88 10 105 16 118 C 19 123 26 130 30 133 C 43 140 67 138 78 129 C 81 126 88 116 90 112 C 92 108 93 87 91 82 C 90 80 90 79 88 79 C 84 79 77 73 77 69 C 77 66 78 64 81 60 C 83 58 85 55 86 54 C 90 49 90 43 84 30 C 80 21 75 16 64 13 C 59 11 47 11 40 12 M 55 29 C 67 32 68 53 57 60 C 51 64 43 61 40 54 C 38 49 38 39 40 36 C 43 30 49 27 55 29 M 57 78 C 64 82 66 88 66 100 C 65 115 58 121 47 118 C 34 115 32 87 44 79 C 48 76 54 76 57 78 z" fill="black"/><!-- width=105 height=150 -->
<path id="gl29472" d="M 33 14 C 19 19 14 33 9 76 C 4 105 4 110 19 124 C 43 144 86 134 86 110 C 86 105 86 105 86 105 C 96 105 96 52 86 33 C 72 9 57 0 33 14 M 62 38 C 67 48 62 105 57 115 C 43 124 38 115 38 76 C 38 28 48 14 62 38 z" fill="black"/><!-- width=100 height=148 -->
<path id="gl26882" d="M 49 12 C 32 15 21 25 17 40 C 15 50 15 106 18 115 C 21 126 31 134 46 137 C 55 139 70 135 77 129 C 87 120 94 97 92 77 C 92 75 91 67 91 61 C 90 36 85 22 73 16 C 66 13 56 11 49 12 M 59 31 C 67 35 67 39 67 73 C 67 102 67 106 63 112 C 59 119 51 121 45 116 C 39 112 38 106 38 76 C 37 52 38 46 41 39 C 43 31 52 27 59 31 z" fill="black"/><!-- width=108 height=151 -->
<path id="gl26402" d="M 16 17 C 15 19 13 22 14 27 C 15 33 18 35 25 34 C 36 34 39 33 48 34 C 59 35 61 34 63 31 C 65 28 64 18 60 16 C 60 16 53 16 39 16 C 18 16 18 16 16 17 z" fill="black"/><!-- width=78 height=51 -->
<path id="gl28453" d="M 34 13 C 31 13 28 15 27 15 C 15 20 6 42 12 49 C 14 52 14 52 18 52 C 26 52 30 50 33 42 C 34 37 36 34 39 33 C 48 25 58 33 57 48 C 56 57 52 62 44 63 C 36 65 34 67 34 73 C 34 78 36 81 41 82 C 43 82 46 82 47 82 C 60 84 63 108 52 116 C 47 120 40 118 36 114 C 34 111 34 111 31 103 C 30 98 28 97 22 96 C 9 95 4 100 9 113 C 16 133 36 141 60 135 C 68 132 76 125 81 114 C 84 109 84 109 84 105 C 82 90 81 87 75 81 C 69 74 69 71 73 64 C 82 49 82 46 79 36 C 75 22 69 16 58 13 C 49 11 42 11 34 13 z" fill="black"/><!-- width=101 height=150 -->
<path id="gl29473" d="M 28 4 C -5 24 4 96 43 86 C 62 81 67 96 52 105 C 48 115 28 110 28 100 C 28 100 24 100 19 100 C 4 100 4 110 19 120 C 28 134 57 134 67 124 C 91 100 91 100 86 72 C 76 9 62 0 28 4 M 52 28 C 62 38 57 67 43 67 C 28 67 28 24 43 19 C 43 19 48 24 52 28 z" fill="black"/><!-- width=96 height=144 -->
<path id="gl29474" d="M 60 8 C 59 9 56 9 53 9 C 46 9 44 10 42 18 C 41 21 39 24 39 25 C 38 27 37 28 37 29 C 37 30 33 39 28 45 C 27 47 23 54 20 59 C 17 65 13 71 12 73 C 11 75 9 78 9 78 C 8 82 7 104 9 107 C 9 108 9 109 9 109 C 10 109 12 109 13 109 C 16 109 21 109 25 108 C 42 106 46 107 49 112 C 50 113 50 118 49 122 C 49 126 50 130 52 132 C 55 134 64 135 68 133 C 70 132 72 127 72 121 C 72 113 73 111 79 107 C 82 105 84 102 84 96 C 84 91 83 90 79 88 C 75 88 72 84 70 82 C 70 79 70 43 71 28 C 72 15 72 12 69 10 C 67 8 63 7 60 8 M 48 58 C 51 61 52 78 48 84 C 44 90 35 90 31 85 C 28 80 33 66 40 58 C 43 54 45 54 48 58 z" fill="black"/><!-- width=96 height=147 -->
<path id="gl26402" d="M 16 17 C 15 19 13 22 14 27 C 15 33 18 35 25 34 C 36 34 39 33 48 34 C 59 35 61 34 63 31 C 65 28 64 18 60 16 C 60 16 53 16 39 16 C 18 16 18 16 16 17 z" fill="black"/><!-- width=78 height=51 -->
<path id="gl26886" d="M 48 11 C 39 13 36 13 31 18 C 21 28 16 47 16 86 C 16 100 19 110 24 120 C 30 129 40 135 55 136 C 64 137 78 132 84 125 C 96 112 99 95 93 76 C 85 56 73 50 53 57 C 42 61 37 52 42 39 C 45 32 48 29 54 28 C 61 28 64 30 68 36 C 72 43 79 45 87 43 C 93 42 94 37 90 28 C 82 14 67 7 48 11 M 63 73 C 68 76 70 83 70 96 C 70 105 69 109 64 114 C 60 118 54 119 49 115 C 43 111 42 107 43 91 C 43 81 43 81 45 78 C 48 72 56 70 63 73 z" fill="black"/><!-- width=109 height=148 -->
<path id="gl26887" d="M 36 13 C 28 15 27 16 23 19 C 12 29 9 47 16 58 C 23 67 23 70 15 79 C 10 85 10 87 10 99 C 10 114 12 118 20 127 C 25 132 27 133 35 135 C 45 138 55 137 66 133 C 72 132 76 127 82 119 C 84 116 87 112 88 111 C 88 110 89 109 90 108 C 90 105 90 102 90 99 C 90 89 90 82 88 80 C 88 79 88 79 86 80 C 82 82 74 75 74 69 C 74 65 75 63 84 52 C 87 49 86 48 83 37 C 79 25 75 19 69 16 C 59 12 47 10 36 13 M 55 31 C 64 37 63 55 53 61 C 44 65 36 59 35 47 C 34 39 37 33 43 30 C 46 29 52 29 55 31 M 52 79 C 67 84 67 114 52 118 C 42 121 34 114 33 100 C 31 85 41 75 52 79 z" fill="black"/><!-- width=99 height=150 -->
<path id="gl28454" d="M 51 10 C 49 11 46 12 43 12 C 38 13 36 13 32 16 C 27 19 21 28 18 37 C 15 45 15 48 15 76 C 14 104 14 105 19 114 C 25 126 30 131 42 134 C 61 139 77 133 87 118 C 91 110 91 109 94 112 C 95 112 96 114 97 114 C 98 114 99 106 99 94 C 99 82 98 80 94 80 C 92 79 90 78 89 73 C 87 67 81 60 74 56 C 69 54 61 54 56 55 C 52 57 45 58 43 57 C 40 55 39 53 39 48 C 39 39 42 33 48 30 C 55 26 61 28 65 36 C 69 42 71 43 77 44 C 88 45 92 39 87 29 C 84 22 77 15 71 13 C 69 12 67 12 65 11 C 62 9 57 9 51 10 M 60 73 C 66 77 68 82 68 94 C 68 103 67 108 64 112 C 61 116 60 117 55 117 C 48 117 43 113 41 106 C 40 102 40 87 41 82 C 43 73 51 69 60 73 M 97 37 C 96 38 96 41 97 42 C 97 42 97 40 97 39 C 97 36 97 36 97 37 z" fill="black"/><!-- width=107 height=150 -->
<path id="gl29475" d="M 24 4 C 9 9 0 33 4 48 C 9 57 9 62 9 67 C -5 100 9 134 38 134 C 67 134 86 91 67 72 C 62 67 62 62 72 52 C 81 28 57 0 38 4 C 33 4 28 4 24 4 M 48 28 C 52 43 48 57 38 52 C 24 52 24 19 38 19 C 43 19 48 24 48 28 M 48 91 C 48 100 48 110 43 110 C 24 120 14 86 28 76 C 38 62 48 72 48 91 z" fill="black"/><!-- width=86 height=144 -->
<path id="gl26889" d="M 84 31 C 81 31 69 31 58 31 C 51 31 44 31 37 31 C 36 32 36 33 35 33 C 32 35 31 37 32 56 C 33 75 33 122 31 139 C 31 154 32 157 40 159 C 46 160 54 159 56 156 C 58 154 58 148 57 138 C 54 105 55 103 75 105 C 94 108 96 107 99 99 C 102 87 96 82 79 85 C 63 87 60 86 57 80 C 55 77 55 76 55 69 C 55 60 56 58 59 55 C 61 53 69 52 75 54 C 77 54 82 54 87 54 C 99 55 101 53 101 42 C 101 31 98 30 84 31 z" fill="black"/><!-- width=113 height=170 -->
<path id="gl26890" d="M 37 10 C 36 10 33 11 30 12 C 19 14 11 24 10 34 C 10 41 12 43 21 42 C 23 42 25 42 25 42 C 27 42 30 37 31 36 C 36 22 52 24 52 37 C 52 46 47 51 37 52 C 26 53 13 60 10 66 C 9 69 9 88 10 93 C 13 101 21 107 30 107 C 35 107 38 106 45 102 C 46 101 48 100 50 99 C 51 99 51 99 52 99 C 54 100 55 101 57 102 C 62 106 72 107 76 104 C 78 102 78 101 76 93 C 75 87 75 83 75 58 C 74 34 74 29 73 27 C 70 19 68 16 63 13 C 57 10 42 8 37 10 M 48 63 C 52 64 54 66 54 73 C 54 78 52 81 49 84 C 41 95 27 87 31 73 C 33 68 36 65 42 63 C 43 63 45 63 45 63 C 45 62 46 63 48 63 z" fill="black"/><!-- width=88 height=121 -->
<path id="gl26891" d="M 16 14 C 11 17 12 21 17 29 C 30 50 33 58 31 64 C 30 69 21 84 16 91 C 10 99 10 105 13 108 C 15 109 16 109 22 109 C 33 109 35 108 38 97 C 40 87 45 84 50 86 C 54 88 55 90 56 95 C 58 106 61 109 71 109 C 79 109 83 107 83 103 C 83 100 82 99 78 91 C 61 65 61 63 63 56 C 63 53 76 31 80 25 C 85 18 82 13 72 13 C 62 13 59 15 56 25 C 53 34 49 37 43 34 C 41 32 40 30 38 24 C 36 15 33 13 24 13 C 18 13 18 13 16 14 z" fill="black"/><!-- width=94 height=123 -->
<path id="gl26663" d="M 17 15 C 14 16 13 19 13 30 C 13 43 15 45 25 45 C 34 45 36 43 36 29 C 36 19 36 17 32 15 C 30 14 19 14 17 15 M 21 78 C 14 78 13 81 13 91 C 13 104 15 106 25 106 C 33 106 36 105 36 100 C 37 95 36 82 35 81 C 32 78 27 76 21 78 z" fill="black"/><!-- width=49 height=120 -->
<path id="gl26664" d="M 39 22 C 37 22 34 25 32 30 C 28 39 25 40 16 41 C 10 42 10 42 7 44 C 5 46 5 46 5 51 C 5 58 7 61 14 61 C 24 60 25 60 27 61 C 30 65 30 65 30 84 C 28 123 28 142 29 144 C 31 147 33 148 41 148 C 48 148 48 148 51 146 C 54 144 54 142 54 128 C 52 115 52 61 54 42 C 54 27 54 26 51 23 C 49 22 43 21 39 22 z" fill="black"/><!-- width=76 height=162 -->
<path id="gl26402" d="M 16 17 C 15 19 13 22 14 27 C 15 33 18 35 25 34 C 36 34 39 33 48 34 C 59 35 61 34 63 31 C 65 28 64 18 60 16 C 60 16 53 16 39 16 C 18 16 18 16 16 17 z" fill="black"/><!-- width=78 height=51 -->
<path id="gl26887" d="M 36 13 C 28 15 27 16 23 19 C 12 29 9 47 16 58 C 23 67 23 70 15 79 C 10 85 10 87 10 99 C 10 114 12 118 20 127 C 25 132 27 133 35 135 C 45 138 55 137 66 133 C 72 132 76 127 82 119 C 84 116 87 112 88 111 C 88 110 89 109 90 108 C 90 105 90 102 90 99 C 90 89 90 82 88 80 C 88 79 88 79 86 80 C 82 82 74 75 74 69 C 74 65 75 63 84 52 C 87 49 86 48 83 37 C 79 25 75 19 69 16 C 59 12 47 10 36 13 M 55 31 C 64 37 63 55 53 61 C 44 65 36 59 35 47 C 34 39 37 33 43 30 C 46 29 52 29 55 31 M 52 79 C 67 84 67 114 52 118 C 42 121 34 114 33 100 C 31 85 41 75 52 79 z" fill="black"/><!-- width=99 height=150 -->
<path id="gl29476" d="M 28 4 C 0 19 0 120 28 129 C 48 134 62 129 72 115 C 76 105 81 100 86 100 C 86 100 91 91 91 72 C 91 48 86 38 81 38 C 81 38 81 38 81 33 C 81 14 52 0 28 4 M 52 38 C 57 48 57 100 52 105 C 38 134 19 72 28 33 C 38 19 52 19 52 38 z" fill="black"/><!-- width=96 height=144 -->
<path id="gl26882" d="M 49 12 C 32 15 21 25 17 40 C 15 50 15 106 18 115 C 21 126 31 134 46 137 C 55 139 70 135 77 129 C 87 120 94 97 92 77 C 92 75 91 67 91 61 C 90 36 85 22 73 16 C 66 13 56 11 49 12 M 59 31 C 67 35 67 39 67 73 C 67 102 67 106 63 112 C 59 119 51 121 45 116 C 39 112 38 106 38 76 C 37 52 38 46 41 39 C 43 31 52 27 59 31 z" fill="black"/><!-- width=108 height=151 -->
<path id="gl26893" d="M 12 15 C 11 16 11 29 12 31 C 12 33 12 33 13 34 C 15 33 16 33 18 33 C 24 33 47 33 52 33 C 58 34 60 32 60 25 C 60 16 58 13 51 14 C 42 14 24 14 18 13 C 13 13 13 13 12 15 z" fill="black"/><!-- width=71 height=47 -->
<path id="gl26894" d="M 31 12 C 19 14 12 21 9 33 C 4 46 9 52 21 49 C 25 49 27 47 28 41 C 31 32 34 28 41 28 C 49 28 55 38 52 49 C 51 55 51 57 48 58 C 45 62 45 63 40 63 C 32 64 30 66 30 73 C 30 79 33 81 39 81 C 46 81 49 82 51 87 C 55 96 56 102 53 109 C 50 117 43 120 36 117 C 32 115 30 112 28 103 C 26 97 25 96 17 96 C 5 96 2 99 6 112 C 10 123 18 132 30 135 C 40 138 58 135 64 130 C 70 125 78 113 79 108 C 79 107 79 102 79 98 C 78 88 77 87 70 79 C 65 73 65 69 70 61 C 76 52 77 47 76 39 C 74 31 72 25 66 19 C 59 12 45 9 31 12 z" fill="black"/><!-- width=93 height=148 -->
<path id="gl26895" d="M 46 10 C 36 12 24 18 21 24 C 14 34 12 42 13 57 C 13 73 15 79 22 85 C 30 93 37 94 49 91 C 56 90 60 90 62 91 C 69 95 64 113 55 116 C 49 118 43 117 40 112 C 36 104 33 102 24 103 C 15 103 13 105 14 112 C 18 129 37 138 60 133 C 73 131 79 126 85 112 C 87 108 89 105 90 105 C 90 105 91 106 93 106 C 96 110 97 108 97 96 C 97 82 97 79 93 79 C 90 78 89 76 89 62 C 89 43 85 28 78 20 C 73 15 54 9 46 10 M 54 29 C 57 30 61 33 63 36 C 64 40 65 63 63 67 C 60 74 55 77 48 75 C 40 74 35 66 35 53 C 35 36 43 26 54 29 z" fill="black"/><!-- width=108 height=147 -->
<path id="gl26896" d="M 50 10 C 44 11 42 13 36 27 C 34 33 30 40 28 43 C 27 47 23 52 21 56 C 19 59 16 65 14 68 C 9 77 9 78 9 94 C 9 113 8 112 17 111 C 26 109 27 109 33 109 C 40 108 43 109 45 112 C 47 114 47 114 47 121 C 47 130 48 132 52 133 C 57 136 65 135 68 130 C 69 129 69 128 69 122 C 69 114 70 112 75 110 C 80 107 81 105 81 99 C 81 93 80 92 75 90 C 68 87 68 87 68 60 C 68 48 69 33 69 27 C 70 12 69 10 58 10 C 55 10 51 10 50 10 M 46 60 C 49 65 48 82 45 86 C 43 90 37 91 33 89 C 28 87 27 82 30 75 C 36 60 43 53 46 60 z" fill="black"/><!-- width=93 height=148 -->
<path id="gl26402" d="M 16 17 C 15 19 13 22 14 27 C 15 33 18 35 25 34 C 36 34 39 33 48 34 C 59 35 61 34 63 31 C 65 28 64 18 60 16 C 60 16 53 16 39 16 C 18 16 18 16 16 17 z" fill="black"/><!-- width=78 height=51 -->
<path id="gl26886" d="M 48 11 C 39 13 36 13 31 18 C 21 28 16 47 16 86 C 16 100 19 110 24 120 C 30 129 40 135 55 136 C 64 137 78 132 84 125 C 96 112 99 95 93 76 C 85 56 73 50 53 57 C 42 61 37 52 42 39 C 45 32 48 29 54 28 C 61 28 64 30 68 36 C 72 43 79 45 87 43 C 93 42 94 37 90 28 C 82 14 67 7 48 11 M 63 73 C 68 76 70 83 70 96 C 70 105 69 109 64 114 C 60 118 54 119 49 115 C 43 111 42 107 43 91 C 43 81 43 81 45 78 C 48 72 56 70 63 73 z" fill="black"/><!-- width=109 height=148 -->
<path id="gl29477" d="M 14 14 C 4 28 4 48 14 48 C 24 52 24 48 28 38 C 33 19 57 19 57 38 C 57 48 48 62 28 76 C 14 96 4 105 4 115 C 4 120 4 124 4 134 C 19 134 28 134 43 134 C 76 134 81 129 81 120 C 81 110 76 105 62 105 C 48 105 38 105 38 100 C 38 100 48 86 62 76 C 81 52 86 38 72 19 C 62 4 28 4 14 14 z" fill="black"/><!-- width=91 height=144 -->
<path id="gl26892" d="M 40 12 C 24 16 15 28 16 45 C 16 51 16 52 22 61 C 24 64 25 67 25 68 C 25 70 22 75 19 78 C 11 88 10 105 16 118 C 19 123 26 130 30 133 C 43 140 67 138 78 129 C 81 126 88 116 90 112 C 92 108 93 87 91 82 C 90 80 90 79 88 79 C 84 79 77 73 77 69 C 77 66 78 64 81 60 C 83 58 85 55 86 54 C 90 49 90 43 84 30 C 80 21 75 16 64 13 C 59 11 47 11 40 12 M 55 29 C 67 32 68 53 57 60 C 51 64 43 61 40 54 C 38 49 38 39 40 36 C 43 30 49 27 55 29 M 57 78 C 64 82 66 88 66 100 C 65 115 58 121 47 118 C 34 115 32 87 44 79 C 48 76 54 76 57 78 z" fill="black"/><!-- width=105 height=150 -->
<path id="gl26886" d="M 48 11 C 39 13 36 13 31 18 C 21 28 16 47 16 86 C 16 100 19 110 24 120 C 30 129 40 135 55 136 C 64 137 78 132 84 125 C 96 112 99 95 93 76 C 85 56 73 50 53 57 C 42 61 37 52 42 39 C 45 32 48 29 54 28 C 61 28 64 30 68 36 C 72 43 79 45 87 43 C 93 42 94 37 90 28 C 82 14 67 7 48 11 M 63 73 C 68 76 70 83 70 96 C 70 105 69 109 64 114 C 60 118 54 119 49 115 C 43 111 42 107 43 91 C 43 81 43 81 45 78 C 48 72 56 70 63 73 z" fill="black"/><!-- width=109 height=148 -->
</defs>
<use xlink:href="#gl26626" x="0" y="5"/>
<use xlink:href="#gl29462" x="92" y="22"/>
<use xlink:href="#gl26120" x="172" y="27"/>
<use xlink:href="#gl26628" x="260" y="30"/>
<use xlink:href="#gl28427" x="354" y="36"/>
<use xlink:href="#gl29463" x="431" y="31"/>
<use xlink:href="#gl29464" x="517" y="1"/>
<use xlink:href="#gl24839" x="596" y="26"/>
<use xlink:href="#gl28430" x="622" y="28"/>
<use xlink:href="#gl28429" x="705" y="27"/>
<use xlink:href="#gl29464" x="732" y="0"/>
<use xlink:href="#gl29465" x="808" y="13"/>
<use xlink:href="#gl25116" x="892" y="128"/>
<use xlink:href="#gl28431" x="965" y="32"/>
<use xlink:href="#gl26635" x="998" y="33"/>
<use xlink:href="#gl28428" x="1076" y="30"/>
<use xlink:href="#gl2844" x="1172" y="131"/>
<use xlink:href="#gl25116" x="1213" y="129"/>
<use xlink:href="#gl26628" x="1278" y="32"/>
<use xlink:href="#gl29466" x="1362" y="35"/>
<use xlink:href="#gl26637" x="1436" y="7"/>
<use xlink:href="#gl29467" x="1522" y="1"/>
<use xlink:href="#gl2844" x="1603" y="131"/>
<use xlink:href="#gl28436" x="1674" y="32"/>
<use xlink:href="#gl26639" x="1746" y="33"/>
<use xlink:href="#gl26650" x="1848" y="131"/>
<use xlink:href="#gl26637" x="1902" y="7"/>
<use xlink:href="#gl2844" x="1982" y="131"/>
<use xlink:href="#gl26114" x="2014" y="28"/>
<use xlink:href="#gl2844" x="2109" y="131"/>
<use xlink:href="#gl29468" x="2192" y="36"/>
<use xlink:href="#gl26114" x="2263" y="28"/>
<use xlink:href="#gl26642" x="2355" y="32"/>
<use xlink:href="#gl26655" x="2480" y="29"/>
<use xlink:href="#gl28445" x="2555" y="35"/>
<use xlink:href="#gl28445" x="2631" y="35"/>
<use xlink:href="#gl26646" x="2704" y="33"/>
<use xlink:href="#gl26647" x="2775" y="35"/>
<use xlink:href="#gl25116" x="2860" y="129"/>
<use xlink:href="#gl26626" x="2919" y="8"/>
<use xlink:href="#gl26114" x="3005" y="28"/>
<use xlink:href="#gl26627" x="3093" y="22"/>
<use xlink:href="#gl29464" x="3175" y="1"/>
<use xlink:href="#gl28439" x="3234" y="39"/>
<use xlink:href="#gl28440" x="3318" y="39"/>
<use xlink:href="#gl26635" x="3407" y="33"/>
<use xlink:href="#gl26628" x="3487" y="33"/>
<use xlink:href="#gl26650" x="3590" y="132"/>
<use xlink:href="#gl26114" x="3655" y="29"/>
<use xlink:href="#gl26652" x="3744" y="23"/>
<use xlink:href="#gl29469" x="3870" y="34"/>
<use xlink:href="#gl26653" x="3946" y="13"/>
<use xlink:href="#gl29470" x="4022" y="41"/>
<use xlink:href="#gl26655" x="4104" y="29"/>
<use xlink:href="#gl28445" x="4179" y="37"/>
<use xlink:href="#gl3333" x="4256" y="100"/>
<use xlink:href="#gl29471" x="4307" y="38"/>
<use xlink:href="#gl28445" x="4389" y="36"/>
<use xlink:href="#gl26646" x="4462" y="34"/>
<use xlink:href="#gl26647" x="4533" y="37"/>
<use xlink:href="#gl25377" x="590" y="192"/>
<use xlink:href="#gl26662" x="676" y="252"/>
<use xlink:href="#gl27420" x="762" y="224"/>
<use xlink:href="#gl26662" x="796" y="253"/>
<use xlink:href="#gl25612" x="871" y="238"/>
<use xlink:href="#gl25378" x="959" y="228"/>
<use xlink:href="#gl26661" x="1050" y="257"/>
<use xlink:href="#gl25615" x="1132" y="249"/>
<use xlink:href="#gl26662" x="1213" y="253"/>
<use xlink:href="#gl26663" x="1302" y="260"/>
<use xlink:href="#gl26664" x="1390" y="219"/>
<use xlink:href="#gl26402" x="1462" y="291"/>
<use xlink:href="#gl26892" x="1521" y="231"/>
<use xlink:href="#gl29472" x="1606" y="233"/>
<use xlink:href="#gl26882" x="1684" y="230"/>
<use xlink:href="#gl26402" x="1769" y="291"/>
<use xlink:href="#gl28453" x="1834" y="231"/>
<use xlink:href="#gl29473" x="1918" y="238"/>
<use xlink:href="#gl29474" x="1999" y="233"/>
<use xlink:href="#gl26402" x="2077" y="291"/>
<use xlink:href="#gl26886" x="2135" y="233"/>
<use xlink:href="#gl26887" x="2223" y="231"/>
<use xlink:href="#gl28454" x="2300" y="233"/>
<use xlink:href="#gl29475" x="2398" y="238"/>
<use xlink:href="#gl26889" x="2616" y="208"/>
<use xlink:href="#gl26890" x="2713" y="261"/>
<use xlink:href="#gl26891" x="2788" y="258"/>
<use xlink:href="#gl26663" x="2872" y="261"/>
<use xlink:href="#gl26664" x="2960" y="219"/>
<use xlink:href="#gl26402" x="3031" y="291"/>
<use xlink:href="#gl26887" x="3093" y="231"/>
<use xlink:href="#gl29476" x="3181" y="238"/>
<use xlink:href="#gl26882" x="3252" y="231"/>
<use xlink:href="#gl26893" x="3340" y="293"/>
<use xlink:href="#gl26894" x="3406" y="233"/>
<use xlink:href="#gl26895" x="3478" y="234"/>
<use xlink:href="#gl26896" x="3568" y="233"/>
<use xlink:href="#gl26402" x="3642" y="292"/>
<use xlink:href="#gl26886" x="3701" y="234"/>
<use xlink:href="#gl29477" x="3795" y="238"/>
<use xlink:href="#gl26892" x="3868" y="232"/>
<use xlink:href="#gl26886" x="3944" y="233"/>
</svg>
