<?xml version='1.0' encoding='utf-8'?>
<svg xmlns="http://www.w3.org/2000/svg" xmlns:xlink="http://www.w3.org/1999/xlink" width="315px" height="109px" viewBox="0 0 3151 1094" version="1.1">
<defs>
<path id="gl24583" d="M 4 4 C 4 4 9 14 14 14 C 19 19 28 48 38 76 C 67 148 72 148 86 110 C 96 86 100 86 110 115 C 120 148 129 144 153 76 C 163 38 177 14 182 14 C 182 14 182 9 182 4 C 177 0 153 0 148 4 C 148 9 148 14 153 14 C 158 14 134 100 124 100 C 124 100 115 91 115 76 C 105 57 105 52 115 33 C 124 19 129 14 134 14 C 134 14 134 9 134 4 C 134 4 110 0 72 0 C 38 0 4 4 4 4 M 67 19 C 81 38 91 67 81 86 C 76 110 72 105 52 62 C 38 19 38 14 52 14 C 57 14 67 14 67 19 M 105 24 C 105 33 96 38 91 28 C 86 19 91 14 100 14 C 105 14 105 14 105 24 z" fill="black"/><!-- width=192 height=144 -->
<path id="gl16918" d="M 69 27 C 67 27 65 28 63 30 C 58 35 56 35 53 31 C 49 26 44 25 35 29 C 27 33 25 36 31 42 C 37 47 37 46 37 70 C 36 95 36 96 32 100 C 28 105 28 107 31 109 C 34 110 61 110 65 108 C 69 107 69 105 63 103 C 54 99 54 97 53 73 C 53 67 53 61 53 55 C 54 54 54 52 55 51 C 59 42 63 40 73 43 C 79 46 81 46 84 45 C 89 42 90 33 85 29 C 81 27 73 25 69 27 z" fill="black"/><!-- width=101 height=124 -->
<path id="gl22279" d="M 28 5 C 28 5 27 6 26 6 C 24 6 21 9 19 12 C 18 19 22 25 30 25 C 44 25 45 7 31 5 C 30 5 29 5 28 5 M 24 55 C 15 58 12 60 11 63 C 10 65 12 67 15 69 C 23 72 23 73 23 96 C 24 121 23 124 16 128 C 12 130 11 131 12 133 C 12 136 14 136 28 136 C 47 137 46 137 48 135 C 50 133 49 132 45 127 C 40 121 40 123 40 88 C 40 60 40 58 39 56 C 37 52 33 52 24 55 z" fill="black"/><!-- width=61 height=172 -->
<path id="gl4865" d="M 39 13 C 38 13 37 15 35 19 C 32 25 31 28 26 33 C 21 39 21 40 25 45 C 30 49 30 50 29 74 C 28 104 29 108 36 114 C 43 121 54 123 64 117 C 72 113 76 104 70 102 C 69 101 68 102 63 104 C 56 108 52 107 48 102 C 46 98 45 80 45 54 C 46 45 48 43 61 45 C 70 45 74 43 73 37 C 73 32 69 30 62 31 C 50 33 46 31 46 22 C 46 14 44 10 39 13 z" fill="black"/><!-- width=85 height=134 -->
<path id="gl17948" d="M 24 10 C 13 18 22 33 34 29 C 45 25 42 9 29 9 C 27 9 26 9 24 10 M 25 58 C 23 59 19 60 18 61 C 10 65 9 70 16 75 C 22 79 22 78 22 103 C 22 128 22 129 18 133 C 11 139 11 140 15 142 C 15 143 16 143 17 144 C 21 144 25 144 30 144 C 42 144 42 144 45 143 C 49 141 49 139 45 134 C 39 128 40 131 40 96 C 40 78 39 64 39 63 C 38 57 33 55 25 58 z" fill="black"/><!-- width=60 height=185 -->
<path id="gl2561" d="M 30 16 C 25 18 22 20 21 22 C 19 25 19 26 24 36 C 25 38 25 39 25 60 C 25 85 25 84 20 90 C 15 95 15 97 18 100 C 18 100 19 100 19 101 C 24 101 29 101 34 101 C 39 101 43 101 48 101 C 49 100 49 100 50 100 C 53 97 52 95 47 90 C 42 85 42 83 42 61 C 42 54 42 48 42 42 C 43 40 43 39 44 37 C 51 24 75 25 80 39 C 81 42 81 45 81 57 C 82 79 81 85 76 90 C 70 94 70 98 73 100 C 76 102 100 102 103 100 C 108 98 108 94 103 91 C 102 90 100 87 99 85 C 99 84 98 83 97 82 C 97 74 97 66 97 58 C 97 39 97 35 96 32 C 91 15 74 10 55 19 C 48 22 46 22 42 18 C 38 14 36 13 30 16 z" fill="black"/><!-- width=120 height=116 -->
<path id="gl4361" d="M 55 17 C 36 19 23 33 23 51 C 23 58 25 62 32 72 C 35 76 35 79 30 83 C 22 91 22 96 29 103 C 36 110 36 111 28 119 C 22 125 21 129 21 134 C 21 152 46 161 77 154 C 103 147 119 126 111 109 C 105 98 98 96 70 96 C 49 96 47 95 44 91 C 38 85 48 79 67 79 C 78 79 81 78 88 71 C 94 65 96 60 97 49 C 97 40 98 40 108 38 C 114 37 116 30 112 26 C 110 23 108 23 99 24 C 90 25 87 24 81 21 C 72 18 62 16 55 17 M 66 28 C 71 30 75 34 76 39 C 79 43 79 56 77 61 C 74 68 66 76 61 76 C 56 76 48 70 45 64 C 34 43 48 19 66 28 M 75 111 C 91 112 96 115 96 123 C 96 139 67 150 48 141 C 36 136 34 124 42 115 C 49 109 50 109 75 111 z" fill="black"/><!-- width=127 height=170 -->
<path id="gl4865" d="M 39 13 C 38 13 37 15 35 19 C 32 25 31 28 26 33 C 21 39 21 40 25 45 C 30 49 30 50 29 74 C 28 104 29 108 36 114 C 43 121 54 123 64 117 C 72 113 76 104 70 102 C 69 101 68 102 63 104 C 56 108 52 107 48 102 C 46 98 45 80 45 54 C 46 45 48 43 61 45 C 70 45 74 43 73 37 C 73 32 69 30 62 31 C 50 33 46 31 46 22 C 46 14 44 10 39 13 z" fill="black"/><!-- width=85 height=134 -->
<path id="gl22055" d="M 38 8 C 24 13 21 18 29 24 C 30 25 32 27 33 28 C 34 29 34 30 34 31 C 34 46 34 61 34 75 C 35 129 35 128 29 135 C 23 143 29 146 47 145 C 60 145 63 142 57 135 C 52 130 52 127 52 102 C 52 82 52 81 56 77 C 60 73 63 72 70 72 C 78 72 81 74 85 78 C 90 82 90 85 90 105 C 90 126 89 129 84 135 C 79 139 79 142 83 144 C 86 145 108 146 112 144 C 117 143 117 140 113 136 C 108 130 108 130 108 102 C 107 76 107 76 103 70 C 100 64 95 60 88 59 C 81 58 74 60 63 66 C 60 68 57 68 55 66 C 52 63 52 61 52 36 C 52 13 52 12 51 10 C 49 6 45 6 38 8 z" fill="black"/><!-- width=129 height=174 -->
<path id="gl2841" d="M 55 15 C 34 19 19 46 25 71 C 28 87 42 100 58 101 C 76 102 98 88 91 79 C 89 78 86 78 81 81 C 64 92 43 83 40 63 C 39 55 40 50 45 48 C 46 47 48 47 66 48 C 88 48 89 48 92 44 C 96 39 90 25 82 19 C 75 15 64 13 55 15 M 67 25 C 75 29 74 37 66 39 C 54 43 45 40 46 34 C 48 26 60 22 67 25 z" fill="black"/><!-- width=109 height=114 -->
<path id="gl1540" d="M 37 11 C 22 13 14 22 14 35 C 14 47 19 54 36 61 C 46 64 51 67 53 70 C 61 79 54 91 42 92 C 36 92 32 90 25 84 C 17 74 12 76 13 88 C 13 99 15 100 27 101 C 33 101 39 102 41 102 C 64 104 81 81 69 62 C 65 56 62 54 46 47 C 32 40 29 37 30 30 C 30 24 36 19 43 20 C 48 20 50 21 57 28 C 61 33 61 33 64 33 C 67 33 69 30 69 25 C 69 16 65 12 55 11 C 51 10 42 10 37 11 z" fill="black"/><!-- width=86 height=115 -->
<path id="gl1284" d="M 39 14 C 37 15 36 18 34 20 C 33 22 30 26 28 28 C 22 35 21 37 26 42 C 30 45 30 46 30 72 C 29 96 30 99 32 105 C 38 118 58 121 69 110 C 76 102 73 95 63 100 C 56 104 51 102 48 96 C 47 94 46 93 46 92 C 46 85 46 77 45 70 C 45 40 45 40 60 41 C 70 41 73 40 73 35 C 73 30 70 28 59 28 C 57 28 54 29 51 29 C 50 28 49 27 49 27 C 47 25 47 24 46 21 C 45 12 42 10 39 14 z" fill="black"/><!-- width=85 height=131 -->
<path id="gl770" d="M 34 9 C 17 16 6 29 13 35 C 18 39 25 36 30 26 C 33 21 35 19 39 19 C 46 18 52 24 53 31 C 55 49 51 56 37 58 C 28 59 20 62 15 67 C 4 78 10 96 25 98 C 33 99 37 98 46 93 C 51 90 52 91 58 95 C 63 98 66 99 70 98 C 76 96 83 91 83 88 C 83 86 81 85 77 84 C 75 83 73 82 72 81 C 70 78 70 78 70 45 C 70 27 70 25 67 20 C 63 10 46 4 34 9 M 50 61 C 55 65 55 77 49 83 C 42 91 28 88 28 78 C 28 73 30 70 34 67 C 43 60 46 60 50 61 z" fill="black"/><!-- width=96 height=119 -->
<path id="gl1539" d="M 76 14 C 71 15 66 16 60 21 C 52 26 49 25 45 19 C 42 13 39 12 28 16 C 19 19 17 21 18 24 C 18 27 18 27 21 30 C 28 35 28 36 28 63 C 27 70 27 77 27 84 C 27 85 26 86 25 87 C 24 89 22 91 21 92 C 16 96 16 99 21 101 C 24 103 51 102 54 100 C 57 99 56 96 51 92 C 48 90 47 88 46 86 C 45 82 45 45 46 41 C 49 28 74 22 82 31 C 87 36 87 38 87 56 C 87 83 86 88 78 92 C 73 95 73 99 78 101 C 81 103 109 102 112 100 C 117 99 115 96 109 92 C 103 89 103 88 104 59 C 105 37 104 33 100 26 C 96 16 87 12 76 14 z" fill="black"/><!-- width=127 height=115 -->
<path id="gl22281" d="M 78 7 C 72 8 64 12 62 14 C 59 17 60 19 64 24 C 70 29 70 30 70 45 C 70 61 69 62 58 61 C 49 60 42 61 37 63 C 24 67 15 75 11 87 C 9 94 9 114 10 123 C 17 145 39 154 58 142 C 65 138 67 138 72 142 C 76 147 80 147 90 142 C 99 139 100 135 93 130 C 91 129 90 127 89 126 C 88 126 88 124 88 124 C 88 105 88 87 88 68 C 88 18 88 12 87 10 C 85 7 82 6 78 7 M 55 71 C 61 73 66 76 69 82 C 72 88 72 120 69 126 C 66 131 61 133 52 134 C 34 136 21 116 26 93 C 30 76 42 67 55 71 z" fill="black"/><!-- width=119 height=180 -->
<path id="gl770" d="M 34 9 C 17 16 6 29 13 35 C 18 39 25 36 30 26 C 33 21 35 19 39 19 C 46 18 52 24 53 31 C 55 49 51 56 37 58 C 28 59 20 62 15 67 C 4 78 10 96 25 98 C 33 99 37 98 46 93 C 51 90 52 91 58 95 C 63 98 66 99 70 98 C 76 96 83 91 83 88 C 83 86 81 85 77 84 C 75 83 73 82 72 81 C 70 78 70 78 70 45 C 70 27 70 25 67 20 C 63 10 46 4 34 9 M 50 61 C 55 65 55 77 49 83 C 42 91 28 88 28 78 C 28 73 30 70 34 67 C 43 60 46 60 50 61 z" fill="black"/><!-- width=96 height=119 -->
<path id="gl16918" d="M 69 27 C 67 27 65 28 63 30 C 58 35 56 35 53 31 C 49 26 44 25 35 29 C 27 33 25 36 31 42 C 37 47 37 46 37 70 C 36 95 36 96 32 100 C 28 105 28 107 31 109 C 34 110 61 110 65 108 C 69 107 69 105 63 103 C 54 99 54 97 53 73 C 53 67 53 61 53 55 C 54 54 54 52 55 51 C 59 42 63 40 73 43 C 79 46 81 46 84 45 C 89 42 90 33 85 29 C 81 27 73 25 69 27 z" fill="black"/><!-- width=101 height=124 -->
<path id="gl22281" d="M 78 7 C 72 8 64 12 62 14 C 59 17 60 19 64 24 C 70 29 70 30 70 45 C 70 61 69 62 58 61 C 49 60 42 61 37 63 C 24 67 15 75 11 87 C 9 94 9 114 10 123 C 17 145 39 154 58 142 C 65 138 67 138 72 142 C 76 147 80 147 90 142 C 99 139 100 135 93 130 C 91 129 90 127 89 126 C 88 126 88 124 88 124 C 88 105 88 87 88 68 C 88 18 88 12 87 10 C 85 7 82 6 78 7 M 55 71 C 61 73 66 76 69 82 C 72 88 72 120 69 126 C 66 131 61 133 52 134 C 34 136 21 116 26 93 C 30 76 42 67 55 71 z" fill="black"/><!-- width=119 height=180 -->
<path id="gl4121" d="M 139 24 C 134 26 133 29 136 33 C 141 39 142 42 139 49 C 138 52 136 58 134 64 C 130 77 129 79 126 81 C 123 82 123 82 120 80 C 118 78 117 76 113 66 C 103 43 103 40 108 34 C 112 26 109 24 91 24 C 75 24 72 25 72 30 C 72 31 73 32 76 34 C 88 42 88 45 80 66 C 74 79 72 82 69 83 C 65 84 63 81 58 70 C 57 67 54 60 52 55 C 47 43 46 40 49 36 C 55 26 54 24 36 24 C 20 24 16 25 16 30 C 16 31 17 33 21 36 C 26 41 28 45 34 56 C 36 61 40 70 43 76 C 49 90 51 94 54 102 C 58 113 63 116 69 111 C 72 109 72 106 79 88 C 85 69 88 64 92 64 C 96 64 100 72 109 97 C 113 110 115 114 120 114 C 125 114 127 111 133 94 C 135 90 138 82 140 78 C 142 73 146 65 148 60 C 153 46 155 43 161 37 C 168 30 168 26 161 24 C 157 23 142 23 139 24 z" fill="black"/><!-- width=177 height=127 -->
<path id="gl1280" d="M 49 13 C 29 18 16 31 13 51 C 10 81 29 105 57 106 C 85 108 106 88 106 60 C 106 36 92 18 69 13 C 64 12 54 12 49 13 M 63 23 C 78 28 88 43 88 63 C 87 83 78 96 62 96 C 39 96 23 60 36 36 C 41 25 53 20 63 23 z" fill="black"/><!-- width=120 height=119 -->
<path id="gl16918" d="M 69 27 C 67 27 65 28 63 30 C 58 35 56 35 53 31 C 49 26 44 25 35 29 C 27 33 25 36 31 42 C 37 47 37 46 37 70 C 36 95 36 96 32 100 C 28 105 28 107 31 109 C 34 110 61 110 65 108 C 69 107 69 105 63 103 C 54 99 54 97 53 73 C 53 67 53 61 53 55 C 54 54 54 52 55 51 C 59 42 63 40 73 43 C 79 46 81 46 84 45 C 89 42 90 33 85 29 C 81 27 73 25 69 27 z" fill="black"/><!-- width=101 height=124 -->
<path id="gl4372" d="M 55 9 C 39 13 35 18 42 25 C 48 31 49 34 48 52 C 48 59 48 77 49 92 C 49 133 49 136 42 143 C 37 149 37 151 42 153 C 45 154 47 154 57 154 C 70 154 73 153 75 151 C 76 149 76 149 72 145 C 67 140 66 134 66 124 C 66 112 71 111 80 120 C 84 124 92 134 93 136 C 95 139 95 139 94 144 C 94 153 94 154 115 154 C 129 154 130 154 132 153 C 136 150 135 146 127 142 C 121 138 117 135 110 128 C 108 126 102 120 96 115 C 84 103 82 100 86 95 C 88 92 112 79 120 76 C 127 75 130 71 127 68 C 125 64 124 64 111 64 C 93 64 90 66 90 74 C 90 79 90 81 85 85 C 80 91 73 94 70 93 C 66 91 66 88 66 76 C 67 46 67 15 66 13 C 64 9 60 7 55 9 z" fill="black"/><!-- width=147 height=192 -->
<path id="gl16661" d="M 36 13 C 21 16 12 27 14 40 C 16 50 19 53 37 62 C 51 69 53 70 55 75 C 58 82 50 91 40 91 C 35 91 31 89 25 82 C 21 78 19 78 18 78 C 14 78 13 80 13 88 C 13 96 16 99 22 99 C 24 99 30 99 34 100 C 55 101 68 94 70 79 C 72 65 66 58 47 49 C 42 47 36 44 35 43 C 24 36 29 21 42 22 C 48 22 51 24 55 28 C 59 34 61 35 64 34 C 70 31 67 17 60 14 C 57 13 40 12 36 13 z" fill="black"/><!-- width=84 height=114 -->
<path id="gl22055" d="M 38 8 C 24 13 21 18 29 24 C 30 25 32 27 33 28 C 34 29 34 30 34 31 C 34 46 34 61 34 75 C 35 129 35 128 29 135 C 23 143 29 146 47 145 C 60 145 63 142 57 135 C 52 130 52 127 52 102 C 52 82 52 81 56 77 C 60 73 63 72 70 72 C 78 72 81 74 85 78 C 90 82 90 85 90 105 C 90 126 89 129 84 135 C 79 139 79 142 83 144 C 86 145 108 146 112 144 C 117 143 117 140 113 136 C 108 130 108 130 108 102 C 107 76 107 76 103 70 C 100 64 95 60 88 59 C 81 58 74 60 63 66 C 60 68 57 68 55 66 C 52 63 52 61 52 36 C 52 13 52 12 51 10 C 49 6 45 6 38 8 z" fill="black"/><!-- width=129 height=174 -->
<path id="gl2841" d="M 55 15 C 34 19 19 46 25 71 C 28 87 42 100 58 101 C 76 102 98 88 91 79 C 89 78 86 78 81 81 C 64 92 43 83 40 63 C 39 55 40 50 45 48 C 46 47 48 47 66 48 C 88 48 89 48 92 44 C 96 39 90 25 82 19 C 75 15 64 13 55 15 M 67 25 C 75 29 74 37 66 39 C 54 43 45 40 46 34 C 48 26 60 22 67 25 z" fill="black"/><!-- width=109 height=114 -->
<path id="gl2841" d="M 55 15 C 34 19 19 46 25 71 C 28 87 42 100 58 101 C 76 102 98 88 91 79 C 89 78 86 78 81 81 C 64 92 43 83 40 63 C 39 55 40 50 45 48 C 46 47 48 47 66 48 C 88 48 89 48 92 44 C 96 39 90 25 82 19 C 75 15 64 13 55 15 M 67 25 C 75 29 74 37 66 39 C 54 43 45 40 46 34 C 48 26 60 22 67 25 z" fill="black"/><!-- width=109 height=114 -->
<path id="gl1284" d="M 39 14 C 37 15 36 18 34 20 C 33 22 30 26 28 28 C 22 35 21 37 26 42 C 30 45 30 46 30 72 C 29 96 30 99 32 105 C 38 118 58 121 69 110 C 76 102 73 95 63 100 C 56 104 51 102 48 96 C 47 94 46 93 46 92 C 46 85 46 77 45 70 C 45 40 45 40 60 41 C 70 41 73 40 73 35 C 73 30 70 28 59 28 C 57 28 54 29 51 29 C 50 28 49 27 49 27 C 47 25 47 24 46 21 C 45 12 42 10 39 14 z" fill="black"/><!-- width=85 height=131 -->
<path id="gl2573" d="M 19 19 C 13 22 13 32 18 37 C 25 42 25 48 18 55 C 12 60 13 66 20 65 C 25 64 30 60 33 51 C 36 45 36 27 33 22 C 30 19 23 18 19 19 z" fill="black"/><!-- width=51 height=78 -->
<path id="gl22282" d="M 43 9 C 30 10 18 19 12 31 C 7 40 7 46 12 48 C 14 48 16 47 19 41 C 28 28 37 23 49 25 C 66 28 73 44 66 63 C 63 69 58 77 49 87 C 41 94 35 101 30 108 C 28 110 23 115 19 118 C 7 130 4 136 11 139 C 13 141 78 141 83 140 C 88 139 91 133 91 124 C 93 114 88 111 82 117 C 76 124 75 124 54 124 C 38 125 36 124 33 122 C 30 119 32 115 45 105 C 75 81 82 72 86 58 C 93 34 78 11 54 9 C 52 9 49 9 49 9 C 48 9 45 9 43 9 z" fill="black"/><!-- width=111 height=155 -->
<path id="gl5133" d="M 37 15 C 36 16 31 21 26 25 C 22 30 16 34 15 36 C 10 38 9 40 9 43 C 9 46 13 46 19 43 C 25 39 29 39 30 44 C 31 46 31 59 31 89 C 30 103 30 117 30 132 C 30 133 29 133 28 135 C 27 137 27 138 23 140 C 17 142 16 144 18 145 C 19 148 21 148 38 148 C 52 148 54 148 55 147 C 60 145 59 142 55 140 C 52 138 50 136 49 133 C 48 131 48 124 48 74 C 48 33 48 18 47 17 C 45 13 40 13 37 15 z" fill="black"/><!-- width=76 height=163 -->
<path id="gl4358" d="M 17 15 C 12 18 12 26 16 30 C 16 30 18 31 18 32 C 21 32 24 31 26 31 C 36 31 63 31 72 31 C 78 32 79 32 81 31 C 85 28 86 19 82 16 C 80 14 20 14 17 15 z" fill="black"/><!-- width=98 height=46 -->
<path id="gl22282" d="M 43 9 C 30 10 18 19 12 31 C 7 40 7 46 12 48 C 14 48 16 47 19 41 C 28 28 37 23 49 25 C 66 28 73 44 66 63 C 63 69 58 77 49 87 C 41 94 35 101 30 108 C 28 110 23 115 19 118 C 7 130 4 136 11 139 C 13 141 78 141 83 140 C 88 139 91 133 91 124 C 93 114 88 111 82 117 C 76 124 75 124 54 124 C 38 125 36 124 33 122 C 30 119 32 115 45 105 C 75 81 82 72 86 58 C 93 34 78 11 54 9 C 52 9 49 9 49 9 C 48 9 45 9 43 9 z" fill="black"/><!-- width=111 height=155 -->
<path id="gl22275" d="M 43 17 C 32 19 21 28 16 37 C 14 42 14 43 15 45 C 18 49 21 48 27 41 C 34 34 39 32 46 32 C 57 32 64 41 61 52 C 60 59 58 62 45 73 C 40 78 39 79 40 82 C 40 84 42 85 49 84 C 64 81 73 91 72 108 C 72 126 60 141 46 141 C 40 141 37 139 30 134 C 21 127 16 126 12 128 C 6 132 6 141 14 147 C 30 157 61 153 75 138 C 96 118 96 89 75 73 C 68 68 67 66 74 57 C 81 46 81 36 75 27 C 69 19 55 15 43 17 z" fill="black"/><!-- width=119 height=165 -->
<path id="gl24584" d="M 26 7 C 25 7 24 8 22 9 C 19 10 19 11 18 15 C 16 24 18 35 21 37 C 22 39 27 33 28 30 C 30 22 35 19 46 19 C 79 18 89 18 91 19 C 94 22 93 28 86 35 C 82 39 70 54 67 57 C 61 64 53 75 51 77 C 49 79 47 81 46 84 C 43 87 40 91 37 94 C 37 95 34 98 33 100 C 31 103 27 108 25 111 C 12 125 11 126 11 129 C 11 135 14 136 30 135 C 37 135 55 136 72 136 C 88 136 106 136 111 136 C 115 136 118 136 122 136 C 123 136 124 135 125 135 C 130 132 130 130 132 116 C 132 103 132 102 130 101 C 128 100 127 100 124 101 C 122 102 122 102 121 108 C 119 115 116 120 111 123 C 108 124 107 124 88 124 C 76 124 63 125 60 125 C 40 126 39 122 54 104 C 63 93 65 91 69 86 C 71 83 74 79 75 78 C 77 76 81 72 83 68 C 86 65 88 61 89 61 C 90 61 91 59 92 58 C 93 56 95 53 97 51 C 99 48 103 43 105 40 C 108 37 112 31 115 28 C 123 21 124 18 125 15 C 126 11 125 10 122 9 C 118 6 116 6 106 7 C 99 8 94 8 85 7 C 67 6 27 6 26 7 z" fill="black"/><!-- width=142 height=147 -->
<path id="gl2841" d="M 55 15 C 34 19 19 46 25 71 C 28 87 42 100 58 101 C 76 102 98 88 91 79 C 89 78 86 78 81 81 C 64 92 43 83 40 63 C 39 55 40 50 45 48 C 46 47 48 47 66 48 C 88 48 89 48 92 44 C 96 39 90 25 82 19 C 75 15 64 13 55 15 M 67 25 C 75 29 74 37 66 39 C 54 43 45 40 46 34 C 48 26 60 22 67 25 z" fill="black"/><!-- width=109 height=114 -->
<path id="gl3841" d="M 41 29 C 28 32 25 37 32 43 C 37 47 38 49 37 76 C 37 99 37 98 32 103 C 27 108 28 111 34 112 C 40 112 65 112 67 111 C 70 109 70 106 64 105 C 55 102 54 100 54 82 C 54 59 54 57 55 52 C 60 43 64 42 73 45 C 83 48 88 46 89 39 C 90 33 85 28 76 28 C 70 27 68 28 64 31 C 62 33 60 34 59 35 C 58 35 57 35 57 36 C 55 34 55 33 54 32 C 49 27 48 27 41 29 z" fill="black"/><!-- width=102 height=128 -->
<path id="gl1280" d="M 49 13 C 29 18 16 31 13 51 C 10 81 29 105 57 106 C 85 108 106 88 106 60 C 106 36 92 18 69 13 C 64 12 54 12 49 13 M 63 23 C 78 28 88 43 88 63 C 87 83 78 96 62 96 C 39 96 23 60 36 36 C 41 25 53 20 63 23 z" fill="black"/><!-- width=120 height=119 -->
<path id="gl4361" d="M 55 17 C 36 19 23 33 23 51 C 23 58 25 62 32 72 C 35 76 35 79 30 83 C 22 91 22 96 29 103 C 36 110 36 111 28 119 C 22 125 21 129 21 134 C 21 152 46 161 77 154 C 103 147 119 126 111 109 C 105 98 98 96 70 96 C 49 96 47 95 44 91 C 38 85 48 79 67 79 C 78 79 81 78 88 71 C 94 65 96 60 97 49 C 97 40 98 40 108 38 C 114 37 116 30 112 26 C 110 23 108 23 99 24 C 90 25 87 24 81 21 C 72 18 62 16 55 17 M 66 28 C 71 30 75 34 76 39 C 79 43 79 56 77 61 C 74 68 66 76 61 76 C 56 76 48 70 45 64 C 34 43 48 19 66 28 M 75 111 C 91 112 96 115 96 123 C 96 139 67 150 48 141 C 36 136 34 124 42 115 C 49 109 50 109 75 111 z" fill="black"/><!-- width=127 height=170 -->
<path id="gl1538" d="M 71 27 C 69 28 67 29 66 30 C 61 34 59 34 55 31 C 50 25 49 25 40 28 C 33 30 31 31 30 33 C 27 36 28 39 33 42 C 34 43 36 45 37 46 C 37 47 37 48 38 48 C 38 56 38 64 38 72 C 38 99 38 97 33 104 C 28 109 28 111 32 112 C 34 114 64 114 69 113 C 73 111 73 107 68 106 C 61 104 59 103 57 99 C 57 97 56 96 55 95 C 55 88 55 82 55 75 C 55 53 55 53 60 48 C 64 42 67 42 76 45 C 82 46 84 46 87 45 C 92 43 94 35 90 31 C 87 27 76 24 71 27 z" fill="black"/><!-- width=105 height=127 -->
<path id="gl22541" d="M 50 13 C 25 17 10 40 15 67 C 19 85 37 99 58 99 C 85 99 103 82 103 57 C 103 28 79 9 50 13 M 63 24 C 84 30 93 67 76 83 C 60 100 33 83 32 54 C 31 33 45 19 63 24 z" fill="black"/><!-- width=117 height=112 -->
<path id="gl4121" d="M 139 24 C 134 26 133 29 136 33 C 141 39 142 42 139 49 C 138 52 136 58 134 64 C 130 77 129 79 126 81 C 123 82 123 82 120 80 C 118 78 117 76 113 66 C 103 43 103 40 108 34 C 112 26 109 24 91 24 C 75 24 72 25 72 30 C 72 31 73 32 76 34 C 88 42 88 45 80 66 C 74 79 72 82 69 83 C 65 84 63 81 58 70 C 57 67 54 60 52 55 C 47 43 46 40 49 36 C 55 26 54 24 36 24 C 20 24 16 25 16 30 C 16 31 17 33 21 36 C 26 41 28 45 34 56 C 36 61 40 70 43 76 C 49 90 51 94 54 102 C 58 113 63 116 69 111 C 72 109 72 106 79 88 C 85 69 88 64 92 64 C 96 64 100 72 109 97 C 113 110 115 114 120 114 C 125 114 127 111 133 94 C 135 90 138 82 140 78 C 142 73 146 65 148 60 C 153 46 155 43 161 37 C 168 30 168 26 161 24 C 157 23 142 23 139 24 z" fill="black"/><!-- width=177 height=127 -->
<path id="gl1284" d="M 39 14 C 37 15 36 18 34 20 C 33 22 30 26 28 28 C 22 35 21 37 26 42 C 30 45 30 46 30 72 C 29 96 30 99 32 105 C 38 118 58 121 69 110 C 76 102 73 95 63 100 C 56 104 51 102 48 96 C 47 94 46 93 46 92 C 46 85 46 77 45 70 C 45 40 45 40 60 41 C 70 41 73 40 73 35 C 73 30 70 28 59 28 C 57 28 54 29 51 29 C 50 28 49 27 49 27 C 47 25 47 24 46 21 C 45 12 42 10 39 14 z" fill="black"/><!-- width=85 height=131 -->
<path id="gl22055" d="M 38 8 C 24 13 21 18 29 24 C 30 25 32 27 33 28 C 34 29 34 30 34 31 C 34 46 34 61 34 75 C 35 129 35 128 29 135 C 23 143 29 146 47 145 C 60 145 63 142 57 135 C 52 130 52 127 52 102 C 52 82 52 81 56 77 C 60 73 63 72 70 72 C 78 72 81 74 85 78 C 90 82 90 85 90 105 C 90 126 89 129 84 135 C 79 139 79 142 83 144 C 86 145 108 146 112 144 C 117 143 117 140 113 136 C 108 130 108 130 108 102 C 107 76 107 76 103 70 C 100 64 95 60 88 59 C 81 58 74 60 63 66 C 60 68 57 68 55 66 C 52 63 52 61 52 36 C 52 13 52 12 51 10 C 49 6 45 6 38 8 z" fill="black"/><!-- width=129 height=174 -->
<path id="gl8469" d="M 18 23 C 9 27 10 39 20 42 C 28 43 29 51 21 58 C 18 61 17 63 18 66 C 19 69 24 68 28 63 C 40 50 40 30 28 24 C 26 22 20 22 18 23 z" fill="black"/><!-- width=52 height=79 -->
<path id="gl22538" d="M 33 12 C 31 13 28 16 25 20 C 21 24 16 28 13 31 C 6 36 4 39 6 41 C 8 43 10 42 15 39 C 20 36 23 36 25 39 C 27 41 27 41 27 81 C 26 108 26 123 25 126 C 25 130 22 133 18 134 C 13 135 12 136 13 138 C 15 141 15 141 33 141 C 50 141 52 141 54 138 C 55 136 54 135 50 133 C 46 131 45 129 44 126 C 43 123 42 37 43 27 C 44 18 43 15 41 13 C 39 11 36 10 33 12 z" fill="black"/><!-- width=67 height=154 -->
<path id="gl23068" d="M 35 12 C 34 13 30 17 26 21 C 22 25 18 30 16 31 C 9 36 7 37 7 39 C 4 44 11 45 16 41 C 18 40 19 38 21 38 C 22 37 23 37 24 37 C 24 37 25 37 26 38 C 29 42 29 42 29 87 C 28 100 28 114 28 127 C 28 129 27 129 27 130 C 25 133 22 135 17 136 C 13 137 15 141 19 142 C 24 142 54 142 55 142 C 57 141 58 138 58 137 C 57 136 55 135 53 134 C 45 130 45 134 46 70 C 46 8 46 12 40 12 C 38 12 37 12 35 12 z" fill="black"/><!-- width=72 height=156 -->
<path id="gl22275" d="M 43 17 C 32 19 21 28 16 37 C 14 42 14 43 15 45 C 18 49 21 48 27 41 C 34 34 39 32 46 32 C 57 32 64 41 61 52 C 60 59 58 62 45 73 C 40 78 39 79 40 82 C 40 84 42 85 49 84 C 64 81 73 91 72 108 C 72 126 60 141 46 141 C 40 141 37 139 30 134 C 21 127 16 126 12 128 C 6 132 6 141 14 147 C 30 157 61 153 75 138 C 96 118 96 89 75 73 C 68 68 67 66 74 57 C 81 46 81 36 75 27 C 69 19 55 15 43 17 z" fill="black"/><!-- width=119 height=165 -->
<path id="gl24584" d="M 26 7 C 25 7 24 8 22 9 C 19 10 19 11 18 15 C 16 24 18 35 21 37 C 22 39 27 33 28 30 C 30 22 35 19 46 19 C 79 18 89 18 91 19 C 94 22 93 28 86 35 C 82 39 70 54 67 57 C 61 64 53 75 51 77 C 49 79 47 81 46 84 C 43 87 40 91 37 94 C 37 95 34 98 33 100 C 31 103 27 108 25 111 C 12 125 11 126 11 129 C 11 135 14 136 30 135 C 37 135 55 136 72 136 C 88 136 106 136 111 136 C 115 136 118 136 122 136 C 123 136 124 135 125 135 C 130 132 130 130 132 116 C 132 103 132 102 130 101 C 128 100 127 100 124 101 C 122 102 122 102 121 108 C 119 115 116 120 111 123 C 108 124 107 124 88 124 C 76 124 63 125 60 125 C 40 126 39 122 54 104 C 63 93 65 91 69 86 C 71 83 74 79 75 78 C 77 76 81 72 83 68 C 86 65 88 61 89 61 C 90 61 91 59 92 58 C 93 56 95 53 97 51 C 99 48 103 43 105 40 C 108 37 112 31 115 28 C 123 21 124 18 125 15 C 126 11 125 10 122 9 C 118 6 116 6 106 7 C 99 8 94 8 85 7 C 67 6 27 6 26 7 z" fill="black"/><!-- width=142 height=147 -->
<path id="gl2841" d="M 55 15 C 34 19 19 46 25 71 C 28 87 42 100 58 101 C 76 102 98 88 91 79 C 89 78 86 78 81 81 C 64 92 43 83 40 63 C 39 55 40 50 45 48 C 46 47 48 47 66 48 C 88 48 89 48 92 44 C 96 39 90 25 82 19 C 75 15 64 13 55 15 M 67 25 C 75 29 74 37 66 39 C 54 43 45 40 46 34 C 48 26 60 22 67 25 z" fill="black"/><!-- width=109 height=114 -->
<path id="gl3841" d="M 41 29 C 28 32 25 37 32 43 C 37 47 38 49 37 76 C 37 99 37 98 32 103 C 27 108 28 111 34 112 C 40 112 65 112 67 111 C 70 109 70 106 64 105 C 55 102 54 100 54 82 C 54 59 54 57 55 52 C 60 43 64 42 73 45 C 83 48 88 46 89 39 C 90 33 85 28 76 28 C 70 27 68 28 64 31 C 62 33 60 34 59 35 C 58 35 57 35 57 36 C 55 34 55 33 54 32 C 49 27 48 27 41 29 z" fill="black"/><!-- width=102 height=128 -->
<path id="gl1280" d="M 49 13 C 29 18 16 31 13 51 C 10 81 29 105 57 106 C 85 108 106 88 106 60 C 106 36 92 18 69 13 C 64 12 54 12 49 13 M 63 23 C 78 28 88 43 88 63 C 87 83 78 96 62 96 C 39 96 23 60 36 36 C 41 25 53 20 63 23 z" fill="black"/><!-- width=120 height=119 -->
<path id="gl4110" d="M 28 7 C 18 12 20 27 31 28 C 39 30 45 25 45 18 C 45 10 36 4 28 7 M 33 58 C 28 58 16 63 14 65 C 10 69 12 72 18 75 C 25 79 25 79 25 105 C 25 133 25 134 16 139 C 13 140 12 141 12 142 C 12 147 14 148 31 148 C 51 148 54 147 54 143 C 54 141 53 140 50 138 C 48 136 46 134 45 133 C 45 132 44 131 43 130 C 43 118 43 108 43 96 C 43 65 43 63 42 61 C 41 58 37 57 33 58 z" fill="black"/><!-- width=66 height=189 -->
<path id="gl2561" d="M 30 16 C 25 18 22 20 21 22 C 19 25 19 26 24 36 C 25 38 25 39 25 60 C 25 85 25 84 20 90 C 15 95 15 97 18 100 C 18 100 19 100 19 101 C 24 101 29 101 34 101 C 39 101 43 101 48 101 C 49 100 49 100 50 100 C 53 97 52 95 47 90 C 42 85 42 83 42 61 C 42 54 42 48 42 42 C 43 40 43 39 44 37 C 51 24 75 25 80 39 C 81 42 81 45 81 57 C 82 79 81 85 76 90 C 70 94 70 98 73 100 C 76 102 100 102 103 100 C 108 98 108 94 103 91 C 102 90 100 87 99 85 C 99 84 98 83 97 82 C 97 74 97 66 97 58 C 97 39 97 35 96 32 C 91 15 74 10 55 19 C 48 22 46 22 42 18 C 38 14 36 13 30 16 z" fill="black"/><!-- width=120 height=116 -->
<path id="gl4363" d="M 87 27 C 84 28 82 28 81 30 C 78 32 79 33 83 37 C 90 43 90 46 84 58 C 82 63 79 70 78 74 C 74 85 70 88 66 85 C 64 84 63 81 59 71 C 57 66 54 59 52 54 C 51 49 49 45 49 44 C 49 42 52 36 52 36 C 53 36 54 36 55 34 C 56 32 55 30 52 28 C 51 28 25 27 22 28 C 16 30 16 34 22 39 C 28 43 31 46 39 66 C 42 72 46 82 48 87 C 51 92 54 99 55 103 C 60 115 63 118 69 115 C 72 114 72 112 76 102 C 78 98 81 90 84 85 C 88 76 96 61 96 58 C 98 52 103 45 107 41 C 114 35 114 33 111 30 C 108 27 99 26 87 27 z" fill="black"/><!-- width=125 height=129 -->
<path id="gl2841" d="M 55 15 C 34 19 19 46 25 71 C 28 87 42 100 58 101 C 76 102 98 88 91 79 C 89 78 86 78 81 81 C 64 92 43 83 40 63 C 39 55 40 50 45 48 C 46 47 48 47 66 48 C 88 48 89 48 92 44 C 96 39 90 25 82 19 C 75 15 64 13 55 15 M 67 25 C 75 29 74 37 66 39 C 54 43 45 40 46 34 C 48 26 60 22 67 25 z" fill="black"/><!-- width=109 height=114 -->
<path id="gl2561" d="M 30 16 C 25 18 22 20 21 22 C 19 25 19 26 24 36 C 25 38 25 39 25 60 C 25 85 25 84 20 90 C 15 95 15 97 18 100 C 18 100 19 100 19 101 C 24 101 29 101 34 101 C 39 101 43 101 48 101 C 49 100 49 100 50 100 C 53 97 52 95 47 90 C 42 85 42 83 42 61 C 42 54 42 48 42 42 C 43 40 43 39 44 37 C 51 24 75 25 80 39 C 81 42 81 45 81 57 C 82 79 81 85 76 90 C 70 94 70 98 73 100 C 76 102 100 102 103 100 C 108 98 108 94 103 91 C 102 90 100 87 99 85 C 99 84 98 83 97 82 C 97 74 97 66 97 58 C 97 39 97 35 96 32 C 91 15 74 10 55 19 C 48 22 46 22 42 18 C 38 14 36 13 30 16 z" fill="black"/><!-- width=120 height=116 -->
<path id="gl1284" d="M 39 14 C 37 15 36 18 34 20 C 33 22 30 26 28 28 C 22 35 21 37 26 42 C 30 45 30 46 30 72 C 29 96 30 99 32 105 C 38 118 58 121 69 110 C 76 102 73 95 63 100 C 56 104 51 102 48 96 C 47 94 46 93 46 92 C 46 85 46 77 45 70 C 45 40 45 40 60 41 C 70 41 73 40 73 35 C 73 30 70 28 59 28 C 57 28 54 29 51 29 C 50 28 49 27 49 27 C 47 25 47 24 46 21 C 45 12 42 10 39 14 z" fill="black"/><!-- width=85 height=131 -->
<path id="gl1280" d="M 49 13 C 29 18 16 31 13 51 C 10 81 29 105 57 106 C 85 108 106 88 106 60 C 106 36 92 18 69 13 C 64 12 54 12 49 13 M 63 23 C 78 28 88 43 88 63 C 87 83 78 96 62 96 C 39 96 23 60 36 36 C 41 25 53 20 63 23 z" fill="black"/><!-- width=120 height=119 -->
<path id="gl1538" d="M 71 27 C 69 28 67 29 66 30 C 61 34 59 34 55 31 C 50 25 49 25 40 28 C 33 30 31 31 30 33 C 27 36 28 39 33 42 C 34 43 36 45 37 46 C 37 47 37 48 38 48 C 38 56 38 64 38 72 C 38 99 38 97 33 104 C 28 109 28 111 32 112 C 34 114 64 114 69 113 C 73 111 73 107 68 106 C 61 104 59 103 57 99 C 57 97 56 96 55 95 C 55 88 55 82 55 75 C 55 53 55 53 60 48 C 64 42 67 42 76 45 C 82 46 84 46 87 45 C 92 43 94 35 90 31 C 87 27 76 24 71 27 z" fill="black"/><!-- width=105 height=127 -->
<path id="gl4114" d="M 90 46 C 85 47 84 51 87 55 C 91 61 92 64 88 73 C 87 76 85 83 84 87 C 79 99 76 103 73 102 C 70 102 68 99 61 82 C 52 63 52 61 56 55 C 59 51 58 48 53 46 C 49 45 28 45 25 46 C 19 49 20 52 25 57 C 32 63 33 64 50 99 C 65 132 66 133 58 148 C 55 155 51 159 46 162 C 43 163 40 165 39 166 C 29 175 40 187 52 181 C 59 178 63 169 78 131 C 81 120 87 106 90 99 C 93 92 97 83 99 79 C 103 68 105 64 112 57 C 117 52 117 49 112 46 C 109 45 93 45 90 46 z" fill="black"/><!-- width=128 height=196 -->
<path id="gl24069" d="M 50 7 C 46 9 42 10 41 11 C 40 12 39 13 38 13 C 29 18 23 30 24 41 C 24 54 32 63 56 81 C 58 82 62 84 64 86 C 86 102 77 126 48 129 C 41 129 30 126 24 120 C 21 118 17 110 16 105 C 15 99 10 94 9 97 C 4 103 2 121 6 126 C 9 129 21 135 33 138 C 36 138 40 138 47 138 C 61 138 66 136 77 130 C 85 126 86 125 89 119 C 99 101 93 84 75 70 C 70 66 55 55 52 53 C 41 45 37 36 42 26 C 47 15 70 12 81 21 C 83 24 88 33 88 36 C 88 36 89 37 90 39 C 91 42 91 42 94 41 C 96 41 97 41 97 39 C 99 37 100 27 100 19 C 100 9 100 8 90 8 C 86 8 81 8 75 7 C 63 4 59 5 50 7 z" fill="black"/><!-- width=114 height=147 -->
<path id="gl22556" d="M 62 18 C 45 22 30 42 26 65 C 23 85 28 99 41 103 C 48 105 55 103 66 98 C 75 94 78 90 75 88 C 73 86 71 86 64 89 C 51 94 42 90 40 78 C 39 67 45 62 59 58 C 77 54 88 44 88 32 C 88 25 86 22 81 19 C 78 18 67 17 62 18 M 67 26 C 73 27 73 38 67 45 C 61 54 51 57 48 53 C 45 48 54 30 62 26 C 65 25 64 25 67 26 z" fill="black"/><!-- width=101 height=118 -->
<path id="gl23321" d="M 66 17 C 54 19 44 26 37 36 C 18 66 22 102 45 105 C 54 106 75 97 76 91 C 78 87 73 85 66 90 C 52 96 41 90 41 76 C 41 66 45 61 63 57 C 72 55 83 47 87 40 C 93 25 82 13 66 17 M 69 25 C 75 28 73 39 65 47 C 60 52 57 54 54 54 C 46 55 45 49 51 39 C 56 28 63 23 69 25 z" fill="black"/><!-- width=102 height=118 -->
<path id="gl22811" d="M 40 18 C 33 20 33 22 41 28 C 47 32 47 33 47 77 C 47 130 46 163 45 167 C 42 179 34 182 23 176 C 18 173 16 172 13 172 C 12 172 10 172 9 172 C 9 173 7 174 7 174 C 0 183 8 194 23 194 C 41 194 55 183 62 162 C 67 147 67 147 67 88 C 68 28 67 34 75 28 C 80 22 80 20 74 18 C 70 17 45 16 40 18 z" fill="black"/><!-- width=105 height=206 -->
<path id="gl4355" d="M 24 12 C 14 13 12 15 12 19 C 12 21 12 21 16 25 C 21 30 21 29 21 56 C 21 69 22 80 22 82 C 26 103 46 108 67 94 C 75 89 76 90 80 96 C 84 101 86 102 95 99 C 106 96 109 92 102 87 C 96 84 96 84 96 41 C 97 13 97 13 93 12 C 90 10 87 10 78 12 C 69 14 66 15 65 17 C 64 19 66 21 71 24 C 79 28 79 28 79 54 C 79 78 79 78 75 82 C 71 86 69 87 61 88 C 52 89 46 88 42 83 C 39 78 39 79 39 46 C 39 12 39 13 34 12 C 32 10 30 10 24 12 z" fill="black"/><!-- width=119 height=117 -->
<path id="gl15874" d="M 36 8 C 21 10 13 19 12 31 C 12 43 16 50 32 58 C 47 64 47 65 50 68 C 58 76 55 87 45 90 C 40 92 37 92 31 90 C 27 88 26 87 19 79 C 16 76 13 76 12 79 C 11 81 11 90 12 94 C 12 97 15 99 22 99 C 26 99 31 99 34 100 C 56 103 73 88 69 69 C 67 60 62 55 49 48 C 31 40 30 39 28 36 C 24 28 27 21 34 17 C 40 15 48 17 52 22 C 54 23 55 25 57 27 C 58 28 60 30 60 31 C 61 30 62 30 63 30 C 67 28 67 15 62 12 C 58 9 44 7 36 8 z" fill="black"/><!-- width=81 height=111 -->
<path id="gl2570" d="M 39 14 C 38 15 36 16 34 20 C 32 23 29 27 27 29 C 22 34 22 36 25 42 C 29 47 29 46 29 75 C 29 99 29 99 30 103 C 36 117 55 121 66 110 C 71 106 72 101 69 99 C 67 98 67 98 62 100 C 54 104 48 101 45 93 C 44 89 44 47 45 45 C 47 41 50 40 56 40 C 66 42 69 41 71 37 C 72 34 72 32 69 30 C 67 28 67 28 59 29 C 48 30 46 29 45 21 C 44 13 43 12 39 14 z" fill="black"/><!-- width=84 height=131 -->
<path id="gl4358" d="M 17 15 C 12 18 12 26 16 30 C 16 30 18 31 18 32 C 21 32 24 31 26 31 C 36 31 63 31 72 31 C 78 32 79 32 81 31 C 85 28 86 19 82 16 C 80 14 20 14 17 15 z" fill="black"/><!-- width=98 height=46 -->
<path id="gl22272" d="M 27 8 C 22 10 21 13 21 18 C 21 22 21 22 22 24 C 28 30 38 29 41 22 C 45 13 35 4 27 8 M 26 57 C 12 62 9 66 16 72 C 24 76 24 76 24 102 C 24 125 24 126 19 130 C 15 133 12 136 13 136 C 13 139 18 140 30 140 C 43 140 46 140 49 138 C 51 136 49 133 46 130 C 40 125 40 123 40 85 C 40 60 40 59 38 56 C 36 55 31 55 26 57 z" fill="black"/><!-- width=63 height=180 -->
<path id="gl2561" d="M 30 16 C 25 18 22 20 21 22 C 19 25 19 26 24 36 C 25 38 25 39 25 60 C 25 85 25 84 20 90 C 15 95 15 97 18 100 C 18 100 19 100 19 101 C 24 101 29 101 34 101 C 39 101 43 101 48 101 C 49 100 49 100 50 100 C 53 97 52 95 47 90 C 42 85 42 83 42 61 C 42 54 42 48 42 42 C 43 40 43 39 44 37 C 51 24 75 25 80 39 C 81 42 81 45 81 57 C 82 79 81 85 76 90 C 70 94 70 98 73 100 C 76 102 100 102 103 100 C 108 98 108 94 103 91 C 102 90 100 87 99 85 C 99 84 98 83 97 82 C 97 74 97 66 97 58 C 97 39 97 35 96 32 C 91 15 74 10 55 19 C 48 22 46 22 42 18 C 38 14 36 13 30 16 z" fill="black"/><!-- width=120 height=116 -->
<path id="gl4358" d="M 17 15 C 12 18 12 26 16 30 C 16 30 18 31 18 32 C 21 32 24 31 26 31 C 36 31 63 31 72 31 C 78 32 79 32 81 31 C 85 28 86 19 82 16 C 80 14 20 14 17 15 z" fill="black"/><!-- width=98 height=46 -->
<path id="gl1284" d="M 39 14 C 37 15 36 18 34 20 C 33 22 30 26 28 28 C 22 35 21 37 26 42 C 30 45 30 46 30 72 C 29 96 30 99 32 105 C 38 118 58 121 69 110 C 76 102 73 95 63 100 C 56 104 51 102 48 96 C 47 94 46 93 46 92 C 46 85 46 77 45 70 C 45 40 45 40 60 41 C 70 41 73 40 73 35 C 73 30 70 28 59 28 C 57 28 54 29 51 29 C 50 28 49 27 49 27 C 47 25 47 24 46 21 C 45 12 42 10 39 14 z" fill="black"/><!-- width=85 height=131 -->
<path id="gl16901" d="M 26 4 C 25 4 23 6 22 7 C 15 15 21 24 31 24 C 36 24 37 22 39 18 C 44 10 36 1 26 4 M 29 52 C 24 53 13 57 12 59 C 9 63 10 65 16 69 C 23 72 23 72 23 97 C 23 117 22 119 22 121 C 21 124 18 127 15 128 C 10 130 10 134 13 136 C 16 137 42 138 45 136 C 50 135 50 132 45 127 C 39 121 39 123 39 87 C 40 56 40 55 37 52 C 36 51 32 51 29 52 z" fill="black"/><!-- width=60 height=172 -->
<path id="gl22291" d="M 129 16 C 124 16 120 18 113 23 C 104 29 102 29 95 22 C 85 14 75 13 63 20 C 52 27 50 27 46 21 C 42 15 37 15 27 19 C 17 23 16 27 22 33 C 27 37 27 36 27 61 C 27 85 27 85 22 91 C 18 96 18 99 22 100 C 25 102 45 102 49 100 C 54 99 55 96 51 92 C 46 87 46 86 45 62 C 45 55 45 49 45 43 C 46 42 46 40 47 39 C 49 34 55 30 64 28 C 72 27 78 30 81 36 C 82 37 82 38 83 39 C 83 45 83 51 83 56 C 84 82 83 85 76 91 C 72 96 72 99 76 100 C 80 102 103 102 105 100 C 108 98 108 95 105 92 C 101 86 100 83 100 61 C 100 40 102 36 108 32 C 120 26 132 28 136 36 C 137 37 138 39 138 40 C 138 47 138 54 138 61 C 138 85 138 85 132 91 C 128 96 128 98 132 100 C 134 101 135 101 147 101 C 162 101 165 100 165 97 C 165 95 165 94 162 91 C 156 87 156 87 156 59 C 156 33 156 33 152 26 C 148 18 139 14 129 16 z" fill="black"/><!-- width=178 height=115 -->
<path id="gl2841" d="M 55 15 C 34 19 19 46 25 71 C 28 87 42 100 58 101 C 76 102 98 88 91 79 C 89 78 86 78 81 81 C 64 92 43 83 40 63 C 39 55 40 50 45 48 C 46 47 48 47 66 48 C 88 48 89 48 92 44 C 96 39 90 25 82 19 C 75 15 64 13 55 15 M 67 25 C 75 29 74 37 66 39 C 54 43 45 40 46 34 C 48 26 60 22 67 25 z" fill="black"/><!-- width=109 height=114 -->
</defs>
<use xlink:href="#gl24583" x="3" y="20"/>
<use xlink:href="#gl16918" x="173" y="43"/>
<use xlink:href="#gl22279" x="260" y="15"/>
<use xlink:href="#gl4865" x="303" y="37"/>
<use xlink:href="#gl17948" x="376" y="10"/>
<use xlink:href="#gl2561" x="422" y="52"/>
<use xlink:href="#gl4361" x="524" y="47"/>
<use xlink:href="#gl4865" x="674" y="38"/>
<use xlink:href="#gl22055" x="732" y="8"/>
<use xlink:href="#gl2841" x="839" y="53"/>
<use xlink:href="#gl1540" x="978" y="54"/>
<use xlink:href="#gl1284" x="1045" y="39"/>
<use xlink:href="#gl770" x="1117" y="57"/>
<use xlink:href="#gl1539" x="1192" y="53"/>
<use xlink:href="#gl22281" x="1311" y="7"/>
<use xlink:href="#gl770" x="1411" y="57"/>
<use xlink:href="#gl16918" x="1481" y="44"/>
<use xlink:href="#gl22281" x="1573" y="6"/>
<use xlink:href="#gl4121" x="1711" y="42"/>
<use xlink:href="#gl1280" x="1873" y="52"/>
<use xlink:href="#gl16918" x="1967" y="43"/>
<use xlink:href="#gl4372" x="2026" y="0"/>
<use xlink:href="#gl16661" x="2158" y="54"/>
<use xlink:href="#gl22055" x="2218" y="7"/>
<use xlink:href="#gl2841" x="2325" y="53"/>
<use xlink:href="#gl2841" x="2409" y="52"/>
<use xlink:href="#gl1284" x="2495" y="39"/>
<use xlink:href="#gl2573" x="2574" y="112"/>
<use xlink:href="#gl22282" x="2678" y="12"/>
<use xlink:href="#gl5133" x="2783" y="4"/>
<use xlink:href="#gl4358" x="2857" y="87"/>
<use xlink:href="#gl22282" x="2940" y="11"/>
<use xlink:href="#gl22275" x="3032" y="3"/>
<use xlink:href="#gl24584" x="0" y="458"/>
<use xlink:href="#gl2841" x="123" y="495"/>
<use xlink:href="#gl3841" x="205" y="483"/>
<use xlink:href="#gl1280" x="290" y="494"/>
<use xlink:href="#gl4361" x="433" y="489"/>
<use xlink:href="#gl1538" x="531" y="483"/>
<use xlink:href="#gl22541" x="619" y="497"/>
<use xlink:href="#gl4121" x="718" y="485"/>
<use xlink:href="#gl1284" x="875" y="481"/>
<use xlink:href="#gl22055" x="932" y="449"/>
<use xlink:href="#gl8469" x="1057" y="554"/>
<use xlink:href="#gl22538" x="1178" y="453"/>
<use xlink:href="#gl23068" x="1269" y="452"/>
<use xlink:href="#gl22275" x="1349" y="446"/>
<use xlink:href="#gl24584" x="0" y="680"/>
<use xlink:href="#gl2841" x="124" y="716"/>
<use xlink:href="#gl3841" x="205" y="704"/>
<use xlink:href="#gl1280" x="290" y="714"/>
<use xlink:href="#gl4110" x="440" y="671"/>
<use xlink:href="#gl2561" x="490" y="715"/>
<use xlink:href="#gl4363" x="593" y="702"/>
<use xlink:href="#gl2841" x="694" y="716"/>
<use xlink:href="#gl2561" x="785" y="715"/>
<use xlink:href="#gl1284" x="885" y="702"/>
<use xlink:href="#gl1280" x="953" y="714"/>
<use xlink:href="#gl1538" x="1047" y="703"/>
<use xlink:href="#gl4114" x="1125" y="683"/>
<use xlink:href="#gl24069" x="204" y="901"/>
<use xlink:href="#gl22556" x="293" y="933"/>
<use xlink:href="#gl23321" x="366" y="933"/>
<use xlink:href="#gl22811" x="477" y="888"/>
<use xlink:href="#gl4355" x="556" y="938"/>
<use xlink:href="#gl15874" x="664" y="940"/>
<use xlink:href="#gl2570" x="729" y="923"/>
<use xlink:href="#gl4358" x="792" y="971"/>
<use xlink:href="#gl22272" x="873" y="896"/>
<use xlink:href="#gl2561" x="921" y="935"/>
<use xlink:href="#gl4358" x="1023" y="971"/>
<use xlink:href="#gl1284" x="1095" y="922"/>
<use xlink:href="#gl16901" x="1168" y="899"/>
<use xlink:href="#gl22291" x="1218" y="935"/>
<use xlink:href="#gl2841" x="1376" y="936"/>
</svg>
