<?xml version='1.0' encoding='utf-8'?>
<svg xmlns="http://www.w3.org/2000/svg" xmlns:xlink="http://www.w3.org/1999/xlink" width="463px" height="41px" viewBox="0 0 4632 412" version="1.1">
<defs>
<path id="gl28425" d="M 35 36 C 32 36 30 39 29 43 C 29 45 29 63 29 83 C 29 110 29 122 28 126 C 27 133 27 144 28 147 C 29 156 41 157 45 150 C 46 147 46 143 45 124 C 45 106 45 105 61 105 C 71 105 71 105 76 103 C 89 98 96 87 96 70 C 96 52 90 43 75 37 C 73 36 72 36 70 35 C 64 35 59 35 53 35 C 44 35 36 35 35 36 M 67 51 C 77 54 82 66 79 78 C 76 85 72 89 64 90 C 53 93 47 91 46 85 C 45 81 45 60 46 56 C 48 50 57 48 67 51 z" fill="black"/><!-- width=110 height=165 -->
<path id="gl28426" d="M 9 4 C 4 14 4 120 14 120 C 19 120 24 115 24 96 C 24 91 24 81 24 72 C 28 76 33 76 38 76 C 52 76 52 76 57 96 C 57 115 57 120 67 120 C 72 124 76 120 72 100 C 67 76 67 62 72 38 C 72 28 67 19 62 14 C 57 4 19 0 9 4 M 52 38 C 52 52 43 62 28 57 C 24 57 24 48 24 38 C 24 19 24 19 38 24 C 52 24 52 24 52 38 z" fill="black"/><!-- width=86 height=134 -->
<path id="gl26114" d="M 45 14 C 29 18 20 30 16 50 C 14 59 14 92 16 102 C 21 127 33 139 55 139 C 77 139 89 126 93 97 C 95 89 94 55 93 49 C 88 30 81 20 67 15 C 63 13 49 13 45 14 M 62 31 C 69 34 73 40 75 51 C 78 62 78 90 75 100 C 73 113 70 118 63 121 C 52 126 42 122 36 111 C 31 100 30 72 33 54 C 36 40 39 35 45 31 C 51 28 57 28 62 31 z" fill="black"/><!-- width=109 height=154 -->
<path id="gl26628" d="M 27 13 C 24 15 23 16 22 18 C 21 22 21 124 22 127 C 24 133 24 133 42 133 C 69 133 76 130 85 118 C 92 108 96 94 96 73 C 96 33 85 15 58 13 C 48 12 28 12 27 13 M 60 29 C 73 32 78 43 79 69 C 80 101 71 117 52 117 C 44 118 41 117 39 113 C 39 112 38 111 37 111 C 37 97 37 85 37 72 C 37 30 37 32 42 29 C 44 28 54 28 60 29 z" fill="black"/><!-- width=111 height=147 -->
<path id="gl28427" d="M 18 8 C 14 10 13 13 13 24 C 13 30 14 49 14 66 C 14 76 14 87 14 97 C 15 99 15 102 16 103 C 21 121 31 129 49 129 C 67 129 75 123 82 104 C 83 102 84 100 84 99 C 84 84 84 70 84 56 C 84 9 85 12 81 9 C 77 6 70 7 68 11 C 67 13 67 15 67 46 C 67 103 68 101 63 107 C 58 113 52 115 44 113 C 39 112 34 108 32 102 C 32 100 31 99 31 97 C 31 84 31 70 31 56 C 31 28 31 13 30 13 C 28 7 23 6 18 8 z" fill="black"/><!-- width=99 height=145 -->
<path id="gl28428" d="M 52 13 C 35 18 29 26 23 49 C 20 61 20 85 24 102 C 27 119 35 130 48 135 C 56 137 71 136 77 132 C 87 126 94 114 95 101 C 95 99 96 97 96 96 C 94 94 94 94 93 93 C 91 91 90 90 88 90 C 82 90 79 94 77 104 C 74 115 70 120 60 120 C 45 120 38 106 38 74 C 39 55 40 45 43 39 C 48 31 52 28 60 28 C 69 27 75 31 77 41 C 80 51 82 52 88 52 C 93 52 95 51 96 47 C 98 40 93 28 85 20 C 79 14 61 10 52 13 z" fill="black"/><!-- width=108 height=150 -->
<path id="gl26631" d="M 18 46 C 12 48 10 53 12 58 C 14 63 15 63 25 63 C 36 63 37 63 40 67 C 41 69 41 69 40 116 C 39 162 39 161 40 163 C 44 170 54 171 57 164 C 58 161 58 139 57 91 C 57 72 57 70 57 67 C 59 63 61 62 69 63 C 84 64 88 61 87 54 C 87 48 82 45 71 46 C 63 46 34 46 25 46 C 22 46 19 46 18 46 z" fill="black"/><!-- width=98 height=180 -->
<path id="gl28429" d="M 16 18 C 12 21 13 21 13 44 C 13 56 13 80 13 97 C 13 132 13 133 16 136 C 18 138 22 138 25 136 C 27 135 30 131 30 128 C 30 127 30 106 30 82 C 30 50 30 38 30 33 C 31 27 31 24 28 21 C 25 16 19 15 16 18 z" fill="black"/><!-- width=43 height=153 -->
<path id="gl28430" d="M 16 16 C 12 20 12 26 18 45 C 20 50 22 58 23 62 C 24 69 26 74 32 96 C 35 106 37 116 39 123 C 39 132 42 135 50 135 C 59 135 60 133 65 112 C 67 104 70 94 71 92 C 72 89 73 85 73 83 C 73 81 75 76 76 71 C 78 66 80 58 81 52 C 84 43 86 36 88 31 C 90 27 90 24 89 21 C 87 17 85 16 81 16 C 72 16 71 18 66 45 C 66 50 64 56 63 60 C 63 63 61 66 61 67 C 61 69 60 75 59 79 C 58 85 57 90 57 92 C 55 100 49 103 47 98 C 46 96 45 90 42 78 C 42 73 40 66 39 62 C 39 58 37 52 36 48 C 33 24 30 17 24 16 C 21 15 18 15 16 16 z" fill="black"/><!-- width=102 height=148 -->
<path id="gl28431" d="M 18 14 C 14 17 14 12 14 73 C 14 133 14 130 18 132 C 21 133 25 133 27 132 C 31 129 31 131 31 82 C 31 46 31 37 31 31 C 33 22 32 20 30 17 C 27 13 22 12 18 14 z" fill="black"/><!-- width=45 height=145 -->
<path id="gl28432" d="M 19 45 C 15 46 11 50 10 53 C 9 61 13 64 24 63 C 39 61 40 63 40 79 C 39 88 39 139 39 153 C 39 162 39 163 44 166 C 48 168 53 167 55 163 C 57 161 57 154 57 126 C 56 69 56 70 57 67 C 60 63 61 63 69 63 C 91 64 91 64 92 57 C 93 51 92 49 89 48 C 88 48 86 47 85 46 C 84 45 77 45 57 46 C 50 46 42 46 39 46 C 32 45 21 45 19 45 z" fill="black"/><!-- width=99 height=176 -->
<path id="gl28433" d="M 16 27 C 15 27 15 29 15 36 C 15 40 14 45 14 45 C 13 46 14 47 15 48 C 16 49 17 52 18 54 C 19 57 22 63 25 68 C 31 81 34 88 37 96 C 39 102 39 108 38 129 C 37 144 39 148 46 148 C 54 148 56 143 55 127 C 55 122 55 114 55 109 C 55 99 56 95 64 78 C 67 73 70 66 71 64 C 72 61 75 55 77 51 C 82 40 83 38 82 34 C 82 30 81 28 78 27 C 70 25 66 30 61 46 C 56 63 54 69 50 72 C 47 75 46 75 44 74 C 42 72 40 67 37 58 C 28 31 28 32 25 28 C 21 25 18 24 16 27 z" fill="black"/><!-- width=94 height=157 -->
<path id="gl19729" d="M 14 12 C 14 13 12 14 11 16 C 10 17 10 18 9 19 C 9 21 10 22 10 23 C 11 25 12 28 12 28 C 15 31 14 38 12 42 C 10 44 10 45 13 49 C 15 51 16 51 17 49 C 17 48 18 46 19 46 C 25 41 26 25 21 16 C 20 13 16 11 14 12 z" fill="black"/><!-- width=35 height=61 -->
<path id="gl28431" d="M 18 14 C 14 17 14 12 14 73 C 14 133 14 130 18 132 C 21 133 25 133 27 132 C 31 129 31 131 31 82 C 31 46 31 37 31 31 C 33 22 32 20 30 17 C 27 13 22 12 18 14 z" fill="black"/><!-- width=45 height=145 -->
<path id="gl26635" d="M 20 11 C 13 13 13 16 13 30 C 15 39 14 58 13 71 C 12 88 12 124 13 127 C 15 133 25 135 28 129 C 30 126 30 122 30 107 C 29 99 28 87 28 79 C 27 61 28 57 30 54 C 34 51 37 55 42 72 C 44 77 48 87 50 92 C 52 97 56 108 58 114 C 63 129 65 132 73 132 C 83 132 85 127 84 116 C 84 111 84 89 85 37 C 85 19 85 18 84 16 C 80 8 69 10 68 18 C 67 20 68 28 68 37 C 69 63 70 84 69 87 C 68 90 66 91 64 91 C 61 90 59 85 52 68 C 49 59 46 51 45 48 C 42 41 40 34 38 28 C 34 14 33 12 25 11 C 23 11 21 11 20 11 z" fill="black"/><!-- width=98 height=145 -->
<path id="gl28434" d="M 24 14 C 0 28 0 100 19 120 C 38 144 72 129 72 100 C 72 86 62 86 57 100 C 52 115 38 120 28 110 C 19 96 19 38 28 28 C 43 19 52 24 57 38 C 62 57 76 52 76 38 C 72 9 43 0 24 14 z" fill="black"/><!-- width=86 height=144 -->
<path id="gl2844" d="M 19 14 C 15 16 12 21 13 26 C 15 33 28 35 32 28 C 37 20 28 10 19 14 z" fill="black"/><!-- width=47 height=46 -->
<path id="gl25116" d="M 17 15 C 13 18 12 27 15 33 C 18 38 18 41 16 45 C 13 50 13 51 14 54 C 15 58 22 58 25 53 C 28 46 30 24 27 19 C 25 15 24 14 21 14 C 19 14 18 15 17 15 z" fill="black"/><!-- width=42 height=69 -->
<path id="gl28435" d="M 4 28 C 0 62 4 115 9 124 C 19 129 57 124 67 110 C 86 86 81 24 57 14 C 57 9 43 9 28 9 C 24 9 14 9 9 9 C 9 14 4 24 4 28 M 52 28 C 57 33 57 48 57 67 C 57 96 52 110 33 110 C 24 110 24 105 24 67 C 24 24 24 19 33 19 C 38 19 48 24 52 28 z" fill="black"/><!-- width=86 height=139 -->
<path id="gl26636" d="M 69 12 C 64 12 58 12 51 12 C 30 12 28 12 27 21 C 27 23 27 36 27 48 C 27 75 27 73 27 100 C 26 130 27 132 34 133 C 36 134 39 134 43 133 C 47 133 54 133 66 134 C 84 135 84 135 86 133 C 91 130 90 120 83 117 C 81 116 73 117 62 118 C 50 120 46 118 43 114 C 42 110 42 85 43 83 C 46 79 49 79 57 80 C 76 82 83 82 85 78 C 87 73 87 70 84 67 C 80 63 79 63 61 66 C 50 67 46 66 43 61 C 42 60 42 58 42 48 C 42 34 43 31 46 29 C 49 28 61 28 72 29 C 80 30 82 30 86 27 C 89 25 90 18 87 15 C 84 11 81 10 69 12 z" fill="black"/><!-- width=99 height=147 -->
<path id="gl26626" d="M 33 37 C 27 39 27 39 28 78 C 28 98 28 114 28 123 C 27 146 27 150 28 154 C 30 157 31 159 36 159 C 40 159 42 157 43 153 C 44 153 45 151 45 150 C 45 145 45 139 44 133 C 43 115 43 114 47 111 C 48 110 48 109 49 109 C 52 109 55 109 58 109 C 78 109 87 103 93 87 C 96 80 96 78 96 69 C 94 58 91 53 85 46 C 81 42 73 38 66 37 C 59 37 36 37 33 37 M 67 54 C 82 60 82 85 67 92 C 62 95 52 96 49 93 C 44 90 44 90 44 74 C 44 58 45 56 48 54 C 51 52 62 52 67 54 z" fill="black"/><!-- width=108 height=170 -->
<path id="gl26631" d="M 18 46 C 12 48 10 53 12 58 C 14 63 15 63 25 63 C 36 63 37 63 40 67 C 41 69 41 69 40 116 C 39 162 39 161 40 163 C 44 170 54 171 57 164 C 58 161 58 139 57 91 C 57 72 57 70 57 67 C 59 63 61 62 69 63 C 84 64 88 61 87 54 C 87 48 82 45 71 46 C 63 46 34 46 25 46 C 22 46 19 46 18 46 z" fill="black"/><!-- width=98 height=180 -->
<path id="gl2844" d="M 19 14 C 15 16 12 21 13 26 C 15 33 28 35 32 28 C 37 20 28 10 19 14 z" fill="black"/><!-- width=47 height=46 -->
<path id="gl26641" d="M 24 13 C 20 16 20 13 19 66 C 19 131 19 125 21 127 C 23 132 25 132 45 132 C 67 131 72 130 80 122 C 86 115 88 111 89 99 C 90 91 87 83 81 77 C 76 70 75 67 79 63 C 85 55 86 52 87 43 C 87 28 79 18 65 14 C 58 12 27 12 24 13 M 55 28 C 72 30 76 55 61 62 C 52 66 42 66 38 62 C 36 60 35 57 35 46 C 35 28 39 25 55 28 M 52 76 C 63 78 70 84 72 94 C 74 109 63 118 45 117 C 37 116 36 113 35 94 C 35 76 37 73 52 76 z" fill="black"/><!-- width=103 height=145 -->
<path id="gl26639" d="M 85 11 C 82 12 80 13 78 17 C 70 29 66 36 63 41 C 55 56 52 58 48 58 C 43 58 42 54 43 41 C 44 30 45 18 44 16 C 42 12 37 9 33 12 C 27 14 27 18 28 37 C 29 55 28 78 28 99 C 27 115 27 126 28 128 C 30 132 35 133 40 131 C 45 129 45 125 44 108 C 42 88 46 79 54 79 C 58 79 61 84 69 100 C 70 104 73 110 75 114 C 77 117 79 121 79 123 C 83 132 93 135 98 129 C 101 126 100 121 93 111 C 91 109 90 105 88 103 C 87 100 85 97 83 94 C 66 66 66 67 66 63 C 66 60 68 57 73 51 C 79 43 95 22 96 20 C 98 13 93 8 85 11 z" fill="black"/><!-- width=111 height=144 -->
<path id="gl26634" d="M 12 16 C 8 19 8 27 12 33 C 15 38 15 41 10 48 C 9 50 9 51 10 52 C 12 57 16 57 19 53 C 23 49 26 30 24 21 C 24 16 16 13 12 16 z" fill="black"/><!-- width=34 height=68 -->
<path id="gl26626" d="M 33 37 C 27 39 27 39 28 78 C 28 98 28 114 28 123 C 27 146 27 150 28 154 C 30 157 31 159 36 159 C 40 159 42 157 43 153 C 44 153 45 151 45 150 C 45 145 45 139 44 133 C 43 115 43 114 47 111 C 48 110 48 109 49 109 C 52 109 55 109 58 109 C 78 109 87 103 93 87 C 96 80 96 78 96 69 C 94 58 91 53 85 46 C 81 42 73 38 66 37 C 59 37 36 37 33 37 M 67 54 C 82 60 82 85 67 92 C 62 95 52 96 49 93 C 44 90 44 90 44 74 C 44 58 45 56 48 54 C 51 52 62 52 67 54 z" fill="black"/><!-- width=108 height=170 -->
<path id="gl2844" d="M 19 14 C 15 16 12 21 13 26 C 15 33 28 35 32 28 C 37 20 28 10 19 14 z" fill="black"/><!-- width=47 height=46 -->
<path id="gl26651" d="M 46 10 C 29 13 18 25 14 48 C 11 63 12 91 15 104 C 22 130 42 140 66 131 C 75 128 84 115 87 99 C 90 88 90 60 88 49 C 83 25 73 13 55 10 C 50 10 50 10 46 10 M 59 28 C 69 33 72 45 72 73 C 72 91 72 97 69 105 C 62 122 41 123 34 107 C 27 92 27 51 34 37 C 39 27 49 23 59 28 z" fill="black"/><!-- width=102 height=147 -->
<path id="gl2844" d="M 19 14 C 15 16 12 21 13 26 C 15 33 28 35 32 28 C 37 20 28 10 19 14 z" fill="black"/><!-- width=47 height=46 -->
<path id="gl28436" d="M 24 13 C 22 13 21 15 20 16 C 20 16 19 17 19 18 C 19 28 19 38 19 48 C 19 66 19 89 18 100 C 18 124 18 126 21 129 C 21 130 22 131 22 132 C 28 132 34 132 40 132 C 64 132 69 130 77 123 C 85 116 88 109 87 97 C 87 88 85 84 80 77 C 76 72 75 67 77 63 C 78 63 79 61 80 59 C 86 50 87 39 81 28 C 78 21 73 17 64 14 C 59 13 28 12 24 13 M 57 28 C 67 31 72 48 66 57 C 61 63 45 67 39 63 C 34 61 34 60 34 47 C 34 31 36 28 43 27 C 46 27 54 27 57 28 M 54 76 C 70 81 76 101 65 112 C 60 115 57 117 48 117 C 39 117 36 115 34 109 C 34 106 34 82 35 80 C 37 75 44 74 54 76 z" fill="black"/><!-- width=100 height=145 -->
<path id="gl26651" d="M 46 10 C 29 13 18 25 14 48 C 11 63 12 91 15 104 C 22 130 42 140 66 131 C 75 128 84 115 87 99 C 90 88 90 60 88 49 C 83 25 73 13 55 10 C 50 10 50 10 46 10 M 59 28 C 69 33 72 45 72 73 C 72 91 72 97 69 105 C 62 122 41 123 34 107 C 27 92 27 51 34 37 C 39 27 49 23 59 28 z" fill="black"/><!-- width=102 height=147 -->
<path id="gl26642" d="M 69 13 C 64 15 63 18 57 33 C 52 47 50 49 46 49 C 42 49 40 47 33 29 C 28 14 27 13 18 13 C 7 14 8 18 30 56 C 36 67 37 73 35 78 C 33 81 30 87 30 88 C 29 88 27 93 24 98 C 15 114 14 116 12 119 C 8 126 8 128 12 132 C 18 137 25 133 29 123 C 34 111 40 97 42 95 C 43 93 43 93 46 93 C 49 93 52 96 56 108 C 59 116 65 129 67 130 C 72 136 78 135 82 130 C 84 127 82 124 77 115 C 75 111 72 106 71 104 C 69 99 65 93 63 89 C 53 74 53 71 61 57 C 63 55 66 49 68 45 C 70 40 74 34 75 31 C 79 25 80 22 80 18 C 80 13 75 10 69 13 z" fill="black"/><!-- width=92 height=146 -->
<path id="gl26643" d="M 34 24 C 33 25 31 28 30 30 C 27 37 24 39 15 40 C 8 41 6 43 6 48 C 6 52 7 54 16 54 C 28 54 29 56 28 74 C 28 80 27 90 28 97 C 28 103 27 114 27 120 C 27 124 27 128 27 132 C 27 133 28 134 28 135 C 32 141 39 142 42 136 C 44 133 44 139 44 83 C 43 63 44 42 44 37 C 44 33 44 30 45 27 C 44 26 43 25 42 24 C 40 21 37 21 34 24 z" fill="black"/><!-- width=67 height=152 -->
<path id="gl26645" d="M 27 9 C 23 10 15 15 12 18 C 10 20 9 22 7 28 C 5 36 5 37 7 41 C 10 48 19 45 21 37 C 24 27 30 22 36 22 C 45 22 50 29 50 40 C 50 52 46 58 34 60 C 29 61 28 62 27 65 C 27 67 27 68 27 70 C 28 73 29 73 40 75 C 45 76 48 79 50 83 C 52 88 52 98 51 104 C 48 114 34 118 27 112 C 25 109 24 108 22 102 C 19 94 16 91 12 91 C 6 91 3 99 7 109 C 12 120 18 126 29 129 C 34 130 47 129 50 127 C 57 124 64 115 66 107 C 69 99 69 88 66 81 C 64 78 63 75 62 74 C 56 68 55 65 60 58 C 67 45 68 37 61 23 C 56 12 51 9 37 9 C 33 9 28 9 27 9 z" fill="black"/><!-- width=82 height=139 -->
<path id="gl26645" d="M 27 9 C 23 10 15 15 12 18 C 10 20 9 22 7 28 C 5 36 5 37 7 41 C 10 48 19 45 21 37 C 24 27 30 22 36 22 C 45 22 50 29 50 40 C 50 52 46 58 34 60 C 29 61 28 62 27 65 C 27 67 27 68 27 70 C 28 73 29 73 40 75 C 45 76 48 79 50 83 C 52 88 52 98 51 104 C 48 114 34 118 27 112 C 25 109 24 108 22 102 C 19 94 16 91 12 91 C 6 91 3 99 7 109 C 12 120 18 126 29 129 C 34 130 47 129 50 127 C 57 124 64 115 66 107 C 69 99 69 88 66 81 C 64 78 63 75 62 74 C 56 68 55 65 60 58 C 67 45 68 37 61 23 C 56 12 51 9 37 9 C 33 9 28 9 27 9 z" fill="black"/><!-- width=82 height=139 -->
<path id="gl26646" d="M 30 15 C 16 21 9 34 9 54 C 9 72 13 82 24 88 C 33 93 39 94 49 89 C 55 86 58 85 60 88 C 61 90 62 93 61 99 C 58 114 47 123 36 119 C 33 118 31 116 27 111 C 19 99 7 105 13 118 C 19 130 25 134 39 134 C 60 135 69 126 75 102 C 75 99 76 94 76 93 C 78 88 78 69 77 57 C 77 51 72 35 70 30 C 66 23 61 18 54 15 C 49 13 35 13 30 15 M 48 28 C 55 32 60 42 60 57 C 60 66 58 70 54 74 C 46 82 33 79 27 69 C 24 63 24 48 27 40 C 30 30 40 25 48 28 z" fill="black"/><!-- width=93 height=147 -->
<path id="gl28437" d="M 38 10 C 28 13 21 22 16 36 C 12 50 12 54 12 70 C 12 75 12 80 12 85 C 13 88 13 92 15 96 C 19 114 22 120 31 125 C 36 129 39 129 49 129 C 60 129 62 128 68 122 C 79 112 82 100 82 70 C 82 53 82 49 79 36 C 76 24 69 15 63 12 C 57 10 44 9 38 10 M 54 25 C 57 27 61 31 63 35 C 65 43 66 46 66 67 C 66 95 64 104 58 110 C 49 119 38 115 33 102 C 30 93 30 94 30 71 C 30 49 30 45 33 36 C 36 26 45 21 54 25 z" fill="black"/><!-- width=94 height=141 -->
<path id="gl26634" d="M 12 16 C 8 19 8 27 12 33 C 15 38 15 41 10 48 C 9 50 9 51 10 52 C 12 57 16 57 19 53 C 23 49 26 30 24 21 C 24 16 16 13 12 16 z" fill="black"/><!-- width=34 height=68 -->
<path id="gl26626" d="M 33 37 C 27 39 27 39 28 78 C 28 98 28 114 28 123 C 27 146 27 150 28 154 C 30 157 31 159 36 159 C 40 159 42 157 43 153 C 44 153 45 151 45 150 C 45 145 45 139 44 133 C 43 115 43 114 47 111 C 48 110 48 109 49 109 C 52 109 55 109 58 109 C 78 109 87 103 93 87 C 96 80 96 78 96 69 C 94 58 91 53 85 46 C 81 42 73 38 66 37 C 59 37 36 37 33 37 M 67 54 C 82 60 82 85 67 92 C 62 95 52 96 49 93 C 44 90 44 90 44 74 C 44 58 45 56 48 54 C 51 52 62 52 67 54 z" fill="black"/><!-- width=108 height=170 -->
<path id="gl26114" d="M 45 14 C 29 18 20 30 16 50 C 14 59 14 92 16 102 C 21 127 33 139 55 139 C 77 139 89 126 93 97 C 95 89 94 55 93 49 C 88 30 81 20 67 15 C 63 13 49 13 45 14 M 62 31 C 69 34 73 40 75 51 C 78 62 78 90 75 100 C 73 113 70 118 63 121 C 52 126 42 122 36 111 C 31 100 30 72 33 54 C 36 40 39 35 45 31 C 51 28 57 28 62 31 z" fill="black"/><!-- width=109 height=154 -->
<path id="gl28438" d="M 14 4 C 4 14 4 124 19 124 C 24 124 24 120 24 100 C 24 86 28 76 33 76 C 38 76 38 67 28 57 C 19 48 19 33 33 24 C 48 9 28 0 14 4 M 48 14 C 48 19 48 24 48 24 C 57 28 57 48 48 57 C 43 67 48 72 52 81 C 57 86 57 96 57 105 C 57 120 67 129 72 124 C 76 120 76 110 72 96 C 67 67 67 67 72 43 C 76 28 72 19 67 14 C 57 4 48 4 48 14 z" fill="black"/><!-- width=86 height=134 -->
<path id="gl26631" d="M 18 46 C 12 48 10 53 12 58 C 14 63 15 63 25 63 C 36 63 37 63 40 67 C 41 69 41 69 40 116 C 39 162 39 161 40 163 C 44 170 54 171 57 164 C 58 161 58 139 57 91 C 57 72 57 70 57 67 C 59 63 61 62 69 63 C 84 64 88 61 87 54 C 87 48 82 45 71 46 C 63 46 34 46 25 46 C 22 46 19 46 18 46 z" fill="black"/><!-- width=98 height=180 -->
<path id="gl28439" d="M 39 4 C 35 7 35 5 35 64 C 35 126 35 123 40 125 C 42 126 43 126 51 126 C 55 126 64 126 71 126 C 97 127 95 127 96 126 C 99 124 99 112 96 109 C 95 108 92 108 90 108 C 87 109 63 110 59 110 C 56 109 54 108 52 104 C 52 102 52 95 52 61 C 53 4 54 8 49 5 C 47 3 41 3 39 4 z" fill="black"/><!-- width=105 height=160 -->
<path id="gl28440" d="M 47 5 C 44 6 43 7 42 14 C 40 17 40 20 39 21 C 39 22 38 25 37 28 C 37 31 36 35 35 36 C 34 38 33 42 33 45 C 32 48 31 52 30 54 C 29 55 28 60 28 63 C 27 66 26 70 25 72 C 25 73 24 77 23 81 C 21 89 18 97 15 102 C 14 103 13 105 13 106 C 13 109 13 112 13 115 C 12 126 13 128 17 127 C 26 126 29 123 31 109 C 33 99 35 94 40 93 C 41 92 61 92 66 93 C 70 93 72 96 76 120 C 76 121 78 123 79 124 C 82 126 82 127 85 127 C 94 127 99 117 93 109 C 91 108 86 91 84 84 C 84 82 83 79 82 78 C 82 77 81 73 79 69 C 78 59 75 49 73 44 C 71 39 69 28 67 21 C 66 12 64 7 61 6 C 57 4 51 4 47 5 M 58 40 C 59 43 60 47 61 52 C 62 55 63 60 64 63 C 67 75 65 80 54 80 C 41 80 38 75 43 60 C 44 57 45 52 46 48 C 48 41 48 39 51 36 C 52 36 52 35 54 34 C 54 34 54 35 55 36 C 55 36 57 39 58 40 z" fill="black"/><!-- width=106 height=139 -->
<path id="gl26635" d="M 20 11 C 13 13 13 16 13 30 C 15 39 14 58 13 71 C 12 88 12 124 13 127 C 15 133 25 135 28 129 C 30 126 30 122 30 107 C 29 99 28 87 28 79 C 27 61 28 57 30 54 C 34 51 37 55 42 72 C 44 77 48 87 50 92 C 52 97 56 108 58 114 C 63 129 65 132 73 132 C 83 132 85 127 84 116 C 84 111 84 89 85 37 C 85 19 85 18 84 16 C 80 8 69 10 68 18 C 67 20 68 28 68 37 C 69 63 70 84 69 87 C 68 90 66 91 64 91 C 61 90 59 85 52 68 C 49 59 46 51 45 48 C 42 41 40 34 38 28 C 34 14 33 12 25 11 C 23 11 21 11 20 11 z" fill="black"/><!-- width=98 height=145 -->
<path id="gl26628" d="M 27 13 C 24 15 23 16 22 18 C 21 22 21 124 22 127 C 24 133 24 133 42 133 C 69 133 76 130 85 118 C 92 108 96 94 96 73 C 96 33 85 15 58 13 C 48 12 28 12 27 13 M 60 29 C 73 32 78 43 79 69 C 80 101 71 117 52 117 C 44 118 41 117 39 113 C 39 112 38 111 37 111 C 37 97 37 85 37 72 C 37 30 37 32 42 29 C 44 28 54 28 60 29 z" fill="black"/><!-- width=111 height=147 -->
<path id="gl26634" d="M 12 16 C 8 19 8 27 12 33 C 15 38 15 41 10 48 C 9 50 9 51 10 52 C 12 57 16 57 19 53 C 23 49 26 30 24 21 C 24 16 16 13 12 16 z" fill="black"/><!-- width=34 height=68 -->
<path id="gl26651" d="M 46 10 C 29 13 18 25 14 48 C 11 63 12 91 15 104 C 22 130 42 140 66 131 C 75 128 84 115 87 99 C 90 88 90 60 88 49 C 83 25 73 13 55 10 C 50 10 50 10 46 10 M 59 28 C 69 33 72 45 72 73 C 72 91 72 97 69 105 C 62 122 41 123 34 107 C 27 92 27 51 34 37 C 39 27 49 23 59 28 z" fill="black"/><!-- width=102 height=147 -->
<path id="gl26627" d="M 25 22 C 22 23 19 25 18 28 C 18 30 18 39 18 60 C 18 78 18 97 18 112 C 17 139 17 139 21 142 C 25 144 32 143 34 139 C 35 136 35 123 34 109 C 33 91 36 88 52 90 C 60 91 63 93 66 98 C 67 99 67 101 68 102 C 68 107 68 112 69 117 C 69 135 70 138 74 141 C 78 144 85 143 87 139 C 88 137 88 129 87 124 C 86 122 85 117 85 112 C 84 101 84 97 79 91 C 75 84 75 82 80 73 C 84 66 85 60 85 52 C 84 36 77 27 63 24 C 57 22 28 21 25 22 M 56 38 C 65 41 70 51 68 61 C 65 73 59 78 46 77 C 35 76 34 75 34 58 C 34 44 34 42 37 39 C 40 37 49 36 56 38 z" fill="black"/><!-- width=100 height=155 -->
<path id="gl28441" d="M 19 14 C -5 28 9 100 43 86 C 52 81 57 81 57 91 C 57 110 28 120 24 105 C 19 96 9 96 9 105 C 9 120 19 124 38 124 C 62 124 67 115 67 67 C 67 19 48 0 19 14 M 52 38 C 57 67 43 81 28 67 C 19 62 19 33 28 28 C 43 19 48 24 52 38 z" fill="black"/><!-- width=81 height=139 -->
<path id="gl28442" d="M 4 14 C 4 19 9 19 24 19 C 48 19 48 19 33 57 C 14 96 9 124 19 120 C 24 120 33 110 38 86 C 43 67 52 43 57 33 C 72 9 72 4 33 4 C 9 4 4 9 4 14 z" fill="black"/><!-- width=76 height=134 -->
<path id="gl28443" d="M 24 9 C 9 14 9 19 9 33 C 9 48 19 48 24 33 C 28 14 57 19 57 43 C 57 43 43 57 28 72 C 0 110 0 120 38 120 C 67 124 72 120 67 115 C 67 105 62 105 48 105 C 24 110 24 100 48 76 C 76 52 76 28 57 14 C 43 0 38 0 24 9 z" fill="black"/><!-- width=81 height=134 -->
<path id="gl28444" d="M 35 22 C 33 24 32 24 30 28 C 27 36 24 38 14 40 C 7 41 6 43 6 48 C 6 52 7 53 16 54 C 28 54 28 55 28 70 C 27 75 27 81 27 85 C 27 88 27 99 27 109 C 26 133 27 135 31 137 C 35 139 40 138 43 134 C 44 133 44 132 44 128 C 44 126 44 101 43 75 C 43 58 43 42 43 25 C 43 25 42 24 42 24 C 39 21 38 21 35 22 z" fill="black"/><!-- width=66 height=151 -->
<path id="gl28445" d="M 34 12 C 20 13 12 19 8 33 C 6 40 7 45 12 47 C 17 48 21 46 23 39 C 27 30 31 25 38 25 C 46 25 52 32 52 43 C 52 55 48 60 35 63 C 30 64 27 69 29 72 C 31 75 33 76 39 77 C 50 79 54 85 54 98 C 53 112 43 121 33 116 C 28 114 27 112 24 103 C 22 97 20 95 17 94 C 7 92 4 102 10 115 C 17 127 28 133 43 132 C 54 130 61 125 66 114 C 73 100 72 87 63 75 C 58 69 58 66 62 59 C 69 49 69 38 63 26 C 58 15 50 11 34 12 z" fill="black"/><!-- width=86 height=145 -->
<path id="gl3333" d="M 11 15 C 8 18 8 21 11 24 C 12 25 12 25 13 26 C 18 26 23 26 28 26 C 33 26 39 26 43 26 C 45 25 45 25 46 24 C 49 21 49 18 45 15 C 44 13 43 13 42 12 C 39 12 36 12 33 12 C 21 13 19 13 16 12 C 13 12 13 12 11 15 z" fill="black"/><!-- width=57 height=39 -->
<path id="gl28446" d="M 36 8 C 32 9 30 10 25 14 C 18 20 13 28 13 34 C 13 36 12 39 12 42 C 9 51 9 84 11 95 C 12 99 13 103 13 104 C 14 111 22 121 28 125 C 34 129 55 129 59 125 C 63 122 67 118 69 117 C 79 101 82 58 74 31 C 71 21 65 13 58 10 C 54 8 45 7 36 8 M 51 24 C 56 27 60 33 61 42 C 62 51 62 88 60 95 C 57 110 46 118 36 112 C 28 106 25 97 26 67 C 26 38 28 30 36 24 C 42 21 45 20 51 24 z" fill="black"/><!-- width=88 height=138 -->
<path id="gl28447" d="M 28 4 C 9 14 0 38 14 38 C 19 38 19 38 19 38 C 19 28 38 19 43 19 C 57 24 52 48 38 57 C 24 62 24 62 43 72 C 57 76 57 96 48 105 C 38 115 28 110 24 96 C 24 91 19 91 14 91 C 0 91 9 105 24 120 C 52 139 81 105 67 67 C 62 62 62 57 67 52 C 72 38 62 9 48 4 C 38 0 38 0 28 4 z" fill="black"/><!-- width=81 height=134 -->
<path id="gl28448" d="M 37 14 C 23 16 12 26 10 40 C 6 65 11 81 25 88 C 34 93 39 93 47 88 C 54 85 55 85 58 87 C 61 89 61 93 58 101 C 53 119 37 124 29 112 C 24 104 20 102 15 103 C 4 106 14 127 27 131 C 45 136 61 131 67 118 C 73 105 76 91 76 69 C 76 64 76 60 76 55 C 75 52 75 49 74 46 C 70 31 67 24 59 18 C 54 15 44 13 37 14 M 45 28 C 54 30 58 40 58 57 C 58 65 58 67 55 72 C 51 76 48 78 42 78 C 27 78 21 64 25 43 C 27 35 31 30 38 28 C 41 27 42 27 45 28 z" fill="black"/><!-- width=90 height=147 -->
<path id="gl28449" d="M 19 9 C -5 33 4 129 38 129 C 57 129 72 105 72 67 C 72 19 48 -5 19 9 M 52 28 C 62 52 52 115 38 115 C 28 115 19 96 19 67 C 19 28 24 19 38 19 C 43 19 52 24 52 28 z" fill="black"/><!-- width=81 height=134 -->
<path id="gl25377" d="M 20 46 C 12 49 13 66 21 68 C 24 69 25 69 31 68 C 42 67 45 69 45 78 C 45 101 44 144 43 154 C 43 174 45 177 60 176 C 64 176 67 175 69 172 C 70 169 70 172 70 116 C 69 76 69 75 70 73 C 72 69 75 68 85 68 C 93 69 93 69 96 67 C 100 64 101 57 99 50 C 96 45 96 45 83 45 C 64 46 42 46 32 45 C 23 45 22 45 20 46 z" fill="black"/><!-- width=115 height=190 -->
<path id="gl26658" d="M 42 16 C 32 19 28 21 24 28 C 18 37 14 57 15 71 C 18 94 24 104 42 108 C 51 111 52 111 61 109 C 72 106 76 103 81 94 C 85 85 85 80 79 77 C 74 73 68 76 63 85 C 59 90 56 93 51 93 C 45 93 40 87 39 78 C 39 68 48 64 65 67 C 77 70 81 69 84 65 C 88 58 84 33 75 23 C 69 15 55 13 42 16 M 56 33 C 63 37 66 48 59 53 C 54 56 45 54 42 50 C 36 42 47 29 56 33 z" fill="black"/><!-- width=100 height=124 -->
<path id="gl28450" d="M 17 12 C 13 15 13 15 14 33 C 15 48 15 105 14 112 C 12 135 13 136 27 136 C 39 136 40 134 40 118 C 39 113 39 96 39 81 C 39 64 39 48 39 43 C 38 37 39 32 39 27 C 41 13 39 10 27 10 C 20 10 19 11 17 12 z" fill="black"/><!-- width=54 height=148 -->
<path id="gl26658" d="M 42 16 C 32 19 28 21 24 28 C 18 37 14 57 15 71 C 18 94 24 104 42 108 C 51 111 52 111 61 109 C 72 106 76 103 81 94 C 85 85 85 80 79 77 C 74 73 68 76 63 85 C 59 90 56 93 51 93 C 45 93 40 87 39 78 C 39 68 48 64 65 67 C 77 70 81 69 84 65 C 88 58 84 33 75 23 C 69 15 55 13 42 16 M 56 33 C 63 37 66 48 59 53 C 54 56 45 54 42 50 C 36 42 47 29 56 33 z" fill="black"/><!-- width=100 height=124 -->
<path id="gl26660" d="M 63 26 C 62 27 59 28 57 29 C 52 32 50 32 44 29 C 38 26 31 25 28 28 C 24 31 24 31 24 61 C 25 84 25 114 24 136 C 24 148 25 150 37 150 C 43 150 43 150 46 148 C 49 145 50 144 49 132 C 48 121 49 118 52 117 C 54 117 55 117 61 118 C 75 123 82 121 89 112 C 93 106 94 103 95 96 C 96 92 96 87 97 85 C 98 80 98 69 97 63 C 96 60 96 55 95 51 C 93 39 88 32 79 28 C 73 25 68 24 63 26 M 64 46 C 67 46 71 51 73 56 C 75 63 75 85 72 91 C 68 105 55 105 49 93 C 47 86 46 64 49 57 C 51 48 57 43 64 46 z" fill="black"/><!-- width=114 height=162 -->
<path id="gl25378" d="M 27 9 C 21 11 21 13 21 24 C 22 45 22 60 22 74 C 21 99 21 131 22 133 C 24 138 27 139 34 139 C 40 139 43 138 45 135 C 46 132 46 132 46 115 C 45 105 45 92 45 85 C 45 81 44 77 44 73 C 45 72 45 70 46 69 C 50 60 60 58 66 64 C 70 69 70 70 69 110 C 68 132 68 133 71 136 C 75 141 87 141 91 137 C 94 134 94 132 93 120 C 93 113 93 97 93 84 C 93 63 93 61 91 57 C 87 42 72 37 58 45 C 52 48 51 48 48 45 C 45 43 44 41 45 33 C 48 12 46 9 34 9 C 31 9 28 9 27 9 z" fill="black"/><!-- width=108 height=159 -->
<path id="gl26661" d="M 43 14 C 24 19 14 37 15 64 C 16 89 21 100 34 106 C 45 111 54 112 66 108 C 85 102 93 76 85 42 C 82 30 82 28 77 24 C 68 15 54 11 43 14 M 55 31 C 58 33 60 36 62 40 C 63 41 63 42 64 43 C 64 49 64 55 64 62 C 64 78 64 80 63 82 C 57 95 44 94 40 81 C 39 78 38 52 39 46 C 40 37 45 31 52 31 C 52 31 54 31 55 31 z" fill="black"/><!-- width=104 height=124 -->
<path id="gl25615" d="M 60 21 C 58 21 54 22 51 24 C 45 27 43 27 38 25 C 30 21 19 21 17 26 C 16 28 16 41 16 45 C 16 46 16 61 16 80 C 16 117 15 116 19 119 C 22 121 34 121 37 119 C 41 116 41 115 40 96 C 39 62 39 52 41 48 C 46 37 58 36 63 46 C 64 48 64 48 65 49 C 65 54 65 58 65 63 C 65 70 64 85 64 95 C 63 119 63 120 75 120 C 84 121 88 119 88 114 C 88 113 88 96 88 75 C 88 33 88 34 82 28 C 78 22 67 19 60 21 z" fill="black"/><!-- width=104 height=135 -->
<path id="gl26658" d="M 42 16 C 32 19 28 21 24 28 C 18 37 14 57 15 71 C 18 94 24 104 42 108 C 51 111 52 111 61 109 C 72 106 76 103 81 94 C 85 85 85 80 79 77 C 74 73 68 76 63 85 C 59 90 56 93 51 93 C 45 93 40 87 39 78 C 39 68 48 64 65 67 C 77 70 81 69 84 65 C 88 58 84 33 75 23 C 69 15 55 13 42 16 M 56 33 C 63 37 66 48 59 53 C 54 56 45 54 42 50 C 36 42 47 29 56 33 z" fill="black"/><!-- width=100 height=124 -->
<path id="gl28451" d="M 21 14 C 15 15 14 18 14 28 C 13 40 16 43 27 43 C 38 43 40 40 40 28 C 40 19 39 16 36 15 C 34 13 25 13 21 14 M 18 75 C 14 76 13 82 13 93 C 13 102 16 103 27 103 C 37 103 39 102 40 91 C 40 81 40 79 37 76 C 37 75 36 75 36 74 C 33 74 30 74 27 74 C 22 74 19 74 18 75 z" fill="black"/><!-- width=54 height=118 -->
<path id="gl28452" d="M 40 23 C 38 24 37 25 35 30 C 31 39 28 40 19 42 C 10 43 7 46 7 52 C 7 61 9 62 20 62 C 33 62 33 59 31 100 C 31 141 31 139 32 141 C 36 148 51 148 55 141 C 55 141 56 140 57 139 C 56 133 56 128 56 123 C 55 106 55 48 56 34 C 57 25 54 22 46 22 C 43 22 42 22 40 23 z" fill="black"/><!-- width=81 height=160 -->
<path id="gl26402" d="M 16 17 C 15 19 13 22 14 27 C 15 33 18 35 25 34 C 36 34 39 33 48 34 C 59 35 61 34 63 31 C 65 28 64 18 60 16 C 60 16 53 16 39 16 C 18 16 18 16 16 17 z" fill="black"/><!-- width=78 height=51 -->
<path id="gl26887" d="M 36 13 C 28 15 27 16 23 19 C 12 29 9 47 16 58 C 23 67 23 70 15 79 C 10 85 10 87 10 99 C 10 114 12 118 20 127 C 25 132 27 133 35 135 C 45 138 55 137 66 133 C 72 132 76 127 82 119 C 84 116 87 112 88 111 C 88 110 89 109 90 108 C 90 105 90 102 90 99 C 90 89 90 82 88 80 C 88 79 88 79 86 80 C 82 82 74 75 74 69 C 74 65 75 63 84 52 C 87 49 86 48 83 37 C 79 25 75 19 69 16 C 59 12 47 10 36 13 M 55 31 C 64 37 63 55 53 61 C 44 65 36 59 35 47 C 34 39 37 33 43 30 C 46 29 52 29 55 31 M 52 79 C 67 84 67 114 52 118 C 42 121 34 114 33 100 C 31 85 41 75 52 79 z" fill="black"/><!-- width=99 height=150 -->
<path id="gl26881" d="M 44 12 C 36 14 33 16 29 19 C 23 25 18 36 16 44 C 15 49 14 101 15 106 C 19 129 40 141 64 134 C 75 131 82 124 86 114 C 87 112 89 108 90 106 C 94 99 95 96 94 70 C 94 63 94 57 94 51 C 93 49 92 47 91 45 C 90 42 88 37 87 33 C 84 25 81 21 76 18 C 67 11 55 9 44 12 M 59 31 C 63 33 66 37 67 46 C 68 52 68 94 67 101 C 65 112 60 118 52 118 C 45 118 41 113 39 101 C 38 97 37 92 38 72 C 38 64 38 56 38 48 C 39 46 39 45 40 43 C 42 36 43 34 46 31 C 49 28 54 28 59 31 z" fill="black"/><!-- width=108 height=148 -->
<path id="gl26881" d="M 44 12 C 36 14 33 16 29 19 C 23 25 18 36 16 44 C 15 49 14 101 15 106 C 19 129 40 141 64 134 C 75 131 82 124 86 114 C 87 112 89 108 90 106 C 94 99 95 96 94 70 C 94 63 94 57 94 51 C 93 49 92 47 91 45 C 90 42 88 37 87 33 C 84 25 81 21 76 18 C 67 11 55 9 44 12 M 59 31 C 63 33 66 37 67 46 C 68 52 68 94 67 101 C 65 112 60 118 52 118 C 45 118 41 113 39 101 C 38 97 37 92 38 72 C 38 64 38 56 38 48 C 39 46 39 45 40 43 C 42 36 43 34 46 31 C 49 28 54 28 59 31 z" fill="black"/><!-- width=108 height=148 -->
<path id="gl26893" d="M 12 15 C 11 16 11 29 12 31 C 12 33 12 33 13 34 C 15 33 16 33 18 33 C 24 33 47 33 52 33 C 58 34 60 32 60 25 C 60 16 58 13 51 14 C 42 14 24 14 18 13 C 13 13 13 13 12 15 z" fill="black"/><!-- width=71 height=47 -->
<path id="gl28453" d="M 34 13 C 31 13 28 15 27 15 C 15 20 6 42 12 49 C 14 52 14 52 18 52 C 26 52 30 50 33 42 C 34 37 36 34 39 33 C 48 25 58 33 57 48 C 56 57 52 62 44 63 C 36 65 34 67 34 73 C 34 78 36 81 41 82 C 43 82 46 82 47 82 C 60 84 63 108 52 116 C 47 120 40 118 36 114 C 34 111 34 111 31 103 C 30 98 28 97 22 96 C 9 95 4 100 9 113 C 16 133 36 141 60 135 C 68 132 76 125 81 114 C 84 109 84 109 84 105 C 82 90 81 87 75 81 C 69 74 69 71 73 64 C 82 49 82 46 79 36 C 75 22 69 16 58 13 C 49 11 42 11 34 13 z" fill="black"/><!-- width=101 height=150 -->
<path id="gl26895" d="M 46 10 C 36 12 24 18 21 24 C 14 34 12 42 13 57 C 13 73 15 79 22 85 C 30 93 37 94 49 91 C 56 90 60 90 62 91 C 69 95 64 113 55 116 C 49 118 43 117 40 112 C 36 104 33 102 24 103 C 15 103 13 105 14 112 C 18 129 37 138 60 133 C 73 131 79 126 85 112 C 87 108 89 105 90 105 C 90 105 91 106 93 106 C 96 110 97 108 97 96 C 97 82 97 79 93 79 C 90 78 89 76 89 62 C 89 43 85 28 78 20 C 73 15 54 9 46 10 M 54 29 C 57 30 61 33 63 36 C 64 40 65 63 63 67 C 60 74 55 77 48 75 C 40 74 35 66 35 53 C 35 36 43 26 54 29 z" fill="black"/><!-- width=108 height=147 -->
<path id="gl26896" d="M 50 10 C 44 11 42 13 36 27 C 34 33 30 40 28 43 C 27 47 23 52 21 56 C 19 59 16 65 14 68 C 9 77 9 78 9 94 C 9 113 8 112 17 111 C 26 109 27 109 33 109 C 40 108 43 109 45 112 C 47 114 47 114 47 121 C 47 130 48 132 52 133 C 57 136 65 135 68 130 C 69 129 69 128 69 122 C 69 114 70 112 75 110 C 80 107 81 105 81 99 C 81 93 80 92 75 90 C 68 87 68 87 68 60 C 68 48 69 33 69 27 C 70 12 69 10 58 10 C 55 10 51 10 50 10 M 46 60 C 49 65 48 82 45 86 C 43 90 37 91 33 89 C 28 87 27 82 30 75 C 36 60 43 53 46 60 z" fill="black"/><!-- width=93 height=148 -->
<path id="gl26402" d="M 16 17 C 15 19 13 22 14 27 C 15 33 18 35 25 34 C 36 34 39 33 48 34 C 59 35 61 34 63 31 C 65 28 64 18 60 16 C 60 16 53 16 39 16 C 18 16 18 16 16 17 z" fill="black"/><!-- width=78 height=51 -->
<path id="gl28454" d="M 51 10 C 49 11 46 12 43 12 C 38 13 36 13 32 16 C 27 19 21 28 18 37 C 15 45 15 48 15 76 C 14 104 14 105 19 114 C 25 126 30 131 42 134 C 61 139 77 133 87 118 C 91 110 91 109 94 112 C 95 112 96 114 97 114 C 98 114 99 106 99 94 C 99 82 98 80 94 80 C 92 79 90 78 89 73 C 87 67 81 60 74 56 C 69 54 61 54 56 55 C 52 57 45 58 43 57 C 40 55 39 53 39 48 C 39 39 42 33 48 30 C 55 26 61 28 65 36 C 69 42 71 43 77 44 C 88 45 92 39 87 29 C 84 22 77 15 71 13 C 69 12 67 12 65 11 C 62 9 57 9 51 10 M 60 73 C 66 77 68 82 68 94 C 68 103 67 108 64 112 C 61 116 60 117 55 117 C 48 117 43 113 41 106 C 40 102 40 87 41 82 C 43 73 51 69 60 73 M 97 37 C 96 38 96 41 97 42 C 97 42 97 40 97 39 C 97 36 97 36 97 37 z" fill="black"/><!-- width=107 height=150 -->
<path id="gl26887" d="M 36 13 C 28 15 27 16 23 19 C 12 29 9 47 16 58 C 23 67 23 70 15 79 C 10 85 10 87 10 99 C 10 114 12 118 20 127 C 25 132 27 133 35 135 C 45 138 55 137 66 133 C 72 132 76 127 82 119 C 84 116 87 112 88 111 C 88 110 89 109 90 108 C 90 105 90 102 90 99 C 90 89 90 82 88 80 C 88 79 88 79 86 80 C 82 82 74 75 74 69 C 74 65 75 63 84 52 C 87 49 86 48 83 37 C 79 25 75 19 69 16 C 59 12 47 10 36 13 M 55 31 C 64 37 63 55 53 61 C 44 65 36 59 35 47 C 34 39 37 33 43 30 C 46 29 52 29 55 31 M 52 79 C 67 84 67 114 52 118 C 42 121 34 114 33 100 C 31 85 41 75 52 79 z" fill="black"/><!-- width=99 height=150 -->
<path id="gl28455" d="M 28 4 C 0 9 -5 105 19 124 C 28 129 57 124 67 115 C 72 110 81 105 81 105 C 91 115 81 76 72 62 C 62 48 57 48 43 48 C 28 52 24 52 24 38 C 24 24 38 19 52 28 C 62 43 72 43 72 28 C 76 9 52 0 28 4 M 57 86 C 57 100 48 110 38 105 C 28 105 24 81 28 72 C 38 62 57 72 57 86 z" fill="black"/><!-- width=91 height=139 -->
<path id="gl28456" d="M 42 10 C 34 11 28 15 24 19 C 13 31 12 48 21 57 C 27 63 27 66 20 73 C 17 76 15 78 15 80 C 14 84 15 114 15 116 C 16 119 24 127 28 129 C 37 135 54 136 67 132 C 75 130 82 122 87 111 C 88 110 89 108 90 106 C 90 103 90 100 90 97 C 90 94 90 91 90 88 C 89 87 88 85 87 83 C 86 79 84 77 83 75 C 75 67 75 64 82 56 C 85 52 87 47 87 42 C 87 33 82 21 76 16 C 70 11 54 8 42 10 M 57 28 C 58 28 62 33 63 37 C 65 43 64 50 59 54 C 51 63 39 57 39 44 C 38 32 46 25 57 28 M 59 78 C 68 84 69 101 61 111 C 57 117 45 117 40 111 C 36 105 34 91 37 85 C 42 75 51 72 59 78 z" fill="black"/><!-- width=103 height=145 -->
<path id="gl26889" d="M 84 31 C 81 31 69 31 58 31 C 51 31 44 31 37 31 C 36 32 36 33 35 33 C 32 35 31 37 32 56 C 33 75 33 122 31 139 C 31 154 32 157 40 159 C 46 160 54 159 56 156 C 58 154 58 148 57 138 C 54 105 55 103 75 105 C 94 108 96 107 99 99 C 102 87 96 82 79 85 C 63 87 60 86 57 80 C 55 77 55 76 55 69 C 55 60 56 58 59 55 C 61 53 69 52 75 54 C 77 54 82 54 87 54 C 99 55 101 53 101 42 C 101 31 98 30 84 31 z" fill="black"/><!-- width=113 height=170 -->
<path id="gl28672" d="M 44 8 C 42 8 39 9 37 9 C 36 10 33 10 32 10 C 24 12 15 21 12 30 C 10 39 15 43 25 41 C 29 40 30 39 33 34 C 39 24 49 22 54 32 C 58 42 51 49 34 51 C 32 51 30 52 28 52 C 27 53 25 54 24 55 C 19 56 15 60 12 64 C 12 65 11 66 10 67 C 10 70 10 73 10 76 C 10 85 10 85 12 90 C 18 105 33 109 46 100 C 51 97 54 96 57 99 C 61 102 64 103 69 103 C 78 103 81 100 79 93 C 77 85 76 84 76 56 C 76 46 76 37 76 28 C 76 27 75 25 75 24 C 73 18 69 13 61 10 C 57 9 50 7 49 7 C 48 7 46 7 44 8 M 52 64 C 55 66 56 67 55 72 C 55 83 45 90 37 85 C 31 81 30 73 35 67 C 39 63 48 61 52 64 z" fill="black"/><!-- width=93 height=116 -->
<path id="gl26891" d="M 16 14 C 11 17 12 21 17 29 C 30 50 33 58 31 64 C 30 69 21 84 16 91 C 10 99 10 105 13 108 C 15 109 16 109 22 109 C 33 109 35 108 38 97 C 40 87 45 84 50 86 C 54 88 55 90 56 95 C 58 106 61 109 71 109 C 79 109 83 107 83 103 C 83 100 82 99 78 91 C 61 65 61 63 63 56 C 63 53 76 31 80 25 C 85 18 82 13 72 13 C 62 13 59 15 56 25 C 53 34 49 37 43 34 C 41 32 40 30 38 24 C 36 15 33 13 24 13 C 18 13 18 13 16 14 z" fill="black"/><!-- width=94 height=123 -->
<path id="gl28451" d="M 21 14 C 15 15 14 18 14 28 C 13 40 16 43 27 43 C 38 43 40 40 40 28 C 40 19 39 16 36 15 C 34 13 25 13 21 14 M 18 75 C 14 76 13 82 13 93 C 13 102 16 103 27 103 C 37 103 39 102 40 91 C 40 81 40 79 37 76 C 37 75 36 75 36 74 C 33 74 30 74 27 74 C 22 74 19 74 18 75 z" fill="black"/><!-- width=54 height=118 -->
<path id="gl28452" d="M 40 23 C 38 24 37 25 35 30 C 31 39 28 40 19 42 C 10 43 7 46 7 52 C 7 61 9 62 20 62 C 33 62 33 59 31 100 C 31 141 31 139 32 141 C 36 148 51 148 55 141 C 55 141 56 140 57 139 C 56 133 56 128 56 123 C 55 106 55 48 56 34 C 57 25 54 22 46 22 C 43 22 42 22 40 23 z" fill="black"/><!-- width=81 height=160 -->
<path id="gl26402" d="M 16 17 C 15 19 13 22 14 27 C 15 33 18 35 25 34 C 36 34 39 33 48 34 C 59 35 61 34 63 31 C 65 28 64 18 60 16 C 60 16 53 16 39 16 C 18 16 18 16 16 17 z" fill="black"/><!-- width=78 height=51 -->
<path id="gl26892" d="M 40 12 C 24 16 15 28 16 45 C 16 51 16 52 22 61 C 24 64 25 67 25 68 C 25 70 22 75 19 78 C 11 88 10 105 16 118 C 19 123 26 130 30 133 C 43 140 67 138 78 129 C 81 126 88 116 90 112 C 92 108 93 87 91 82 C 90 80 90 79 88 79 C 84 79 77 73 77 69 C 77 66 78 64 81 60 C 83 58 85 55 86 54 C 90 49 90 43 84 30 C 80 21 75 16 64 13 C 59 11 47 11 40 12 M 55 29 C 67 32 68 53 57 60 C 51 64 43 61 40 54 C 38 49 38 39 40 36 C 43 30 49 27 55 29 M 57 78 C 64 82 66 88 66 100 C 65 115 58 121 47 118 C 34 115 32 87 44 79 C 48 76 54 76 57 78 z" fill="black"/><!-- width=105 height=150 -->
<path id="gl26881" d="M 44 12 C 36 14 33 16 29 19 C 23 25 18 36 16 44 C 15 49 14 101 15 106 C 19 129 40 141 64 134 C 75 131 82 124 86 114 C 87 112 89 108 90 106 C 94 99 95 96 94 70 C 94 63 94 57 94 51 C 93 49 92 47 91 45 C 90 42 88 37 87 33 C 84 25 81 21 76 18 C 67 11 55 9 44 12 M 59 31 C 63 33 66 37 67 46 C 68 52 68 94 67 101 C 65 112 60 118 52 118 C 45 118 41 113 39 101 C 38 97 37 92 38 72 C 38 64 38 56 38 48 C 39 46 39 45 40 43 C 42 36 43 34 46 31 C 49 28 54 28 59 31 z" fill="black"/><!-- width=108 height=148 -->
<path id="gl26881" d="M 44 12 C 36 14 33 16 29 19 C 23 25 18 36 16 44 C 15 49 14 101 15 106 C 19 129 40 141 64 134 C 75 131 82 124 86 114 C 87 112 89 108 90 106 C 94 99 95 96 94 70 C 94 63 94 57 94 51 C 93 49 92 47 91 45 C 90 42 88 37 87 33 C 84 25 81 21 76 18 C 67 11 55 9 44 12 M 59 31 C 63 33 66 37 67 46 C 68 52 68 94 67 101 C 65 112 60 118 52 118 C 45 118 41 113 39 101 C 38 97 37 92 38 72 C 38 64 38 56 38 48 C 39 46 39 45 40 43 C 42 36 43 34 46 31 C 49 28 54 28 59 31 z" fill="black"/><!-- width=108 height=148 -->
<path id="gl26893" d="M 12 15 C 11 16 11 29 12 31 C 12 33 12 33 13 34 C 15 33 16 33 18 33 C 24 33 47 33 52 33 C 58 34 60 32 60 25 C 60 16 58 13 51 14 C 42 14 24 14 18 13 C 13 13 13 13 12 15 z" fill="black"/><!-- width=71 height=47 -->
<path id="gl28453" d="M 34 13 C 31 13 28 15 27 15 C 15 20 6 42 12 49 C 14 52 14 52 18 52 C 26 52 30 50 33 42 C 34 37 36 34 39 33 C 48 25 58 33 57 48 C 56 57 52 62 44 63 C 36 65 34 67 34 73 C 34 78 36 81 41 82 C 43 82 46 82 47 82 C 60 84 63 108 52 116 C 47 120 40 118 36 114 C 34 111 34 111 31 103 C 30 98 28 97 22 96 C 9 95 4 100 9 113 C 16 133 36 141 60 135 C 68 132 76 125 81 114 C 84 109 84 109 84 105 C 82 90 81 87 75 81 C 69 74 69 71 73 64 C 82 49 82 46 79 36 C 75 22 69 16 58 13 C 49 11 42 11 34 13 z" fill="black"/><!-- width=101 height=150 -->
<path id="gl26895" d="M 46 10 C 36 12 24 18 21 24 C 14 34 12 42 13 57 C 13 73 15 79 22 85 C 30 93 37 94 49 91 C 56 90 60 90 62 91 C 69 95 64 113 55 116 C 49 118 43 117 40 112 C 36 104 33 102 24 103 C 15 103 13 105 14 112 C 18 129 37 138 60 133 C 73 131 79 126 85 112 C 87 108 89 105 90 105 C 90 105 91 106 93 106 C 96 110 97 108 97 96 C 97 82 97 79 93 79 C 90 78 89 76 89 62 C 89 43 85 28 78 20 C 73 15 54 9 46 10 M 54 29 C 57 30 61 33 63 36 C 64 40 65 63 63 67 C 60 74 55 77 48 75 C 40 74 35 66 35 53 C 35 36 43 26 54 29 z" fill="black"/><!-- width=108 height=147 -->
<path id="gl26896" d="M 50 10 C 44 11 42 13 36 27 C 34 33 30 40 28 43 C 27 47 23 52 21 56 C 19 59 16 65 14 68 C 9 77 9 78 9 94 C 9 113 8 112 17 111 C 26 109 27 109 33 109 C 40 108 43 109 45 112 C 47 114 47 114 47 121 C 47 130 48 132 52 133 C 57 136 65 135 68 130 C 69 129 69 128 69 122 C 69 114 70 112 75 110 C 80 107 81 105 81 99 C 81 93 80 92 75 90 C 68 87 68 87 68 60 C 68 48 69 33 69 27 C 70 12 69 10 58 10 C 55 10 51 10 50 10 M 46 60 C 49 65 48 82 45 86 C 43 90 37 91 33 89 C 28 87 27 82 30 75 C 36 60 43 53 46 60 z" fill="black"/><!-- width=93 height=148 -->
<path id="gl26402" d="M 16 17 C 15 19 13 22 14 27 C 15 33 18 35 25 34 C 36 34 39 33 48 34 C 59 35 61 34 63 31 C 65 28 64 18 60 16 C 60 16 53 16 39 16 C 18 16 18 16 16 17 z" fill="black"/><!-- width=78 height=51 -->
<path id="gl28673" d="M 46 10 C 30 13 24 19 18 36 C 16 43 15 46 15 73 C 13 94 14 100 19 112 C 23 123 27 127 37 130 C 53 135 58 135 70 130 C 79 126 85 120 88 112 C 88 109 90 107 90 106 C 92 104 91 80 89 73 C 87 64 85 62 78 57 C 72 52 64 51 54 54 C 43 57 38 55 38 45 C 38 39 40 35 43 31 C 51 24 58 25 64 33 C 69 39 72 42 79 42 C 83 42 87 40 88 39 C 89 38 90 38 92 38 C 94 39 94 39 95 37 C 96 34 94 32 93 32 C 90 32 90 32 88 28 C 86 24 82 18 78 16 C 72 10 56 7 46 10 M 59 70 C 66 73 70 86 67 100 C 64 117 48 121 41 107 C 39 102 38 82 40 78 C 45 69 52 66 59 70 M 94 114 C 93 116 93 117 94 118 C 94 120 96 118 95 115 C 94 114 94 113 94 112 C 94 112 94 114 94 114 z" fill="black"/><!-- width=104 height=146 -->
<path id="gl28674" d="M 19 19 C 4 33 4 52 19 52 C 24 52 28 48 28 38 C 33 24 52 24 52 43 C 57 52 52 62 33 81 C 14 100 9 110 9 120 C 9 124 9 129 9 134 C 19 134 33 129 43 129 C 76 129 81 129 81 120 C 81 110 76 110 62 110 C 38 110 38 105 62 81 C 76 62 81 57 81 43 C 81 9 43 0 19 19 z" fill="black"/><!-- width=96 height=144 -->
<path id="gl26887" d="M 36 13 C 28 15 27 16 23 19 C 12 29 9 47 16 58 C 23 67 23 70 15 79 C 10 85 10 87 10 99 C 10 114 12 118 20 127 C 25 132 27 133 35 135 C 45 138 55 137 66 133 C 72 132 76 127 82 119 C 84 116 87 112 88 111 C 88 110 89 109 90 108 C 90 105 90 102 90 99 C 90 89 90 82 88 80 C 88 79 88 79 86 80 C 82 82 74 75 74 69 C 74 65 75 63 84 52 C 87 49 86 48 83 37 C 79 25 75 19 69 16 C 59 12 47 10 36 13 M 55 31 C 64 37 63 55 53 61 C 44 65 36 59 35 47 C 34 39 37 33 43 30 C 46 29 52 29 55 31 M 52 79 C 67 84 67 114 52 118 C 42 121 34 114 33 100 C 31 85 41 75 52 79 z" fill="black"/><!-- width=99 height=150 -->
<path id="gl28675" d="M 24 14 C 0 24 0 110 19 129 C 33 139 57 134 67 120 C 91 91 76 52 43 52 C 24 57 19 43 33 28 C 38 24 43 24 48 38 C 62 48 72 48 72 33 C 72 14 48 0 24 14 M 48 81 C 57 96 52 115 38 110 C 28 110 24 86 33 76 C 38 67 43 67 48 81 z" fill="black"/><!-- width=91 height=144 -->
</defs>
<use xlink:href="#gl28425" x="0" y="12"/>
<use xlink:href="#gl28426" x="101" y="43"/>
<use xlink:href="#gl26114" x="173" y="30"/>
<use xlink:href="#gl26628" x="260" y="33"/>
<use xlink:href="#gl28427" x="354" y="39"/>
<use xlink:href="#gl28428" x="429" y="32"/>
<use xlink:href="#gl26631" x="516" y="0"/>
<use xlink:href="#gl28429" x="600" y="29"/>
<use xlink:href="#gl28430" x="622" y="32"/>
<use xlink:href="#gl28431" x="705" y="33"/>
<use xlink:href="#gl28432" x="732" y="1"/>
<use xlink:href="#gl28433" x="808" y="20"/>
<use xlink:href="#gl19729" x="896" y="135"/>
<use xlink:href="#gl28431" x="965" y="35"/>
<use xlink:href="#gl26635" x="998" y="36"/>
<use xlink:href="#gl28434" x="1095" y="38"/>
<use xlink:href="#gl2844" x="1171" y="134"/>
<use xlink:href="#gl25116" x="1213" y="131"/>
<use xlink:href="#gl28435" x="1296" y="43"/>
<use xlink:href="#gl26636" x="1362" y="35"/>
<use xlink:href="#gl26626" x="1436" y="11"/>
<use xlink:href="#gl26631" x="1519" y="1"/>
<use xlink:href="#gl2844" x="1602" y="135"/>
<use xlink:href="#gl26641" x="1673" y="36"/>
<use xlink:href="#gl26639" x="1746" y="37"/>
<use xlink:href="#gl26634" x="1849" y="132"/>
<use xlink:href="#gl26626" x="1902" y="11"/>
<use xlink:href="#gl2844" x="1982" y="135"/>
<use xlink:href="#gl26651" x="2018" y="36"/>
<use xlink:href="#gl2844" x="2109" y="135"/>
<use xlink:href="#gl28436" x="2181" y="36"/>
<use xlink:href="#gl26651" x="2268" y="36"/>
<use xlink:href="#gl26642" x="2356" y="36"/>
<use xlink:href="#gl26643" x="2484" y="30"/>
<use xlink:href="#gl26645" x="2558" y="43"/>
<use xlink:href="#gl26645" x="2634" y="42"/>
<use xlink:href="#gl26646" x="2704" y="38"/>
<use xlink:href="#gl28437" x="2776" y="42"/>
<use xlink:href="#gl26634" x="2865" y="133"/>
<use xlink:href="#gl26626" x="2921" y="12"/>
<use xlink:href="#gl26114" x="3006" y="32"/>
<use xlink:href="#gl28438" x="3106" y="43"/>
<use xlink:href="#gl26631" x="3176" y="1"/>
<use xlink:href="#gl28439" x="3236" y="43"/>
<use xlink:href="#gl28440" x="3321" y="43"/>
<use xlink:href="#gl26635" x="3410" y="37"/>
<use xlink:href="#gl26628" x="3490" y="34"/>
<use xlink:href="#gl26634" x="3594" y="133"/>
<use xlink:href="#gl26651" x="3663" y="36"/>
<use xlink:href="#gl26627" x="3748" y="27"/>
<use xlink:href="#gl28441" x="3879" y="43"/>
<use xlink:href="#gl28442" x="3960" y="48"/>
<use xlink:href="#gl28443" x="4032" y="48"/>
<use xlink:href="#gl28444" x="4114" y="31"/>
<use xlink:href="#gl28445" x="4186" y="40"/>
<use xlink:href="#gl3333" x="4263" y="105"/>
<use xlink:href="#gl28446" x="4315" y="44"/>
<use xlink:href="#gl28447" x="4397" y="48"/>
<use xlink:href="#gl28448" x="4471" y="39"/>
<use xlink:href="#gl28449" x="4551" y="48"/>
<use xlink:href="#gl25377" x="589" y="196"/>
<use xlink:href="#gl26658" x="677" y="260"/>
<use xlink:href="#gl28450" x="762" y="234"/>
<use xlink:href="#gl26658" x="798" y="261"/>
<use xlink:href="#gl26660" x="870" y="250"/>
<use xlink:href="#gl25378" x="957" y="233"/>
<use xlink:href="#gl26661" x="1049" y="262"/>
<use xlink:href="#gl25615" x="1132" y="254"/>
<use xlink:href="#gl26658" x="1214" y="261"/>
<use xlink:href="#gl28451" x="1298" y="265"/>
<use xlink:href="#gl28452" x="1387" y="225"/>
<use xlink:href="#gl26402" x="1462" y="296"/>
<use xlink:href="#gl26887" x="1525" y="235"/>
<use xlink:href="#gl26881" x="1601" y="237"/>
<use xlink:href="#gl26881" x="1682" y="236"/>
<use xlink:href="#gl26893" x="1773" y="299"/>
<use xlink:href="#gl28453" x="1833" y="236"/>
<use xlink:href="#gl26895" x="1911" y="237"/>
<use xlink:href="#gl26896" x="2001" y="237"/>
<use xlink:href="#gl26402" x="2076" y="297"/>
<use xlink:href="#gl28454" x="2136" y="237"/>
<use xlink:href="#gl26887" x="2225" y="236"/>
<use xlink:href="#gl28455" x="2314" y="245"/>
<use xlink:href="#gl28456" x="2384" y="238"/>
<use xlink:href="#gl26889" x="2616" y="214"/>
<use xlink:href="#gl28672" x="2711" y="269"/>
<use xlink:href="#gl26891" x="2788" y="263"/>
<use xlink:href="#gl28451" x="2870" y="267"/>
<use xlink:href="#gl28452" x="2957" y="225"/>
<use xlink:href="#gl26402" x="3032" y="297"/>
<use xlink:href="#gl26892" x="3091" y="235"/>
<use xlink:href="#gl26881" x="3171" y="236"/>
<use xlink:href="#gl26881" x="3252" y="236"/>
<use xlink:href="#gl26893" x="3342" y="298"/>
<use xlink:href="#gl28453" x="3403" y="236"/>
<use xlink:href="#gl26895" x="3480" y="237"/>
<use xlink:href="#gl26896" x="3571" y="237"/>
<use xlink:href="#gl26402" x="3647" y="297"/>
<use xlink:href="#gl28673" x="3707" y="239"/>
<use xlink:href="#gl28674" x="3797" y="240"/>
<use xlink:href="#gl26887" x="3876" y="236"/>
<use xlink:href="#gl28675" x="3965" y="240"/>
</svg>
