<?xml version='1.0' encoding='utf-8'?>
<svg xmlns="http://www.w3.org/2000/svg" xmlns:xlink="http://www.w3.org/1999/xlink" width="386px" height="19px" viewBox="0 0 3861 199" version="1.1">
<defs>
<path id="gl3092" d="M 51 9 C 40 10 34 13 26 24 C 13 41 9 78 16 107 C 20 120 30 133 38 138 C 45 141 58 141 66 139 C 78 135 88 121 92 105 C 95 94 95 90 96 80 C 97 36 79 6 51 9 M 58 20 C 75 25 83 74 72 110 C 69 120 61 129 54 130 C 40 130 31 108 31 74 C 31 38 43 15 58 20 z" fill="black"/><!-- width=109 height=151 -->
<path id="gl3096" d="M 92 6 C 66 12 40 33 28 59 C 14 87 14 115 27 135 C 31 141 43 148 51 150 C 55 151 69 150 73 149 C 91 145 103 127 103 108 C 103 87 91 72 73 71 C 62 70 52 75 54 81 C 55 82 57 83 63 84 C 77 85 85 98 83 115 C 81 129 72 139 62 138 C 43 136 33 112 39 82 C 45 56 57 38 79 27 C 81 25 84 24 85 23 C 87 22 89 21 92 20 C 100 16 103 12 101 9 C 99 6 96 5 92 6 z" fill="black"/><!-- width=117 height=180 -->
<path id="gl3092" d="M 51 9 C 40 10 34 13 26 24 C 13 41 9 78 16 107 C 20 120 30 133 38 138 C 45 141 58 141 66 139 C 78 135 88 121 92 105 C 95 94 95 90 96 80 C 97 36 79 6 51 9 M 58 20 C 75 25 83 74 72 110 C 69 120 61 129 54 130 C 40 130 31 108 31 74 C 31 38 43 15 58 20 z" fill="black"/><!-- width=109 height=151 -->
<path id="gl3842" d="M 38 4 C 9 9 0 57 19 57 C 72 57 72 110 19 134 C 4 139 0 144 4 148 C 9 148 19 148 38 139 C 91 115 91 57 43 48 C 14 43 19 24 48 24 C 62 24 72 14 72 4 C 72 0 62 0 38 4 z" fill="black"/><!-- width=86 height=158 -->
<path id="gl3092" d="M 51 9 C 40 10 34 13 26 24 C 13 41 9 78 16 107 C 20 120 30 133 38 138 C 45 141 58 141 66 139 C 78 135 88 121 92 105 C 95 94 95 90 96 80 C 97 36 79 6 51 9 M 58 20 C 75 25 83 74 72 110 C 69 120 61 129 54 130 C 40 130 31 108 31 74 C 31 38 43 15 58 20 z" fill="black"/><!-- width=109 height=151 -->
<path id="gl3843" d="M 75 5 C 73 6 69 10 67 13 C 67 15 65 18 63 20 C 61 22 59 26 58 29 C 56 31 54 35 52 37 C 51 39 49 42 47 45 C 43 50 42 52 35 60 C 33 63 30 67 27 70 C 25 73 21 80 18 85 C 6 102 4 105 8 109 C 9 110 10 110 33 110 C 41 110 49 110 57 110 C 57 111 58 111 58 111 C 65 116 64 129 57 135 C 56 136 53 137 51 139 C 45 141 45 142 45 145 C 45 148 46 149 68 148 C 91 148 91 148 91 144 C 91 142 90 141 85 136 C 82 134 81 132 79 126 C 78 117 81 111 87 110 C 97 109 99 102 90 99 C 84 98 83 97 81 96 C 80 95 79 94 79 93 C 79 88 79 84 79 79 C 80 60 80 59 79 56 C 76 52 73 51 69 54 C 63 57 63 58 63 78 C 63 93 63 94 59 98 C 56 100 55 100 44 100 C 25 99 24 95 37 79 C 40 75 44 70 45 68 C 48 64 51 60 57 53 C 59 51 63 45 67 39 C 70 34 74 29 78 25 C 84 18 87 10 87 7 C 86 4 79 3 75 5 z" fill="black"/><!-- width=118 height=179 -->
<path id="gl3608" d="M 44 8 C 31 9 22 15 15 24 C 12 31 10 34 12 38 C 14 44 18 43 22 37 C 35 19 55 17 63 34 C 69 48 66 64 52 84 C 36 106 30 113 18 122 C 9 129 7 132 9 136 C 10 139 10 139 47 139 C 58 139 69 139 81 139 C 82 138 82 138 84 137 C 91 133 98 114 92 112 C 89 111 88 111 83 115 C 76 121 72 123 59 123 C 49 124 43 123 41 120 C 39 117 41 114 52 102 C 69 85 81 67 84 55 C 90 33 79 12 61 9 C 55 7 49 7 44 8 z" fill="black"/><!-- width=111 height=157 -->
<path id="gl3606" d="M 60 31 C 58 31 55 31 51 33 C 48 33 43 34 39 34 C 18 37 17 39 11 60 C 10 65 8 71 7 73 C 5 84 7 87 16 88 C 28 90 45 96 49 99 C 57 106 60 112 60 121 C 60 133 57 141 48 150 C 42 156 24 165 18 165 C 15 165 12 166 9 169 C 3 173 4 178 11 180 C 14 180 25 178 30 176 C 31 175 34 174 36 174 C 41 172 58 160 64 154 C 69 149 75 136 77 129 C 78 125 78 112 77 108 C 75 99 66 88 57 83 C 51 79 46 78 36 75 C 31 74 27 73 26 72 C 21 70 20 61 25 57 C 28 54 40 51 49 51 C 59 51 68 47 71 41 C 75 34 71 30 60 31 z" fill="black"/><!-- width=89 height=192 -->
<path id="gl3844" d="M 24 14 C 14 19 4 38 14 38 C 14 38 19 38 28 28 C 38 19 57 19 62 38 C 67 52 52 86 24 110 C 0 134 0 139 43 139 C 76 139 86 134 86 124 C 96 115 91 105 76 115 C 62 124 43 124 43 120 C 43 115 52 100 62 86 C 86 57 91 33 72 19 C 62 4 38 4 24 14 z" fill="black"/><!-- width=100 height=144 -->
<path id="gl3843" d="M 75 5 C 73 6 69 10 67 13 C 67 15 65 18 63 20 C 61 22 59 26 58 29 C 56 31 54 35 52 37 C 51 39 49 42 47 45 C 43 50 42 52 35 60 C 33 63 30 67 27 70 C 25 73 21 80 18 85 C 6 102 4 105 8 109 C 9 110 10 110 33 110 C 41 110 49 110 57 110 C 57 111 58 111 58 111 C 65 116 64 129 57 135 C 56 136 53 137 51 139 C 45 141 45 142 45 145 C 45 148 46 149 68 148 C 91 148 91 148 91 144 C 91 142 90 141 85 136 C 82 134 81 132 79 126 C 78 117 81 111 87 110 C 97 109 99 102 90 99 C 84 98 83 97 81 96 C 80 95 79 94 79 93 C 79 88 79 84 79 79 C 80 60 80 59 79 56 C 76 52 73 51 69 54 C 63 57 63 58 63 78 C 63 93 63 94 59 98 C 56 100 55 100 44 100 C 25 99 24 95 37 79 C 40 75 44 70 45 68 C 48 64 51 60 57 53 C 59 51 63 45 67 39 C 70 34 74 29 78 25 C 84 18 87 10 87 7 C 86 4 79 3 75 5 z" fill="black"/><!-- width=118 height=179 -->
<path id="gl3608" d="M 44 8 C 31 9 22 15 15 24 C 12 31 10 34 12 38 C 14 44 18 43 22 37 C 35 19 55 17 63 34 C 69 48 66 64 52 84 C 36 106 30 113 18 122 C 9 129 7 132 9 136 C 10 139 10 139 47 139 C 58 139 69 139 81 139 C 82 138 82 138 84 137 C 91 133 98 114 92 112 C 89 111 88 111 83 115 C 76 121 72 123 59 123 C 49 124 43 123 41 120 C 39 117 41 114 52 102 C 69 85 81 67 84 55 C 90 33 79 12 61 9 C 55 7 49 7 44 8 z" fill="black"/><!-- width=111 height=157 -->
<path id="gl3094" d="M 39 19 C 28 22 19 29 15 37 C 13 42 14 45 18 47 C 20 48 22 47 28 41 C 40 30 51 28 57 37 C 66 49 56 65 34 73 C 23 76 19 81 19 85 C 19 92 25 93 34 88 C 42 83 49 82 56 84 C 70 88 75 114 65 129 C 64 130 61 134 58 137 C 45 149 37 151 27 144 C 21 140 20 139 16 139 C 7 139 3 148 10 156 C 19 166 37 165 60 153 C 72 147 85 130 88 116 C 90 111 90 100 90 96 C 88 87 82 80 73 75 C 65 70 64 68 71 61 C 80 51 82 40 77 30 C 72 20 55 15 39 19 z" fill="black"/><!-- width=114 height=174 -->
<path id="gl3608" d="M 44 8 C 31 9 22 15 15 24 C 12 31 10 34 12 38 C 14 44 18 43 22 37 C 35 19 55 17 63 34 C 69 48 66 64 52 84 C 36 106 30 113 18 122 C 9 129 7 132 9 136 C 10 139 10 139 47 139 C 58 139 69 139 81 139 C 82 138 82 138 84 137 C 91 133 98 114 92 112 C 89 111 88 111 83 115 C 76 121 72 123 59 123 C 49 124 43 123 41 120 C 39 117 41 114 52 102 C 69 85 81 67 84 55 C 90 33 79 12 61 9 C 55 7 49 7 44 8 z" fill="black"/><!-- width=111 height=157 -->
<path id="gl3608" d="M 44 8 C 31 9 22 15 15 24 C 12 31 10 34 12 38 C 14 44 18 43 22 37 C 35 19 55 17 63 34 C 69 48 66 64 52 84 C 36 106 30 113 18 122 C 9 129 7 132 9 136 C 10 139 10 139 47 139 C 58 139 69 139 81 139 C 82 138 82 138 84 137 C 91 133 98 114 92 112 C 89 111 88 111 83 115 C 76 121 72 123 59 123 C 49 124 43 123 41 120 C 39 117 41 114 52 102 C 69 85 81 67 84 55 C 90 33 79 12 61 9 C 55 7 49 7 44 8 z" fill="black"/><!-- width=111 height=157 -->
<path id="gl3608" d="M 44 8 C 31 9 22 15 15 24 C 12 31 10 34 12 38 C 14 44 18 43 22 37 C 35 19 55 17 63 34 C 69 48 66 64 52 84 C 36 106 30 113 18 122 C 9 129 7 132 9 136 C 10 139 10 139 47 139 C 58 139 69 139 81 139 C 82 138 82 138 84 137 C 91 133 98 114 92 112 C 89 111 88 111 83 115 C 76 121 72 123 59 123 C 49 124 43 123 41 120 C 39 117 41 114 52 102 C 69 85 81 67 84 55 C 90 33 79 12 61 9 C 55 7 49 7 44 8 z" fill="black"/><!-- width=111 height=157 -->
<path id="gl3331" d="M 32 10 C 28 12 25 13 20 13 C 15 15 14 15 12 17 C 9 21 10 24 18 26 C 24 27 25 28 27 32 C 27 33 28 34 28 36 C 28 49 28 63 28 76 C 28 99 28 118 28 120 C 27 124 24 127 19 129 C 13 131 12 135 16 138 C 18 139 53 139 57 137 C 61 135 60 131 54 129 C 49 127 47 125 46 121 C 45 119 45 115 45 72 C 45 46 45 23 45 21 C 46 14 45 10 42 8 C 40 7 38 7 32 10 z" fill="black"/><!-- width=71 height=151 -->
<path id="gl3608" d="M 44 8 C 31 9 22 15 15 24 C 12 31 10 34 12 38 C 14 44 18 43 22 37 C 35 19 55 17 63 34 C 69 48 66 64 52 84 C 36 106 30 113 18 122 C 9 129 7 132 9 136 C 10 139 10 139 47 139 C 58 139 69 139 81 139 C 82 138 82 138 84 137 C 91 133 98 114 92 112 C 89 111 88 111 83 115 C 76 121 72 123 59 123 C 49 124 43 123 41 120 C 39 117 41 114 52 102 C 69 85 81 67 84 55 C 90 33 79 12 61 9 C 55 7 49 7 44 8 z" fill="black"/><!-- width=111 height=157 -->
<path id="gl3092" d="M 51 9 C 40 10 34 13 26 24 C 13 41 9 78 16 107 C 20 120 30 133 38 138 C 45 141 58 141 66 139 C 78 135 88 121 92 105 C 95 94 95 90 96 80 C 97 36 79 6 51 9 M 58 20 C 75 25 83 74 72 110 C 69 120 61 129 54 130 C 40 130 31 108 31 74 C 31 38 43 15 58 20 z" fill="black"/><!-- width=109 height=151 -->
</defs>
<use xlink:href="#gl3092" x="0" y="28"/>
<use xlink:href="#gl3096" x="97" y="19"/>
<use xlink:href="#gl3092" x="366" y="27"/>
<use xlink:href="#gl3842" x="479" y="32"/>
<use xlink:href="#gl3092" x="731" y="26"/>
<use xlink:href="#gl3843" x="831" y="18"/>
<use xlink:href="#gl3608" x="1827" y="26"/>
<use xlink:href="#gl3606" x="1937" y="0"/>
<use xlink:href="#gl3844" x="2193" y="27"/>
<use xlink:href="#gl3843" x="2289" y="15"/>
<use xlink:href="#gl3608" x="2556" y="24"/>
<use xlink:href="#gl3094" x="2657" y="15"/>
<use xlink:href="#gl3608" x="2921" y="25"/>
<use xlink:href="#gl3608" x="3022" y="23"/>
<use xlink:href="#gl3608" x="3290" y="23"/>
<use xlink:href="#gl3331" x="3403" y="25"/>
<use xlink:href="#gl3608" x="3656" y="23"/>
<use xlink:href="#gl3092" x="3752" y="22"/>
</svg>
