<?xml version='1.0' encoding='utf-8'?>
<svg xmlns="http://www.w3.org/2000/svg" xmlns:xlink="http://www.w3.org/1999/xlink" width="310px" height="68px" viewBox="0 0 3102 688" version="1.1">
<defs>
<path id="gl3343" d="M 0 9 C 0 9 4 14 9 19 C 19 28 19 129 14 134 C 0 144 9 144 43 144 C 76 144 81 144 91 134 C 105 115 105 96 91 81 C 81 72 81 72 86 57 C 96 38 91 19 76 14 C 62 4 0 4 0 9 M 67 33 C 76 48 67 67 48 67 C 38 67 33 67 33 48 C 33 14 52 4 67 33 M 76 91 C 86 105 86 115 76 124 C 52 148 33 134 33 100 C 33 96 33 86 33 76 C 43 76 48 81 52 81 C 62 81 72 86 76 91 z" fill="black"/><!-- width=115 height=158 -->
<path id="gl2572" d="M 45 12 C 25 17 13 34 13 56 C 13 70 16 78 25 87 C 34 96 40 98 55 98 C 67 98 72 96 80 89 C 94 77 100 51 91 33 C 82 16 63 7 45 12 M 61 24 C 77 31 82 60 71 78 C 64 90 49 90 40 80 C 28 68 28 39 39 28 C 46 21 52 19 61 24 z" fill="black"/><!-- width=109 height=111 -->
<path id="gl2572" d="M 45 12 C 25 17 13 34 13 56 C 13 70 16 78 25 87 C 34 96 40 98 55 98 C 67 98 72 96 80 89 C 94 77 100 51 91 33 C 82 16 63 7 45 12 M 61 24 C 77 31 82 60 71 78 C 64 90 49 90 40 80 C 28 68 28 39 39 28 C 46 21 52 19 61 24 z" fill="black"/><!-- width=109 height=111 -->
<path id="gl2821" d="M 52 7 C 49 8 39 13 39 14 C 37 17 37 19 40 25 C 44 34 44 33 45 84 C 45 138 45 138 38 144 C 34 148 34 150 34 152 C 35 155 38 156 50 156 C 69 156 73 154 67 145 C 61 138 60 130 61 121 C 63 111 72 114 83 132 C 88 139 88 139 88 145 C 88 155 91 156 110 156 C 123 156 125 155 126 153 C 129 149 126 146 120 142 C 114 139 109 135 101 127 C 84 110 82 106 86 100 C 88 95 105 84 115 79 C 123 76 124 74 121 70 C 120 66 117 66 105 66 C 87 67 85 68 87 77 C 87 81 87 84 83 89 C 76 99 69 104 64 101 C 61 99 60 96 61 67 C 63 37 63 13 62 10 C 60 7 57 6 52 7 z" fill="black"/><!-- width=139 height=195 -->
<path id="gl3072" d="M 47 9 C 29 10 10 29 19 36 C 23 40 30 36 34 28 C 39 20 45 17 51 21 C 61 25 61 46 52 51 C 51 51 46 52 40 54 C 21 60 15 64 16 77 C 17 88 24 93 35 93 C 37 93 39 93 42 93 C 44 92 46 91 48 90 C 55 87 57 86 61 88 C 71 94 75 95 82 91 C 91 87 92 82 84 80 C 75 78 74 78 74 49 C 75 25 74 24 71 18 C 67 11 58 7 47 9 M 55 59 C 61 62 60 75 53 79 C 45 85 34 81 34 72 C 34 64 48 55 55 59 z" fill="black"/><!-- width=105 height=114 -->
<path id="gl2561" d="M 30 16 C 25 18 22 20 21 22 C 19 25 19 26 24 36 C 25 38 25 39 25 60 C 25 85 25 84 20 90 C 15 95 15 97 18 100 C 18 100 19 100 19 101 C 24 101 29 101 34 101 C 39 101 43 101 48 101 C 49 100 49 100 50 100 C 53 97 52 95 47 90 C 42 85 42 83 42 61 C 42 54 42 48 42 42 C 43 40 43 39 44 37 C 51 24 75 25 80 39 C 81 42 81 45 81 57 C 82 79 81 85 76 90 C 70 94 70 98 73 100 C 76 102 100 102 103 100 C 108 98 108 94 103 91 C 102 90 100 87 99 85 C 99 84 98 83 97 82 C 97 74 97 66 97 58 C 97 39 97 35 96 32 C 91 15 74 10 55 19 C 48 22 46 22 42 18 C 38 14 36 13 30 16 z" fill="black"/><!-- width=120 height=116 -->
<path id="gl2569" d="M 79 8 C 78 8 74 9 72 11 C 63 15 62 18 66 26 C 69 33 70 38 70 51 C 70 68 70 69 55 70 C 37 70 25 76 16 90 C 4 109 7 138 24 149 C 34 156 44 157 56 154 C 64 151 66 151 69 153 C 75 158 78 158 91 154 C 102 150 103 144 94 140 C 91 138 90 138 88 135 C 88 135 88 133 87 133 C 87 123 87 112 87 102 C 87 85 87 58 88 43 C 88 13 88 11 86 9 C 84 7 82 7 79 8 M 59 81 C 63 82 66 85 68 90 C 69 91 69 92 70 93 C 70 99 70 105 70 110 C 70 132 69 136 63 139 C 59 141 47 141 42 138 C 21 128 23 90 45 82 C 48 81 55 81 59 81 z" fill="black"/><!-- width=119 height=198 -->
<path id="gl2850" d="M 64 9 C 51 12 42 16 36 25 C 16 51 26 87 55 94 C 63 96 76 95 84 91 C 99 84 104 72 94 70 C 92 69 91 70 88 72 C 82 77 81 77 78 79 C 58 84 42 70 42 50 C 42 26 64 13 81 26 C 90 33 97 30 97 21 C 97 15 93 12 87 10 C 84 9 68 8 64 9 z" fill="black"/><!-- width=111 height=111 -->
<path id="gl2572" d="M 45 12 C 25 17 13 34 13 56 C 13 70 16 78 25 87 C 34 96 40 98 55 98 C 67 98 72 96 80 89 C 94 77 100 51 91 33 C 82 16 63 7 45 12 M 61 24 C 77 31 82 60 71 78 C 64 90 49 90 40 80 C 28 68 28 39 39 28 C 46 21 52 19 61 24 z" fill="black"/><!-- width=109 height=111 -->
<path id="gl2839" d="M 86 28 C 75 28 72 33 78 39 C 82 44 83 47 79 56 C 78 58 76 64 74 69 C 70 81 69 82 65 82 C 61 82 59 78 51 57 C 47 45 47 43 50 38 C 53 33 52 31 48 29 C 44 28 22 28 20 30 C 16 31 16 36 21 39 C 27 44 30 48 37 64 C 39 69 42 77 44 82 C 46 87 49 95 51 100 C 55 112 58 115 63 114 C 66 112 68 110 71 100 C 73 96 77 87 81 80 C 84 73 88 64 90 60 C 94 51 96 48 102 42 C 106 37 106 36 106 34 C 106 29 102 27 86 28 z" fill="black"/><!-- width=120 height=127 -->
<path id="gl2841" d="M 55 15 C 34 19 19 46 25 71 C 28 87 42 100 58 101 C 76 102 98 88 91 79 C 89 78 86 78 81 81 C 64 92 43 83 40 63 C 39 55 40 50 45 48 C 46 47 48 47 66 48 C 88 48 89 48 92 44 C 96 39 90 25 82 19 C 75 15 64 13 55 15 M 67 25 C 75 29 74 37 66 39 C 54 43 45 40 46 34 C 48 26 60 22 67 25 z" fill="black"/><!-- width=109 height=114 -->
<path id="gl2337" d="M 40 25 C 32 30 31 33 36 40 C 36 42 37 44 38 46 C 38 52 38 59 38 66 C 39 91 38 93 32 99 C 28 103 27 106 31 108 C 33 110 63 110 66 109 C 71 106 70 102 64 100 C 55 97 54 94 54 73 C 54 41 57 36 70 40 C 81 44 87 41 87 33 C 87 23 78 20 66 27 C 60 30 58 30 54 26 C 50 22 48 22 40 25 z" fill="black"/><!-- width=103 height=126 -->
<path id="gl2569" d="M 79 8 C 78 8 74 9 72 11 C 63 15 62 18 66 26 C 69 33 70 38 70 51 C 70 68 70 69 55 70 C 37 70 25 76 16 90 C 4 109 7 138 24 149 C 34 156 44 157 56 154 C 64 151 66 151 69 153 C 75 158 78 158 91 154 C 102 150 103 144 94 140 C 91 138 90 138 88 135 C 88 135 88 133 87 133 C 87 123 87 112 87 102 C 87 85 87 58 88 43 C 88 13 88 11 86 9 C 84 7 82 7 79 8 M 59 81 C 63 82 66 85 68 90 C 69 91 69 92 70 93 C 70 99 70 105 70 110 C 70 132 69 136 63 139 C 59 141 47 141 42 138 C 21 128 23 90 45 82 C 48 81 55 81 59 81 z" fill="black"/><!-- width=119 height=198 -->
<path id="gl2841" d="M 55 15 C 34 19 19 46 25 71 C 28 87 42 100 58 101 C 76 102 98 88 91 79 C 89 78 86 78 81 81 C 64 92 43 83 40 63 C 39 55 40 50 45 48 C 46 47 48 47 66 48 C 88 48 89 48 92 44 C 96 39 90 25 82 19 C 75 15 64 13 55 15 M 67 25 C 75 29 74 37 66 39 C 54 43 45 40 46 34 C 48 26 60 22 67 25 z" fill="black"/><!-- width=109 height=114 -->
<path id="gl2568" d="M 43 8 C 26 9 16 19 18 33 C 18 43 24 49 39 58 C 51 64 55 73 48 81 C 41 88 31 84 24 73 C 20 67 18 66 16 66 C 12 66 10 69 11 75 C 12 87 17 92 29 94 C 48 96 63 90 66 79 C 70 65 64 54 48 45 C 36 37 32 33 32 27 C 32 22 37 18 43 17 C 47 17 50 19 55 24 C 62 31 67 30 67 22 C 69 15 63 9 56 8 C 49 7 48 7 43 8 z" fill="black"/><!-- width=82 height=106 -->
<path id="gl2571" d="M 26 7 C 20 9 17 16 19 22 C 24 33 39 31 42 21 C 43 12 34 4 26 7 M 32 57 C 30 58 23 61 20 63 C 16 66 16 70 19 76 C 22 82 23 83 23 105 C 23 130 23 130 16 136 C 12 141 11 144 16 146 C 18 147 42 148 45 147 C 50 144 50 141 45 136 C 39 130 39 129 39 105 C 39 94 40 80 40 73 C 40 61 40 60 37 58 C 35 57 34 57 32 57 z" fill="black"/><!-- width=61 height=186 -->
<path id="gl2560" d="M 50 11 C 28 16 18 42 31 61 C 36 70 36 72 28 79 C 22 86 21 91 27 97 C 33 105 33 108 25 115 C 21 120 20 122 20 127 C 20 150 61 157 88 140 C 99 133 106 121 105 109 C 103 94 94 90 63 91 C 57 91 50 91 49 91 C 41 90 38 82 44 76 C 46 73 49 73 60 72 C 69 72 72 72 77 68 C 85 63 89 55 91 40 C 91 34 94 31 100 29 C 105 27 108 25 106 22 C 105 18 103 17 94 17 C 92 17 89 17 87 17 C 84 16 80 15 77 14 C 66 10 56 9 50 11 M 66 22 C 70 25 73 31 74 37 C 76 52 67 66 57 63 C 45 60 39 43 46 30 C 50 22 60 18 66 22 M 73 105 C 79 106 82 108 85 111 C 95 122 82 135 61 135 C 46 135 39 131 38 121 C 37 108 49 103 73 105 z" fill="black"/><!-- width=118 height=162 -->
<path id="gl2561" d="M 30 16 C 25 18 22 20 21 22 C 19 25 19 26 24 36 C 25 38 25 39 25 60 C 25 85 25 84 20 90 C 15 95 15 97 18 100 C 18 100 19 100 19 101 C 24 101 29 101 34 101 C 39 101 43 101 48 101 C 49 100 49 100 50 100 C 53 97 52 95 47 90 C 42 85 42 83 42 61 C 42 54 42 48 42 42 C 43 40 43 39 44 37 C 51 24 75 25 80 39 C 81 42 81 45 81 57 C 82 79 81 85 76 90 C 70 94 70 98 73 100 C 76 102 100 102 103 100 C 108 98 108 94 103 91 C 102 90 100 87 99 85 C 99 84 98 83 97 82 C 97 74 97 66 97 58 C 97 39 97 35 96 32 C 91 15 74 10 55 19 C 48 22 46 22 42 18 C 38 14 36 13 30 16 z" fill="black"/><!-- width=120 height=116 -->
<path id="gl2590" d="M 45 9 C 40 10 34 13 32 15 C 29 19 29 21 33 27 C 34 30 36 34 36 36 C 37 40 37 70 37 110 C 37 133 37 146 37 148 C 38 151 40 153 45 154 C 46 154 51 155 55 156 C 84 160 105 152 115 132 C 123 117 121 96 111 83 C 100 69 85 65 69 72 C 62 74 60 74 57 72 C 55 70 54 67 55 46 C 56 13 56 12 52 9 C 50 8 49 8 45 9 M 79 83 C 92 86 100 97 100 113 C 100 132 91 144 76 145 C 64 145 57 139 55 127 C 54 120 55 93 56 89 C 58 86 61 83 64 82 C 65 82 67 82 67 82 C 68 81 76 82 79 83 z" fill="black"/><!-- width=135 height=188 -->
<path id="gl2822" d="M 87 45 C 81 46 79 49 84 55 C 88 62 87 65 81 81 C 75 96 73 99 71 99 C 67 99 66 96 63 87 C 56 67 55 61 58 55 C 61 51 61 48 58 46 C 57 45 56 45 44 45 C 29 45 27 45 25 48 C 24 51 25 53 30 58 C 36 62 38 66 42 79 C 45 85 47 91 48 92 C 51 98 57 121 57 127 C 57 135 51 150 45 156 C 42 159 42 160 34 163 C 28 165 27 168 27 174 C 27 178 28 181 32 183 C 40 187 48 182 53 171 C 61 155 66 144 67 140 C 68 138 71 132 73 126 C 75 121 78 115 79 112 C 81 109 84 102 86 97 C 89 92 93 84 94 80 C 100 67 102 64 111 56 C 115 52 116 48 111 45 C 109 44 94 44 87 45 z" fill="black"/><!-- width=126 height=196 -->
<path id="gl3344" d="M 24 9 C 24 14 24 19 24 14 C 19 4 4 4 4 14 C 4 14 9 19 14 19 C 19 19 19 28 19 76 C 19 124 19 134 14 134 C 9 134 4 139 4 139 C 4 144 24 144 48 144 C 81 144 86 144 96 129 C 110 115 110 91 96 76 C 86 67 86 67 91 52 C 100 33 96 19 76 9 C 52 0 24 0 24 9 M 72 28 C 81 43 76 57 62 62 C 43 72 38 67 38 38 C 38 19 43 19 52 19 C 57 19 67 19 72 28 M 81 96 C 96 115 81 134 57 129 C 43 129 43 129 43 110 C 38 76 43 76 62 76 C 72 81 81 86 81 96 z" fill="black"/><!-- width=120 height=153 -->
<path id="gl2571" d="M 26 7 C 20 9 17 16 19 22 C 24 33 39 31 42 21 C 43 12 34 4 26 7 M 32 57 C 30 58 23 61 20 63 C 16 66 16 70 19 76 C 22 82 23 83 23 105 C 23 130 23 130 16 136 C 12 141 11 144 16 146 C 18 147 42 148 45 147 C 50 144 50 141 45 136 C 39 130 39 129 39 105 C 39 94 40 80 40 73 C 40 61 40 60 37 58 C 35 57 34 57 32 57 z" fill="black"/><!-- width=61 height=186 -->
<path id="gl2563" d="M 28 9 C 16 14 14 18 19 24 C 24 30 24 25 24 84 C 24 145 24 139 17 145 C 12 150 11 151 16 154 C 18 156 42 156 45 155 C 51 153 52 151 46 145 C 41 139 40 135 40 118 C 40 114 40 88 41 61 C 41 44 41 27 41 10 C 40 10 40 9 39 9 C 36 7 34 7 28 9 z" fill="black"/><!-- width=64 height=170 -->
<path id="gl2832" d="M 25 12 C 18 15 14 18 14 21 C 14 21 16 24 18 25 C 25 32 24 27 24 85 C 24 115 24 137 23 139 C 22 142 21 145 17 147 C 12 151 11 154 15 156 C 18 157 44 157 47 157 C 51 155 51 152 46 147 C 40 141 40 144 41 72 C 42 39 42 16 41 15 C 40 9 35 8 25 12 z" fill="black"/><!-- width=64 height=172 -->
<path id="gl3088" d="M 53 10 C 52 10 49 10 47 11 C 34 13 22 20 18 29 C 12 42 12 54 20 65 C 25 73 32 79 48 89 C 66 100 70 105 70 118 C 70 139 45 146 25 131 C 22 129 22 127 19 123 C 15 114 14 112 11 113 C 7 113 6 114 7 122 C 7 135 11 144 19 147 C 31 152 47 153 61 148 C 69 146 71 144 78 138 C 85 130 87 126 87 114 C 87 94 81 85 53 68 C 37 58 32 52 31 42 C 31 30 37 23 51 23 C 63 23 69 26 74 35 C 78 42 81 43 84 40 C 88 37 88 29 84 20 C 83 16 81 13 77 12 C 73 11 56 9 53 10 z" fill="black"/><!-- width=99 height=165 -->
<path id="gl2834" d="M 38 15 C 37 15 36 17 34 19 C 33 21 30 24 27 27 C 21 33 21 34 25 39 C 29 43 29 43 29 67 C 28 101 30 106 41 111 C 52 117 71 110 71 102 C 71 97 67 97 60 99 C 52 100 48 97 45 89 C 45 88 45 78 45 66 C 44 38 44 38 58 39 C 66 39 67 39 69 37 C 73 34 72 30 68 27 C 66 27 64 27 58 27 C 55 27 52 27 50 27 C 49 27 49 26 48 25 C 48 24 46 22 46 19 C 43 13 42 12 38 15 z" fill="black"/><!-- width=84 height=127 -->
<path id="gl3072" d="M 47 9 C 29 10 10 29 19 36 C 23 40 30 36 34 28 C 39 20 45 17 51 21 C 61 25 61 46 52 51 C 51 51 46 52 40 54 C 21 60 15 64 16 77 C 17 88 24 93 35 93 C 37 93 39 93 42 93 C 44 92 46 91 48 90 C 55 87 57 86 61 88 C 71 94 75 95 82 91 C 91 87 92 82 84 80 C 75 78 74 78 74 49 C 75 25 74 24 71 18 C 67 11 58 7 47 9 M 55 59 C 61 62 60 75 53 79 C 45 85 34 81 34 72 C 34 64 48 55 55 59 z" fill="black"/><!-- width=105 height=114 -->
<path id="gl2561" d="M 30 16 C 25 18 22 20 21 22 C 19 25 19 26 24 36 C 25 38 25 39 25 60 C 25 85 25 84 20 90 C 15 95 15 97 18 100 C 18 100 19 100 19 101 C 24 101 29 101 34 101 C 39 101 43 101 48 101 C 49 100 49 100 50 100 C 53 97 52 95 47 90 C 42 85 42 83 42 61 C 42 54 42 48 42 42 C 43 40 43 39 44 37 C 51 24 75 25 80 39 C 81 42 81 45 81 57 C 82 79 81 85 76 90 C 70 94 70 98 73 100 C 76 102 100 102 103 100 C 108 98 108 94 103 91 C 102 90 100 87 99 85 C 99 84 98 83 97 82 C 97 74 97 66 97 58 C 97 39 97 35 96 32 C 91 15 74 10 55 19 C 48 22 46 22 42 18 C 38 14 36 13 30 16 z" fill="black"/><!-- width=120 height=116 -->
<path id="gl2834" d="M 38 15 C 37 15 36 17 34 19 C 33 21 30 24 27 27 C 21 33 21 34 25 39 C 29 43 29 43 29 67 C 28 101 30 106 41 111 C 52 117 71 110 71 102 C 71 97 67 97 60 99 C 52 100 48 97 45 89 C 45 88 45 78 45 66 C 44 38 44 38 58 39 C 66 39 67 39 69 37 C 73 34 72 30 68 27 C 66 27 64 27 58 27 C 55 27 52 27 50 27 C 49 27 49 26 48 25 C 48 24 46 22 46 19 C 43 13 42 12 38 15 z" fill="black"/><!-- width=84 height=127 -->
<path id="gl2572" d="M 45 12 C 25 17 13 34 13 56 C 13 70 16 78 25 87 C 34 96 40 98 55 98 C 67 98 72 96 80 89 C 94 77 100 51 91 33 C 82 16 63 7 45 12 M 61 24 C 77 31 82 60 71 78 C 64 90 49 90 40 80 C 28 68 28 39 39 28 C 46 21 52 19 61 24 z" fill="black"/><!-- width=109 height=111 -->
<path id="gl2561" d="M 30 16 C 25 18 22 20 21 22 C 19 25 19 26 24 36 C 25 38 25 39 25 60 C 25 85 25 84 20 90 C 15 95 15 97 18 100 C 18 100 19 100 19 101 C 24 101 29 101 34 101 C 39 101 43 101 48 101 C 49 100 49 100 50 100 C 53 97 52 95 47 90 C 42 85 42 83 42 61 C 42 54 42 48 42 42 C 43 40 43 39 44 37 C 51 24 75 25 80 39 C 81 42 81 45 81 57 C 82 79 81 85 76 90 C 70 94 70 98 73 100 C 76 102 100 102 103 100 C 108 98 108 94 103 91 C 102 90 100 87 99 85 C 99 84 98 83 97 82 C 97 74 97 66 97 58 C 97 39 97 35 96 32 C 91 15 74 10 55 19 C 48 22 46 22 42 18 C 38 14 36 13 30 16 z" fill="black"/><!-- width=120 height=116 -->
<path id="gl3102" d="M 35 29 C 21 31 19 37 30 42 C 34 43 36 46 37 51 C 38 55 37 144 37 148 C 35 154 33 156 27 159 C 22 160 22 166 26 168 C 28 169 65 169 67 168 C 72 165 72 160 65 157 C 60 155 58 153 57 148 C 56 145 56 138 56 99 C 56 53 56 48 58 44 C 62 36 82 40 89 51 C 100 68 95 91 76 100 C 68 104 67 111 75 111 C 82 112 95 108 100 102 C 112 91 117 79 114 63 C 112 46 100 35 80 30 C 76 29 43 28 35 29 z" fill="black"/><!-- width=128 height=179 -->
<path id="gl2337" d="M 40 25 C 32 30 31 33 36 40 C 36 42 37 44 38 46 C 38 52 38 59 38 66 C 39 91 38 93 32 99 C 28 103 27 106 31 108 C 33 110 63 110 66 109 C 71 106 70 102 64 100 C 55 97 54 94 54 73 C 54 41 57 36 70 40 C 81 44 87 41 87 33 C 87 23 78 20 66 27 C 60 30 58 30 54 26 C 50 22 48 22 40 25 z" fill="black"/><!-- width=103 height=126 -->
<path id="gl2571" d="M 26 7 C 20 9 17 16 19 22 C 24 33 39 31 42 21 C 43 12 34 4 26 7 M 32 57 C 30 58 23 61 20 63 C 16 66 16 70 19 76 C 22 82 23 83 23 105 C 23 130 23 130 16 136 C 12 141 11 144 16 146 C 18 147 42 148 45 147 C 50 144 50 141 45 136 C 39 130 39 129 39 105 C 39 94 40 80 40 73 C 40 61 40 60 37 58 C 35 57 34 57 32 57 z" fill="black"/><!-- width=61 height=186 -->
<path id="gl2561" d="M 30 16 C 25 18 22 20 21 22 C 19 25 19 26 24 36 C 25 38 25 39 25 60 C 25 85 25 84 20 90 C 15 95 15 97 18 100 C 18 100 19 100 19 101 C 24 101 29 101 34 101 C 39 101 43 101 48 101 C 49 100 49 100 50 100 C 53 97 52 95 47 90 C 42 85 42 83 42 61 C 42 54 42 48 42 42 C 43 40 43 39 44 37 C 51 24 75 25 80 39 C 81 42 81 45 81 57 C 82 79 81 85 76 90 C 70 94 70 98 73 100 C 76 102 100 102 103 100 C 108 98 108 94 103 91 C 102 90 100 87 99 85 C 99 84 98 83 97 82 C 97 74 97 66 97 58 C 97 39 97 35 96 32 C 91 15 74 10 55 19 C 48 22 46 22 42 18 C 38 14 36 13 30 16 z" fill="black"/><!-- width=120 height=116 -->
<path id="gl2834" d="M 38 15 C 37 15 36 17 34 19 C 33 21 30 24 27 27 C 21 33 21 34 25 39 C 29 43 29 43 29 67 C 28 101 30 106 41 111 C 52 117 71 110 71 102 C 71 97 67 97 60 99 C 52 100 48 97 45 89 C 45 88 45 78 45 66 C 44 38 44 38 58 39 C 66 39 67 39 69 37 C 73 34 72 30 68 27 C 66 27 64 27 58 27 C 55 27 52 27 50 27 C 49 27 49 26 48 25 C 48 24 46 22 46 19 C 43 13 42 12 38 15 z" fill="black"/><!-- width=84 height=127 -->
<path id="gl2841" d="M 55 15 C 34 19 19 46 25 71 C 28 87 42 100 58 101 C 76 102 98 88 91 79 C 89 78 86 78 81 81 C 64 92 43 83 40 63 C 39 55 40 50 45 48 C 46 47 48 47 66 48 C 88 48 89 48 92 44 C 96 39 90 25 82 19 C 75 15 64 13 55 15 M 67 25 C 75 29 74 37 66 39 C 54 43 45 40 46 34 C 48 26 60 22 67 25 z" fill="black"/><!-- width=109 height=114 -->
<path id="gl2569" d="M 79 8 C 78 8 74 9 72 11 C 63 15 62 18 66 26 C 69 33 70 38 70 51 C 70 68 70 69 55 70 C 37 70 25 76 16 90 C 4 109 7 138 24 149 C 34 156 44 157 56 154 C 64 151 66 151 69 153 C 75 158 78 158 91 154 C 102 150 103 144 94 140 C 91 138 90 138 88 135 C 88 135 88 133 87 133 C 87 123 87 112 87 102 C 87 85 87 58 88 43 C 88 13 88 11 86 9 C 84 7 82 7 79 8 M 59 81 C 63 82 66 85 68 90 C 69 91 69 92 70 93 C 70 99 70 105 70 110 C 70 132 69 136 63 139 C 59 141 47 141 42 138 C 21 128 23 90 45 82 C 48 81 55 81 59 81 z" fill="black"/><!-- width=119 height=198 -->
<path id="gl3072" d="M 47 9 C 29 10 10 29 19 36 C 23 40 30 36 34 28 C 39 20 45 17 51 21 C 61 25 61 46 52 51 C 51 51 46 52 40 54 C 21 60 15 64 16 77 C 17 88 24 93 35 93 C 37 93 39 93 42 93 C 44 92 46 91 48 90 C 55 87 57 86 61 88 C 71 94 75 95 82 91 C 91 87 92 82 84 80 C 75 78 74 78 74 49 C 75 25 74 24 71 18 C 67 11 58 7 47 9 M 55 59 C 61 62 60 75 53 79 C 45 85 34 81 34 72 C 34 64 48 55 55 59 z" fill="black"/><!-- width=105 height=114 -->
<path id="gl2561" d="M 30 16 C 25 18 22 20 21 22 C 19 25 19 26 24 36 C 25 38 25 39 25 60 C 25 85 25 84 20 90 C 15 95 15 97 18 100 C 18 100 19 100 19 101 C 24 101 29 101 34 101 C 39 101 43 101 48 101 C 49 100 49 100 50 100 C 53 97 52 95 47 90 C 42 85 42 83 42 61 C 42 54 42 48 42 42 C 43 40 43 39 44 37 C 51 24 75 25 80 39 C 81 42 81 45 81 57 C 82 79 81 85 76 90 C 70 94 70 98 73 100 C 76 102 100 102 103 100 C 108 98 108 94 103 91 C 102 90 100 87 99 85 C 99 84 98 83 97 82 C 97 74 97 66 97 58 C 97 39 97 35 96 32 C 91 15 74 10 55 19 C 48 22 46 22 42 18 C 38 14 36 13 30 16 z" fill="black"/><!-- width=120 height=116 -->
<path id="gl2569" d="M 79 8 C 78 8 74 9 72 11 C 63 15 62 18 66 26 C 69 33 70 38 70 51 C 70 68 70 69 55 70 C 37 70 25 76 16 90 C 4 109 7 138 24 149 C 34 156 44 157 56 154 C 64 151 66 151 69 153 C 75 158 78 158 91 154 C 102 150 103 144 94 140 C 91 138 90 138 88 135 C 88 135 88 133 87 133 C 87 123 87 112 87 102 C 87 85 87 58 88 43 C 88 13 88 11 86 9 C 84 7 82 7 79 8 M 59 81 C 63 82 66 85 68 90 C 69 91 69 92 70 93 C 70 99 70 105 70 110 C 70 132 69 136 63 139 C 59 141 47 141 42 138 C 21 128 23 90 45 82 C 48 81 55 81 59 81 z" fill="black"/><!-- width=119 height=198 -->
<path id="gl2590" d="M 45 9 C 40 10 34 13 32 15 C 29 19 29 21 33 27 C 34 30 36 34 36 36 C 37 40 37 70 37 110 C 37 133 37 146 37 148 C 38 151 40 153 45 154 C 46 154 51 155 55 156 C 84 160 105 152 115 132 C 123 117 121 96 111 83 C 100 69 85 65 69 72 C 62 74 60 74 57 72 C 55 70 54 67 55 46 C 56 13 56 12 52 9 C 50 8 49 8 45 9 M 79 83 C 92 86 100 97 100 113 C 100 132 91 144 76 145 C 64 145 57 139 55 127 C 54 120 55 93 56 89 C 58 86 61 83 64 82 C 65 82 67 82 67 82 C 68 81 76 82 79 83 z" fill="black"/><!-- width=135 height=188 -->
<path id="gl2572" d="M 45 12 C 25 17 13 34 13 56 C 13 70 16 78 25 87 C 34 96 40 98 55 98 C 67 98 72 96 80 89 C 94 77 100 51 91 33 C 82 16 63 7 45 12 M 61 24 C 77 31 82 60 71 78 C 64 90 49 90 40 80 C 28 68 28 39 39 28 C 46 21 52 19 61 24 z" fill="black"/><!-- width=109 height=111 -->
<path id="gl2589" d="M 24 10 C 14 12 11 16 16 22 C 21 28 21 28 21 53 C 21 75 21 77 24 83 C 27 90 34 94 43 94 C 50 94 54 94 61 90 C 69 85 70 86 75 90 C 78 94 79 94 83 94 C 87 93 99 90 100 89 C 105 86 104 82 98 79 C 95 78 94 77 93 75 C 93 74 92 73 91 72 C 91 63 91 53 91 44 C 91 11 91 14 90 12 C 88 9 84 9 78 10 C 64 12 61 15 69 22 C 75 28 75 28 75 51 C 75 68 75 68 74 71 C 69 81 50 85 42 76 C 37 72 37 71 37 40 C 37 12 37 12 34 10 C 32 9 30 9 24 10 z" fill="black"/><!-- width=116 height=111 -->
<path id="gl2561" d="M 30 16 C 25 18 22 20 21 22 C 19 25 19 26 24 36 C 25 38 25 39 25 60 C 25 85 25 84 20 90 C 15 95 15 97 18 100 C 18 100 19 100 19 101 C 24 101 29 101 34 101 C 39 101 43 101 48 101 C 49 100 49 100 50 100 C 53 97 52 95 47 90 C 42 85 42 83 42 61 C 42 54 42 48 42 42 C 43 40 43 39 44 37 C 51 24 75 25 80 39 C 81 42 81 45 81 57 C 82 79 81 85 76 90 C 70 94 70 98 73 100 C 76 102 100 102 103 100 C 108 98 108 94 103 91 C 102 90 100 87 99 85 C 99 84 98 83 97 82 C 97 74 97 66 97 58 C 97 39 97 35 96 32 C 91 15 74 10 55 19 C 48 22 46 22 42 18 C 38 14 36 13 30 16 z" fill="black"/><!-- width=120 height=116 -->
<path id="gl2569" d="M 79 8 C 78 8 74 9 72 11 C 63 15 62 18 66 26 C 69 33 70 38 70 51 C 70 68 70 69 55 70 C 37 70 25 76 16 90 C 4 109 7 138 24 149 C 34 156 44 157 56 154 C 64 151 66 151 69 153 C 75 158 78 158 91 154 C 102 150 103 144 94 140 C 91 138 90 138 88 135 C 88 135 88 133 87 133 C 87 123 87 112 87 102 C 87 85 87 58 88 43 C 88 13 88 11 86 9 C 84 7 82 7 79 8 M 59 81 C 63 82 66 85 68 90 C 69 91 69 92 70 93 C 70 99 70 105 70 110 C 70 132 69 136 63 139 C 59 141 47 141 42 138 C 21 128 23 90 45 82 C 48 81 55 81 59 81 z" fill="black"/><!-- width=119 height=198 -->
<path id="gl2590" d="M 45 9 C 40 10 34 13 32 15 C 29 19 29 21 33 27 C 34 30 36 34 36 36 C 37 40 37 70 37 110 C 37 133 37 146 37 148 C 38 151 40 153 45 154 C 46 154 51 155 55 156 C 84 160 105 152 115 132 C 123 117 121 96 111 83 C 100 69 85 65 69 72 C 62 74 60 74 57 72 C 55 70 54 67 55 46 C 56 13 56 12 52 9 C 50 8 49 8 45 9 M 79 83 C 92 86 100 97 100 113 C 100 132 91 144 76 145 C 64 145 57 139 55 127 C 54 120 55 93 56 89 C 58 86 61 83 64 82 C 65 82 67 82 67 82 C 68 81 76 82 79 83 z" fill="black"/><!-- width=135 height=188 -->
<path id="gl2822" d="M 87 45 C 81 46 79 49 84 55 C 88 62 87 65 81 81 C 75 96 73 99 71 99 C 67 99 66 96 63 87 C 56 67 55 61 58 55 C 61 51 61 48 58 46 C 57 45 56 45 44 45 C 29 45 27 45 25 48 C 24 51 25 53 30 58 C 36 62 38 66 42 79 C 45 85 47 91 48 92 C 51 98 57 121 57 127 C 57 135 51 150 45 156 C 42 159 42 160 34 163 C 28 165 27 168 27 174 C 27 178 28 181 32 183 C 40 187 48 182 53 171 C 61 155 66 144 67 140 C 68 138 71 132 73 126 C 75 121 78 115 79 112 C 81 109 84 102 86 97 C 89 92 93 84 94 80 C 100 67 102 64 111 56 C 115 52 116 48 111 45 C 109 44 94 44 87 45 z" fill="black"/><!-- width=126 height=196 -->
<path id="gl3088" d="M 53 10 C 52 10 49 10 47 11 C 34 13 22 20 18 29 C 12 42 12 54 20 65 C 25 73 32 79 48 89 C 66 100 70 105 70 118 C 70 139 45 146 25 131 C 22 129 22 127 19 123 C 15 114 14 112 11 113 C 7 113 6 114 7 122 C 7 135 11 144 19 147 C 31 152 47 153 61 148 C 69 146 71 144 78 138 C 85 130 87 126 87 114 C 87 94 81 85 53 68 C 37 58 32 52 31 42 C 31 30 37 23 51 23 C 63 23 69 26 74 35 C 78 42 81 43 84 40 C 88 37 88 29 84 20 C 83 16 81 13 77 12 C 73 11 56 9 53 10 z" fill="black"/><!-- width=99 height=165 -->
<path id="gl2591" d="M 43 9 C 37 11 30 16 28 19 C 27 22 27 24 31 27 C 33 28 34 30 36 33 C 36 34 36 35 37 36 C 37 52 37 68 37 84 C 37 119 36 132 36 135 C 35 139 33 143 31 145 C 26 148 26 152 30 154 C 32 156 33 156 45 156 C 58 156 61 155 63 153 C 64 150 64 148 60 145 C 55 138 55 138 55 114 C 54 91 55 90 58 86 C 64 79 78 77 87 84 C 93 88 96 101 93 127 C 93 137 91 140 87 144 C 84 148 83 150 84 152 C 85 155 88 156 103 156 C 118 156 121 155 122 152 C 123 149 123 149 117 144 C 112 139 112 138 112 113 C 111 84 111 80 105 74 C 97 65 84 64 69 71 C 62 74 59 75 57 72 C 54 69 54 66 55 41 C 55 29 55 18 55 16 C 54 10 51 7 43 9 z" fill="black"/><!-- width=135 height=190 -->
<path id="gl2841" d="M 55 15 C 34 19 19 46 25 71 C 28 87 42 100 58 101 C 76 102 98 88 91 79 C 89 78 86 78 81 81 C 64 92 43 83 40 63 C 39 55 40 50 45 48 C 46 47 48 47 66 48 C 88 48 89 48 92 44 C 96 39 90 25 82 19 C 75 15 64 13 55 15 M 67 25 C 75 29 74 37 66 39 C 54 43 45 40 46 34 C 48 26 60 22 67 25 z" fill="black"/><!-- width=109 height=114 -->
<path id="gl3345" d="M 71 27 C 70 27 67 30 64 31 C 60 36 57 37 55 33 C 54 32 52 30 52 29 C 49 26 47 27 39 29 C 28 33 26 36 33 42 C 39 46 39 46 39 73 C 38 99 38 100 33 105 C 30 108 30 111 32 112 C 33 114 34 114 48 114 C 64 114 67 114 67 112 C 69 109 67 108 64 107 C 60 106 57 102 55 99 C 54 95 54 61 54 57 C 55 51 60 45 64 43 C 67 42 69 42 75 44 C 82 46 84 46 87 44 C 92 41 93 33 88 30 C 84 27 75 25 71 27 z" fill="black"/><!-- width=104 height=128 -->
<path id="gl2571" d="M 26 7 C 20 9 17 16 19 22 C 24 33 39 31 42 21 C 43 12 34 4 26 7 M 32 57 C 30 58 23 61 20 63 C 16 66 16 70 19 76 C 22 82 23 83 23 105 C 23 130 23 130 16 136 C 12 141 11 144 16 146 C 18 147 42 148 45 147 C 50 144 50 141 45 136 C 39 130 39 129 39 105 C 39 94 40 80 40 73 C 40 61 40 60 37 58 C 35 57 34 57 32 57 z" fill="black"/><!-- width=61 height=186 -->
<path id="gl2569" d="M 79 8 C 78 8 74 9 72 11 C 63 15 62 18 66 26 C 69 33 70 38 70 51 C 70 68 70 69 55 70 C 37 70 25 76 16 90 C 4 109 7 138 24 149 C 34 156 44 157 56 154 C 64 151 66 151 69 153 C 75 158 78 158 91 154 C 102 150 103 144 94 140 C 91 138 90 138 88 135 C 88 135 88 133 87 133 C 87 123 87 112 87 102 C 87 85 87 58 88 43 C 88 13 88 11 86 9 C 84 7 82 7 79 8 M 59 81 C 63 82 66 85 68 90 C 69 91 69 92 70 93 C 70 99 70 105 70 110 C 70 132 69 136 63 139 C 59 141 47 141 42 138 C 21 128 23 90 45 82 C 48 81 55 81 59 81 z" fill="black"/><!-- width=119 height=198 -->
<path id="gl3072" d="M 47 9 C 29 10 10 29 19 36 C 23 40 30 36 34 28 C 39 20 45 17 51 21 C 61 25 61 46 52 51 C 51 51 46 52 40 54 C 21 60 15 64 16 77 C 17 88 24 93 35 93 C 37 93 39 93 42 93 C 44 92 46 91 48 90 C 55 87 57 86 61 88 C 71 94 75 95 82 91 C 91 87 92 82 84 80 C 75 78 74 78 74 49 C 75 25 74 24 71 18 C 67 11 58 7 47 9 M 55 59 C 61 62 60 75 53 79 C 45 85 34 81 34 72 C 34 64 48 55 55 59 z" fill="black"/><!-- width=105 height=114 -->
<path id="gl2561" d="M 30 16 C 25 18 22 20 21 22 C 19 25 19 26 24 36 C 25 38 25 39 25 60 C 25 85 25 84 20 90 C 15 95 15 97 18 100 C 18 100 19 100 19 101 C 24 101 29 101 34 101 C 39 101 43 101 48 101 C 49 100 49 100 50 100 C 53 97 52 95 47 90 C 42 85 42 83 42 61 C 42 54 42 48 42 42 C 43 40 43 39 44 37 C 51 24 75 25 80 39 C 81 42 81 45 81 57 C 82 79 81 85 76 90 C 70 94 70 98 73 100 C 76 102 100 102 103 100 C 108 98 108 94 103 91 C 102 90 100 87 99 85 C 99 84 98 83 97 82 C 97 74 97 66 97 58 C 97 39 97 35 96 32 C 91 15 74 10 55 19 C 48 22 46 22 42 18 C 38 14 36 13 30 16 z" fill="black"/><!-- width=120 height=116 -->
<path id="gl3346" d="M 42 10 C 21 10 19 10 16 13 C 12 16 13 19 20 22 C 25 24 27 27 28 31 C 29 34 29 39 28 79 C 28 134 28 134 21 139 C 16 142 15 146 19 148 C 22 150 22 150 39 150 C 48 150 58 150 61 150 C 77 151 95 145 105 136 C 111 129 112 127 114 120 C 119 104 114 89 101 81 C 91 75 90 73 97 64 C 103 56 105 51 105 43 C 105 25 97 16 79 12 C 64 9 66 9 42 10 M 66 22 C 74 24 80 28 84 36 C 85 40 86 43 85 51 C 84 62 79 67 67 70 C 56 73 51 73 48 69 C 46 66 46 32 48 28 C 51 21 55 19 66 22 M 68 82 C 88 87 97 99 94 117 C 93 127 90 130 83 134 C 76 138 61 139 55 136 C 48 133 47 129 46 106 C 46 101 46 95 46 90 C 47 88 48 88 48 87 C 50 84 51 82 55 81 C 57 81 61 81 68 82 z" fill="black"/><!-- width=128 height=161 -->
<path id="gl2572" d="M 45 12 C 25 17 13 34 13 56 C 13 70 16 78 25 87 C 34 96 40 98 55 98 C 67 98 72 96 80 89 C 94 77 100 51 91 33 C 82 16 63 7 45 12 M 61 24 C 77 31 82 60 71 78 C 64 90 49 90 40 80 C 28 68 28 39 39 28 C 46 21 52 19 61 24 z" fill="black"/><!-- width=109 height=111 -->
<path id="gl2572" d="M 45 12 C 25 17 13 34 13 56 C 13 70 16 78 25 87 C 34 96 40 98 55 98 C 67 98 72 96 80 89 C 94 77 100 51 91 33 C 82 16 63 7 45 12 M 61 24 C 77 31 82 60 71 78 C 64 90 49 90 40 80 C 28 68 28 39 39 28 C 46 21 52 19 61 24 z" fill="black"/><!-- width=109 height=111 -->
<path id="gl2821" d="M 52 7 C 49 8 39 13 39 14 C 37 17 37 19 40 25 C 44 34 44 33 45 84 C 45 138 45 138 38 144 C 34 148 34 150 34 152 C 35 155 38 156 50 156 C 69 156 73 154 67 145 C 61 138 60 130 61 121 C 63 111 72 114 83 132 C 88 139 88 139 88 145 C 88 155 91 156 110 156 C 123 156 125 155 126 153 C 129 149 126 146 120 142 C 114 139 109 135 101 127 C 84 110 82 106 86 100 C 88 95 105 84 115 79 C 123 76 124 74 121 70 C 120 66 117 66 105 66 C 87 67 85 68 87 77 C 87 81 87 84 83 89 C 76 99 69 104 64 101 C 61 99 60 96 61 67 C 63 37 63 13 62 10 C 60 7 57 6 52 7 z" fill="black"/><!-- width=139 height=195 -->
<path id="gl2568" d="M 43 8 C 26 9 16 19 18 33 C 18 43 24 49 39 58 C 51 64 55 73 48 81 C 41 88 31 84 24 73 C 20 67 18 66 16 66 C 12 66 10 69 11 75 C 12 87 17 92 29 94 C 48 96 63 90 66 79 C 70 65 64 54 48 45 C 36 37 32 33 32 27 C 32 22 37 18 43 17 C 47 17 50 19 55 24 C 62 31 67 30 67 22 C 69 15 63 9 56 8 C 49 7 48 7 43 8 z" fill="black"/><!-- width=82 height=106 -->
<path id="gl3102" d="M 35 29 C 21 31 19 37 30 42 C 34 43 36 46 37 51 C 38 55 37 144 37 148 C 35 154 33 156 27 159 C 22 160 22 166 26 168 C 28 169 65 169 67 168 C 72 165 72 160 65 157 C 60 155 58 153 57 148 C 56 145 56 138 56 99 C 56 53 56 48 58 44 C 62 36 82 40 89 51 C 100 68 95 91 76 100 C 68 104 67 111 75 111 C 82 112 95 108 100 102 C 112 91 117 79 114 63 C 112 46 100 35 80 30 C 76 29 43 28 35 29 z" fill="black"/><!-- width=128 height=179 -->
<path id="gl2337" d="M 40 25 C 32 30 31 33 36 40 C 36 42 37 44 38 46 C 38 52 38 59 38 66 C 39 91 38 93 32 99 C 28 103 27 106 31 108 C 33 110 63 110 66 109 C 71 106 70 102 64 100 C 55 97 54 94 54 73 C 54 41 57 36 70 40 C 81 44 87 41 87 33 C 87 23 78 20 66 27 C 60 30 58 30 54 26 C 50 22 48 22 40 25 z" fill="black"/><!-- width=103 height=126 -->
<path id="gl2571" d="M 26 7 C 20 9 17 16 19 22 C 24 33 39 31 42 21 C 43 12 34 4 26 7 M 32 57 C 30 58 23 61 20 63 C 16 66 16 70 19 76 C 22 82 23 83 23 105 C 23 130 23 130 16 136 C 12 141 11 144 16 146 C 18 147 42 148 45 147 C 50 144 50 141 45 136 C 39 130 39 129 39 105 C 39 94 40 80 40 73 C 40 61 40 60 37 58 C 35 57 34 57 32 57 z" fill="black"/><!-- width=61 height=186 -->
<path id="gl2561" d="M 30 16 C 25 18 22 20 21 22 C 19 25 19 26 24 36 C 25 38 25 39 25 60 C 25 85 25 84 20 90 C 15 95 15 97 18 100 C 18 100 19 100 19 101 C 24 101 29 101 34 101 C 39 101 43 101 48 101 C 49 100 49 100 50 100 C 53 97 52 95 47 90 C 42 85 42 83 42 61 C 42 54 42 48 42 42 C 43 40 43 39 44 37 C 51 24 75 25 80 39 C 81 42 81 45 81 57 C 82 79 81 85 76 90 C 70 94 70 98 73 100 C 76 102 100 102 103 100 C 108 98 108 94 103 91 C 102 90 100 87 99 85 C 99 84 98 83 97 82 C 97 74 97 66 97 58 C 97 39 97 35 96 32 C 91 15 74 10 55 19 C 48 22 46 22 42 18 C 38 14 36 13 30 16 z" fill="black"/><!-- width=120 height=116 -->
<path id="gl2834" d="M 38 15 C 37 15 36 17 34 19 C 33 21 30 24 27 27 C 21 33 21 34 25 39 C 29 43 29 43 29 67 C 28 101 30 106 41 111 C 52 117 71 110 71 102 C 71 97 67 97 60 99 C 52 100 48 97 45 89 C 45 88 45 78 45 66 C 44 38 44 38 58 39 C 66 39 67 39 69 37 C 73 34 72 30 68 27 C 66 27 64 27 58 27 C 55 27 52 27 50 27 C 49 27 49 26 48 25 C 48 24 46 22 46 19 C 43 13 42 12 38 15 z" fill="black"/><!-- width=84 height=127 -->
<path id="gl2567" d="M 51 16 C 40 19 33 27 27 42 C 21 53 21 66 27 78 C 30 88 43 98 52 100 C 68 103 91 92 90 82 C 90 77 86 76 80 81 C 73 85 68 86 61 84 C 47 81 39 71 39 57 C 39 52 39 50 43 48 C 45 46 49 46 61 47 C 73 48 85 48 87 46 C 90 45 91 42 91 38 C 90 28 85 22 77 18 C 75 17 73 16 72 15 C 69 15 66 15 63 15 C 57 15 54 15 51 16 M 66 25 C 73 28 72 36 64 39 C 59 40 48 40 46 39 C 39 31 55 21 66 25 z" fill="black"/><!-- width=106 height=114 -->
<path id="gl2569" d="M 79 8 C 78 8 74 9 72 11 C 63 15 62 18 66 26 C 69 33 70 38 70 51 C 70 68 70 69 55 70 C 37 70 25 76 16 90 C 4 109 7 138 24 149 C 34 156 44 157 56 154 C 64 151 66 151 69 153 C 75 158 78 158 91 154 C 102 150 103 144 94 140 C 91 138 90 138 88 135 C 88 135 88 133 87 133 C 87 123 87 112 87 102 C 87 85 87 58 88 43 C 88 13 88 11 86 9 C 84 7 82 7 79 8 M 59 81 C 63 82 66 85 68 90 C 69 91 69 92 70 93 C 70 99 70 105 70 110 C 70 132 69 136 63 139 C 59 141 47 141 42 138 C 21 128 23 90 45 82 C 48 81 55 81 59 81 z" fill="black"/><!-- width=119 height=198 -->
<path id="gl2571" d="M 26 7 C 20 9 17 16 19 22 C 24 33 39 31 42 21 C 43 12 34 4 26 7 M 32 57 C 30 58 23 61 20 63 C 16 66 16 70 19 76 C 22 82 23 83 23 105 C 23 130 23 130 16 136 C 12 141 11 144 16 146 C 18 147 42 148 45 147 C 50 144 50 141 45 136 C 39 130 39 129 39 105 C 39 94 40 80 40 73 C 40 61 40 60 37 58 C 35 57 34 57 32 57 z" fill="black"/><!-- width=61 height=186 -->
<path id="gl2561" d="M 30 16 C 25 18 22 20 21 22 C 19 25 19 26 24 36 C 25 38 25 39 25 60 C 25 85 25 84 20 90 C 15 95 15 97 18 100 C 18 100 19 100 19 101 C 24 101 29 101 34 101 C 39 101 43 101 48 101 C 49 100 49 100 50 100 C 53 97 52 95 47 90 C 42 85 42 83 42 61 C 42 54 42 48 42 42 C 43 40 43 39 44 37 C 51 24 75 25 80 39 C 81 42 81 45 81 57 C 82 79 81 85 76 90 C 70 94 70 98 73 100 C 76 102 100 102 103 100 C 108 98 108 94 103 91 C 102 90 100 87 99 85 C 99 84 98 83 97 82 C 97 74 97 66 97 58 C 97 39 97 35 96 32 C 91 15 74 10 55 19 C 48 22 46 22 42 18 C 38 14 36 13 30 16 z" fill="black"/><!-- width=120 height=116 -->
<path id="gl2570" d="M 39 14 C 38 15 36 16 34 20 C 32 23 29 27 27 29 C 22 34 22 36 25 42 C 29 47 29 46 29 75 C 29 99 29 99 30 103 C 36 117 55 121 66 110 C 71 106 72 101 69 99 C 67 98 67 98 62 100 C 54 104 48 101 45 93 C 44 89 44 47 45 45 C 47 41 50 40 56 40 C 66 42 69 41 71 37 C 72 34 72 32 69 30 C 67 28 67 28 59 29 C 48 30 46 29 45 21 C 44 13 43 12 39 14 z" fill="black"/><!-- width=84 height=131 -->
<path id="gl2591" d="M 43 9 C 37 11 30 16 28 19 C 27 22 27 24 31 27 C 33 28 34 30 36 33 C 36 34 36 35 37 36 C 37 52 37 68 37 84 C 37 119 36 132 36 135 C 35 139 33 143 31 145 C 26 148 26 152 30 154 C 32 156 33 156 45 156 C 58 156 61 155 63 153 C 64 150 64 148 60 145 C 55 138 55 138 55 114 C 54 91 55 90 58 86 C 64 79 78 77 87 84 C 93 88 96 101 93 127 C 93 137 91 140 87 144 C 84 148 83 150 84 152 C 85 155 88 156 103 156 C 118 156 121 155 122 152 C 123 149 123 149 117 144 C 112 139 112 138 112 113 C 111 84 111 80 105 74 C 97 65 84 64 69 71 C 62 74 59 75 57 72 C 54 69 54 66 55 41 C 55 29 55 18 55 16 C 54 10 51 7 43 9 z" fill="black"/><!-- width=135 height=190 -->
<path id="gl2841" d="M 55 15 C 34 19 19 46 25 71 C 28 87 42 100 58 101 C 76 102 98 88 91 79 C 89 78 86 78 81 81 C 64 92 43 83 40 63 C 39 55 40 50 45 48 C 46 47 48 47 66 48 C 88 48 89 48 92 44 C 96 39 90 25 82 19 C 75 15 64 13 55 15 M 67 25 C 75 29 74 37 66 39 C 54 43 45 40 46 34 C 48 26 60 22 67 25 z" fill="black"/><!-- width=109 height=114 -->
<path id="gl3347" d="M 9 9 C 9 14 9 19 14 19 C 19 19 19 38 24 72 C 24 134 33 148 76 144 C 115 144 124 134 124 76 C 129 38 129 24 139 19 C 144 14 144 9 148 9 C 139 9 129 9 120 9 C 96 9 96 9 105 19 C 124 38 120 105 100 124 C 86 134 62 134 52 120 C 38 100 38 28 48 14 C 57 9 57 9 33 9 C 19 9 9 9 9 9 z" fill="black"/><!-- width=153 height=158 -->
<path id="gl2561" d="M 30 16 C 25 18 22 20 21 22 C 19 25 19 26 24 36 C 25 38 25 39 25 60 C 25 85 25 84 20 90 C 15 95 15 97 18 100 C 18 100 19 100 19 101 C 24 101 29 101 34 101 C 39 101 43 101 48 101 C 49 100 49 100 50 100 C 53 97 52 95 47 90 C 42 85 42 83 42 61 C 42 54 42 48 42 42 C 43 40 43 39 44 37 C 51 24 75 25 80 39 C 81 42 81 45 81 57 C 82 79 81 85 76 90 C 70 94 70 98 73 100 C 76 102 100 102 103 100 C 108 98 108 94 103 91 C 102 90 100 87 99 85 C 99 84 98 83 97 82 C 97 74 97 66 97 58 C 97 39 97 35 96 32 C 91 15 74 10 55 19 C 48 22 46 22 42 18 C 38 14 36 13 30 16 z" fill="black"/><!-- width=120 height=116 -->
<path id="gl3082" d="M 24 8 C 15 13 15 25 24 30 C 26 31 33 31 35 30 C 43 27 43 13 36 9 C 32 6 28 6 24 8 M 26 61 C 16 67 15 69 19 78 C 22 84 22 89 22 105 C 22 126 21 132 16 136 C 12 139 11 144 15 146 C 19 147 46 146 48 145 C 51 142 49 138 45 136 C 43 135 42 133 41 131 C 40 130 40 129 39 127 C 39 116 39 105 39 94 C 39 61 39 60 38 59 C 36 57 33 58 26 61 z" fill="black"/><!-- width=61 height=183 -->
<path id="gl1284" d="M 39 14 C 37 15 36 18 34 20 C 33 22 30 26 28 28 C 22 35 21 37 26 42 C 30 45 30 46 30 72 C 29 96 30 99 32 105 C 38 118 58 121 69 110 C 76 102 73 95 63 100 C 56 104 51 102 48 96 C 47 94 46 93 46 92 C 46 85 46 77 45 70 C 45 40 45 40 60 41 C 70 41 73 40 73 35 C 73 30 70 28 59 28 C 57 28 54 29 51 29 C 50 28 49 27 49 27 C 47 25 47 24 46 21 C 45 12 42 10 39 14 z" fill="black"/><!-- width=85 height=131 -->
<path id="gl2841" d="M 55 15 C 34 19 19 46 25 71 C 28 87 42 100 58 101 C 76 102 98 88 91 79 C 89 78 86 78 81 81 C 64 92 43 83 40 63 C 39 55 40 50 45 48 C 46 47 48 47 66 48 C 88 48 89 48 92 44 C 96 39 90 25 82 19 C 75 15 64 13 55 15 M 67 25 C 75 29 74 37 66 39 C 54 43 45 40 46 34 C 48 26 60 22 67 25 z" fill="black"/><!-- width=109 height=114 -->
<path id="gl2569" d="M 79 8 C 78 8 74 9 72 11 C 63 15 62 18 66 26 C 69 33 70 38 70 51 C 70 68 70 69 55 70 C 37 70 25 76 16 90 C 4 109 7 138 24 149 C 34 156 44 157 56 154 C 64 151 66 151 69 153 C 75 158 78 158 91 154 C 102 150 103 144 94 140 C 91 138 90 138 88 135 C 88 135 88 133 87 133 C 87 123 87 112 87 102 C 87 85 87 58 88 43 C 88 13 88 11 86 9 C 84 7 82 7 79 8 M 59 81 C 63 82 66 85 68 90 C 69 91 69 92 70 93 C 70 99 70 105 70 110 C 70 132 69 136 63 139 C 59 141 47 141 42 138 C 21 128 23 90 45 82 C 48 81 55 81 59 81 z" fill="black"/><!-- width=119 height=198 -->
<path id="gl3088" d="M 53 10 C 52 10 49 10 47 11 C 34 13 22 20 18 29 C 12 42 12 54 20 65 C 25 73 32 79 48 89 C 66 100 70 105 70 118 C 70 139 45 146 25 131 C 22 129 22 127 19 123 C 15 114 14 112 11 113 C 7 113 6 114 7 122 C 7 135 11 144 19 147 C 31 152 47 153 61 148 C 69 146 71 144 78 138 C 85 130 87 126 87 114 C 87 94 81 85 53 68 C 37 58 32 52 31 42 C 31 30 37 23 51 23 C 63 23 69 26 74 35 C 78 42 81 43 84 40 C 88 37 88 29 84 20 C 83 16 81 13 77 12 C 73 11 56 9 53 10 z" fill="black"/><!-- width=99 height=165 -->
<path id="gl2570" d="M 39 14 C 38 15 36 16 34 20 C 32 23 29 27 27 29 C 22 34 22 36 25 42 C 29 47 29 46 29 75 C 29 99 29 99 30 103 C 36 117 55 121 66 110 C 71 106 72 101 69 99 C 67 98 67 98 62 100 C 54 104 48 101 45 93 C 44 89 44 47 45 45 C 47 41 50 40 56 40 C 66 42 69 41 71 37 C 72 34 72 32 69 30 C 67 28 67 28 59 29 C 48 30 46 29 45 21 C 44 13 43 12 39 14 z" fill="black"/><!-- width=84 height=131 -->
<path id="gl3072" d="M 47 9 C 29 10 10 29 19 36 C 23 40 30 36 34 28 C 39 20 45 17 51 21 C 61 25 61 46 52 51 C 51 51 46 52 40 54 C 21 60 15 64 16 77 C 17 88 24 93 35 93 C 37 93 39 93 42 93 C 44 92 46 91 48 90 C 55 87 57 86 61 88 C 71 94 75 95 82 91 C 91 87 92 82 84 80 C 75 78 74 78 74 49 C 75 25 74 24 71 18 C 67 11 58 7 47 9 M 55 59 C 61 62 60 75 53 79 C 45 85 34 81 34 72 C 34 64 48 55 55 59 z" fill="black"/><!-- width=105 height=114 -->
<path id="gl2834" d="M 38 15 C 37 15 36 17 34 19 C 33 21 30 24 27 27 C 21 33 21 34 25 39 C 29 43 29 43 29 67 C 28 101 30 106 41 111 C 52 117 71 110 71 102 C 71 97 67 97 60 99 C 52 100 48 97 45 89 C 45 88 45 78 45 66 C 44 38 44 38 58 39 C 66 39 67 39 69 37 C 73 34 72 30 68 27 C 66 27 64 27 58 27 C 55 27 52 27 50 27 C 49 27 49 26 48 25 C 48 24 46 22 46 19 C 43 13 42 12 38 15 z" fill="black"/><!-- width=84 height=127 -->
<path id="gl2841" d="M 55 15 C 34 19 19 46 25 71 C 28 87 42 100 58 101 C 76 102 98 88 91 79 C 89 78 86 78 81 81 C 64 92 43 83 40 63 C 39 55 40 50 45 48 C 46 47 48 47 66 48 C 88 48 89 48 92 44 C 96 39 90 25 82 19 C 75 15 64 13 55 15 M 67 25 C 75 29 74 37 66 39 C 54 43 45 40 46 34 C 48 26 60 22 67 25 z" fill="black"/><!-- width=109 height=114 -->
<path id="gl3348" d="M 19 14 C 9 28 9 43 19 43 C 24 43 28 43 28 48 C 28 52 28 57 38 57 C 43 62 48 67 48 72 C 48 76 43 81 38 81 C 24 86 24 96 38 96 C 72 96 72 62 38 38 C 24 24 28 9 48 24 C 62 28 67 28 62 14 C 57 4 28 4 19 14 M 9 76 C 9 86 14 96 19 91 C 24 86 19 67 9 67 C 9 67 9 72 9 76 z" fill="black"/><!-- width=72 height=100 -->
<path id="gl2572" d="M 45 12 C 25 17 13 34 13 56 C 13 70 16 78 25 87 C 34 96 40 98 55 98 C 67 98 72 96 80 89 C 94 77 100 51 91 33 C 82 16 63 7 45 12 M 61 24 C 77 31 82 60 71 78 C 64 90 49 90 40 80 C 28 68 28 39 39 28 C 46 21 52 19 61 24 z" fill="black"/><!-- width=109 height=111 -->
<path id="gl2848" d="M 87 15 C 67 19 52 37 49 61 C 48 71 48 72 43 77 C 40 81 39 82 39 83 C 40 85 41 87 42 87 C 42 87 43 88 45 89 C 48 92 49 94 48 121 C 48 148 48 147 42 154 C 39 158 38 159 40 162 C 41 163 42 163 42 164 C 48 164 53 164 58 164 C 76 164 78 163 80 160 C 81 158 81 157 75 154 C 66 150 66 148 66 117 C 66 96 66 94 67 92 C 69 88 71 87 78 87 C 85 87 87 87 88 84 C 88 82 88 82 88 80 C 86 77 84 76 78 75 C 67 75 64 70 66 56 C 70 31 81 23 99 34 C 109 40 120 36 118 26 C 115 17 102 12 87 15 z" fill="black"/><!-- width=130 height=178 -->
<path id="gl2840" d="M 70 9 C 66 12 63 16 61 22 C 58 31 55 41 51 51 C 50 53 49 57 47 60 C 46 63 44 68 43 72 C 42 75 39 80 38 84 C 37 87 35 91 34 92 C 34 94 33 96 33 98 C 32 100 31 104 30 106 C 29 108 27 111 27 113 C 21 127 18 132 11 136 C 4 139 4 144 9 146 C 13 148 37 148 42 146 C 47 144 47 141 42 136 C 40 135 39 133 38 132 C 38 131 38 129 38 127 C 38 124 39 121 40 116 C 48 93 48 93 67 92 C 86 91 88 92 92 105 C 99 123 99 131 94 135 C 88 140 87 142 90 145 C 91 146 102 147 123 147 C 137 147 141 144 138 138 C 137 136 136 136 129 134 C 125 132 122 130 120 127 C 118 124 112 110 109 100 C 109 97 106 91 105 86 C 103 81 100 76 100 74 C 99 70 95 57 92 48 C 89 39 85 24 85 23 C 85 22 82 13 81 12 C 78 7 75 6 70 9 M 72 46 C 75 49 81 65 81 73 C 82 80 79 82 69 82 C 54 82 52 79 59 60 C 64 44 67 41 72 46 z" fill="black"/><!-- width=150 height=177 -->
<path id="gl2816" d="M 32 16 C 23 21 21 24 25 33 C 28 40 29 43 28 61 C 28 84 27 87 21 91 C 16 95 15 99 20 101 C 24 103 47 103 51 100 C 55 99 55 95 51 90 C 46 84 45 78 45 57 C 45 42 46 39 49 34 C 57 25 73 26 78 36 C 81 40 81 43 81 58 C 81 80 81 84 75 91 C 70 96 71 100 77 102 C 80 102 99 102 102 101 C 108 100 109 96 104 91 C 99 84 98 82 98 61 C 98 42 99 39 102 34 C 108 27 122 26 129 33 C 133 38 135 43 134 64 C 134 83 133 84 129 90 C 124 95 124 98 127 100 C 130 102 154 103 157 101 C 162 99 162 96 157 90 C 151 84 151 84 151 59 C 151 35 151 33 147 26 C 139 12 126 10 106 20 C 97 25 95 25 88 20 C 80 13 72 13 58 18 C 51 21 49 21 45 16 C 41 13 39 13 32 16 z" fill="black"/><!-- width=175 height=115 -->
<path id="gl2841" d="M 55 15 C 34 19 19 46 25 71 C 28 87 42 100 58 101 C 76 102 98 88 91 79 C 89 78 86 78 81 81 C 64 92 43 83 40 63 C 39 55 40 50 45 48 C 46 47 48 47 66 48 C 88 48 89 48 92 44 C 96 39 90 25 82 19 C 75 15 64 13 55 15 M 67 25 C 75 29 74 37 66 39 C 54 43 45 40 46 34 C 48 26 60 22 67 25 z" fill="black"/><!-- width=109 height=114 -->
<path id="gl2337" d="M 40 25 C 32 30 31 33 36 40 C 36 42 37 44 38 46 C 38 52 38 59 38 66 C 39 91 38 93 32 99 C 28 103 27 106 31 108 C 33 110 63 110 66 109 C 71 106 70 102 64 100 C 55 97 54 94 54 73 C 54 41 57 36 70 40 C 81 44 87 41 87 33 C 87 23 78 20 66 27 C 60 30 58 30 54 26 C 50 22 48 22 40 25 z" fill="black"/><!-- width=103 height=126 -->
<path id="gl3082" d="M 24 8 C 15 13 15 25 24 30 C 26 31 33 31 35 30 C 43 27 43 13 36 9 C 32 6 28 6 24 8 M 26 61 C 16 67 15 69 19 78 C 22 84 22 89 22 105 C 22 126 21 132 16 136 C 12 139 11 144 15 146 C 19 147 46 146 48 145 C 51 142 49 138 45 136 C 43 135 42 133 41 131 C 40 130 40 129 39 127 C 39 116 39 105 39 94 C 39 61 39 60 38 59 C 36 57 33 58 26 61 z" fill="black"/><!-- width=61 height=183 -->
<path id="gl2850" d="M 64 9 C 51 12 42 16 36 25 C 16 51 26 87 55 94 C 63 96 76 95 84 91 C 99 84 104 72 94 70 C 92 69 91 70 88 72 C 82 77 81 77 78 79 C 58 84 42 70 42 50 C 42 26 64 13 81 26 C 90 33 97 30 97 21 C 97 15 93 12 87 10 C 84 9 68 8 64 9 z" fill="black"/><!-- width=111 height=111 -->
<path id="gl3072" d="M 47 9 C 29 10 10 29 19 36 C 23 40 30 36 34 28 C 39 20 45 17 51 21 C 61 25 61 46 52 51 C 51 51 46 52 40 54 C 21 60 15 64 16 77 C 17 88 24 93 35 93 C 37 93 39 93 42 93 C 44 92 46 91 48 90 C 55 87 57 86 61 88 C 71 94 75 95 82 91 C 91 87 92 82 84 80 C 75 78 74 78 74 49 C 75 25 74 24 71 18 C 67 11 58 7 47 9 M 55 59 C 61 62 60 75 53 79 C 45 85 34 81 34 72 C 34 64 48 55 55 59 z" fill="black"/><!-- width=105 height=114 -->
</defs>
<use xlink:href="#gl3343" x="68" y="13"/>
<use xlink:href="#gl2572" x="174" y="61"/>
<use xlink:href="#gl2572" x="270" y="61"/>
<use xlink:href="#gl2821" x="346" y="3"/>
<use xlink:href="#gl3072" x="516" y="64"/>
<use xlink:href="#gl2561" x="596" y="57"/>
<use xlink:href="#gl2569" x="708" y="2"/>
<use xlink:href="#gl2850" x="850" y="62"/>
<use xlink:href="#gl2572" x="940" y="60"/>
<use xlink:href="#gl2839" x="1023" y="42"/>
<use xlink:href="#gl2841" x="1110" y="56"/>
<use xlink:href="#gl2337" x="1185" y="48"/>
<use xlink:href="#gl2569" x="1324" y="1"/>
<use xlink:href="#gl2841" x="1412" y="57"/>
<use xlink:href="#gl2568" x="1497" y="64"/>
<use xlink:href="#gl2571" x="1565" y="10"/>
<use xlink:href="#gl2560" x="1607" y="60"/>
<use xlink:href="#gl2561" x="1703" y="56"/>
<use xlink:href="#gl2590" x="1847" y="2"/>
<use xlink:href="#gl2822" x="1946" y="26"/>
<use xlink:href="#gl3344" x="2117" y="13"/>
<use xlink:href="#gl2571" x="2227" y="11"/>
<use xlink:href="#gl2563" x="2274" y="2"/>
<use xlink:href="#gl2832" x="2324" y="0"/>
<use xlink:href="#gl3088" x="2436" y="6"/>
<use xlink:href="#gl2834" x="2517" y="43"/>
<use xlink:href="#gl3072" x="2581" y="62"/>
<use xlink:href="#gl2561" x="2664" y="56"/>
<use xlink:href="#gl2834" x="2765" y="43"/>
<use xlink:href="#gl2572" x="2833" y="58"/>
<use xlink:href="#gl2561" x="2930" y="55"/>
<use xlink:href="#gl3102" x="48" y="233"/>
<use xlink:href="#gl2337" x="143" y="293"/>
<use xlink:href="#gl2571" x="223" y="255"/>
<use xlink:href="#gl2561" x="273" y="301"/>
<use xlink:href="#gl2834" x="373" y="288"/>
<use xlink:href="#gl2841" x="429" y="300"/>
<use xlink:href="#gl2569" x="523" y="246"/>
<use xlink:href="#gl3072" x="671" y="307"/>
<use xlink:href="#gl2561" x="754" y="300"/>
<use xlink:href="#gl2569" x="865" y="245"/>
<use xlink:href="#gl2590" x="999" y="245"/>
<use xlink:href="#gl2572" x="1117" y="303"/>
<use xlink:href="#gl2589" x="1214" y="306"/>
<use xlink:href="#gl2561" x="1315" y="299"/>
<use xlink:href="#gl2569" x="1425" y="245"/>
<use xlink:href="#gl2590" x="1559" y="246"/>
<use xlink:href="#gl2822" x="1657" y="268"/>
<use xlink:href="#gl3088" x="1826" y="250"/>
<use xlink:href="#gl2591" x="1896" y="246"/>
<use xlink:href="#gl2841" x="2006" y="299"/>
<use xlink:href="#gl3345" x="2081" y="289"/>
<use xlink:href="#gl2571" x="2164" y="254"/>
<use xlink:href="#gl2569" x="2217" y="244"/>
<use xlink:href="#gl3072" x="2312" y="305"/>
<use xlink:href="#gl2561" x="2394" y="298"/>
<use xlink:href="#gl3346" x="2560" y="250"/>
<use xlink:href="#gl2572" x="2677" y="301"/>
<use xlink:href="#gl2572" x="2776" y="301"/>
<use xlink:href="#gl2821" x="2850" y="244"/>
<use xlink:href="#gl2568" x="2970" y="304"/>
<use xlink:href="#gl3102" x="0" y="477"/>
<use xlink:href="#gl2337" x="97" y="536"/>
<use xlink:href="#gl2571" x="177" y="499"/>
<use xlink:href="#gl2561" x="228" y="544"/>
<use xlink:href="#gl2834" x="327" y="531"/>
<use xlink:href="#gl2567" x="384" y="544"/>
<use xlink:href="#gl2569" x="477" y="490"/>
<use xlink:href="#gl2571" x="629" y="497"/>
<use xlink:href="#gl2561" x="680" y="543"/>
<use xlink:href="#gl2570" x="832" y="530"/>
<use xlink:href="#gl2591" x="885" y="491"/>
<use xlink:href="#gl2841" x="993" y="543"/>
<use xlink:href="#gl3347" x="1148" y="498"/>
<use xlink:href="#gl2561" x="1278" y="543"/>
<use xlink:href="#gl3082" x="1387" y="498"/>
<use xlink:href="#gl1284" x="1428" y="529"/>
<use xlink:href="#gl2841" x="1487" y="542"/>
<use xlink:href="#gl2569" x="1581" y="488"/>
<use xlink:href="#gl3088" x="1739" y="494"/>
<use xlink:href="#gl2570" x="1820" y="530"/>
<use xlink:href="#gl3072" x="1883" y="549"/>
<use xlink:href="#gl2834" x="1961" y="530"/>
<use xlink:href="#gl2841" x="2020" y="542"/>
<use xlink:href="#gl3348" x="2113" y="551"/>
<use xlink:href="#gl2572" x="2228" y="544"/>
<use xlink:href="#gl2848" x="2300" y="478"/>
<use xlink:href="#gl2840" x="2437" y="498"/>
<use xlink:href="#gl2816" x="2560" y="542"/>
<use xlink:href="#gl2841" x="2710" y="541"/>
<use xlink:href="#gl2337" x="2786" y="532"/>
<use xlink:href="#gl3082" x="2869" y="496"/>
<use xlink:href="#gl2850" x="2909" y="546"/>
<use xlink:href="#gl3072" x="2997" y="547"/>
</svg>
