<?xml version='1.0' encoding='utf-8'?>
<svg xmlns="http://www.w3.org/2000/svg" xmlns:xlink="http://www.w3.org/1999/xlink" width="440px" height="97px" viewBox="0 0 4407 972" version="1.1">
<defs>
<path id="gl2831" d="M 85 9 C 76 9 62 9 54 9 C 36 9 33 9 33 12 C 31 16 31 16 34 19 C 42 25 43 27 44 30 C 45 34 45 118 45 126 C 43 133 40 137 35 139 C 29 141 26 144 28 148 C 29 149 30 150 31 150 C 33 151 41 151 45 150 C 50 150 69 150 76 150 C 79 151 90 151 101 151 C 108 151 114 151 120 151 C 121 151 123 150 124 150 C 130 147 132 142 135 132 C 137 121 137 120 134 117 C 131 114 127 115 123 124 C 116 135 111 137 89 138 C 84 138 80 138 75 138 C 74 137 73 136 72 136 C 68 134 65 130 64 126 C 63 121 63 94 64 91 C 66 84 70 82 81 84 C 95 85 95 85 99 91 C 105 100 111 98 112 87 C 112 82 111 66 110 63 C 108 55 103 56 99 64 C 96 71 93 72 81 73 C 71 74 68 73 65 69 C 64 67 64 67 64 48 C 64 20 64 20 84 21 C 102 22 106 23 111 33 C 115 40 117 42 121 41 C 126 39 126 32 124 21 C 121 8 120 7 85 9 z" fill="black"/><!-- width=147 height=164 -->
<path id="gl3336" d="M 15 9 C 9 13 10 17 18 20 C 25 22 33 32 40 46 C 43 52 42 58 38 63 C 37 64 35 66 33 69 C 27 78 22 82 16 83 C 12 83 11 85 11 89 C 11 95 12 96 27 96 C 40 96 42 94 40 86 C 39 81 39 78 42 73 C 45 67 48 64 51 64 C 54 64 61 76 61 81 C 61 82 59 85 57 88 C 55 91 55 92 58 93 C 61 95 88 96 91 94 C 97 91 96 88 88 84 C 82 81 76 74 72 67 C 71 66 69 64 67 62 C 57 49 57 46 71 31 C 77 25 79 24 84 22 C 90 19 92 17 92 14 C 92 9 88 8 76 8 C 64 8 64 9 63 19 C 63 25 63 26 60 31 C 55 37 49 36 45 28 C 43 26 43 24 43 19 C 43 16 43 12 43 12 C 42 10 38 9 31 9 C 28 9 24 8 22 8 C 19 8 18 8 15 9 z" fill="black"/><!-- width=105 height=107 -->
<path id="gl2850" d="M 64 9 C 51 12 42 16 36 25 C 16 51 26 87 55 94 C 63 96 76 95 84 91 C 99 84 104 72 94 70 C 92 69 91 70 88 72 C 82 77 81 77 78 79 C 58 84 42 70 42 50 C 42 26 64 13 81 26 C 90 33 97 30 97 21 C 97 15 93 12 87 10 C 84 9 68 8 64 9 z" fill="black"/><!-- width=111 height=111 -->
<path id="gl2567" d="M 51 16 C 40 19 33 27 27 42 C 21 53 21 66 27 78 C 30 88 43 98 52 100 C 68 103 91 92 90 82 C 90 77 86 76 80 81 C 73 85 68 86 61 84 C 47 81 39 71 39 57 C 39 52 39 50 43 48 C 45 46 49 46 61 47 C 73 48 85 48 87 46 C 90 45 91 42 91 38 C 90 28 85 22 77 18 C 75 17 73 16 72 15 C 69 15 66 15 63 15 C 57 15 54 15 51 16 M 66 25 C 73 28 72 36 64 39 C 59 40 48 40 46 39 C 39 31 55 21 66 25 z" fill="black"/><!-- width=106 height=114 -->
<path id="gl2337" d="M 40 25 C 32 30 31 33 36 40 C 36 42 37 44 38 46 C 38 52 38 59 38 66 C 39 91 38 93 32 99 C 28 103 27 106 31 108 C 33 110 63 110 66 109 C 71 106 70 102 64 100 C 55 97 54 94 54 73 C 54 41 57 36 70 40 C 81 44 87 41 87 33 C 87 23 78 20 66 27 C 60 30 58 30 54 26 C 50 22 48 22 40 25 z" fill="black"/><!-- width=103 height=126 -->
<path id="gl2846" d="M 45 33 C 40 34 33 39 32 41 C 30 44 30 46 33 52 C 37 59 37 59 37 104 C 37 153 37 153 30 159 C 27 162 26 165 27 167 C 28 171 30 171 48 171 C 64 171 67 170 67 167 C 69 163 68 163 60 158 C 55 155 54 151 54 137 C 54 120 54 120 69 120 C 82 120 87 118 94 114 C 117 99 123 63 105 45 C 94 33 85 31 69 37 C 60 40 58 40 55 36 C 51 31 49 31 45 33 M 79 49 C 90 53 96 62 96 76 C 96 96 87 108 72 108 C 63 108 57 105 55 98 C 54 95 53 63 54 58 C 58 49 67 45 79 49 z" fill="black"/><!-- width=130 height=184 -->
<path id="gl2834" d="M 38 15 C 37 15 36 17 34 19 C 33 21 30 24 27 27 C 21 33 21 34 25 39 C 29 43 29 43 29 67 C 28 101 30 106 41 111 C 52 117 71 110 71 102 C 71 97 67 97 60 99 C 52 100 48 97 45 89 C 45 88 45 78 45 66 C 44 38 44 38 58 39 C 66 39 67 39 69 37 C 73 34 72 30 68 27 C 66 27 64 27 58 27 C 55 27 52 27 50 27 C 49 27 49 26 48 25 C 48 24 46 22 46 19 C 43 13 42 12 38 15 z" fill="black"/><!-- width=84 height=127 -->
<path id="gl2842" d="M 38 7 C 30 9 22 13 19 18 C 12 32 16 43 30 52 C 44 61 47 64 48 69 C 51 76 45 84 38 84 C 32 84 27 80 22 73 C 18 65 15 64 12 66 C 6 70 10 87 16 91 C 24 95 45 94 53 90 C 63 85 65 81 65 70 C 65 67 65 65 65 63 C 64 61 64 60 63 59 C 60 54 52 48 45 43 C 31 36 27 28 33 21 C 38 15 45 16 54 25 C 61 31 66 30 66 22 C 66 10 56 6 38 7 z" fill="black"/><!-- width=79 height=106 -->
<path id="gl3340" d="M 93 13 C 85 15 80 17 72 22 C 59 33 52 43 50 62 C 49 70 48 73 43 76 C 37 81 37 83 44 88 C 49 91 49 96 48 132 C 48 146 48 147 43 153 C 38 157 39 160 43 162 C 48 163 79 162 82 161 C 85 160 85 159 85 157 C 84 156 84 155 78 153 C 68 150 67 148 67 117 C 67 87 67 88 78 87 C 87 86 90 83 87 78 C 86 75 84 75 78 74 C 69 73 67 72 67 61 C 67 40 75 30 87 30 C 92 30 96 31 103 34 C 107 36 110 37 111 37 C 118 37 123 28 118 21 C 115 16 103 12 93 13 z" fill="black"/><!-- width=133 height=177 -->
<path id="gl2337" d="M 40 25 C 32 30 31 33 36 40 C 36 42 37 44 38 46 C 38 52 38 59 38 66 C 39 91 38 93 32 99 C 28 103 27 106 31 108 C 33 110 63 110 66 109 C 71 106 70 102 64 100 C 55 97 54 94 54 73 C 54 41 57 36 70 40 C 81 44 87 41 87 33 C 87 23 78 20 66 27 C 60 30 58 30 54 26 C 50 22 48 22 40 25 z" fill="black"/><!-- width=103 height=126 -->
<path id="gl2572" d="M 45 12 C 25 17 13 34 13 56 C 13 70 16 78 25 87 C 34 96 40 98 55 98 C 67 98 72 96 80 89 C 94 77 100 51 91 33 C 82 16 63 7 45 12 M 61 24 C 77 31 82 60 71 78 C 64 90 49 90 40 80 C 28 68 28 39 39 28 C 46 21 52 19 61 24 z" fill="black"/><!-- width=109 height=111 -->
<path id="gl3079" d="M 30 13 C 28 13 25 14 24 14 C 21 15 16 19 16 22 C 16 25 16 26 18 28 C 21 36 21 38 21 55 C 22 78 21 82 13 89 C 10 93 10 93 10 95 C 10 99 12 99 26 99 C 44 100 46 99 48 94 C 48 92 48 92 44 88 C 38 82 38 81 38 58 C 38 42 38 39 39 37 C 44 22 67 22 73 36 C 75 40 75 40 74 58 C 74 81 73 82 67 88 C 64 92 64 93 64 95 C 64 99 66 99 81 99 C 97 100 100 99 101 94 C 102 92 101 91 98 88 C 91 82 91 81 91 58 C 91 41 91 40 92 37 C 96 25 115 22 122 32 C 127 38 127 38 127 58 C 127 79 127 81 120 88 C 115 93 115 97 120 99 C 123 100 145 100 149 99 C 154 97 154 94 150 88 C 144 81 144 82 144 57 C 144 29 143 25 136 18 C 130 13 126 12 109 13 C 105 14 103 15 97 18 C 88 22 87 22 82 18 C 76 12 60 11 51 16 C 45 18 42 18 39 15 C 36 12 33 11 30 13 z" fill="black"/><!-- width=162 height=111 -->
<path id="gl3591" d="M 19 40 C 15 43 13 46 12 58 C 12 67 12 70 15 72 C 18 75 19 74 24 66 C 28 57 31 55 46 54 C 61 54 66 54 67 60 C 68 63 69 152 67 158 C 66 164 63 168 57 169 C 48 172 46 175 52 178 C 54 180 101 180 105 178 C 111 177 109 172 101 170 C 94 168 91 165 90 159 C 90 157 90 135 89 109 C 89 93 89 78 89 63 C 90 61 90 60 91 60 C 93 55 94 54 106 54 C 126 55 129 55 135 67 C 138 73 139 75 142 74 C 145 72 146 68 145 57 C 144 40 142 39 127 40 C 116 42 39 42 29 40 C 21 39 22 39 19 40 z" fill="black"/><!-- width=158 height=193 -->
<path id="gl2572" d="M 45 12 C 25 17 13 34 13 56 C 13 70 16 78 25 87 C 34 96 40 98 55 98 C 67 98 72 96 80 89 C 94 77 100 51 91 33 C 82 16 63 7 45 12 M 61 24 C 77 31 82 60 71 78 C 64 90 49 90 40 80 C 28 68 28 39 39 28 C 46 21 52 19 61 24 z" fill="black"/><!-- width=109 height=111 -->
<path id="gl2569" d="M 79 8 C 78 8 74 9 72 11 C 63 15 62 18 66 26 C 69 33 70 38 70 51 C 70 68 70 69 55 70 C 37 70 25 76 16 90 C 4 109 7 138 24 149 C 34 156 44 157 56 154 C 64 151 66 151 69 153 C 75 158 78 158 91 154 C 102 150 103 144 94 140 C 91 138 90 138 88 135 C 88 135 88 133 87 133 C 87 123 87 112 87 102 C 87 85 87 58 88 43 C 88 13 88 11 86 9 C 84 7 82 7 79 8 M 59 81 C 63 82 66 85 68 90 C 69 91 69 92 70 93 C 70 99 70 105 70 110 C 70 132 69 136 63 139 C 59 141 47 141 42 138 C 21 128 23 90 45 82 C 48 81 55 81 59 81 z" fill="black"/><!-- width=119 height=198 -->
<path id="gl3072" d="M 47 9 C 29 10 10 29 19 36 C 23 40 30 36 34 28 C 39 20 45 17 51 21 C 61 25 61 46 52 51 C 51 51 46 52 40 54 C 21 60 15 64 16 77 C 17 88 24 93 35 93 C 37 93 39 93 42 93 C 44 92 46 91 48 90 C 55 87 57 86 61 88 C 71 94 75 95 82 91 C 91 87 92 82 84 80 C 75 78 74 78 74 49 C 75 25 74 24 71 18 C 67 11 58 7 47 9 M 55 59 C 61 62 60 75 53 79 C 45 85 34 81 34 72 C 34 64 48 55 55 59 z" fill="black"/><!-- width=105 height=114 -->
<path id="gl2822" d="M 87 45 C 81 46 79 49 84 55 C 88 62 87 65 81 81 C 75 96 73 99 71 99 C 67 99 66 96 63 87 C 56 67 55 61 58 55 C 61 51 61 48 58 46 C 57 45 56 45 44 45 C 29 45 27 45 25 48 C 24 51 25 53 30 58 C 36 62 38 66 42 79 C 45 85 47 91 48 92 C 51 98 57 121 57 127 C 57 135 51 150 45 156 C 42 159 42 160 34 163 C 28 165 27 168 27 174 C 27 178 28 181 32 183 C 40 187 48 182 53 171 C 61 155 66 144 67 140 C 68 138 71 132 73 126 C 75 121 78 115 79 112 C 81 109 84 102 86 97 C 89 92 93 84 94 80 C 100 67 102 64 111 56 C 115 52 116 48 111 45 C 109 44 94 44 87 45 z" fill="black"/><!-- width=126 height=196 -->
<path id="gl3072" d="M 47 9 C 29 10 10 29 19 36 C 23 40 30 36 34 28 C 39 20 45 17 51 21 C 61 25 61 46 52 51 C 51 51 46 52 40 54 C 21 60 15 64 16 77 C 17 88 24 93 35 93 C 37 93 39 93 42 93 C 44 92 46 91 48 90 C 55 87 57 86 61 88 C 71 94 75 95 82 91 C 91 87 92 82 84 80 C 75 78 74 78 74 49 C 75 25 74 24 71 18 C 67 11 58 7 47 9 M 55 59 C 61 62 60 75 53 79 C 45 85 34 81 34 72 C 34 64 48 55 55 59 z" fill="black"/><!-- width=105 height=114 -->
<path id="gl2561" d="M 30 16 C 25 18 22 20 21 22 C 19 25 19 26 24 36 C 25 38 25 39 25 60 C 25 85 25 84 20 90 C 15 95 15 97 18 100 C 18 100 19 100 19 101 C 24 101 29 101 34 101 C 39 101 43 101 48 101 C 49 100 49 100 50 100 C 53 97 52 95 47 90 C 42 85 42 83 42 61 C 42 54 42 48 42 42 C 43 40 43 39 44 37 C 51 24 75 25 80 39 C 81 42 81 45 81 57 C 82 79 81 85 76 90 C 70 94 70 98 73 100 C 76 102 100 102 103 100 C 108 98 108 94 103 91 C 102 90 100 87 99 85 C 99 84 98 83 97 82 C 97 74 97 66 97 58 C 97 39 97 35 96 32 C 91 15 74 10 55 19 C 48 22 46 22 42 18 C 38 14 36 13 30 16 z" fill="black"/><!-- width=120 height=116 -->
<path id="gl2569" d="M 79 8 C 78 8 74 9 72 11 C 63 15 62 18 66 26 C 69 33 70 38 70 51 C 70 68 70 69 55 70 C 37 70 25 76 16 90 C 4 109 7 138 24 149 C 34 156 44 157 56 154 C 64 151 66 151 69 153 C 75 158 78 158 91 154 C 102 150 103 144 94 140 C 91 138 90 138 88 135 C 88 135 88 133 87 133 C 87 123 87 112 87 102 C 87 85 87 58 88 43 C 88 13 88 11 86 9 C 84 7 82 7 79 8 M 59 81 C 63 82 66 85 68 90 C 69 91 69 92 70 93 C 70 99 70 105 70 110 C 70 132 69 136 63 139 C 59 141 47 141 42 138 C 21 128 23 90 45 82 C 48 81 55 81 59 81 z" fill="black"/><!-- width=119 height=198 -->
<path id="gl3591" d="M 19 40 C 15 43 13 46 12 58 C 12 67 12 70 15 72 C 18 75 19 74 24 66 C 28 57 31 55 46 54 C 61 54 66 54 67 60 C 68 63 69 152 67 158 C 66 164 63 168 57 169 C 48 172 46 175 52 178 C 54 180 101 180 105 178 C 111 177 109 172 101 170 C 94 168 91 165 90 159 C 90 157 90 135 89 109 C 89 93 89 78 89 63 C 90 61 90 60 91 60 C 93 55 94 54 106 54 C 126 55 129 55 135 67 C 138 73 139 75 142 74 C 145 72 146 68 145 57 C 144 40 142 39 127 40 C 116 42 39 42 29 40 C 21 39 22 39 19 40 z" fill="black"/><!-- width=158 height=193 -->
<path id="gl2572" d="M 45 12 C 25 17 13 34 13 56 C 13 70 16 78 25 87 C 34 96 40 98 55 98 C 67 98 72 96 80 89 C 94 77 100 51 91 33 C 82 16 63 7 45 12 M 61 24 C 77 31 82 60 71 78 C 64 90 49 90 40 80 C 28 68 28 39 39 28 C 46 21 52 19 61 24 z" fill="black"/><!-- width=109 height=111 -->
<path id="gl2816" d="M 32 16 C 23 21 21 24 25 33 C 28 40 29 43 28 61 C 28 84 27 87 21 91 C 16 95 15 99 20 101 C 24 103 47 103 51 100 C 55 99 55 95 51 90 C 46 84 45 78 45 57 C 45 42 46 39 49 34 C 57 25 73 26 78 36 C 81 40 81 43 81 58 C 81 80 81 84 75 91 C 70 96 71 100 77 102 C 80 102 99 102 102 101 C 108 100 109 96 104 91 C 99 84 98 82 98 61 C 98 42 99 39 102 34 C 108 27 122 26 129 33 C 133 38 135 43 134 64 C 134 83 133 84 129 90 C 124 95 124 98 127 100 C 130 102 154 103 157 101 C 162 99 162 96 157 90 C 151 84 151 84 151 59 C 151 35 151 33 147 26 C 139 12 126 10 106 20 C 97 25 95 25 88 20 C 80 13 72 13 58 18 C 51 21 49 21 45 16 C 41 13 39 13 32 16 z" fill="black"/><!-- width=175 height=115 -->
<path id="gl2572" d="M 45 12 C 25 17 13 34 13 56 C 13 70 16 78 25 87 C 34 96 40 98 55 98 C 67 98 72 96 80 89 C 94 77 100 51 91 33 C 82 16 63 7 45 12 M 61 24 C 77 31 82 60 71 78 C 64 90 49 90 40 80 C 28 68 28 39 39 28 C 46 21 52 19 61 24 z" fill="black"/><!-- width=109 height=111 -->
<path id="gl2337" d="M 40 25 C 32 30 31 33 36 40 C 36 42 37 44 38 46 C 38 52 38 59 38 66 C 39 91 38 93 32 99 C 28 103 27 106 31 108 C 33 110 63 110 66 109 C 71 106 70 102 64 100 C 55 97 54 94 54 73 C 54 41 57 36 70 40 C 81 44 87 41 87 33 C 87 23 78 20 66 27 C 60 30 58 30 54 26 C 50 22 48 22 40 25 z" fill="black"/><!-- width=103 height=126 -->
<path id="gl2337" d="M 40 25 C 32 30 31 33 36 40 C 36 42 37 44 38 46 C 38 52 38 59 38 66 C 39 91 38 93 32 99 C 28 103 27 106 31 108 C 33 110 63 110 66 109 C 71 106 70 102 64 100 C 55 97 54 94 54 73 C 54 41 57 36 70 40 C 81 44 87 41 87 33 C 87 23 78 20 66 27 C 60 30 58 30 54 26 C 50 22 48 22 40 25 z" fill="black"/><!-- width=103 height=126 -->
<path id="gl2572" d="M 45 12 C 25 17 13 34 13 56 C 13 70 16 78 25 87 C 34 96 40 98 55 98 C 67 98 72 96 80 89 C 94 77 100 51 91 33 C 82 16 63 7 45 12 M 61 24 C 77 31 82 60 71 78 C 64 90 49 90 40 80 C 28 68 28 39 39 28 C 46 21 52 19 61 24 z" fill="black"/><!-- width=109 height=111 -->
<path id="gl3613" d="M 4 4 C 4 4 9 14 14 19 C 19 28 24 48 28 62 C 43 96 48 96 57 62 C 72 33 76 28 81 52 C 86 81 96 96 100 81 C 105 72 129 24 134 4 C 139 4 129 0 124 4 C 115 4 110 9 110 9 C 115 19 105 52 100 52 C 91 52 76 14 81 14 C 96 9 91 4 72 4 C 57 4 48 14 62 19 C 67 19 57 52 48 52 C 43 52 33 28 38 19 C 38 4 38 4 24 4 C 14 0 9 4 4 4 z" fill="black"/><!-- width=148 height=96 -->
<path id="gl2590" d="M 45 9 C 40 10 34 13 32 15 C 29 19 29 21 33 27 C 34 30 36 34 36 36 C 37 40 37 70 37 110 C 37 133 37 146 37 148 C 38 151 40 153 45 154 C 46 154 51 155 55 156 C 84 160 105 152 115 132 C 123 117 121 96 111 83 C 100 69 85 65 69 72 C 62 74 60 74 57 72 C 55 70 54 67 55 46 C 56 13 56 12 52 9 C 50 8 49 8 45 9 M 79 83 C 92 86 100 97 100 113 C 100 132 91 144 76 145 C 64 145 57 139 55 127 C 54 120 55 93 56 89 C 58 86 61 83 64 82 C 65 82 67 82 67 82 C 68 81 76 82 79 83 z" fill="black"/><!-- width=135 height=188 -->
<path id="gl3614" d="M 0 4 C 0 4 9 14 14 24 C 38 62 38 105 14 115 C 4 124 4 144 14 139 C 24 139 28 129 62 57 C 72 38 81 19 86 19 C 96 9 96 4 76 4 C 62 4 57 4 62 9 C 67 19 57 52 48 52 C 43 52 28 19 38 14 C 38 9 38 9 38 4 C 33 0 0 0 0 4 z" fill="black"/><!-- width=100 height=153 -->
<path id="gl3615" d="M 36 12 C 35 12 30 12 25 12 C 16 12 13 12 13 14 C 12 16 13 19 17 22 C 23 27 24 30 24 58 C 24 82 24 111 23 120 C 22 127 21 130 16 135 C 14 136 13 138 11 139 C 12 141 12 141 12 142 C 14 147 15 147 34 147 C 55 146 55 146 57 141 C 57 139 55 138 50 135 C 45 131 44 129 43 117 C 41 85 43 80 63 82 C 74 84 85 84 99 82 C 112 81 114 81 117 85 C 117 86 118 87 118 88 C 118 92 118 96 118 100 C 119 126 117 132 107 136 C 103 138 102 139 103 142 C 105 146 103 146 126 146 C 148 147 149 147 151 142 C 152 141 152 139 152 139 C 152 139 150 138 148 136 C 142 132 141 130 139 127 C 139 126 138 125 138 124 C 138 110 138 96 138 82 C 138 29 138 28 145 22 C 150 19 151 15 150 13 C 148 12 145 11 138 12 C 132 12 126 12 116 11 C 110 10 109 10 108 12 C 102 15 103 19 110 22 C 117 25 119 29 119 49 C 119 67 118 69 112 71 C 109 72 108 72 102 72 C 92 70 80 70 74 70 C 44 73 43 73 43 51 C 43 30 45 25 53 21 C 54 20 55 19 55 19 C 55 18 55 17 55 16 C 56 12 54 12 46 12 C 41 11 37 11 36 12 z" fill="black"/><!-- width=163 height=159 -->
<path id="gl2841" d="M 55 15 C 34 19 19 46 25 71 C 28 87 42 100 58 101 C 76 102 98 88 91 79 C 89 78 86 78 81 81 C 64 92 43 83 40 63 C 39 55 40 50 45 48 C 46 47 48 47 66 48 C 88 48 89 48 92 44 C 96 39 90 25 82 19 C 75 15 64 13 55 15 M 67 25 C 75 29 74 37 66 39 C 54 43 45 40 46 34 C 48 26 60 22 67 25 z" fill="black"/><!-- width=109 height=114 -->
<path id="gl2561" d="M 30 16 C 25 18 22 20 21 22 C 19 25 19 26 24 36 C 25 38 25 39 25 60 C 25 85 25 84 20 90 C 15 95 15 97 18 100 C 18 100 19 100 19 101 C 24 101 29 101 34 101 C 39 101 43 101 48 101 C 49 100 49 100 50 100 C 53 97 52 95 47 90 C 42 85 42 83 42 61 C 42 54 42 48 42 42 C 43 40 43 39 44 37 C 51 24 75 25 80 39 C 81 42 81 45 81 57 C 82 79 81 85 76 90 C 70 94 70 98 73 100 C 76 102 100 102 103 100 C 108 98 108 94 103 91 C 102 90 100 87 99 85 C 99 84 98 83 97 82 C 97 74 97 66 97 58 C 97 39 97 35 96 32 C 91 15 74 10 55 19 C 48 22 46 22 42 18 C 38 14 36 13 30 16 z" fill="black"/><!-- width=120 height=116 -->
<path id="gl2337" d="M 40 25 C 32 30 31 33 36 40 C 36 42 37 44 38 46 C 38 52 38 59 38 66 C 39 91 38 93 32 99 C 28 103 27 106 31 108 C 33 110 63 110 66 109 C 71 106 70 102 64 100 C 55 97 54 94 54 73 C 54 41 57 36 70 40 C 81 44 87 41 87 33 C 87 23 78 20 66 27 C 60 30 58 30 54 26 C 50 22 48 22 40 25 z" fill="black"/><!-- width=103 height=126 -->
<path id="gl2822" d="M 87 45 C 81 46 79 49 84 55 C 88 62 87 65 81 81 C 75 96 73 99 71 99 C 67 99 66 96 63 87 C 56 67 55 61 58 55 C 61 51 61 48 58 46 C 57 45 56 45 44 45 C 29 45 27 45 25 48 C 24 51 25 53 30 58 C 36 62 38 66 42 79 C 45 85 47 91 48 92 C 51 98 57 121 57 127 C 57 135 51 150 45 156 C 42 159 42 160 34 163 C 28 165 27 168 27 174 C 27 178 28 181 32 183 C 40 187 48 182 53 171 C 61 155 66 144 67 140 C 68 138 71 132 73 126 C 75 121 78 115 79 112 C 81 109 84 102 86 97 C 89 92 93 84 94 80 C 100 67 102 64 111 56 C 115 52 116 48 111 45 C 109 44 94 44 87 45 z" fill="black"/><!-- width=126 height=196 -->
<path id="gl3335" d="M 89 27 C 85 27 73 27 62 27 C 49 28 41 28 40 28 C 36 27 31 27 28 30 C 25 33 26 37 31 40 C 39 46 39 44 39 93 C 39 149 39 150 29 155 C 26 157 24 160 24 161 C 24 163 25 166 27 166 C 29 167 69 167 71 166 C 77 164 75 157 67 155 C 59 152 58 150 57 135 C 57 123 57 111 58 108 C 59 107 60 105 61 105 C 63 104 63 103 64 103 C 67 103 70 103 74 103 C 88 104 90 105 96 114 C 104 128 109 115 107 87 C 106 80 105 78 101 78 C 99 79 97 80 96 83 C 92 91 87 93 73 93 C 57 94 58 94 58 67 C 58 47 58 45 60 42 C 63 40 66 39 73 39 C 88 39 96 42 100 49 C 106 58 107 60 110 59 C 114 58 115 57 115 48 C 115 31 112 26 101 27 C 99 27 93 27 89 27 z" fill="black"/><!-- width=124 height=180 -->
<path id="gl2572" d="M 45 12 C 25 17 13 34 13 56 C 13 70 16 78 25 87 C 34 96 40 98 55 98 C 67 98 72 96 80 89 C 94 77 100 51 91 33 C 82 16 63 7 45 12 M 61 24 C 77 31 82 60 71 78 C 64 90 49 90 40 80 C 28 68 28 39 39 28 C 46 21 52 19 61 24 z" fill="black"/><!-- width=109 height=111 -->
<path id="gl2337" d="M 40 25 C 32 30 31 33 36 40 C 36 42 37 44 38 46 C 38 52 38 59 38 66 C 39 91 38 93 32 99 C 28 103 27 106 31 108 C 33 110 63 110 66 109 C 71 106 70 102 64 100 C 55 97 54 94 54 73 C 54 41 57 36 70 40 C 81 44 87 41 87 33 C 87 23 78 20 66 27 C 60 30 58 30 54 26 C 50 22 48 22 40 25 z" fill="black"/><!-- width=103 height=126 -->
<path id="gl2569" d="M 79 8 C 78 8 74 9 72 11 C 63 15 62 18 66 26 C 69 33 70 38 70 51 C 70 68 70 69 55 70 C 37 70 25 76 16 90 C 4 109 7 138 24 149 C 34 156 44 157 56 154 C 64 151 66 151 69 153 C 75 158 78 158 91 154 C 102 150 103 144 94 140 C 91 138 90 138 88 135 C 88 135 88 133 87 133 C 87 123 87 112 87 102 C 87 85 87 58 88 43 C 88 13 88 11 86 9 C 84 7 82 7 79 8 M 59 81 C 63 82 66 85 68 90 C 69 91 69 92 70 93 C 70 99 70 105 70 110 C 70 132 69 136 63 139 C 59 141 47 141 42 138 C 21 128 23 90 45 82 C 48 81 55 81 59 81 z" fill="black"/><!-- width=119 height=198 -->
<path id="gl3085" d="M 43 3 C 42 4 40 4 39 5 C 38 6 36 7 34 7 C 27 10 19 15 16 22 C 13 27 13 28 16 31 C 22 34 28 31 31 24 C 35 14 43 11 51 16 C 55 18 56 20 57 26 C 58 36 57 40 51 42 C 49 42 45 43 42 45 C 39 46 33 48 30 49 C 22 52 19 54 16 58 C 13 65 14 76 19 81 C 25 87 39 87 48 81 C 53 78 57 78 61 81 C 69 85 76 87 81 84 C 82 84 84 83 85 82 C 91 79 90 73 84 73 C 72 71 71 67 72 39 C 73 22 73 19 70 12 C 66 4 55 1 43 3 M 55 52 C 60 55 57 67 51 70 C 42 76 29 71 31 63 C 34 55 49 48 55 52 z" fill="black"/><!-- width=100 height=100 -->
<path id="gl2561" d="M 30 16 C 25 18 22 20 21 22 C 19 25 19 26 24 36 C 25 38 25 39 25 60 C 25 85 25 84 20 90 C 15 95 15 97 18 100 C 18 100 19 100 19 101 C 24 101 29 101 34 101 C 39 101 43 101 48 101 C 49 100 49 100 50 100 C 53 97 52 95 47 90 C 42 85 42 83 42 61 C 42 54 42 48 42 42 C 43 40 43 39 44 37 C 51 24 75 25 80 39 C 81 42 81 45 81 57 C 82 79 81 85 76 90 C 70 94 70 98 73 100 C 76 102 100 102 103 100 C 108 98 108 94 103 91 C 102 90 100 87 99 85 C 99 84 98 83 97 82 C 97 74 97 66 97 58 C 97 39 97 35 96 32 C 91 15 74 10 55 19 C 48 22 46 22 42 18 C 38 14 36 13 30 16 z" fill="black"/><!-- width=120 height=116 -->
<path id="gl2569" d="M 79 8 C 78 8 74 9 72 11 C 63 15 62 18 66 26 C 69 33 70 38 70 51 C 70 68 70 69 55 70 C 37 70 25 76 16 90 C 4 109 7 138 24 149 C 34 156 44 157 56 154 C 64 151 66 151 69 153 C 75 158 78 158 91 154 C 102 150 103 144 94 140 C 91 138 90 138 88 135 C 88 135 88 133 87 133 C 87 123 87 112 87 102 C 87 85 87 58 88 43 C 88 13 88 11 86 9 C 84 7 82 7 79 8 M 59 81 C 63 82 66 85 68 90 C 69 91 69 92 70 93 C 70 99 70 105 70 110 C 70 132 69 136 63 139 C 59 141 47 141 42 138 C 21 128 23 90 45 82 C 48 81 55 81 59 81 z" fill="black"/><!-- width=119 height=198 -->
<path id="gl3088" d="M 53 10 C 52 10 49 10 47 11 C 34 13 22 20 18 29 C 12 42 12 54 20 65 C 25 73 32 79 48 89 C 66 100 70 105 70 118 C 70 139 45 146 25 131 C 22 129 22 127 19 123 C 15 114 14 112 11 113 C 7 113 6 114 7 122 C 7 135 11 144 19 147 C 31 152 47 153 61 148 C 69 146 71 144 78 138 C 85 130 87 126 87 114 C 87 94 81 85 53 68 C 37 58 32 52 31 42 C 31 30 37 23 51 23 C 63 23 69 26 74 35 C 78 42 81 43 84 40 C 88 37 88 29 84 20 C 83 16 81 13 77 12 C 73 11 56 9 53 10 z" fill="black"/><!-- width=99 height=165 -->
<path id="gl3072" d="M 47 9 C 29 10 10 29 19 36 C 23 40 30 36 34 28 C 39 20 45 17 51 21 C 61 25 61 46 52 51 C 51 51 46 52 40 54 C 21 60 15 64 16 77 C 17 88 24 93 35 93 C 37 93 39 93 42 93 C 44 92 46 91 48 90 C 55 87 57 86 61 88 C 71 94 75 95 82 91 C 91 87 92 82 84 80 C 75 78 74 78 74 49 C 75 25 74 24 71 18 C 67 11 58 7 47 9 M 55 59 C 61 62 60 75 53 79 C 45 85 34 81 34 72 C 34 64 48 55 55 59 z" fill="black"/><!-- width=105 height=114 -->
<path id="gl2816" d="M 32 16 C 23 21 21 24 25 33 C 28 40 29 43 28 61 C 28 84 27 87 21 91 C 16 95 15 99 20 101 C 24 103 47 103 51 100 C 55 99 55 95 51 90 C 46 84 45 78 45 57 C 45 42 46 39 49 34 C 57 25 73 26 78 36 C 81 40 81 43 81 58 C 81 80 81 84 75 91 C 70 96 71 100 77 102 C 80 102 99 102 102 101 C 108 100 109 96 104 91 C 99 84 98 82 98 61 C 98 42 99 39 102 34 C 108 27 122 26 129 33 C 133 38 135 43 134 64 C 134 83 133 84 129 90 C 124 95 124 98 127 100 C 130 102 154 103 157 101 C 162 99 162 96 157 90 C 151 84 151 84 151 59 C 151 35 151 33 147 26 C 139 12 126 10 106 20 C 97 25 95 25 88 20 C 80 13 72 13 58 18 C 51 21 49 21 45 16 C 41 13 39 13 32 16 z" fill="black"/><!-- width=175 height=115 -->
<path id="gl2589" d="M 24 10 C 14 12 11 16 16 22 C 21 28 21 28 21 53 C 21 75 21 77 24 83 C 27 90 34 94 43 94 C 50 94 54 94 61 90 C 69 85 70 86 75 90 C 78 94 79 94 83 94 C 87 93 99 90 100 89 C 105 86 104 82 98 79 C 95 78 94 77 93 75 C 93 74 92 73 91 72 C 91 63 91 53 91 44 C 91 11 91 14 90 12 C 88 9 84 9 78 10 C 64 12 61 15 69 22 C 75 28 75 28 75 51 C 75 68 75 68 74 71 C 69 81 50 85 42 76 C 37 72 37 71 37 40 C 37 12 37 12 34 10 C 32 9 30 9 24 10 z" fill="black"/><!-- width=116 height=111 -->
<path id="gl2841" d="M 55 15 C 34 19 19 46 25 71 C 28 87 42 100 58 101 C 76 102 98 88 91 79 C 89 78 86 78 81 81 C 64 92 43 83 40 63 C 39 55 40 50 45 48 C 46 47 48 47 66 48 C 88 48 89 48 92 44 C 96 39 90 25 82 19 C 75 15 64 13 55 15 M 67 25 C 75 29 74 37 66 39 C 54 43 45 40 46 34 C 48 26 60 22 67 25 z" fill="black"/><!-- width=109 height=114 -->
<path id="gl2832" d="M 25 12 C 18 15 14 18 14 21 C 14 21 16 24 18 25 C 25 32 24 27 24 85 C 24 115 24 137 23 139 C 22 142 21 145 17 147 C 12 151 11 154 15 156 C 18 157 44 157 47 157 C 51 155 51 152 46 147 C 40 141 40 144 41 72 C 42 39 42 16 41 15 C 40 9 35 8 25 12 z" fill="black"/><!-- width=64 height=172 -->
<path id="gl3616" d="M 108 9 C 84 12 64 25 54 43 C 43 62 42 91 50 109 C 64 138 96 153 132 148 C 136 147 144 146 149 145 C 162 144 165 141 170 131 C 175 120 176 117 173 114 C 169 110 166 112 157 121 C 139 141 108 141 85 122 C 67 107 61 79 70 54 C 78 31 102 18 127 21 C 139 22 149 28 157 40 C 160 45 163 48 166 48 C 171 48 172 43 172 31 C 171 19 169 17 154 13 C 135 9 119 7 108 9 z" fill="black"/><!-- width=186 height=161 -->
<path id="gl2337" d="M 40 25 C 32 30 31 33 36 40 C 36 42 37 44 38 46 C 38 52 38 59 38 66 C 39 91 38 93 32 99 C 28 103 27 106 31 108 C 33 110 63 110 66 109 C 71 106 70 102 64 100 C 55 97 54 94 54 73 C 54 41 57 36 70 40 C 81 44 87 41 87 33 C 87 23 78 20 66 27 C 60 30 58 30 54 26 C 50 22 48 22 40 25 z" fill="black"/><!-- width=103 height=126 -->
<path id="gl2572" d="M 45 12 C 25 17 13 34 13 56 C 13 70 16 78 25 87 C 34 96 40 98 55 98 C 67 98 72 96 80 89 C 94 77 100 51 91 33 C 82 16 63 7 45 12 M 61 24 C 77 31 82 60 71 78 C 64 90 49 90 40 80 C 28 68 28 39 39 28 C 46 21 52 19 61 24 z" fill="black"/><!-- width=109 height=111 -->
<path id="gl3075" d="M 127 23 C 121 24 120 27 123 33 C 126 39 125 42 117 64 C 114 75 109 76 104 68 C 102 63 95 45 95 42 C 94 38 96 34 99 33 C 102 30 103 26 99 24 C 97 24 70 23 68 24 C 64 27 65 30 72 35 C 77 39 78 48 72 59 C 70 61 69 66 68 67 C 63 78 58 75 52 60 C 45 42 45 38 51 31 C 52 29 52 29 51 27 C 50 24 48 24 33 24 C 28 24 23 24 18 24 C 18 24 17 25 16 25 C 13 29 15 31 21 36 C 25 39 28 43 34 58 C 36 62 39 69 40 74 C 45 83 48 93 48 95 C 48 98 51 106 53 108 C 58 112 63 109 66 98 C 70 84 73 74 76 69 C 79 62 80 61 83 62 C 86 62 87 63 89 67 C 93 77 94 82 99 98 C 102 108 103 111 109 109 C 112 108 113 107 117 96 C 124 72 141 37 144 36 C 145 36 146 35 148 33 C 153 30 152 26 147 24 C 145 22 132 22 127 23 z" fill="black"/><!-- width=162 height=120 -->
<path id="gl2834" d="M 38 15 C 37 15 36 17 34 19 C 33 21 30 24 27 27 C 21 33 21 34 25 39 C 29 43 29 43 29 67 C 28 101 30 106 41 111 C 52 117 71 110 71 102 C 71 97 67 97 60 99 C 52 100 48 97 45 89 C 45 88 45 78 45 66 C 44 38 44 38 58 39 C 66 39 67 39 69 37 C 73 34 72 30 68 27 C 66 27 64 27 58 27 C 55 27 52 27 50 27 C 49 27 49 26 48 25 C 48 24 46 22 46 19 C 43 13 42 12 38 15 z" fill="black"/><!-- width=84 height=127 -->
<path id="gl2591" d="M 43 9 C 37 11 30 16 28 19 C 27 22 27 24 31 27 C 33 28 34 30 36 33 C 36 34 36 35 37 36 C 37 52 37 68 37 84 C 37 119 36 132 36 135 C 35 139 33 143 31 145 C 26 148 26 152 30 154 C 32 156 33 156 45 156 C 58 156 61 155 63 153 C 64 150 64 148 60 145 C 55 138 55 138 55 114 C 54 91 55 90 58 86 C 64 79 78 77 87 84 C 93 88 96 101 93 127 C 93 137 91 140 87 144 C 84 148 83 150 84 152 C 85 155 88 156 103 156 C 118 156 121 155 122 152 C 123 149 123 149 117 144 C 112 139 112 138 112 113 C 111 84 111 80 105 74 C 97 65 84 64 69 71 C 62 74 59 75 57 72 C 54 69 54 66 55 41 C 55 29 55 18 55 16 C 54 10 51 7 43 9 z" fill="black"/><!-- width=135 height=190 -->
<path id="gl2841" d="M 55 15 C 34 19 19 46 25 71 C 28 87 42 100 58 101 C 76 102 98 88 91 79 C 89 78 86 78 81 81 C 64 92 43 83 40 63 C 39 55 40 50 45 48 C 46 47 48 47 66 48 C 88 48 89 48 92 44 C 96 39 90 25 82 19 C 75 15 64 13 55 15 M 67 25 C 75 29 74 37 66 39 C 54 43 45 40 46 34 C 48 26 60 22 67 25 z" fill="black"/><!-- width=109 height=114 -->
<path id="gl2337" d="M 40 25 C 32 30 31 33 36 40 C 36 42 37 44 38 46 C 38 52 38 59 38 66 C 39 91 38 93 32 99 C 28 103 27 106 31 108 C 33 110 63 110 66 109 C 71 106 70 102 64 100 C 55 97 54 94 54 73 C 54 41 57 36 70 40 C 81 44 87 41 87 33 C 87 23 78 20 66 27 C 60 30 58 30 54 26 C 50 22 48 22 40 25 z" fill="black"/><!-- width=103 height=126 -->
<path id="gl2844" d="M 19 14 C 15 16 12 21 13 26 C 15 33 28 35 32 28 C 37 20 28 10 19 14 z" fill="black"/><!-- width=47 height=46 -->
<path id="gl3616" d="M 108 9 C 84 12 64 25 54 43 C 43 62 42 91 50 109 C 64 138 96 153 132 148 C 136 147 144 146 149 145 C 162 144 165 141 170 131 C 175 120 176 117 173 114 C 169 110 166 112 157 121 C 139 141 108 141 85 122 C 67 107 61 79 70 54 C 78 31 102 18 127 21 C 139 22 149 28 157 40 C 160 45 163 48 166 48 C 171 48 172 43 172 31 C 171 19 169 17 154 13 C 135 9 119 7 108 9 z" fill="black"/><!-- width=186 height=161 -->
<path id="gl2572" d="M 45 12 C 25 17 13 34 13 56 C 13 70 16 78 25 87 C 34 96 40 98 55 98 C 67 98 72 96 80 89 C 94 77 100 51 91 33 C 82 16 63 7 45 12 M 61 24 C 77 31 82 60 71 78 C 64 90 49 90 40 80 C 28 68 28 39 39 28 C 46 21 52 19 61 24 z" fill="black"/><!-- width=109 height=111 -->
<path id="gl2846" d="M 45 33 C 40 34 33 39 32 41 C 30 44 30 46 33 52 C 37 59 37 59 37 104 C 37 153 37 153 30 159 C 27 162 26 165 27 167 C 28 171 30 171 48 171 C 64 171 67 170 67 167 C 69 163 68 163 60 158 C 55 155 54 151 54 137 C 54 120 54 120 69 120 C 82 120 87 118 94 114 C 117 99 123 63 105 45 C 94 33 85 31 69 37 C 60 40 58 40 55 36 C 51 31 49 31 45 33 M 79 49 C 90 53 96 62 96 76 C 96 96 87 108 72 108 C 63 108 57 105 55 98 C 54 95 53 63 54 58 C 58 49 67 45 79 49 z" fill="black"/><!-- width=130 height=184 -->
<path id="gl2822" d="M 87 45 C 81 46 79 49 84 55 C 88 62 87 65 81 81 C 75 96 73 99 71 99 C 67 99 66 96 63 87 C 56 67 55 61 58 55 C 61 51 61 48 58 46 C 57 45 56 45 44 45 C 29 45 27 45 25 48 C 24 51 25 53 30 58 C 36 62 38 66 42 79 C 45 85 47 91 48 92 C 51 98 57 121 57 127 C 57 135 51 150 45 156 C 42 159 42 160 34 163 C 28 165 27 168 27 174 C 27 178 28 181 32 183 C 40 187 48 182 53 171 C 61 155 66 144 67 140 C 68 138 71 132 73 126 C 75 121 78 115 79 112 C 81 109 84 102 86 97 C 89 92 93 84 94 80 C 100 67 102 64 111 56 C 115 52 116 48 111 45 C 109 44 94 44 87 45 z" fill="black"/><!-- width=126 height=196 -->
<path id="gl2337" d="M 40 25 C 32 30 31 33 36 40 C 36 42 37 44 38 46 C 38 52 38 59 38 66 C 39 91 38 93 32 99 C 28 103 27 106 31 108 C 33 110 63 110 66 109 C 71 106 70 102 64 100 C 55 97 54 94 54 73 C 54 41 57 36 70 40 C 81 44 87 41 87 33 C 87 23 78 20 66 27 C 60 30 58 30 54 26 C 50 22 48 22 40 25 z" fill="black"/><!-- width=103 height=126 -->
<path id="gl2571" d="M 26 7 C 20 9 17 16 19 22 C 24 33 39 31 42 21 C 43 12 34 4 26 7 M 32 57 C 30 58 23 61 20 63 C 16 66 16 70 19 76 C 22 82 23 83 23 105 C 23 130 23 130 16 136 C 12 141 11 144 16 146 C 18 147 42 148 45 147 C 50 144 50 141 45 136 C 39 130 39 129 39 105 C 39 94 40 80 40 73 C 40 61 40 60 37 58 C 35 57 34 57 32 57 z" fill="black"/><!-- width=61 height=186 -->
<path id="gl2560" d="M 50 11 C 28 16 18 42 31 61 C 36 70 36 72 28 79 C 22 86 21 91 27 97 C 33 105 33 108 25 115 C 21 120 20 122 20 127 C 20 150 61 157 88 140 C 99 133 106 121 105 109 C 103 94 94 90 63 91 C 57 91 50 91 49 91 C 41 90 38 82 44 76 C 46 73 49 73 60 72 C 69 72 72 72 77 68 C 85 63 89 55 91 40 C 91 34 94 31 100 29 C 105 27 108 25 106 22 C 105 18 103 17 94 17 C 92 17 89 17 87 17 C 84 16 80 15 77 14 C 66 10 56 9 50 11 M 66 22 C 70 25 73 31 74 37 C 76 52 67 66 57 63 C 45 60 39 43 46 30 C 50 22 60 18 66 22 M 73 105 C 79 106 82 108 85 111 C 95 122 82 135 61 135 C 46 135 39 131 38 121 C 37 108 49 103 73 105 z" fill="black"/><!-- width=118 height=162 -->
<path id="gl3617" d="M 40 12 C 26 16 24 20 31 27 C 34 30 36 32 37 34 C 37 37 38 84 37 115 C 37 142 37 142 32 147 C 28 151 28 155 33 157 C 35 159 57 158 60 157 C 65 155 65 153 61 147 C 56 141 55 139 55 114 C 55 88 56 86 63 81 C 69 78 83 79 89 84 C 95 88 96 92 96 113 C 95 138 94 141 88 148 C 84 153 84 155 90 157 C 93 158 115 158 118 157 C 123 154 124 152 120 148 C 114 143 113 138 114 109 C 114 83 113 79 106 72 C 102 67 98 66 89 66 C 81 66 77 67 71 72 C 65 75 62 76 59 73 C 55 70 55 69 56 42 C 57 18 57 16 55 14 C 53 9 48 8 40 12 z" fill="black"/><!-- width=136 height=191 -->
<path id="gl2834" d="M 38 15 C 37 15 36 17 34 19 C 33 21 30 24 27 27 C 21 33 21 34 25 39 C 29 43 29 43 29 67 C 28 101 30 106 41 111 C 52 117 71 110 71 102 C 71 97 67 97 60 99 C 52 100 48 97 45 89 C 45 88 45 78 45 66 C 44 38 44 38 58 39 C 66 39 67 39 69 37 C 73 34 72 30 68 27 C 66 27 64 27 58 27 C 55 27 52 27 50 27 C 49 27 49 26 48 25 C 48 24 46 22 46 19 C 43 13 42 12 38 15 z" fill="black"/><!-- width=84 height=127 -->
<path id="gl3618" d="M 38 14 C -15 52 4 139 72 139 C 120 139 144 115 144 72 C 144 14 81 -15 38 14 M 110 24 C 144 52 139 105 96 124 C 43 148 0 81 38 33 C 57 9 81 9 110 24 M 52 43 C 19 72 43 120 91 115 C 96 110 105 105 110 100 C 115 91 110 86 100 96 C 86 105 72 105 62 91 C 43 62 67 24 96 48 C 110 57 115 52 110 38 C 105 28 67 28 52 43 z" fill="black"/><!-- width=158 height=153 -->
<path id="gl3331" d="M 32 10 C 28 12 25 13 20 13 C 15 15 14 15 12 17 C 9 21 10 24 18 26 C 24 27 25 28 27 32 C 27 33 28 34 28 36 C 28 49 28 63 28 76 C 28 99 28 118 28 120 C 27 124 24 127 19 129 C 13 131 12 135 16 138 C 18 139 53 139 57 137 C 61 135 60 131 54 129 C 49 127 47 125 46 121 C 45 119 45 115 45 72 C 45 46 45 23 45 21 C 46 14 45 10 42 8 C 40 7 38 7 32 10 z" fill="black"/><!-- width=71 height=151 -->
<path id="gl2827" d="M 37 34 C 17 38 5 57 7 80 C 10 102 22 114 39 112 C 45 112 51 108 51 105 C 51 104 47 101 42 99 C 36 96 33 94 30 90 C 18 71 27 43 45 44 C 55 45 61 51 65 67 C 66 70 67 73 67 76 C 67 81 67 85 67 89 C 67 102 67 102 65 111 C 64 115 63 120 62 121 C 61 122 60 124 60 126 C 55 142 42 154 24 162 C 9 169 7 172 11 178 C 12 180 12 180 17 179 C 19 179 22 178 23 178 C 24 178 26 177 28 176 C 33 174 38 172 43 168 C 45 167 48 165 49 164 C 56 159 69 145 73 138 C 88 110 91 73 79 52 C 70 36 56 30 37 34 z" fill="black"/><!-- width=99 height=190 -->
<path id="gl3608" d="M 44 8 C 31 9 22 15 15 24 C 12 31 10 34 12 38 C 14 44 18 43 22 37 C 35 19 55 17 63 34 C 69 48 66 64 52 84 C 36 106 30 113 18 122 C 9 129 7 132 9 136 C 10 139 10 139 47 139 C 58 139 69 139 81 139 C 82 138 82 138 84 137 C 91 133 98 114 92 112 C 89 111 88 111 83 115 C 76 121 72 123 59 123 C 49 124 43 123 41 120 C 39 117 41 114 52 102 C 69 85 81 67 84 55 C 90 33 79 12 61 9 C 55 7 49 7 44 8 z" fill="black"/><!-- width=111 height=157 -->
<path id="gl3328" d="M 88 3 C 87 3 85 4 84 4 C 83 5 80 6 78 7 C 76 7 73 9 72 9 C 72 10 69 11 67 12 C 65 13 63 13 62 14 C 61 15 60 16 59 16 C 51 20 33 38 29 46 C 23 57 19 66 18 70 C 18 71 18 73 17 74 C 16 76 15 81 15 92 C 15 95 15 98 15 101 C 15 104 16 107 17 110 C 18 115 20 121 21 123 C 24 131 33 140 38 141 C 39 142 42 142 43 143 C 46 145 55 146 61 145 C 78 145 90 135 97 121 C 101 110 102 95 98 85 C 91 69 77 61 59 66 C 55 66 50 70 50 72 C 50 74 54 76 57 76 C 72 76 81 85 81 102 C 82 108 81 114 79 118 C 73 132 63 137 52 132 C 41 126 37 119 34 99 C 33 90 34 80 36 75 C 36 73 37 71 37 69 C 41 51 60 28 77 22 C 79 21 81 20 82 19 C 84 18 86 17 90 16 C 91 16 93 15 94 14 C 96 13 97 12 98 11 C 99 10 99 10 100 10 C 99 9 99 8 99 7 C 96 3 93 1 88 3 z" fill="black"/><!-- width=111 height=173 -->
<path id="gl2590" d="M 45 9 C 40 10 34 13 32 15 C 29 19 29 21 33 27 C 34 30 36 34 36 36 C 37 40 37 70 37 110 C 37 133 37 146 37 148 C 38 151 40 153 45 154 C 46 154 51 155 55 156 C 84 160 105 152 115 132 C 123 117 121 96 111 83 C 100 69 85 65 69 72 C 62 74 60 74 57 72 C 55 70 54 67 55 46 C 56 13 56 12 52 9 C 50 8 49 8 45 9 M 79 83 C 92 86 100 97 100 113 C 100 132 91 144 76 145 C 64 145 57 139 55 127 C 54 120 55 93 56 89 C 58 86 61 83 64 82 C 65 82 67 82 67 82 C 68 81 76 82 79 83 z" fill="black"/><!-- width=135 height=188 -->
<path id="gl2822" d="M 87 45 C 81 46 79 49 84 55 C 88 62 87 65 81 81 C 75 96 73 99 71 99 C 67 99 66 96 63 87 C 56 67 55 61 58 55 C 61 51 61 48 58 46 C 57 45 56 45 44 45 C 29 45 27 45 25 48 C 24 51 25 53 30 58 C 36 62 38 66 42 79 C 45 85 47 91 48 92 C 51 98 57 121 57 127 C 57 135 51 150 45 156 C 42 159 42 160 34 163 C 28 165 27 168 27 174 C 27 178 28 181 32 183 C 40 187 48 182 53 171 C 61 155 66 144 67 140 C 68 138 71 132 73 126 C 75 121 78 115 79 112 C 81 109 84 102 86 97 C 89 92 93 84 94 80 C 100 67 102 64 111 56 C 115 52 116 48 111 45 C 109 44 94 44 87 45 z" fill="black"/><!-- width=126 height=196 -->
<path id="gl3619" d="M 73 9 C 73 9 68 10 62 10 C 55 10 48 11 45 12 C 40 12 37 12 30 12 C 28 12 25 12 22 12 C 21 12 20 13 19 14 C 16 16 16 16 18 19 C 19 21 21 22 22 24 C 26 25 28 28 28 33 C 30 37 30 123 28 127 C 28 133 25 136 20 139 C 17 140 16 141 15 143 C 13 145 13 146 16 148 C 20 149 82 150 91 148 C 112 144 127 136 138 121 C 148 107 154 84 151 66 C 148 49 145 43 135 31 C 129 24 112 15 100 13 C 99 13 97 13 96 12 C 94 12 89 10 82 10 C 80 10 77 9 76 9 C 75 9 74 9 73 9 M 70 21 C 72 22 78 22 82 23 C 91 24 99 27 108 32 C 130 46 137 82 123 111 C 117 122 106 130 93 134 C 75 139 61 140 55 135 C 49 131 49 128 49 75 C 49 40 49 30 50 28 C 51 25 55 21 57 21 C 61 20 67 21 70 21 z" fill="black"/><!-- width=162 height=160 -->
<path id="gl2572" d="M 45 12 C 25 17 13 34 13 56 C 13 70 16 78 25 87 C 34 96 40 98 55 98 C 67 98 72 96 80 89 C 94 77 100 51 91 33 C 82 16 63 7 45 12 M 61 24 C 77 31 82 60 71 78 C 64 90 49 90 40 80 C 28 68 28 39 39 28 C 46 21 52 19 61 24 z" fill="black"/><!-- width=109 height=111 -->
<path id="gl2589" d="M 24 10 C 14 12 11 16 16 22 C 21 28 21 28 21 53 C 21 75 21 77 24 83 C 27 90 34 94 43 94 C 50 94 54 94 61 90 C 69 85 70 86 75 90 C 78 94 79 94 83 94 C 87 93 99 90 100 89 C 105 86 104 82 98 79 C 95 78 94 77 93 75 C 93 74 92 73 91 72 C 91 63 91 53 91 44 C 91 11 91 14 90 12 C 88 9 84 9 78 10 C 64 12 61 15 69 22 C 75 28 75 28 75 51 C 75 68 75 68 74 71 C 69 81 50 85 42 76 C 37 72 37 71 37 40 C 37 12 37 12 34 10 C 32 9 30 9 24 10 z" fill="black"/><!-- width=116 height=111 -->
<path id="gl2590" d="M 45 9 C 40 10 34 13 32 15 C 29 19 29 21 33 27 C 34 30 36 34 36 36 C 37 40 37 70 37 110 C 37 133 37 146 37 148 C 38 151 40 153 45 154 C 46 154 51 155 55 156 C 84 160 105 152 115 132 C 123 117 121 96 111 83 C 100 69 85 65 69 72 C 62 74 60 74 57 72 C 55 70 54 67 55 46 C 56 13 56 12 52 9 C 50 8 49 8 45 9 M 79 83 C 92 86 100 97 100 113 C 100 132 91 144 76 145 C 64 145 57 139 55 127 C 54 120 55 93 56 89 C 58 86 61 83 64 82 C 65 82 67 82 67 82 C 68 81 76 82 79 83 z" fill="black"/><!-- width=135 height=188 -->
<path id="gl2832" d="M 25 12 C 18 15 14 18 14 21 C 14 21 16 24 18 25 C 25 32 24 27 24 85 C 24 115 24 137 23 139 C 22 142 21 145 17 147 C 12 151 11 154 15 156 C 18 157 44 157 47 157 C 51 155 51 152 46 147 C 40 141 40 144 41 72 C 42 39 42 16 41 15 C 40 9 35 8 25 12 z" fill="black"/><!-- width=64 height=172 -->
<path id="gl2841" d="M 55 15 C 34 19 19 46 25 71 C 28 87 42 100 58 101 C 76 102 98 88 91 79 C 89 78 86 78 81 81 C 64 92 43 83 40 63 C 39 55 40 50 45 48 C 46 47 48 47 66 48 C 88 48 89 48 92 44 C 96 39 90 25 82 19 C 75 15 64 13 55 15 M 67 25 C 75 29 74 37 66 39 C 54 43 45 40 46 34 C 48 26 60 22 67 25 z" fill="black"/><!-- width=109 height=114 -->
<path id="gl2569" d="M 79 8 C 78 8 74 9 72 11 C 63 15 62 18 66 26 C 69 33 70 38 70 51 C 70 68 70 69 55 70 C 37 70 25 76 16 90 C 4 109 7 138 24 149 C 34 156 44 157 56 154 C 64 151 66 151 69 153 C 75 158 78 158 91 154 C 102 150 103 144 94 140 C 91 138 90 138 88 135 C 88 135 88 133 87 133 C 87 123 87 112 87 102 C 87 85 87 58 88 43 C 88 13 88 11 86 9 C 84 7 82 7 79 8 M 59 81 C 63 82 66 85 68 90 C 69 91 69 92 70 93 C 70 99 70 105 70 110 C 70 132 69 136 63 139 C 59 141 47 141 42 138 C 21 128 23 90 45 82 C 48 81 55 81 59 81 z" fill="black"/><!-- width=119 height=198 -->
<path id="gl3072" d="M 47 9 C 29 10 10 29 19 36 C 23 40 30 36 34 28 C 39 20 45 17 51 21 C 61 25 61 46 52 51 C 51 51 46 52 40 54 C 21 60 15 64 16 77 C 17 88 24 93 35 93 C 37 93 39 93 42 93 C 44 92 46 91 48 90 C 55 87 57 86 61 88 C 71 94 75 95 82 91 C 91 87 92 82 84 80 C 75 78 74 78 74 49 C 75 25 74 24 71 18 C 67 11 58 7 47 9 M 55 59 C 61 62 60 75 53 79 C 45 85 34 81 34 72 C 34 64 48 55 55 59 z" fill="black"/><!-- width=105 height=114 -->
<path id="gl2822" d="M 87 45 C 81 46 79 49 84 55 C 88 62 87 65 81 81 C 75 96 73 99 71 99 C 67 99 66 96 63 87 C 56 67 55 61 58 55 C 61 51 61 48 58 46 C 57 45 56 45 44 45 C 29 45 27 45 25 48 C 24 51 25 53 30 58 C 36 62 38 66 42 79 C 45 85 47 91 48 92 C 51 98 57 121 57 127 C 57 135 51 150 45 156 C 42 159 42 160 34 163 C 28 165 27 168 27 174 C 27 178 28 181 32 183 C 40 187 48 182 53 171 C 61 155 66 144 67 140 C 68 138 71 132 73 126 C 75 121 78 115 79 112 C 81 109 84 102 86 97 C 89 92 93 84 94 80 C 100 67 102 64 111 56 C 115 52 116 48 111 45 C 109 44 94 44 87 45 z" fill="black"/><!-- width=126 height=196 -->
<path id="gl3620" d="M 38 9 C 28 19 24 19 28 38 C 28 52 28 57 19 72 C -5 115 38 158 76 129 C 91 120 91 120 100 129 C 115 144 163 139 163 120 C 163 120 153 120 144 120 C 124 124 110 115 110 100 C 110 91 134 52 148 48 C 168 38 163 38 134 38 C 115 38 110 38 115 48 C 120 52 105 86 100 86 C 96 86 72 57 72 52 C 72 48 72 43 76 43 C 100 19 62 -5 38 9 M 62 28 C 67 33 62 38 62 43 C 52 48 38 33 43 24 C 48 14 62 19 62 28 M 67 81 C 86 100 86 110 67 120 C 38 129 14 96 33 72 C 43 62 48 62 67 81 z" fill="black"/><!-- width=168 height=148 -->
<path id="gl3621" d="M 48 14 C 0 38 0 110 43 139 C 72 153 129 148 134 124 C 139 110 129 105 124 115 C 110 139 72 139 48 120 C 28 105 24 57 38 38 C 62 14 105 14 120 38 C 124 48 134 48 134 28 C 134 19 129 14 124 9 C 110 4 62 9 48 14 z" fill="black"/><!-- width=144 height=158 -->
<path id="gl2572" d="M 45 12 C 25 17 13 34 13 56 C 13 70 16 78 25 87 C 34 96 40 98 55 98 C 67 98 72 96 80 89 C 94 77 100 51 91 33 C 82 16 63 7 45 12 M 61 24 C 77 31 82 60 71 78 C 64 90 49 90 40 80 C 28 68 28 39 39 28 C 46 21 52 19 61 24 z" fill="black"/><!-- width=109 height=111 -->
<path id="gl2816" d="M 32 16 C 23 21 21 24 25 33 C 28 40 29 43 28 61 C 28 84 27 87 21 91 C 16 95 15 99 20 101 C 24 103 47 103 51 100 C 55 99 55 95 51 90 C 46 84 45 78 45 57 C 45 42 46 39 49 34 C 57 25 73 26 78 36 C 81 40 81 43 81 58 C 81 80 81 84 75 91 C 70 96 71 100 77 102 C 80 102 99 102 102 101 C 108 100 109 96 104 91 C 99 84 98 82 98 61 C 98 42 99 39 102 34 C 108 27 122 26 129 33 C 133 38 135 43 134 64 C 134 83 133 84 129 90 C 124 95 124 98 127 100 C 130 102 154 103 157 101 C 162 99 162 96 157 90 C 151 84 151 84 151 59 C 151 35 151 33 147 26 C 139 12 126 10 106 20 C 97 25 95 25 88 20 C 80 13 72 13 58 18 C 51 21 49 21 45 16 C 41 13 39 13 32 16 z" fill="black"/><!-- width=175 height=115 -->
<path id="gl2846" d="M 45 33 C 40 34 33 39 32 41 C 30 44 30 46 33 52 C 37 59 37 59 37 104 C 37 153 37 153 30 159 C 27 162 26 165 27 167 C 28 171 30 171 48 171 C 64 171 67 170 67 167 C 69 163 68 163 60 158 C 55 155 54 151 54 137 C 54 120 54 120 69 120 C 82 120 87 118 94 114 C 117 99 123 63 105 45 C 94 33 85 31 69 37 C 60 40 58 40 55 36 C 51 31 49 31 45 33 M 79 49 C 90 53 96 62 96 76 C 96 96 87 108 72 108 C 63 108 57 105 55 98 C 54 95 53 63 54 58 C 58 49 67 45 79 49 z" fill="black"/><!-- width=130 height=184 -->
<path id="gl3072" d="M 47 9 C 29 10 10 29 19 36 C 23 40 30 36 34 28 C 39 20 45 17 51 21 C 61 25 61 46 52 51 C 51 51 46 52 40 54 C 21 60 15 64 16 77 C 17 88 24 93 35 93 C 37 93 39 93 42 93 C 44 92 46 91 48 90 C 55 87 57 86 61 88 C 71 94 75 95 82 91 C 91 87 92 82 84 80 C 75 78 74 78 74 49 C 75 25 74 24 71 18 C 67 11 58 7 47 9 M 55 59 C 61 62 60 75 53 79 C 45 85 34 81 34 72 C 34 64 48 55 55 59 z" fill="black"/><!-- width=105 height=114 -->
<path id="gl2561" d="M 30 16 C 25 18 22 20 21 22 C 19 25 19 26 24 36 C 25 38 25 39 25 60 C 25 85 25 84 20 90 C 15 95 15 97 18 100 C 18 100 19 100 19 101 C 24 101 29 101 34 101 C 39 101 43 101 48 101 C 49 100 49 100 50 100 C 53 97 52 95 47 90 C 42 85 42 83 42 61 C 42 54 42 48 42 42 C 43 40 43 39 44 37 C 51 24 75 25 80 39 C 81 42 81 45 81 57 C 82 79 81 85 76 90 C 70 94 70 98 73 100 C 76 102 100 102 103 100 C 108 98 108 94 103 91 C 102 90 100 87 99 85 C 99 84 98 83 97 82 C 97 74 97 66 97 58 C 97 39 97 35 96 32 C 91 15 74 10 55 19 C 48 22 46 22 42 18 C 38 14 36 13 30 16 z" fill="black"/><!-- width=120 height=116 -->
<path id="gl2822" d="M 87 45 C 81 46 79 49 84 55 C 88 62 87 65 81 81 C 75 96 73 99 71 99 C 67 99 66 96 63 87 C 56 67 55 61 58 55 C 61 51 61 48 58 46 C 57 45 56 45 44 45 C 29 45 27 45 25 48 C 24 51 25 53 30 58 C 36 62 38 66 42 79 C 45 85 47 91 48 92 C 51 98 57 121 57 127 C 57 135 51 150 45 156 C 42 159 42 160 34 163 C 28 165 27 168 27 174 C 27 178 28 181 32 183 C 40 187 48 182 53 171 C 61 155 66 144 67 140 C 68 138 71 132 73 126 C 75 121 78 115 79 112 C 81 109 84 102 86 97 C 89 92 93 84 94 80 C 100 67 102 64 111 56 C 115 52 116 48 111 45 C 109 44 94 44 87 45 z" fill="black"/><!-- width=126 height=196 -->
<path id="gl2573" d="M 19 19 C 13 22 13 32 18 37 C 25 42 25 48 18 55 C 12 60 13 66 20 65 C 25 64 30 60 33 51 C 36 45 36 27 33 22 C 30 19 23 18 19 19 z" fill="black"/><!-- width=51 height=78 -->
<path id="gl3598" d="M 19 15 C 13 15 12 20 17 23 C 20 25 22 28 24 30 C 25 31 25 32 25 33 C 25 49 25 64 25 81 C 26 114 25 130 25 132 C 24 136 22 139 18 142 C 13 145 12 148 16 150 C 19 151 53 151 56 150 C 60 148 60 145 54 142 C 51 140 47 136 46 133 C 45 130 45 120 45 82 C 45 66 45 51 45 34 C 46 33 46 33 46 31 C 48 27 50 26 54 24 C 60 21 61 18 57 15 C 55 14 25 13 19 15 z" fill="black"/><!-- width=72 height=165 -->
<path id="gl2561" d="M 30 16 C 25 18 22 20 21 22 C 19 25 19 26 24 36 C 25 38 25 39 25 60 C 25 85 25 84 20 90 C 15 95 15 97 18 100 C 18 100 19 100 19 101 C 24 101 29 101 34 101 C 39 101 43 101 48 101 C 49 100 49 100 50 100 C 53 97 52 95 47 90 C 42 85 42 83 42 61 C 42 54 42 48 42 42 C 43 40 43 39 44 37 C 51 24 75 25 80 39 C 81 42 81 45 81 57 C 82 79 81 85 76 90 C 70 94 70 98 73 100 C 76 102 100 102 103 100 C 108 98 108 94 103 91 C 102 90 100 87 99 85 C 99 84 98 83 97 82 C 97 74 97 66 97 58 C 97 39 97 35 96 32 C 91 15 74 10 55 19 C 48 22 46 22 42 18 C 38 14 36 13 30 16 z" fill="black"/><!-- width=120 height=116 -->
<path id="gl2850" d="M 64 9 C 51 12 42 16 36 25 C 16 51 26 87 55 94 C 63 96 76 95 84 91 C 99 84 104 72 94 70 C 92 69 91 70 88 72 C 82 77 81 77 78 79 C 58 84 42 70 42 50 C 42 26 64 13 81 26 C 90 33 97 30 97 21 C 97 15 93 12 87 10 C 84 9 68 8 64 9 z" fill="black"/><!-- width=111 height=111 -->
<path id="gl1028" d="M 22 15 C 13 16 11 30 19 34 C 27 39 36 32 34 24 C 33 16 29 13 22 15 z" fill="black"/><!-- width=49 height=50 -->
<path id="gl3840" d="M 9 9 C 9 9 9 14 14 19 C 19 24 19 129 14 129 C 0 134 9 139 33 139 C 52 139 57 139 48 134 C 38 124 33 91 43 86 C 48 81 52 86 62 96 C 81 124 100 139 115 139 C 129 139 129 144 105 115 C 76 86 76 81 91 67 C 105 48 100 19 72 9 C 52 0 14 0 9 9 M 72 24 C 91 43 76 76 52 72 C 38 72 38 72 38 52 C 33 19 48 4 72 24 z" fill="black"/><!-- width=134 height=153 -->
<path id="gl2567" d="M 51 16 C 40 19 33 27 27 42 C 21 53 21 66 27 78 C 30 88 43 98 52 100 C 68 103 91 92 90 82 C 90 77 86 76 80 81 C 73 85 68 86 61 84 C 47 81 39 71 39 57 C 39 52 39 50 43 48 C 45 46 49 46 61 47 C 73 48 85 48 87 46 C 90 45 91 42 91 38 C 90 28 85 22 77 18 C 75 17 73 16 72 15 C 69 15 66 15 63 15 C 57 15 54 15 51 16 M 66 25 C 73 28 72 36 64 39 C 59 40 48 40 46 39 C 39 31 55 21 66 25 z" fill="black"/><!-- width=106 height=114 -->
<path id="gl2846" d="M 45 33 C 40 34 33 39 32 41 C 30 44 30 46 33 52 C 37 59 37 59 37 104 C 37 153 37 153 30 159 C 27 162 26 165 27 167 C 28 171 30 171 48 171 C 64 171 67 170 67 167 C 69 163 68 163 60 158 C 55 155 54 151 54 137 C 54 120 54 120 69 120 C 82 120 87 118 94 114 C 117 99 123 63 105 45 C 94 33 85 31 69 37 C 60 40 58 40 55 36 C 51 31 49 31 45 33 M 79 49 C 90 53 96 62 96 76 C 96 96 87 108 72 108 C 63 108 57 105 55 98 C 54 95 53 63 54 58 C 58 49 67 45 79 49 z" fill="black"/><!-- width=130 height=184 -->
<path id="gl2337" d="M 40 25 C 32 30 31 33 36 40 C 36 42 37 44 38 46 C 38 52 38 59 38 66 C 39 91 38 93 32 99 C 28 103 27 106 31 108 C 33 110 63 110 66 109 C 71 106 70 102 64 100 C 55 97 54 94 54 73 C 54 41 57 36 70 40 C 81 44 87 41 87 33 C 87 23 78 20 66 27 C 60 30 58 30 54 26 C 50 22 48 22 40 25 z" fill="black"/><!-- width=103 height=126 -->
<path id="gl3082" d="M 24 8 C 15 13 15 25 24 30 C 26 31 33 31 35 30 C 43 27 43 13 36 9 C 32 6 28 6 24 8 M 26 61 C 16 67 15 69 19 78 C 22 84 22 89 22 105 C 22 126 21 132 16 136 C 12 139 11 144 15 146 C 19 147 46 146 48 145 C 51 142 49 138 45 136 C 43 135 42 133 41 131 C 40 130 40 129 39 127 C 39 116 39 105 39 94 C 39 61 39 60 38 59 C 36 57 33 58 26 61 z" fill="black"/><!-- width=61 height=183 -->
<path id="gl2561" d="M 30 16 C 25 18 22 20 21 22 C 19 25 19 26 24 36 C 25 38 25 39 25 60 C 25 85 25 84 20 90 C 15 95 15 97 18 100 C 18 100 19 100 19 101 C 24 101 29 101 34 101 C 39 101 43 101 48 101 C 49 100 49 100 50 100 C 53 97 52 95 47 90 C 42 85 42 83 42 61 C 42 54 42 48 42 42 C 43 40 43 39 44 37 C 51 24 75 25 80 39 C 81 42 81 45 81 57 C 82 79 81 85 76 90 C 70 94 70 98 73 100 C 76 102 100 102 103 100 C 108 98 108 94 103 91 C 102 90 100 87 99 85 C 99 84 98 83 97 82 C 97 74 97 66 97 58 C 97 39 97 35 96 32 C 91 15 74 10 55 19 C 48 22 46 22 42 18 C 38 14 36 13 30 16 z" fill="black"/><!-- width=120 height=116 -->
<path id="gl2834" d="M 38 15 C 37 15 36 17 34 19 C 33 21 30 24 27 27 C 21 33 21 34 25 39 C 29 43 29 43 29 67 C 28 101 30 106 41 111 C 52 117 71 110 71 102 C 71 97 67 97 60 99 C 52 100 48 97 45 89 C 45 88 45 78 45 66 C 44 38 44 38 58 39 C 66 39 67 39 69 37 C 73 34 72 30 68 27 C 66 27 64 27 58 27 C 55 27 52 27 50 27 C 49 27 49 26 48 25 C 48 24 46 22 46 19 C 43 13 42 12 38 15 z" fill="black"/><!-- width=84 height=127 -->
<path id="gl2567" d="M 51 16 C 40 19 33 27 27 42 C 21 53 21 66 27 78 C 30 88 43 98 52 100 C 68 103 91 92 90 82 C 90 77 86 76 80 81 C 73 85 68 86 61 84 C 47 81 39 71 39 57 C 39 52 39 50 43 48 C 45 46 49 46 61 47 C 73 48 85 48 87 46 C 90 45 91 42 91 38 C 90 28 85 22 77 18 C 75 17 73 16 72 15 C 69 15 66 15 63 15 C 57 15 54 15 51 16 M 66 25 C 73 28 72 36 64 39 C 59 40 48 40 46 39 C 39 31 55 21 66 25 z" fill="black"/><!-- width=106 height=114 -->
<path id="gl2569" d="M 79 8 C 78 8 74 9 72 11 C 63 15 62 18 66 26 C 69 33 70 38 70 51 C 70 68 70 69 55 70 C 37 70 25 76 16 90 C 4 109 7 138 24 149 C 34 156 44 157 56 154 C 64 151 66 151 69 153 C 75 158 78 158 91 154 C 102 150 103 144 94 140 C 91 138 90 138 88 135 C 88 135 88 133 87 133 C 87 123 87 112 87 102 C 87 85 87 58 88 43 C 88 13 88 11 86 9 C 84 7 82 7 79 8 M 59 81 C 63 82 66 85 68 90 C 69 91 69 92 70 93 C 70 99 70 105 70 110 C 70 132 69 136 63 139 C 59 141 47 141 42 138 C 21 128 23 90 45 82 C 48 81 55 81 59 81 z" fill="black"/><!-- width=119 height=198 -->
<path id="gl2590" d="M 45 9 C 40 10 34 13 32 15 C 29 19 29 21 33 27 C 34 30 36 34 36 36 C 37 40 37 70 37 110 C 37 133 37 146 37 148 C 38 151 40 153 45 154 C 46 154 51 155 55 156 C 84 160 105 152 115 132 C 123 117 121 96 111 83 C 100 69 85 65 69 72 C 62 74 60 74 57 72 C 55 70 54 67 55 46 C 56 13 56 12 52 9 C 50 8 49 8 45 9 M 79 83 C 92 86 100 97 100 113 C 100 132 91 144 76 145 C 64 145 57 139 55 127 C 54 120 55 93 56 89 C 58 86 61 83 64 82 C 65 82 67 82 67 82 C 68 81 76 82 79 83 z" fill="black"/><!-- width=135 height=188 -->
<path id="gl2822" d="M 87 45 C 81 46 79 49 84 55 C 88 62 87 65 81 81 C 75 96 73 99 71 99 C 67 99 66 96 63 87 C 56 67 55 61 58 55 C 61 51 61 48 58 46 C 57 45 56 45 44 45 C 29 45 27 45 25 48 C 24 51 25 53 30 58 C 36 62 38 66 42 79 C 45 85 47 91 48 92 C 51 98 57 121 57 127 C 57 135 51 150 45 156 C 42 159 42 160 34 163 C 28 165 27 168 27 174 C 27 178 28 181 32 183 C 40 187 48 182 53 171 C 61 155 66 144 67 140 C 68 138 71 132 73 126 C 75 121 78 115 79 112 C 81 109 84 102 86 97 C 89 92 93 84 94 80 C 100 67 102 64 111 56 C 115 52 116 48 111 45 C 109 44 94 44 87 45 z" fill="black"/><!-- width=126 height=196 -->
<path id="gl2846" d="M 45 33 C 40 34 33 39 32 41 C 30 44 30 46 33 52 C 37 59 37 59 37 104 C 37 153 37 153 30 159 C 27 162 26 165 27 167 C 28 171 30 171 48 171 C 64 171 67 170 67 167 C 69 163 68 163 60 158 C 55 155 54 151 54 137 C 54 120 54 120 69 120 C 82 120 87 118 94 114 C 117 99 123 63 105 45 C 94 33 85 31 69 37 C 60 40 58 40 55 36 C 51 31 49 31 45 33 M 79 49 C 90 53 96 62 96 76 C 96 96 87 108 72 108 C 63 108 57 105 55 98 C 54 95 53 63 54 58 C 58 49 67 45 79 49 z" fill="black"/><!-- width=130 height=184 -->
<path id="gl2841" d="M 55 15 C 34 19 19 46 25 71 C 28 87 42 100 58 101 C 76 102 98 88 91 79 C 89 78 86 78 81 81 C 64 92 43 83 40 63 C 39 55 40 50 45 48 C 46 47 48 47 66 48 C 88 48 89 48 92 44 C 96 39 90 25 82 19 C 75 15 64 13 55 15 M 67 25 C 75 29 74 37 66 39 C 54 43 45 40 46 34 C 48 26 60 22 67 25 z" fill="black"/><!-- width=109 height=114 -->
<path id="gl3841" d="M 41 29 C 28 32 25 37 32 43 C 37 47 38 49 37 76 C 37 99 37 98 32 103 C 27 108 28 111 34 112 C 40 112 65 112 67 111 C 70 109 70 106 64 105 C 55 102 54 100 54 82 C 54 59 54 57 55 52 C 60 43 64 42 73 45 C 83 48 88 46 89 39 C 90 33 85 28 76 28 C 70 27 68 28 64 31 C 62 33 60 34 59 35 C 58 35 57 35 57 36 C 55 34 55 33 54 32 C 49 27 48 27 41 29 z" fill="black"/><!-- width=102 height=128 -->
<path id="gl2816" d="M 32 16 C 23 21 21 24 25 33 C 28 40 29 43 28 61 C 28 84 27 87 21 91 C 16 95 15 99 20 101 C 24 103 47 103 51 100 C 55 99 55 95 51 90 C 46 84 45 78 45 57 C 45 42 46 39 49 34 C 57 25 73 26 78 36 C 81 40 81 43 81 58 C 81 80 81 84 75 91 C 70 96 71 100 77 102 C 80 102 99 102 102 101 C 108 100 109 96 104 91 C 99 84 98 82 98 61 C 98 42 99 39 102 34 C 108 27 122 26 129 33 C 133 38 135 43 134 64 C 134 83 133 84 129 90 C 124 95 124 98 127 100 C 130 102 154 103 157 101 C 162 99 162 96 157 90 C 151 84 151 84 151 59 C 151 35 151 33 147 26 C 139 12 126 10 106 20 C 97 25 95 25 88 20 C 80 13 72 13 58 18 C 51 21 49 21 45 16 C 41 13 39 13 32 16 z" fill="black"/><!-- width=175 height=115 -->
<path id="gl3082" d="M 24 8 C 15 13 15 25 24 30 C 26 31 33 31 35 30 C 43 27 43 13 36 9 C 32 6 28 6 24 8 M 26 61 C 16 67 15 69 19 78 C 22 84 22 89 22 105 C 22 126 21 132 16 136 C 12 139 11 144 15 146 C 19 147 46 146 48 145 C 51 142 49 138 45 136 C 43 135 42 133 41 131 C 40 130 40 129 39 127 C 39 116 39 105 39 94 C 39 61 39 60 38 59 C 36 57 33 58 26 61 z" fill="black"/><!-- width=61 height=183 -->
<path id="gl2568" d="M 43 8 C 26 9 16 19 18 33 C 18 43 24 49 39 58 C 51 64 55 73 48 81 C 41 88 31 84 24 73 C 20 67 18 66 16 66 C 12 66 10 69 11 75 C 12 87 17 92 29 94 C 48 96 63 90 66 79 C 70 65 64 54 48 45 C 36 37 32 33 32 27 C 32 22 37 18 43 17 C 47 17 50 19 55 24 C 62 31 67 30 67 22 C 69 15 63 9 56 8 C 49 7 48 7 43 8 z" fill="black"/><!-- width=82 height=106 -->
<path id="gl2568" d="M 43 8 C 26 9 16 19 18 33 C 18 43 24 49 39 58 C 51 64 55 73 48 81 C 41 88 31 84 24 73 C 20 67 18 66 16 66 C 12 66 10 69 11 75 C 12 87 17 92 29 94 C 48 96 63 90 66 79 C 70 65 64 54 48 45 C 36 37 32 33 32 27 C 32 22 37 18 43 17 C 47 17 50 19 55 24 C 62 31 67 30 67 22 C 69 15 63 9 56 8 C 49 7 48 7 43 8 z" fill="black"/><!-- width=82 height=106 -->
<path id="gl3082" d="M 24 8 C 15 13 15 25 24 30 C 26 31 33 31 35 30 C 43 27 43 13 36 9 C 32 6 28 6 24 8 M 26 61 C 16 67 15 69 19 78 C 22 84 22 89 22 105 C 22 126 21 132 16 136 C 12 139 11 144 15 146 C 19 147 46 146 48 145 C 51 142 49 138 45 136 C 43 135 42 133 41 131 C 40 130 40 129 39 127 C 39 116 39 105 39 94 C 39 61 39 60 38 59 C 36 57 33 58 26 61 z" fill="black"/><!-- width=61 height=183 -->
<path id="gl2572" d="M 45 12 C 25 17 13 34 13 56 C 13 70 16 78 25 87 C 34 96 40 98 55 98 C 67 98 72 96 80 89 C 94 77 100 51 91 33 C 82 16 63 7 45 12 M 61 24 C 77 31 82 60 71 78 C 64 90 49 90 40 80 C 28 68 28 39 39 28 C 46 21 52 19 61 24 z" fill="black"/><!-- width=109 height=111 -->
<path id="gl2561" d="M 30 16 C 25 18 22 20 21 22 C 19 25 19 26 24 36 C 25 38 25 39 25 60 C 25 85 25 84 20 90 C 15 95 15 97 18 100 C 18 100 19 100 19 101 C 24 101 29 101 34 101 C 39 101 43 101 48 101 C 49 100 49 100 50 100 C 53 97 52 95 47 90 C 42 85 42 83 42 61 C 42 54 42 48 42 42 C 43 40 43 39 44 37 C 51 24 75 25 80 39 C 81 42 81 45 81 57 C 82 79 81 85 76 90 C 70 94 70 98 73 100 C 76 102 100 102 103 100 C 108 98 108 94 103 91 C 102 90 100 87 99 85 C 99 84 98 83 97 82 C 97 74 97 66 97 58 C 97 39 97 35 96 32 C 91 15 74 10 55 19 C 48 22 46 22 42 18 C 38 14 36 13 30 16 z" fill="black"/><!-- width=120 height=116 -->
<path id="gl2572" d="M 45 12 C 25 17 13 34 13 56 C 13 70 16 78 25 87 C 34 96 40 98 55 98 C 67 98 72 96 80 89 C 94 77 100 51 91 33 C 82 16 63 7 45 12 M 61 24 C 77 31 82 60 71 78 C 64 90 49 90 40 80 C 28 68 28 39 39 28 C 46 21 52 19 61 24 z" fill="black"/><!-- width=109 height=111 -->
<path id="gl3340" d="M 93 13 C 85 15 80 17 72 22 C 59 33 52 43 50 62 C 49 70 48 73 43 76 C 37 81 37 83 44 88 C 49 91 49 96 48 132 C 48 146 48 147 43 153 C 38 157 39 160 43 162 C 48 163 79 162 82 161 C 85 160 85 159 85 157 C 84 156 84 155 78 153 C 68 150 67 148 67 117 C 67 87 67 88 78 87 C 87 86 90 83 87 78 C 86 75 84 75 78 74 C 69 73 67 72 67 61 C 67 40 75 30 87 30 C 92 30 96 31 103 34 C 107 36 110 37 111 37 C 118 37 123 28 118 21 C 115 16 103 12 93 13 z" fill="black"/><!-- width=133 height=177 -->
<path id="gl2834" d="M 38 15 C 37 15 36 17 34 19 C 33 21 30 24 27 27 C 21 33 21 34 25 39 C 29 43 29 43 29 67 C 28 101 30 106 41 111 C 52 117 71 110 71 102 C 71 97 67 97 60 99 C 52 100 48 97 45 89 C 45 88 45 78 45 66 C 44 38 44 38 58 39 C 66 39 67 39 69 37 C 73 34 72 30 68 27 C 66 27 64 27 58 27 C 55 27 52 27 50 27 C 49 27 49 26 48 25 C 48 24 46 22 46 19 C 43 13 42 12 38 15 z" fill="black"/><!-- width=84 height=127 -->
<path id="gl3081" d="M 43 6 C 42 7 39 7 38 9 C 37 9 34 11 33 12 C 28 14 27 16 32 25 C 36 34 36 33 36 84 C 36 139 36 136 29 144 C 23 149 22 151 27 154 C 30 156 56 155 60 153 C 64 151 64 148 61 146 C 60 145 56 139 55 137 C 53 133 53 96 55 93 C 61 82 77 79 86 88 C 90 93 91 99 91 116 C 91 133 90 139 86 144 C 81 149 81 151 84 153 C 87 155 113 156 117 154 C 121 151 122 148 118 145 C 108 138 109 140 108 114 C 108 86 108 83 101 77 C 93 69 82 67 68 73 C 55 78 52 75 53 61 C 54 53 54 24 54 16 C 54 9 54 7 50 6 C 48 5 46 5 43 6 z" fill="black"/><!-- width=129 height=190 -->
<path id="gl2841" d="M 55 15 C 34 19 19 46 25 71 C 28 87 42 100 58 101 C 76 102 98 88 91 79 C 89 78 86 78 81 81 C 64 92 43 83 40 63 C 39 55 40 50 45 48 C 46 47 48 47 66 48 C 88 48 89 48 92 44 C 96 39 90 25 82 19 C 75 15 64 13 55 15 M 67 25 C 75 29 74 37 66 39 C 54 43 45 40 46 34 C 48 26 60 22 67 25 z" fill="black"/><!-- width=109 height=114 -->
<path id="gl2846" d="M 45 33 C 40 34 33 39 32 41 C 30 44 30 46 33 52 C 37 59 37 59 37 104 C 37 153 37 153 30 159 C 27 162 26 165 27 167 C 28 171 30 171 48 171 C 64 171 67 170 67 167 C 69 163 68 163 60 158 C 55 155 54 151 54 137 C 54 120 54 120 69 120 C 82 120 87 118 94 114 C 117 99 123 63 105 45 C 94 33 85 31 69 37 C 60 40 58 40 55 36 C 51 31 49 31 45 33 M 79 49 C 90 53 96 62 96 76 C 96 96 87 108 72 108 C 63 108 57 105 55 98 C 54 95 53 63 54 58 C 58 49 67 45 79 49 z" fill="black"/><!-- width=130 height=184 -->
<path id="gl2589" d="M 24 10 C 14 12 11 16 16 22 C 21 28 21 28 21 53 C 21 75 21 77 24 83 C 27 90 34 94 43 94 C 50 94 54 94 61 90 C 69 85 70 86 75 90 C 78 94 79 94 83 94 C 87 93 99 90 100 89 C 105 86 104 82 98 79 C 95 78 94 77 93 75 C 93 74 92 73 91 72 C 91 63 91 53 91 44 C 91 11 91 14 90 12 C 88 9 84 9 78 10 C 64 12 61 15 69 22 C 75 28 75 28 75 51 C 75 68 75 68 74 71 C 69 81 50 85 42 76 C 37 72 37 71 37 40 C 37 12 37 12 34 10 C 32 9 30 9 24 10 z" fill="black"/><!-- width=116 height=111 -->
<path id="gl2590" d="M 45 9 C 40 10 34 13 32 15 C 29 19 29 21 33 27 C 34 30 36 34 36 36 C 37 40 37 70 37 110 C 37 133 37 146 37 148 C 38 151 40 153 45 154 C 46 154 51 155 55 156 C 84 160 105 152 115 132 C 123 117 121 96 111 83 C 100 69 85 65 69 72 C 62 74 60 74 57 72 C 55 70 54 67 55 46 C 56 13 56 12 52 9 C 50 8 49 8 45 9 M 79 83 C 92 86 100 97 100 113 C 100 132 91 144 76 145 C 64 145 57 139 55 127 C 54 120 55 93 56 89 C 58 86 61 83 64 82 C 65 82 67 82 67 82 C 68 81 76 82 79 83 z" fill="black"/><!-- width=135 height=188 -->
<path id="gl2832" d="M 25 12 C 18 15 14 18 14 21 C 14 21 16 24 18 25 C 25 32 24 27 24 85 C 24 115 24 137 23 139 C 22 142 21 145 17 147 C 12 151 11 154 15 156 C 18 157 44 157 47 157 C 51 155 51 152 46 147 C 40 141 40 144 41 72 C 42 39 42 16 41 15 C 40 9 35 8 25 12 z" fill="black"/><!-- width=64 height=172 -->
<path id="gl2571" d="M 26 7 C 20 9 17 16 19 22 C 24 33 39 31 42 21 C 43 12 34 4 26 7 M 32 57 C 30 58 23 61 20 63 C 16 66 16 70 19 76 C 22 82 23 83 23 105 C 23 130 23 130 16 136 C 12 141 11 144 16 146 C 18 147 42 148 45 147 C 50 144 50 141 45 136 C 39 130 39 129 39 105 C 39 94 40 80 40 73 C 40 61 40 60 37 58 C 35 57 34 57 32 57 z" fill="black"/><!-- width=61 height=186 -->
<path id="gl2568" d="M 43 8 C 26 9 16 19 18 33 C 18 43 24 49 39 58 C 51 64 55 73 48 81 C 41 88 31 84 24 73 C 20 67 18 66 16 66 C 12 66 10 69 11 75 C 12 87 17 92 29 94 C 48 96 63 90 66 79 C 70 65 64 54 48 45 C 36 37 32 33 32 27 C 32 22 37 18 43 17 C 47 17 50 19 55 24 C 62 31 67 30 67 22 C 69 15 63 9 56 8 C 49 7 48 7 43 8 z" fill="black"/><!-- width=82 height=106 -->
<path id="gl2591" d="M 43 9 C 37 11 30 16 28 19 C 27 22 27 24 31 27 C 33 28 34 30 36 33 C 36 34 36 35 37 36 C 37 52 37 68 37 84 C 37 119 36 132 36 135 C 35 139 33 143 31 145 C 26 148 26 152 30 154 C 32 156 33 156 45 156 C 58 156 61 155 63 153 C 64 150 64 148 60 145 C 55 138 55 138 55 114 C 54 91 55 90 58 86 C 64 79 78 77 87 84 C 93 88 96 101 93 127 C 93 137 91 140 87 144 C 84 148 83 150 84 152 C 85 155 88 156 103 156 C 118 156 121 155 122 152 C 123 149 123 149 117 144 C 112 139 112 138 112 113 C 111 84 111 80 105 74 C 97 65 84 64 69 71 C 62 74 59 75 57 72 C 54 69 54 66 55 41 C 55 29 55 18 55 16 C 54 10 51 7 43 9 z" fill="black"/><!-- width=135 height=190 -->
<path id="gl2841" d="M 55 15 C 34 19 19 46 25 71 C 28 87 42 100 58 101 C 76 102 98 88 91 79 C 89 78 86 78 81 81 C 64 92 43 83 40 63 C 39 55 40 50 45 48 C 46 47 48 47 66 48 C 88 48 89 48 92 44 C 96 39 90 25 82 19 C 75 15 64 13 55 15 M 67 25 C 75 29 74 37 66 39 C 54 43 45 40 46 34 C 48 26 60 22 67 25 z" fill="black"/><!-- width=109 height=114 -->
<path id="gl2337" d="M 40 25 C 32 30 31 33 36 40 C 36 42 37 44 38 46 C 38 52 38 59 38 66 C 39 91 38 93 32 99 C 28 103 27 106 31 108 C 33 110 63 110 66 109 C 71 106 70 102 64 100 C 55 97 54 94 54 73 C 54 41 57 36 70 40 C 81 44 87 41 87 33 C 87 23 78 20 66 27 C 60 30 58 30 54 26 C 50 22 48 22 40 25 z" fill="black"/><!-- width=103 height=126 -->
<path id="gl2844" d="M 19 14 C 15 16 12 21 13 26 C 15 33 28 35 32 28 C 37 20 28 10 19 14 z" fill="black"/><!-- width=47 height=46 -->
</defs>
<use xlink:href="#gl2831" x="0" y="35"/>
<use xlink:href="#gl3336" x="127" y="88"/>
<use xlink:href="#gl2850" x="200" y="88"/>
<use xlink:href="#gl2567" x="283" y="82"/>
<use xlink:href="#gl2337" x="358" y="74"/>
<use xlink:href="#gl2846" x="423" y="64"/>
<use xlink:href="#gl2834" x="533" y="70"/>
<use xlink:href="#gl2842" x="602" y="89"/>
<use xlink:href="#gl3340" x="695" y="21"/>
<use xlink:href="#gl2337" x="766" y="73"/>
<use xlink:href="#gl2572" x="844" y="84"/>
<use xlink:href="#gl3079" x="942" y="83"/>
<use xlink:href="#gl3591" x="1137" y="1"/>
<use xlink:href="#gl2572" x="1251" y="83"/>
<use xlink:href="#gl2569" x="1353" y="26"/>
<use xlink:href="#gl3072" x="1446" y="87"/>
<use xlink:href="#gl2822" x="1512" y="50"/>
<use xlink:href="#gl3072" x="1668" y="86"/>
<use xlink:href="#gl2561" x="1752" y="80"/>
<use xlink:href="#gl2569" x="1860" y="26"/>
<use xlink:href="#gl3591" x="1998" y="0"/>
<use xlink:href="#gl2572" x="2112" y="83"/>
<use xlink:href="#gl2816" x="2207" y="80"/>
<use xlink:href="#gl2572" x="2366" y="82"/>
<use xlink:href="#gl2337" x="2451" y="72"/>
<use xlink:href="#gl2337" x="2516" y="71"/>
<use xlink:href="#gl2572" x="2595" y="82"/>
<use xlink:href="#gl3613" x="2693" y="90"/>
<use xlink:href="#gl2590" x="2860" y="23"/>
<use xlink:href="#gl3614" x="2981" y="90"/>
<use xlink:href="#gl3615" x="3125" y="31"/>
<use xlink:href="#gl2841" x="3267" y="77"/>
<use xlink:href="#gl2561" x="3355" y="78"/>
<use xlink:href="#gl2337" x="3449" y="69"/>
<use xlink:href="#gl2822" x="3514" y="47"/>
<use xlink:href="#gl3335" x="3668" y="11"/>
<use xlink:href="#gl2572" x="3777" y="79"/>
<use xlink:href="#gl2337" x="3861" y="69"/>
<use xlink:href="#gl2569" x="3943" y="21"/>
<use xlink:href="#gl3085" x="4095" y="88"/>
<use xlink:href="#gl2561" x="4176" y="75"/>
<use xlink:href="#gl2569" x="4288" y="20"/>
<use xlink:href="#gl3088" x="624" y="275"/>
<use xlink:href="#gl3072" x="711" y="332"/>
<use xlink:href="#gl2816" x="788" y="325"/>
<use xlink:href="#gl2589" x="952" y="332"/>
<use xlink:href="#gl2841" x="1043" y="324"/>
<use xlink:href="#gl2832" x="1131" y="271"/>
<use xlink:href="#gl3616" x="1207" y="277"/>
<use xlink:href="#gl2337" x="1361" y="316"/>
<use xlink:href="#gl2572" x="1439" y="327"/>
<use xlink:href="#gl3075" x="1522" y="314"/>
<use xlink:href="#gl2834" x="1657" y="312"/>
<use xlink:href="#gl2591" x="1711" y="272"/>
<use xlink:href="#gl2841" x="1819" y="323"/>
<use xlink:href="#gl2337" x="1895" y="316"/>
<use xlink:href="#gl2844" x="1969" y="390"/>
<use xlink:href="#gl3616" x="2041" y="277"/>
<use xlink:href="#gl2572" x="2206" y="326"/>
<use xlink:href="#gl2846" x="2290" y="304"/>
<use xlink:href="#gl2822" x="2387" y="291"/>
<use xlink:href="#gl2337" x="2477" y="315"/>
<use xlink:href="#gl2571" x="2560" y="277"/>
<use xlink:href="#gl2560" x="2599" y="325"/>
<use xlink:href="#gl3617" x="2683" y="270"/>
<use xlink:href="#gl2834" x="2797" y="311"/>
<use xlink:href="#gl3618" x="2928" y="282"/>
<use xlink:href="#gl3331" x="3153" y="286"/>
<use xlink:href="#gl2827" x="3241" y="257"/>
<use xlink:href="#gl3608" x="3338" y="285"/>
<use xlink:href="#gl3328" x="3434" y="277"/>
<use xlink:href="#gl2590" x="3571" y="268"/>
<use xlink:href="#gl2822" x="3670" y="288"/>
<use xlink:href="#gl3619" x="1058" y="520"/>
<use xlink:href="#gl2572" x="1209" y="571"/>
<use xlink:href="#gl2589" x="1306" y="575"/>
<use xlink:href="#gl2590" x="1390" y="514"/>
<use xlink:href="#gl2832" x="1504" y="514"/>
<use xlink:href="#gl2841" x="1546" y="567"/>
<use xlink:href="#gl2569" x="1639" y="513"/>
<use xlink:href="#gl3072" x="1733" y="574"/>
<use xlink:href="#gl2822" x="1800" y="535"/>
<use xlink:href="#gl3620" x="1968" y="531"/>
<use xlink:href="#gl3621" x="2184" y="522"/>
<use xlink:href="#gl2572" x="2316" y="569"/>
<use xlink:href="#gl2816" x="2411" y="567"/>
<use xlink:href="#gl2846" x="2558" y="547"/>
<use xlink:href="#gl3072" x="2671" y="573"/>
<use xlink:href="#gl2561" x="2752" y="566"/>
<use xlink:href="#gl2822" x="2842" y="533"/>
<use xlink:href="#gl2573" x="2939" y="624"/>
<use xlink:href="#gl3598" x="3040" y="515"/>
<use xlink:href="#gl2561" x="3098" y="565"/>
<use xlink:href="#gl2850" x="3194" y="569"/>
<use xlink:href="#gl1028" x="3295" y="629"/>
<use xlink:href="#gl3840" x="595" y="767"/>
<use xlink:href="#gl2567" x="701" y="808"/>
<use xlink:href="#gl2846" x="775" y="788"/>
<use xlink:href="#gl2337" x="876" y="800"/>
<use xlink:href="#gl3082" x="957" y="762"/>
<use xlink:href="#gl2561" x="1006" y="807"/>
<use xlink:href="#gl2834" x="1106" y="795"/>
<use xlink:href="#gl2567" x="1163" y="807"/>
<use xlink:href="#gl2569" x="1256" y="752"/>
<use xlink:href="#gl2590" x="1391" y="752"/>
<use xlink:href="#gl2822" x="1490" y="774"/>
<use xlink:href="#gl2846" x="1634" y="788"/>
<use xlink:href="#gl2841" x="1739" y="807"/>
<use xlink:href="#gl3841" x="1815" y="798"/>
<use xlink:href="#gl2816" x="1892" y="807"/>
<use xlink:href="#gl3082" x="2056" y="760"/>
<use xlink:href="#gl2568" x="2103" y="813"/>
<use xlink:href="#gl2568" x="2167" y="814"/>
<use xlink:href="#gl3082" x="2236" y="760"/>
<use xlink:href="#gl2572" x="2284" y="809"/>
<use xlink:href="#gl2561" x="2382" y="806"/>
<use xlink:href="#gl2572" x="2541" y="809"/>
<use xlink:href="#gl3340" x="2614" y="743"/>
<use xlink:href="#gl2834" x="2747" y="795"/>
<use xlink:href="#gl3081" x="2799" y="752"/>
<use xlink:href="#gl2841" x="2906" y="805"/>
<use xlink:href="#gl2846" x="3037" y="786"/>
<use xlink:href="#gl2589" x="3153" y="812"/>
<use xlink:href="#gl2590" x="3238" y="750"/>
<use xlink:href="#gl2832" x="3355" y="750"/>
<use xlink:href="#gl2571" x="3407" y="758"/>
<use xlink:href="#gl2568" x="3457" y="812"/>
<use xlink:href="#gl2591" x="3508" y="751"/>
<use xlink:href="#gl2841" x="3618" y="804"/>
<use xlink:href="#gl2337" x="3694" y="796"/>
<use xlink:href="#gl2844" x="3769" y="870"/>
</svg>
