<?xml version='1.0' encoding='utf-8'?>
<svg xmlns="http://www.w3.org/2000/svg" xmlns:xlink="http://www.w3.org/1999/xlink" width="463px" height="41px" viewBox="0 0 4631 416" version="1.1">
<defs>
<path id="gl30493" d="M 30 36 C 26 39 26 38 26 69 C 27 85 26 106 26 120 C 25 144 25 147 28 150 C 31 153 36 154 40 151 C 43 148 44 144 42 123 C 42 111 42 109 45 106 C 46 105 46 105 47 104 C 51 104 54 104 58 103 C 66 103 70 103 72 102 C 86 97 94 85 94 70 C 94 52 87 42 72 36 C 69 36 67 35 66 34 C 60 34 55 34 49 34 C 43 34 38 34 33 34 C 32 34 31 35 30 36 M 60 49 C 71 51 76 57 76 67 C 77 81 70 88 56 90 C 48 91 43 88 42 83 C 41 78 42 57 43 54 C 46 49 51 48 60 49 z" fill="black"/><!-- width=105 height=163 -->
<path id="gl26627" d="M 25 22 C 22 23 19 25 18 28 C 18 30 18 39 18 60 C 18 78 18 97 18 112 C 17 139 17 139 21 142 C 25 144 32 143 34 139 C 35 136 35 123 34 109 C 33 91 36 88 52 90 C 60 91 63 93 66 98 C 67 99 67 101 68 102 C 68 107 68 112 69 117 C 69 135 70 138 74 141 C 78 144 85 143 87 139 C 88 137 88 129 87 124 C 86 122 85 117 85 112 C 84 101 84 97 79 91 C 75 84 75 82 80 73 C 84 66 85 60 85 52 C 84 36 77 27 63 24 C 57 22 28 21 25 22 M 56 38 C 65 41 70 51 68 61 C 65 73 59 78 46 77 C 35 76 34 75 34 58 C 34 44 34 42 37 39 C 40 37 49 36 56 38 z" fill="black"/><!-- width=100 height=155 -->
<path id="gl26651" d="M 46 10 C 29 13 18 25 14 48 C 11 63 12 91 15 104 C 22 130 42 140 66 131 C 75 128 84 115 87 99 C 90 88 90 60 88 49 C 83 25 73 13 55 10 C 50 10 50 10 46 10 M 59 28 C 69 33 72 45 72 73 C 72 91 72 97 69 105 C 62 122 41 123 34 107 C 27 92 27 51 34 37 C 39 27 49 23 59 28 z" fill="black"/><!-- width=102 height=147 -->
<path id="gl26628" d="M 27 13 C 24 15 23 16 22 18 C 21 22 21 124 22 127 C 24 133 24 133 42 133 C 69 133 76 130 85 118 C 92 108 96 94 96 73 C 96 33 85 15 58 13 C 48 12 28 12 27 13 M 60 29 C 73 32 78 43 79 69 C 80 101 71 117 52 117 C 44 118 41 117 39 113 C 39 112 38 111 37 111 C 37 97 37 85 37 72 C 37 30 37 32 42 29 C 44 28 54 28 60 29 z" fill="black"/><!-- width=111 height=147 -->
<path id="gl30996" d="M 14 57 C 14 100 14 110 24 115 C 33 129 62 129 72 115 C 81 100 81 9 72 9 C 67 9 62 14 62 52 C 62 96 57 115 43 115 C 28 115 24 100 24 52 C 24 14 24 9 19 9 C 14 9 14 14 14 57 z" fill="black"/><!-- width=91 height=139 -->
<path id="gl30208" d="M 52 12 C 36 15 27 25 21 46 C 19 52 19 54 19 67 C 18 86 19 94 23 109 C 24 114 31 124 36 127 C 47 136 61 138 75 131 C 85 126 93 112 93 99 C 93 94 90 90 86 90 C 80 89 77 92 75 102 C 73 109 71 112 68 115 C 59 123 46 120 41 108 C 37 100 36 92 36 73 C 36 55 36 49 40 40 C 42 36 48 29 51 28 C 63 25 72 30 75 40 C 78 51 84 55 90 51 C 94 48 94 36 90 28 C 83 17 66 9 52 12 z" fill="black"/><!-- width=103 height=148 -->
<path id="gl29464" d="M 16 43 C 9 45 7 55 15 59 C 16 60 18 60 25 60 C 34 59 34 59 36 61 C 40 63 40 64 40 79 C 40 87 39 107 39 125 C 39 135 39 146 39 157 C 39 158 40 159 40 160 C 43 165 51 166 54 162 C 57 159 57 159 56 117 C 56 95 55 75 55 72 C 55 61 58 59 69 60 C 79 60 81 60 83 59 C 88 55 87 48 82 45 C 80 43 79 43 67 44 C 50 44 40 44 29 43 C 23 43 18 43 16 43 z" fill="black"/><!-- width=96 height=174 -->
<path id="gl28431" d="M 18 14 C 14 17 14 12 14 73 C 14 133 14 130 18 132 C 21 133 25 133 27 132 C 31 129 31 131 31 82 C 31 46 31 37 31 31 C 33 22 32 20 30 17 C 27 13 22 12 18 14 z" fill="black"/><!-- width=45 height=145 -->
<path id="gl28430" d="M 16 16 C 12 20 12 26 18 45 C 20 50 22 58 23 62 C 24 69 26 74 32 96 C 35 106 37 116 39 123 C 39 132 42 135 50 135 C 59 135 60 133 65 112 C 67 104 70 94 71 92 C 72 89 73 85 73 83 C 73 81 75 76 76 71 C 78 66 80 58 81 52 C 84 43 86 36 88 31 C 90 27 90 24 89 21 C 87 17 85 16 81 16 C 72 16 71 18 66 45 C 66 50 64 56 63 60 C 63 63 61 66 61 67 C 61 69 60 75 59 79 C 58 85 57 90 57 92 C 55 100 49 103 47 98 C 46 96 45 90 42 78 C 42 73 40 66 39 62 C 39 58 37 52 36 48 C 33 24 30 17 24 16 C 21 15 18 15 16 16 z" fill="black"/><!-- width=102 height=148 -->
<path id="gl28429" d="M 16 18 C 12 21 13 21 13 44 C 13 56 13 80 13 97 C 13 132 13 133 16 136 C 18 138 22 138 25 136 C 27 135 30 131 30 128 C 30 127 30 106 30 82 C 30 50 30 38 30 33 C 31 27 31 24 28 21 C 25 16 19 15 16 18 z" fill="black"/><!-- width=43 height=153 -->
<path id="gl29464" d="M 16 43 C 9 45 7 55 15 59 C 16 60 18 60 25 60 C 34 59 34 59 36 61 C 40 63 40 64 40 79 C 40 87 39 107 39 125 C 39 135 39 146 39 157 C 39 158 40 159 40 160 C 43 165 51 166 54 162 C 57 159 57 159 56 117 C 56 95 55 75 55 72 C 55 61 58 59 69 60 C 79 60 81 60 83 59 C 88 55 87 48 82 45 C 80 43 79 43 67 44 C 50 44 40 44 29 43 C 23 43 18 43 16 43 z" fill="black"/><!-- width=96 height=174 -->
<path id="gl30997" d="M 0 14 C 0 19 9 33 14 43 C 19 57 24 81 24 96 C 28 115 28 124 38 124 C 43 124 43 115 48 96 C 48 81 52 57 57 48 C 67 28 72 4 67 4 C 57 4 52 19 48 38 C 38 62 33 57 24 33 C 19 9 0 0 0 14 z" fill="black"/><!-- width=81 height=134 -->
<path id="gl25116" d="M 17 15 C 13 18 12 27 15 33 C 18 38 18 41 16 45 C 13 50 13 51 14 54 C 15 58 22 58 25 53 C 28 46 30 24 27 19 C 25 15 24 14 21 14 C 19 14 18 15 17 15 z" fill="black"/><!-- width=42 height=69 -->
<path id="gl28431" d="M 18 14 C 14 17 14 12 14 73 C 14 133 14 130 18 132 C 21 133 25 133 27 132 C 31 129 31 131 31 82 C 31 46 31 37 31 31 C 33 22 32 20 30 17 C 27 13 22 12 18 14 z" fill="black"/><!-- width=45 height=145 -->
<path id="gl26635" d="M 20 11 C 13 13 13 16 13 30 C 15 39 14 58 13 71 C 12 88 12 124 13 127 C 15 133 25 135 28 129 C 30 126 30 122 30 107 C 29 99 28 87 28 79 C 27 61 28 57 30 54 C 34 51 37 55 42 72 C 44 77 48 87 50 92 C 52 97 56 108 58 114 C 63 129 65 132 73 132 C 83 132 85 127 84 116 C 84 111 84 89 85 37 C 85 19 85 18 84 16 C 80 8 69 10 68 18 C 67 20 68 28 68 37 C 69 63 70 84 69 87 C 68 90 66 91 64 91 C 61 90 59 85 52 68 C 49 59 46 51 45 48 C 42 41 40 34 38 28 C 34 14 33 12 25 11 C 23 11 21 11 20 11 z" fill="black"/><!-- width=98 height=145 -->
<path id="gl28428" d="M 52 13 C 35 18 29 26 23 49 C 20 61 20 85 24 102 C 27 119 35 130 48 135 C 56 137 71 136 77 132 C 87 126 94 114 95 101 C 95 99 96 97 96 96 C 94 94 94 94 93 93 C 91 91 90 90 88 90 C 82 90 79 94 77 104 C 74 115 70 120 60 120 C 45 120 38 106 38 74 C 39 55 40 45 43 39 C 48 31 52 28 60 28 C 69 27 75 31 77 41 C 80 51 82 52 88 52 C 93 52 95 51 96 47 C 98 40 93 28 85 20 C 79 14 61 10 52 13 z" fill="black"/><!-- width=108 height=150 -->
<path id="gl2844" d="M 19 14 C 15 16 12 21 13 26 C 15 33 28 35 32 28 C 37 20 28 10 19 14 z" fill="black"/><!-- width=47 height=46 -->
<path id="gl25116" d="M 17 15 C 13 18 12 27 15 33 C 18 38 18 41 16 45 C 13 50 13 51 14 54 C 15 58 22 58 25 53 C 28 46 30 24 27 19 C 25 15 24 14 21 14 C 19 14 18 15 17 15 z" fill="black"/><!-- width=42 height=69 -->
<path id="gl26628" d="M 27 13 C 24 15 23 16 22 18 C 21 22 21 124 22 127 C 24 133 24 133 42 133 C 69 133 76 130 85 118 C 92 108 96 94 96 73 C 96 33 85 15 58 13 C 48 12 28 12 27 13 M 60 29 C 73 32 78 43 79 69 C 80 101 71 117 52 117 C 44 118 41 117 39 113 C 39 112 38 111 37 111 C 37 97 37 85 37 72 C 37 30 37 32 42 29 C 44 28 54 28 60 29 z" fill="black"/><!-- width=111 height=147 -->
<path id="gl30998" d="M 9 9 C 4 19 9 124 14 124 C 33 129 67 129 67 120 C 72 115 67 115 48 115 C 28 115 28 110 24 100 C 19 81 24 72 43 76 C 62 76 76 72 67 67 C 62 62 52 62 43 57 C 24 57 24 57 24 43 C 24 28 24 28 48 28 C 67 24 72 24 67 19 C 67 9 14 4 9 9 z" fill="black"/><!-- width=81 height=139 -->
<path id="gl28425" d="M 35 36 C 32 36 30 39 29 43 C 29 45 29 63 29 83 C 29 110 29 122 28 126 C 27 133 27 144 28 147 C 29 156 41 157 45 150 C 46 147 46 143 45 124 C 45 106 45 105 61 105 C 71 105 71 105 76 103 C 89 98 96 87 96 70 C 96 52 90 43 75 37 C 73 36 72 36 70 35 C 64 35 59 35 53 35 C 44 35 36 35 35 36 M 67 51 C 77 54 82 66 79 78 C 76 85 72 89 64 90 C 53 93 47 91 46 85 C 45 81 45 60 46 56 C 48 50 57 48 67 51 z" fill="black"/><!-- width=110 height=165 -->
<path id="gl26631" d="M 18 46 C 12 48 10 53 12 58 C 14 63 15 63 25 63 C 36 63 37 63 40 67 C 41 69 41 69 40 116 C 39 162 39 161 40 163 C 44 170 54 171 57 164 C 58 161 58 139 57 91 C 57 72 57 70 57 67 C 59 63 61 62 69 63 C 84 64 88 61 87 54 C 87 48 82 45 71 46 C 63 46 34 46 25 46 C 22 46 19 46 18 46 z" fill="black"/><!-- width=98 height=180 -->
<path id="gl2844" d="M 19 14 C 15 16 12 21 13 26 C 15 33 28 35 32 28 C 37 20 28 10 19 14 z" fill="black"/><!-- width=47 height=46 -->
<path id="gl26641" d="M 24 13 C 20 16 20 13 19 66 C 19 131 19 125 21 127 C 23 132 25 132 45 132 C 67 131 72 130 80 122 C 86 115 88 111 89 99 C 90 91 87 83 81 77 C 76 70 75 67 79 63 C 85 55 86 52 87 43 C 87 28 79 18 65 14 C 58 12 27 12 24 13 M 55 28 C 72 30 76 55 61 62 C 52 66 42 66 38 62 C 36 60 35 57 35 46 C 35 28 39 25 55 28 M 52 76 C 63 78 70 84 72 94 C 74 109 63 118 45 117 C 37 116 36 113 35 94 C 35 76 37 73 52 76 z" fill="black"/><!-- width=103 height=145 -->
<path id="gl26639" d="M 85 11 C 82 12 80 13 78 17 C 70 29 66 36 63 41 C 55 56 52 58 48 58 C 43 58 42 54 43 41 C 44 30 45 18 44 16 C 42 12 37 9 33 12 C 27 14 27 18 28 37 C 29 55 28 78 28 99 C 27 115 27 126 28 128 C 30 132 35 133 40 131 C 45 129 45 125 44 108 C 42 88 46 79 54 79 C 58 79 61 84 69 100 C 70 104 73 110 75 114 C 77 117 79 121 79 123 C 83 132 93 135 98 129 C 101 126 100 121 93 111 C 91 109 90 105 88 103 C 87 100 85 97 83 94 C 66 66 66 67 66 63 C 66 60 68 57 73 51 C 79 43 95 22 96 20 C 98 13 93 8 85 11 z" fill="black"/><!-- width=111 height=144 -->
<path id="gl29707" d="M 16 16 C 13 16 12 21 12 26 C 12 30 12 31 15 36 C 16 38 18 40 18 42 C 18 43 15 48 13 49 C 13 49 12 51 11 52 C 11 54 10 54 10 55 C 11 56 12 57 13 57 C 21 64 29 49 30 27 C 30 17 26 14 16 16 z" fill="black"/><!-- width=42 height=70 -->
<path id="gl28425" d="M 35 36 C 32 36 30 39 29 43 C 29 45 29 63 29 83 C 29 110 29 122 28 126 C 27 133 27 144 28 147 C 29 156 41 157 45 150 C 46 147 46 143 45 124 C 45 106 45 105 61 105 C 71 105 71 105 76 103 C 89 98 96 87 96 70 C 96 52 90 43 75 37 C 73 36 72 36 70 35 C 64 35 59 35 53 35 C 44 35 36 35 35 36 M 67 51 C 77 54 82 66 79 78 C 76 85 72 89 64 90 C 53 93 47 91 46 85 C 45 81 45 60 46 56 C 48 50 57 48 67 51 z" fill="black"/><!-- width=110 height=165 -->
<path id="gl2844" d="M 19 14 C 15 16 12 21 13 26 C 15 33 28 35 32 28 C 37 20 28 10 19 14 z" fill="black"/><!-- width=47 height=46 -->
<path id="gl26114" d="M 45 14 C 29 18 20 30 16 50 C 14 59 14 92 16 102 C 21 127 33 139 55 139 C 77 139 89 126 93 97 C 95 89 94 55 93 49 C 88 30 81 20 67 15 C 63 13 49 13 45 14 M 62 31 C 69 34 73 40 75 51 C 78 62 78 90 75 100 C 73 113 70 118 63 121 C 52 126 42 122 36 111 C 31 100 30 72 33 54 C 36 40 39 35 45 31 C 51 28 57 28 62 31 z" fill="black"/><!-- width=109 height=154 -->
<path id="gl2844" d="M 19 14 C 15 16 12 21 13 26 C 15 33 28 35 32 28 C 37 20 28 10 19 14 z" fill="black"/><!-- width=47 height=46 -->
<path id="gl28436" d="M 24 13 C 22 13 21 15 20 16 C 20 16 19 17 19 18 C 19 28 19 38 19 48 C 19 66 19 89 18 100 C 18 124 18 126 21 129 C 21 130 22 131 22 132 C 28 132 34 132 40 132 C 64 132 69 130 77 123 C 85 116 88 109 87 97 C 87 88 85 84 80 77 C 76 72 75 67 77 63 C 78 63 79 61 80 59 C 86 50 87 39 81 28 C 78 21 73 17 64 14 C 59 13 28 12 24 13 M 57 28 C 67 31 72 48 66 57 C 61 63 45 67 39 63 C 34 61 34 60 34 47 C 34 31 36 28 43 27 C 46 27 54 27 57 28 M 54 76 C 70 81 76 101 65 112 C 60 115 57 117 48 117 C 39 117 36 115 34 109 C 34 106 34 82 35 80 C 37 75 44 74 54 76 z" fill="black"/><!-- width=100 height=145 -->
<path id="gl26651" d="M 46 10 C 29 13 18 25 14 48 C 11 63 12 91 15 104 C 22 130 42 140 66 131 C 75 128 84 115 87 99 C 90 88 90 60 88 49 C 83 25 73 13 55 10 C 50 10 50 10 46 10 M 59 28 C 69 33 72 45 72 73 C 72 91 72 97 69 105 C 62 122 41 123 34 107 C 27 92 27 51 34 37 C 39 27 49 23 59 28 z" fill="black"/><!-- width=102 height=147 -->
<path id="gl26642" d="M 69 13 C 64 15 63 18 57 33 C 52 47 50 49 46 49 C 42 49 40 47 33 29 C 28 14 27 13 18 13 C 7 14 8 18 30 56 C 36 67 37 73 35 78 C 33 81 30 87 30 88 C 29 88 27 93 24 98 C 15 114 14 116 12 119 C 8 126 8 128 12 132 C 18 137 25 133 29 123 C 34 111 40 97 42 95 C 43 93 43 93 46 93 C 49 93 52 96 56 108 C 59 116 65 129 67 130 C 72 136 78 135 82 130 C 84 127 82 124 77 115 C 75 111 72 106 71 104 C 69 99 65 93 63 89 C 53 74 53 71 61 57 C 63 55 66 49 68 45 C 70 40 74 34 75 31 C 79 25 80 22 80 18 C 80 13 75 10 69 13 z" fill="black"/><!-- width=92 height=146 -->
<path id="gl26643" d="M 34 24 C 33 25 31 28 30 30 C 27 37 24 39 15 40 C 8 41 6 43 6 48 C 6 52 7 54 16 54 C 28 54 29 56 28 74 C 28 80 27 90 28 97 C 28 103 27 114 27 120 C 27 124 27 128 27 132 C 27 133 28 134 28 135 C 32 141 39 142 42 136 C 44 133 44 139 44 83 C 43 63 44 42 44 37 C 44 33 44 30 45 27 C 44 26 43 25 42 24 C 40 21 37 21 34 24 z" fill="black"/><!-- width=67 height=152 -->
<path id="gl28445" d="M 34 12 C 20 13 12 19 8 33 C 6 40 7 45 12 47 C 17 48 21 46 23 39 C 27 30 31 25 38 25 C 46 25 52 32 52 43 C 52 55 48 60 35 63 C 30 64 27 69 29 72 C 31 75 33 76 39 77 C 50 79 54 85 54 98 C 53 112 43 121 33 116 C 28 114 27 112 24 103 C 22 97 20 95 17 94 C 7 92 4 102 10 115 C 17 127 28 133 43 132 C 54 130 61 125 66 114 C 73 100 72 87 63 75 C 58 69 58 66 62 59 C 69 49 69 38 63 26 C 58 15 50 11 34 12 z" fill="black"/><!-- width=86 height=145 -->
<path id="gl28445" d="M 34 12 C 20 13 12 19 8 33 C 6 40 7 45 12 47 C 17 48 21 46 23 39 C 27 30 31 25 38 25 C 46 25 52 32 52 43 C 52 55 48 60 35 63 C 30 64 27 69 29 72 C 31 75 33 76 39 77 C 50 79 54 85 54 98 C 53 112 43 121 33 116 C 28 114 27 112 24 103 C 22 97 20 95 17 94 C 7 92 4 102 10 115 C 17 127 28 133 43 132 C 54 130 61 125 66 114 C 73 100 72 87 63 75 C 58 69 58 66 62 59 C 69 49 69 38 63 26 C 58 15 50 11 34 12 z" fill="black"/><!-- width=86 height=145 -->
<path id="gl26646" d="M 30 15 C 16 21 9 34 9 54 C 9 72 13 82 24 88 C 33 93 39 94 49 89 C 55 86 58 85 60 88 C 61 90 62 93 61 99 C 58 114 47 123 36 119 C 33 118 31 116 27 111 C 19 99 7 105 13 118 C 19 130 25 134 39 134 C 60 135 69 126 75 102 C 75 99 76 94 76 93 C 78 88 78 69 77 57 C 77 51 72 35 70 30 C 66 23 61 18 54 15 C 49 13 35 13 30 15 M 48 28 C 55 32 60 42 60 57 C 60 66 58 70 54 74 C 46 82 33 79 27 69 C 24 63 24 48 27 40 C 30 30 40 25 48 28 z" fill="black"/><!-- width=93 height=147 -->
<path id="gl28437" d="M 38 10 C 28 13 21 22 16 36 C 12 50 12 54 12 70 C 12 75 12 80 12 85 C 13 88 13 92 15 96 C 19 114 22 120 31 125 C 36 129 39 129 49 129 C 60 129 62 128 68 122 C 79 112 82 100 82 70 C 82 53 82 49 79 36 C 76 24 69 15 63 12 C 57 10 44 9 38 10 M 54 25 C 57 27 61 31 63 35 C 65 43 66 46 66 67 C 66 95 64 104 58 110 C 49 119 38 115 33 102 C 30 93 30 94 30 71 C 30 49 30 45 33 36 C 36 26 45 21 54 25 z" fill="black"/><!-- width=94 height=141 -->
<path id="gl25116" d="M 17 15 C 13 18 12 27 15 33 C 18 38 18 41 16 45 C 13 50 13 51 14 54 C 15 58 22 58 25 53 C 28 46 30 24 27 19 C 25 15 24 14 21 14 C 19 14 18 15 17 15 z" fill="black"/><!-- width=42 height=69 -->
<path id="gl26626" d="M 33 37 C 27 39 27 39 28 78 C 28 98 28 114 28 123 C 27 146 27 150 28 154 C 30 157 31 159 36 159 C 40 159 42 157 43 153 C 44 153 45 151 45 150 C 45 145 45 139 44 133 C 43 115 43 114 47 111 C 48 110 48 109 49 109 C 52 109 55 109 58 109 C 78 109 87 103 93 87 C 96 80 96 78 96 69 C 94 58 91 53 85 46 C 81 42 73 38 66 37 C 59 37 36 37 33 37 M 67 54 C 82 60 82 85 67 92 C 62 95 52 96 49 93 C 44 90 44 90 44 74 C 44 58 45 56 48 54 C 51 52 62 52 67 54 z" fill="black"/><!-- width=108 height=170 -->
<path id="gl26114" d="M 45 14 C 29 18 20 30 16 50 C 14 59 14 92 16 102 C 21 127 33 139 55 139 C 77 139 89 126 93 97 C 95 89 94 55 93 49 C 88 30 81 20 67 15 C 63 13 49 13 45 14 M 62 31 C 69 34 73 40 75 51 C 78 62 78 90 75 100 C 73 113 70 118 63 121 C 52 126 42 122 36 111 C 31 100 30 72 33 54 C 36 40 39 35 45 31 C 51 28 57 28 62 31 z" fill="black"/><!-- width=109 height=154 -->
<path id="gl29462" d="M 22 22 C 19 22 16 25 15 27 C 15 28 15 50 15 76 C 15 81 15 96 15 111 C 15 120 15 129 15 137 C 15 138 16 138 16 139 C 18 141 21 142 24 141 C 31 141 32 138 31 125 C 30 96 30 97 31 94 C 33 90 35 89 41 89 C 51 88 59 91 61 95 C 64 99 65 102 65 117 C 65 121 65 126 65 131 C 66 132 66 133 67 135 C 70 142 77 144 82 139 C 84 137 84 134 83 126 C 82 123 82 115 82 110 C 81 99 81 97 77 91 C 72 84 72 81 76 75 C 84 62 84 49 77 36 C 73 28 69 25 56 22 C 51 22 31 21 22 22 M 52 37 C 63 40 69 53 64 66 C 61 72 55 76 45 76 C 37 77 33 75 31 71 C 30 69 30 46 31 43 C 33 37 40 35 52 37 z" fill="black"/><!-- width=94 height=153 -->
<path id="gl29464" d="M 16 43 C 9 45 7 55 15 59 C 16 60 18 60 25 60 C 34 59 34 59 36 61 C 40 63 40 64 40 79 C 40 87 39 107 39 125 C 39 135 39 146 39 157 C 39 158 40 159 40 160 C 43 165 51 166 54 162 C 57 159 57 159 56 117 C 56 95 55 75 55 72 C 55 61 58 59 69 60 C 79 60 81 60 83 59 C 88 55 87 48 82 45 C 80 43 79 43 67 44 C 50 44 40 44 29 43 C 23 43 18 43 16 43 z" fill="black"/><!-- width=96 height=174 -->
<path id="gl26648" d="M 40 4 C 34 6 33 11 34 24 C 34 28 35 46 35 73 C 35 117 35 118 36 120 C 39 126 39 126 60 126 C 71 126 82 127 84 127 C 90 127 93 126 94 123 C 96 119 94 108 93 107 C 93 107 90 107 87 108 C 79 109 69 110 62 110 C 57 110 57 109 55 108 C 51 105 51 103 51 80 C 52 49 52 11 51 9 C 49 4 45 3 40 4 z" fill="black"/><!-- width=102 height=160 -->
<path id="gl30214" d="M 48 8 C 43 9 42 12 39 22 C 39 25 37 32 35 36 C 34 40 33 45 32 46 C 31 49 30 54 29 58 C 27 63 25 71 24 76 C 21 89 16 100 14 104 C 13 105 13 106 12 107 C 12 110 12 113 12 116 C 11 129 12 131 19 128 C 26 126 27 124 30 111 C 33 95 35 94 54 94 C 58 94 62 94 66 94 C 66 95 67 96 68 96 C 70 99 72 102 73 110 C 75 123 77 126 84 127 C 87 129 93 126 94 123 C 94 120 94 115 91 109 C 90 106 88 100 87 96 C 85 92 82 85 81 82 C 80 78 79 72 78 68 C 77 64 76 58 75 54 C 73 50 72 45 71 42 C 70 40 69 33 67 27 C 64 13 63 12 59 9 C 57 7 51 7 48 8 M 56 40 C 58 42 59 46 60 54 C 61 57 62 62 63 65 C 66 78 63 82 52 82 C 43 82 39 79 40 73 C 40 69 46 48 48 44 C 49 39 52 37 56 40 z" fill="black"/><!-- width=105 height=144 -->
<path id="gl26635" d="M 20 11 C 13 13 13 16 13 30 C 15 39 14 58 13 71 C 12 88 12 124 13 127 C 15 133 25 135 28 129 C 30 126 30 122 30 107 C 29 99 28 87 28 79 C 27 61 28 57 30 54 C 34 51 37 55 42 72 C 44 77 48 87 50 92 C 52 97 56 108 58 114 C 63 129 65 132 73 132 C 83 132 85 127 84 116 C 84 111 84 89 85 37 C 85 19 85 18 84 16 C 80 8 69 10 68 18 C 67 20 68 28 68 37 C 69 63 70 84 69 87 C 68 90 66 91 64 91 C 61 90 59 85 52 68 C 49 59 46 51 45 48 C 42 41 40 34 38 28 C 34 14 33 12 25 11 C 23 11 21 11 20 11 z" fill="black"/><!-- width=98 height=145 -->
<path id="gl26628" d="M 27 13 C 24 15 23 16 22 18 C 21 22 21 124 22 127 C 24 133 24 133 42 133 C 69 133 76 130 85 118 C 92 108 96 94 96 73 C 96 33 85 15 58 13 C 48 12 28 12 27 13 M 60 29 C 73 32 78 43 79 69 C 80 101 71 117 52 117 C 44 118 41 117 39 113 C 39 112 38 111 37 111 C 37 97 37 85 37 72 C 37 30 37 32 42 29 C 44 28 54 28 60 29 z" fill="black"/><!-- width=111 height=147 -->
<path id="gl25116" d="M 17 15 C 13 18 12 27 15 33 C 18 38 18 41 16 45 C 13 50 13 51 14 54 C 15 58 22 58 25 53 C 28 46 30 24 27 19 C 25 15 24 14 21 14 C 19 14 18 15 17 15 z" fill="black"/><!-- width=42 height=69 -->
<path id="gl26651" d="M 46 10 C 29 13 18 25 14 48 C 11 63 12 91 15 104 C 22 130 42 140 66 131 C 75 128 84 115 87 99 C 90 88 90 60 88 49 C 83 25 73 13 55 10 C 50 10 50 10 46 10 M 59 28 C 69 33 72 45 72 73 C 72 91 72 97 69 105 C 62 122 41 123 34 107 C 27 92 27 51 34 37 C 39 27 49 23 59 28 z" fill="black"/><!-- width=102 height=147 -->
<path id="gl26627" d="M 25 22 C 22 23 19 25 18 28 C 18 30 18 39 18 60 C 18 78 18 97 18 112 C 17 139 17 139 21 142 C 25 144 32 143 34 139 C 35 136 35 123 34 109 C 33 91 36 88 52 90 C 60 91 63 93 66 98 C 67 99 67 101 68 102 C 68 107 68 112 69 117 C 69 135 70 138 74 141 C 78 144 85 143 87 139 C 88 137 88 129 87 124 C 86 122 85 117 85 112 C 84 101 84 97 79 91 C 75 84 75 82 80 73 C 84 66 85 60 85 52 C 84 36 77 27 63 24 C 57 22 28 21 25 22 M 56 38 C 65 41 70 51 68 61 C 65 73 59 78 46 77 C 35 76 34 75 34 58 C 34 44 34 42 37 39 C 40 37 49 36 56 38 z" fill="black"/><!-- width=100 height=155 -->
<path id="gl28448" d="M 37 14 C 23 16 12 26 10 40 C 6 65 11 81 25 88 C 34 93 39 93 47 88 C 54 85 55 85 58 87 C 61 89 61 93 58 101 C 53 119 37 124 29 112 C 24 104 20 102 15 103 C 4 106 14 127 27 131 C 45 136 61 131 67 118 C 73 105 76 91 76 69 C 76 64 76 60 76 55 C 75 52 75 49 74 46 C 70 31 67 24 59 18 C 54 15 44 13 37 14 M 45 28 C 54 30 58 40 58 57 C 58 65 58 67 55 72 C 51 76 48 78 42 78 C 27 78 21 64 25 43 C 27 35 31 30 38 28 C 41 27 42 27 45 28 z" fill="black"/><!-- width=90 height=147 -->
<path id="gl26653" d="M 15 37 C 9 40 9 49 14 52 C 16 54 24 54 37 53 C 57 51 60 55 49 70 C 42 81 40 85 32 106 C 27 122 22 139 22 145 C 22 150 25 154 30 154 C 37 154 40 150 42 139 C 44 117 57 81 70 60 C 77 51 78 45 75 41 C 73 37 71 37 52 37 C 43 37 31 37 25 37 C 18 36 16 37 15 37 z" fill="black"/><!-- width=89 height=163 -->
<path id="gl29470" d="M 38 7 C 22 11 15 18 10 34 C 9 43 13 49 20 46 C 24 45 25 43 27 39 C 27 37 28 34 28 34 C 32 19 51 19 57 34 C 61 46 55 59 38 72 C 30 78 27 82 21 91 C 10 107 7 120 15 123 C 16 124 49 125 66 125 C 76 125 78 112 69 109 C 66 108 66 108 51 109 C 36 110 34 110 31 107 C 27 103 31 97 40 90 C 46 85 66 66 68 61 C 71 57 73 48 73 41 C 74 28 67 16 58 11 C 52 8 43 6 38 7 z" fill="black"/><!-- width=85 height=136 -->
<path id="gl26643" d="M 34 24 C 33 25 31 28 30 30 C 27 37 24 39 15 40 C 8 41 6 43 6 48 C 6 52 7 54 16 54 C 28 54 29 56 28 74 C 28 80 27 90 28 97 C 28 103 27 114 27 120 C 27 124 27 128 27 132 C 27 133 28 134 28 135 C 32 141 39 142 42 136 C 44 133 44 139 44 83 C 43 63 44 42 44 37 C 44 33 44 30 45 27 C 44 26 43 25 42 24 C 40 21 37 21 34 24 z" fill="black"/><!-- width=67 height=152 -->
<path id="gl28445" d="M 34 12 C 20 13 12 19 8 33 C 6 40 7 45 12 47 C 17 48 21 46 23 39 C 27 30 31 25 38 25 C 46 25 52 32 52 43 C 52 55 48 60 35 63 C 30 64 27 69 29 72 C 31 75 33 76 39 77 C 50 79 54 85 54 98 C 53 112 43 121 33 116 C 28 114 27 112 24 103 C 22 97 20 95 17 94 C 7 92 4 102 10 115 C 17 127 28 133 43 132 C 54 130 61 125 66 114 C 73 100 72 87 63 75 C 58 69 58 66 62 59 C 69 49 69 38 63 26 C 58 15 50 11 34 12 z" fill="black"/><!-- width=86 height=145 -->
<path id="gl30216" d="M 12 13 C 8 15 9 21 13 24 C 15 26 15 26 20 25 C 23 25 30 25 34 25 C 45 25 48 25 48 21 C 48 21 48 20 48 19 C 49 18 46 13 45 12 C 40 12 13 12 12 13 z" fill="black"/><!-- width=58 height=37 -->
<path id="gl30999" d="M 19 19 C 9 24 9 33 9 67 C 9 115 14 124 38 124 C 62 124 67 115 67 67 C 67 24 62 9 38 9 C 33 9 24 9 19 19 M 48 28 C 57 33 57 96 48 105 C 33 124 24 110 24 72 C 19 28 33 9 48 28 z" fill="black"/><!-- width=81 height=139 -->
<path id="gl28445" d="M 34 12 C 20 13 12 19 8 33 C 6 40 7 45 12 47 C 17 48 21 46 23 39 C 27 30 31 25 38 25 C 46 25 52 32 52 43 C 52 55 48 60 35 63 C 30 64 27 69 29 72 C 31 75 33 76 39 77 C 50 79 54 85 54 98 C 53 112 43 121 33 116 C 28 114 27 112 24 103 C 22 97 20 95 17 94 C 7 92 4 102 10 115 C 17 127 28 133 43 132 C 54 130 61 125 66 114 C 73 100 72 87 63 75 C 58 69 58 66 62 59 C 69 49 69 38 63 26 C 58 15 50 11 34 12 z" fill="black"/><!-- width=86 height=145 -->
<path id="gl28448" d="M 37 14 C 23 16 12 26 10 40 C 6 65 11 81 25 88 C 34 93 39 93 47 88 C 54 85 55 85 58 87 C 61 89 61 93 58 101 C 53 119 37 124 29 112 C 24 104 20 102 15 103 C 4 106 14 127 27 131 C 45 136 61 131 67 118 C 73 105 76 91 76 69 C 76 64 76 60 76 55 C 75 52 75 49 74 46 C 70 31 67 24 59 18 C 54 15 44 13 37 14 M 45 28 C 54 30 58 40 58 57 C 58 65 58 67 55 72 C 51 76 48 78 42 78 C 27 78 21 64 25 43 C 27 35 31 30 38 28 C 41 27 42 27 45 28 z" fill="black"/><!-- width=90 height=147 -->
<path id="gl31000" d="M 19 14 C 4 28 0 67 4 91 C 19 148 62 139 72 81 C 76 19 48 -10 19 14 M 48 28 C 62 52 52 115 38 115 C 24 115 19 100 19 67 C 19 24 38 4 48 28 z" fill="black"/><!-- width=86 height=139 -->
<path id="gl25377" d="M 20 46 C 12 49 13 66 21 68 C 24 69 25 69 31 68 C 42 67 45 69 45 78 C 45 101 44 144 43 154 C 43 174 45 177 60 176 C 64 176 67 175 69 172 C 70 169 70 172 70 116 C 69 76 69 75 70 73 C 72 69 75 68 85 68 C 93 69 93 69 96 67 C 100 64 101 57 99 50 C 96 45 96 45 83 45 C 64 46 42 46 32 45 C 23 45 22 45 20 46 z" fill="black"/><!-- width=115 height=190 -->
<path id="gl30498" d="M 42 16 C 23 21 15 36 15 70 C 15 76 17 91 19 96 C 21 100 28 108 32 110 C 34 111 43 114 48 114 C 52 115 63 113 70 109 C 77 106 84 91 82 84 C 79 74 68 75 63 86 C 55 100 39 97 39 80 C 39 70 45 66 60 69 C 79 72 84 70 85 60 C 87 49 80 27 73 22 C 65 16 53 14 42 16 M 55 34 C 61 36 64 45 61 51 C 58 55 51 57 45 54 C 34 48 43 29 55 34 z" fill="black"/><!-- width=99 height=129 -->
<path id="gl28450" d="M 17 12 C 13 15 13 15 14 33 C 15 48 15 105 14 112 C 12 135 13 136 27 136 C 39 136 40 134 40 118 C 39 113 39 96 39 81 C 39 64 39 48 39 43 C 38 37 39 32 39 27 C 41 13 39 10 27 10 C 20 10 19 11 17 12 z" fill="black"/><!-- width=54 height=148 -->
<path id="gl30498" d="M 42 16 C 23 21 15 36 15 70 C 15 76 17 91 19 96 C 21 100 28 108 32 110 C 34 111 43 114 48 114 C 52 115 63 113 70 109 C 77 106 84 91 82 84 C 79 74 68 75 63 86 C 55 100 39 97 39 80 C 39 70 45 66 60 69 C 79 72 84 70 85 60 C 87 49 80 27 73 22 C 65 16 53 14 42 16 M 55 34 C 61 36 64 45 61 51 C 58 55 51 57 45 54 C 34 48 43 29 55 34 z" fill="black"/><!-- width=99 height=129 -->
<path id="gl25612" d="M 64 30 C 63 30 60 31 57 32 C 52 34 49 34 43 33 C 38 31 30 30 27 32 C 23 34 23 30 23 86 C 23 114 22 139 22 144 C 21 160 24 163 36 162 C 48 162 49 159 47 141 C 45 129 49 123 58 127 C 67 132 67 132 73 131 C 84 130 91 122 96 105 C 97 103 97 100 98 98 C 98 92 98 87 98 81 C 98 75 98 69 98 63 C 97 61 97 58 96 56 C 91 38 84 30 71 30 C 68 30 65 30 64 30 M 64 50 C 74 53 78 77 72 99 C 69 111 58 115 51 105 C 45 97 45 69 49 57 C 52 51 59 48 64 50 z" fill="black"/><!-- width=112 height=177 -->
<path id="gl28171" d="M 28 6 C 21 8 19 10 21 25 C 22 42 22 95 19 120 C 18 134 21 136 33 137 C 40 137 42 136 44 132 C 45 130 45 132 45 93 C 45 85 45 76 45 68 C 45 67 46 66 47 64 C 52 54 64 54 69 63 C 71 68 71 70 69 109 C 67 131 67 133 72 136 C 76 138 88 137 90 135 C 93 132 93 131 93 94 C 93 51 93 50 87 44 C 79 37 70 36 60 40 C 52 45 48 44 46 39 C 44 36 44 33 45 25 C 48 10 45 7 36 6 C 33 6 30 6 28 6 z" fill="black"/><!-- width=108 height=153 -->
<path id="gl25604" d="M 48 15 C 34 16 24 23 19 36 C 16 46 15 51 16 69 C 16 74 16 80 16 85 C 16 88 17 90 18 92 C 21 100 22 103 26 107 C 33 114 42 117 55 117 C 75 117 85 109 91 89 C 93 82 94 57 93 48 C 90 30 81 19 67 16 C 62 14 54 13 48 15 M 61 34 C 68 39 70 47 69 69 C 69 83 67 88 64 93 C 57 102 46 100 42 90 C 38 80 38 53 42 42 C 44 33 54 29 61 34 z" fill="black"/><!-- width=109 height=132 -->
<path id="gl25615" d="M 60 21 C 58 21 54 22 51 24 C 45 27 43 27 38 25 C 30 21 19 21 17 26 C 16 28 16 41 16 45 C 16 46 16 61 16 80 C 16 117 15 116 19 119 C 22 121 34 121 37 119 C 41 116 41 115 40 96 C 39 62 39 52 41 48 C 46 37 58 36 63 46 C 64 48 64 48 65 49 C 65 54 65 58 65 63 C 65 70 64 85 64 95 C 63 119 63 120 75 120 C 84 121 88 119 88 114 C 88 113 88 96 88 75 C 88 33 88 34 82 28 C 78 22 67 19 60 21 z" fill="black"/><!-- width=104 height=135 -->
<path id="gl30498" d="M 42 16 C 23 21 15 36 15 70 C 15 76 17 91 19 96 C 21 100 28 108 32 110 C 34 111 43 114 48 114 C 52 115 63 113 70 109 C 77 106 84 91 82 84 C 79 74 68 75 63 86 C 55 100 39 97 39 80 C 39 70 45 66 60 69 C 79 72 84 70 85 60 C 87 49 80 27 73 22 C 65 16 53 14 42 16 M 55 34 C 61 36 64 45 61 51 C 58 55 51 57 45 54 C 34 48 43 29 55 34 z" fill="black"/><!-- width=99 height=129 -->
<path id="gl30508" d="M 16 13 C 13 16 12 17 12 27 C 12 39 14 42 25 42 C 36 42 38 39 38 27 C 37 14 37 13 25 13 C 19 12 18 13 16 13 M 17 76 C 14 77 13 79 12 83 C 10 91 12 103 16 105 C 20 108 30 108 33 105 C 36 102 37 100 37 91 C 37 82 36 79 32 76 C 30 75 20 75 17 76 z" fill="black"/><!-- width=50 height=121 -->
<path id="gl26664" d="M 39 22 C 37 22 34 25 32 30 C 28 39 25 40 16 41 C 10 42 10 42 7 44 C 5 46 5 46 5 51 C 5 58 7 61 14 61 C 24 60 25 60 27 61 C 30 65 30 65 30 84 C 28 123 28 142 29 144 C 31 147 33 148 41 148 C 48 148 48 148 51 146 C 54 144 54 142 54 128 C 52 115 52 61 54 42 C 54 27 54 26 51 23 C 49 22 43 21 39 22 z" fill="black"/><!-- width=76 height=162 -->
<path id="gl26402" d="M 16 17 C 15 19 13 22 14 27 C 15 33 18 35 25 34 C 36 34 39 33 48 34 C 59 35 61 34 63 31 C 65 28 64 18 60 16 C 60 16 53 16 39 16 C 18 16 18 16 16 17 z" fill="black"/><!-- width=78 height=51 -->
<path id="gl26892" d="M 40 12 C 24 16 15 28 16 45 C 16 51 16 52 22 61 C 24 64 25 67 25 68 C 25 70 22 75 19 78 C 11 88 10 105 16 118 C 19 123 26 130 30 133 C 43 140 67 138 78 129 C 81 126 88 116 90 112 C 92 108 93 87 91 82 C 90 80 90 79 88 79 C 84 79 77 73 77 69 C 77 66 78 64 81 60 C 83 58 85 55 86 54 C 90 49 90 43 84 30 C 80 21 75 16 64 13 C 59 11 47 11 40 12 M 55 29 C 67 32 68 53 57 60 C 51 64 43 61 40 54 C 38 49 38 39 40 36 C 43 30 49 27 55 29 M 57 78 C 64 82 66 88 66 100 C 65 115 58 121 47 118 C 34 115 32 87 44 79 C 48 76 54 76 57 78 z" fill="black"/><!-- width=105 height=150 -->
<path id="gl26881" d="M 44 12 C 36 14 33 16 29 19 C 23 25 18 36 16 44 C 15 49 14 101 15 106 C 19 129 40 141 64 134 C 75 131 82 124 86 114 C 87 112 89 108 90 106 C 94 99 95 96 94 70 C 94 63 94 57 94 51 C 93 49 92 47 91 45 C 90 42 88 37 87 33 C 84 25 81 21 76 18 C 67 11 55 9 44 12 M 59 31 C 63 33 66 37 67 46 C 68 52 68 94 67 101 C 65 112 60 118 52 118 C 45 118 41 113 39 101 C 38 97 37 92 38 72 C 38 64 38 56 38 48 C 39 46 39 45 40 43 C 42 36 43 34 46 31 C 49 28 54 28 59 31 z" fill="black"/><!-- width=108 height=148 -->
<path id="gl26882" d="M 49 12 C 32 15 21 25 17 40 C 15 50 15 106 18 115 C 21 126 31 134 46 137 C 55 139 70 135 77 129 C 87 120 94 97 92 77 C 92 75 91 67 91 61 C 90 36 85 22 73 16 C 66 13 56 11 49 12 M 59 31 C 67 35 67 39 67 73 C 67 102 67 106 63 112 C 59 119 51 121 45 116 C 39 112 38 106 38 76 C 37 52 38 46 41 39 C 43 31 52 27 59 31 z" fill="black"/><!-- width=108 height=151 -->
<path id="gl26402" d="M 16 17 C 15 19 13 22 14 27 C 15 33 18 35 25 34 C 36 34 39 33 48 34 C 59 35 61 34 63 31 C 65 28 64 18 60 16 C 60 16 53 16 39 16 C 18 16 18 16 16 17 z" fill="black"/><!-- width=78 height=51 -->
<path id="gl31001" d="M 40 10 C 26 12 19 16 14 27 C 7 40 12 48 25 46 C 30 45 31 43 34 37 C 37 31 38 30 41 28 C 52 22 61 34 57 49 C 55 54 51 57 45 58 C 39 59 37 60 36 64 C 32 70 37 76 46 76 C 55 77 60 84 60 96 C 60 99 60 101 60 103 C 59 105 58 106 57 108 C 54 114 51 116 45 115 C 38 115 35 112 33 102 C 31 93 29 91 19 91 C 14 90 11 91 9 96 C 6 103 16 125 26 131 C 45 141 70 133 79 114 C 80 112 82 110 82 108 C 84 106 84 106 84 97 C 83 85 82 81 76 75 C 73 72 70 69 70 66 C 70 65 75 57 79 51 C 80 49 81 47 81 46 C 81 46 82 45 83 44 C 85 43 85 42 84 41 C 84 40 82 37 81 34 C 78 25 72 18 66 14 C 60 11 46 9 40 10 z" fill="black"/><!-- width=103 height=148 -->
<path id="gl31002" d="M 28 14 C 0 24 9 96 43 86 C 57 81 57 86 57 96 C 57 110 48 115 38 105 C 19 91 4 96 14 115 C 28 144 67 139 81 105 C 81 100 86 100 91 100 C 96 105 100 100 100 86 C 100 72 96 72 91 72 C 86 76 81 72 81 52 C 81 19 57 0 28 14 M 57 48 C 57 67 43 76 33 57 C 24 48 33 24 48 28 C 57 28 57 33 57 48 z" fill="black"/><!-- width=105 height=144 -->
<path id="gl31003" d="M 19 38 C 0 81 0 100 19 100 C 33 100 33 105 38 115 C 38 134 52 139 57 124 C 57 120 62 110 67 105 C 72 96 72 81 67 81 C 62 81 57 67 57 43 C 57 33 57 19 57 4 C 57 4 52 4 48 4 C 33 4 28 9 19 38 M 38 57 C 43 67 38 81 28 81 C 19 81 14 76 24 62 C 28 48 33 48 38 57 z" fill="black"/><!-- width=81 height=144 -->
<path id="gl26402" d="M 16 17 C 15 19 13 22 14 27 C 15 33 18 35 25 34 C 36 34 39 33 48 34 C 59 35 61 34 63 31 C 65 28 64 18 60 16 C 60 16 53 16 39 16 C 18 16 18 16 16 17 z" fill="black"/><!-- width=78 height=51 -->
<path id="gl26888" d="M 54 7 C 31 12 25 18 19 43 C 17 53 16 95 18 103 C 19 108 23 115 26 119 C 30 124 34 127 42 130 C 55 134 62 134 72 129 C 81 126 84 123 89 115 C 91 112 92 111 94 109 C 97 108 98 107 98 96 C 99 85 98 81 95 77 C 94 75 92 72 91 69 C 87 62 80 55 75 54 C 69 52 63 52 58 54 C 46 58 40 55 41 43 C 42 34 48 25 56 25 C 62 25 64 27 69 36 C 72 40 73 41 79 41 C 87 42 91 39 92 35 C 93 28 85 16 76 12 C 69 9 59 7 54 7 M 63 71 C 65 72 67 75 69 78 C 70 81 70 82 70 91 C 70 103 70 105 66 111 C 60 117 48 115 44 107 C 43 104 42 87 43 82 C 45 71 54 66 63 71 z" fill="black"/><!-- width=110 height=144 -->
<path id="gl31004" d="M 24 14 C 14 19 9 38 14 52 C 14 62 14 67 14 72 C 4 76 4 105 9 120 C 28 153 91 129 91 86 C 91 76 86 72 86 72 C 81 72 81 72 76 67 C 67 62 76 43 86 48 C 91 52 91 48 81 28 C 67 9 43 0 24 14 M 57 33 C 62 43 52 57 43 57 C 33 57 28 43 33 33 C 38 24 52 24 57 33 M 57 81 C 57 81 62 91 57 100 C 52 120 33 115 33 96 C 28 72 48 62 57 81 z" fill="black"/><!-- width=96 height=144 -->
<path id="gl31005" d="M 24 4 C 4 9 0 76 9 110 C 19 134 48 134 72 110 C 96 86 81 43 48 48 C 28 48 28 48 28 33 C 28 19 48 14 52 28 C 57 38 72 38 76 28 C 86 19 48 0 24 4 M 52 76 C 57 96 52 110 38 105 C 28 105 24 86 28 72 C 33 62 52 67 52 76 z" fill="black"/><!-- width=91 height=139 -->
<path id="gl28456" d="M 42 10 C 34 11 28 15 24 19 C 13 31 12 48 21 57 C 27 63 27 66 20 73 C 17 76 15 78 15 80 C 14 84 15 114 15 116 C 16 119 24 127 28 129 C 37 135 54 136 67 132 C 75 130 82 122 87 111 C 88 110 89 108 90 106 C 90 103 90 100 90 97 C 90 94 90 91 90 88 C 89 87 88 85 87 83 C 86 79 84 77 83 75 C 75 67 75 64 82 56 C 85 52 87 47 87 42 C 87 33 82 21 76 16 C 70 11 54 8 42 10 M 57 28 C 58 28 62 33 63 37 C 65 43 64 50 59 54 C 51 63 39 57 39 44 C 38 32 46 25 57 28 M 59 78 C 68 84 69 101 61 111 C 57 117 45 117 40 111 C 36 105 34 91 37 85 C 42 75 51 72 59 78 z" fill="black"/><!-- width=103 height=145 -->
<path id="gl31006" d="M 9 9 C 9 9 9 38 9 72 C 9 129 9 129 19 129 C 28 134 28 129 33 105 C 33 96 33 86 33 76 C 38 76 48 76 52 76 C 67 76 72 76 72 67 C 76 57 72 57 52 57 C 33 57 28 52 33 43 C 33 28 33 28 57 24 C 91 24 86 9 43 9 C 24 4 9 4 9 9 z" fill="black"/><!-- width=86 height=144 -->
<path id="gl25617" d="M 35 11 C 22 13 12 23 12 34 C 12 40 15 42 21 42 C 28 42 30 41 34 34 C 38 28 42 27 47 28 C 56 30 58 40 51 47 C 49 49 45 51 38 52 C 31 54 21 58 18 60 C 6 68 5 99 16 107 C 22 111 25 112 32 112 C 39 112 39 112 48 108 C 52 105 55 106 60 108 C 68 112 76 112 79 109 C 80 108 81 108 81 107 C 81 105 81 103 81 102 C 81 99 80 93 80 89 C 79 85 79 71 79 57 C 79 30 79 28 76 22 C 70 13 52 7 35 11 M 52 65 C 58 69 58 82 52 89 C 43 100 30 93 31 79 C 32 69 45 61 52 65 z" fill="black"/><!-- width=94 height=127 -->
<path id="gl26891" d="M 16 14 C 11 17 12 21 17 29 C 30 50 33 58 31 64 C 30 69 21 84 16 91 C 10 99 10 105 13 108 C 15 109 16 109 22 109 C 33 109 35 108 38 97 C 40 87 45 84 50 86 C 54 88 55 90 56 95 C 58 106 61 109 71 109 C 79 109 83 107 83 103 C 83 100 82 99 78 91 C 61 65 61 63 63 56 C 63 53 76 31 80 25 C 85 18 82 13 72 13 C 62 13 59 15 56 25 C 53 34 49 37 43 34 C 41 32 40 30 38 24 C 36 15 33 13 24 13 C 18 13 18 13 16 14 z" fill="black"/><!-- width=94 height=123 -->
<path id="gl31007" d="M 9 14 C 9 33 19 43 24 28 C 28 19 24 4 14 4 C 9 0 9 4 9 14 M 9 67 C 4 76 9 100 19 100 C 24 100 28 96 24 81 C 24 67 19 62 9 67 z" fill="black"/><!-- width=38 height=110 -->
<path id="gl26664" d="M 39 22 C 37 22 34 25 32 30 C 28 39 25 40 16 41 C 10 42 10 42 7 44 C 5 46 5 46 5 51 C 5 58 7 61 14 61 C 24 60 25 60 27 61 C 30 65 30 65 30 84 C 28 123 28 142 29 144 C 31 147 33 148 41 148 C 48 148 48 148 51 146 C 54 144 54 142 54 128 C 52 115 52 61 54 42 C 54 27 54 26 51 23 C 49 22 43 21 39 22 z" fill="black"/><!-- width=76 height=162 -->
<path id="gl26402" d="M 16 17 C 15 19 13 22 14 27 C 15 33 18 35 25 34 C 36 34 39 33 48 34 C 59 35 61 34 63 31 C 65 28 64 18 60 16 C 60 16 53 16 39 16 C 18 16 18 16 16 17 z" fill="black"/><!-- width=78 height=51 -->
<path id="gl30220" d="M 40 13 C 28 15 19 22 16 30 C 14 34 12 41 12 43 C 12 48 16 57 20 63 C 24 67 23 71 16 79 C 10 87 9 90 10 101 C 12 120 19 130 34 135 C 40 137 48 138 50 138 C 68 135 79 127 84 114 C 86 110 87 110 89 112 C 92 115 92 115 93 107 C 94 100 93 46 93 42 C 92 39 91 40 90 43 C 88 47 88 51 88 60 C 89 71 89 78 87 82 C 87 84 86 84 84 84 C 81 84 81 84 78 79 C 72 70 72 67 79 58 C 81 54 83 52 84 51 C 85 50 83 34 79 28 C 78 25 71 18 67 16 C 63 14 48 12 40 13 M 51 30 C 58 32 61 37 61 46 C 61 54 59 57 52 61 C 48 63 44 63 39 58 C 30 50 34 32 45 30 C 49 29 49 29 51 30 M 56 80 C 60 82 61 85 63 93 C 66 110 55 123 42 117 C 31 112 30 87 40 81 C 46 76 51 76 56 80 z" fill="black"/><!-- width=102 height=151 -->
<path id="gl26882" d="M 49 12 C 32 15 21 25 17 40 C 15 50 15 106 18 115 C 21 126 31 134 46 137 C 55 139 70 135 77 129 C 87 120 94 97 92 77 C 92 75 91 67 91 61 C 90 36 85 22 73 16 C 66 13 56 11 49 12 M 59 31 C 67 35 67 39 67 73 C 67 102 67 106 63 112 C 59 119 51 121 45 116 C 39 112 38 106 38 76 C 37 52 38 46 41 39 C 43 31 52 27 59 31 z" fill="black"/><!-- width=108 height=151 -->
<path id="gl26882" d="M 49 12 C 32 15 21 25 17 40 C 15 50 15 106 18 115 C 21 126 31 134 46 137 C 55 139 70 135 77 129 C 87 120 94 97 92 77 C 92 75 91 67 91 61 C 90 36 85 22 73 16 C 66 13 56 11 49 12 M 59 31 C 67 35 67 39 67 73 C 67 102 67 106 63 112 C 59 119 51 121 45 116 C 39 112 38 106 38 76 C 37 52 38 46 41 39 C 43 31 52 27 59 31 z" fill="black"/><!-- width=108 height=151 -->
<path id="gl26402" d="M 16 17 C 15 19 13 22 14 27 C 15 33 18 35 25 34 C 36 34 39 33 48 34 C 59 35 61 34 63 31 C 65 28 64 18 60 16 C 60 16 53 16 39 16 C 18 16 18 16 16 17 z" fill="black"/><!-- width=78 height=51 -->
<path id="gl31001" d="M 40 10 C 26 12 19 16 14 27 C 7 40 12 48 25 46 C 30 45 31 43 34 37 C 37 31 38 30 41 28 C 52 22 61 34 57 49 C 55 54 51 57 45 58 C 39 59 37 60 36 64 C 32 70 37 76 46 76 C 55 77 60 84 60 96 C 60 99 60 101 60 103 C 59 105 58 106 57 108 C 54 114 51 116 45 115 C 38 115 35 112 33 102 C 31 93 29 91 19 91 C 14 90 11 91 9 96 C 6 103 16 125 26 131 C 45 141 70 133 79 114 C 80 112 82 110 82 108 C 84 106 84 106 84 97 C 83 85 82 81 76 75 C 73 72 70 69 70 66 C 70 65 75 57 79 51 C 80 49 81 47 81 46 C 81 46 82 45 83 44 C 85 43 85 42 84 41 C 84 40 82 37 81 34 C 78 25 72 18 66 14 C 60 11 46 9 40 10 z" fill="black"/><!-- width=103 height=148 -->
<path id="gl31008" d="M 19 14 C 14 24 9 28 9 48 C 14 76 19 86 43 86 C 57 81 57 86 57 96 C 57 110 48 115 33 100 C 19 91 14 96 14 105 C 14 124 43 139 67 124 C 91 115 96 38 72 14 C 62 4 33 4 19 14 M 57 43 C 57 67 52 72 38 62 C 24 48 38 19 52 24 C 57 24 57 33 57 43 z" fill="black"/><!-- width=100 height=144 -->
<path id="gl31009" d="M 24 43 C 0 86 0 100 24 100 C 43 105 43 105 48 115 C 48 134 67 134 67 115 C 72 110 72 105 76 105 C 81 105 81 86 72 81 C 72 81 72 62 72 43 C 72 28 72 19 72 9 C 67 9 62 9 57 9 C 43 9 38 14 24 43 M 48 62 C 52 72 48 76 33 76 C 24 76 24 76 33 62 C 38 48 43 48 48 62 z" fill="black"/><!-- width=91 height=139 -->
<path id="gl26402" d="M 16 17 C 15 19 13 22 14 27 C 15 33 18 35 25 34 C 36 34 39 33 48 34 C 59 35 61 34 63 31 C 65 28 64 18 60 16 C 60 16 53 16 39 16 C 18 16 18 16 16 17 z" fill="black"/><!-- width=78 height=51 -->
<path id="gl28673" d="M 46 10 C 30 13 24 19 18 36 C 16 43 15 46 15 73 C 13 94 14 100 19 112 C 23 123 27 127 37 130 C 53 135 58 135 70 130 C 79 126 85 120 88 112 C 88 109 90 107 90 106 C 92 104 91 80 89 73 C 87 64 85 62 78 57 C 72 52 64 51 54 54 C 43 57 38 55 38 45 C 38 39 40 35 43 31 C 51 24 58 25 64 33 C 69 39 72 42 79 42 C 83 42 87 40 88 39 C 89 38 90 38 92 38 C 94 39 94 39 95 37 C 96 34 94 32 93 32 C 90 32 90 32 88 28 C 86 24 82 18 78 16 C 72 10 56 7 46 10 M 59 70 C 66 73 70 86 67 100 C 64 117 48 121 41 107 C 39 102 38 82 40 78 C 45 69 52 66 59 70 M 94 114 C 93 116 93 117 94 118 C 94 120 96 118 95 115 C 94 114 94 113 94 112 C 94 112 94 114 94 114 z" fill="black"/><!-- width=104 height=146 -->
<path id="gl31010" d="M 24 14 C 9 19 4 38 9 48 C 19 52 28 48 33 33 C 38 19 62 24 62 43 C 62 43 48 57 33 72 C 19 91 9 100 9 115 C 9 120 9 124 9 129 C 19 129 33 129 43 129 C 76 129 81 129 81 115 C 81 110 76 105 62 105 C 33 105 33 100 57 76 C 81 52 86 38 76 19 C 62 4 43 4 24 14 z" fill="black"/><!-- width=96 height=144 -->
<path id="gl26887" d="M 36 13 C 28 15 27 16 23 19 C 12 29 9 47 16 58 C 23 67 23 70 15 79 C 10 85 10 87 10 99 C 10 114 12 118 20 127 C 25 132 27 133 35 135 C 45 138 55 137 66 133 C 72 132 76 127 82 119 C 84 116 87 112 88 111 C 88 110 89 109 90 108 C 90 105 90 102 90 99 C 90 89 90 82 88 80 C 88 79 88 79 86 80 C 82 82 74 75 74 69 C 74 65 75 63 84 52 C 87 49 86 48 83 37 C 79 25 75 19 69 16 C 59 12 47 10 36 13 M 55 31 C 64 37 63 55 53 61 C 44 65 36 59 35 47 C 34 39 37 33 43 30 C 46 29 52 29 55 31 M 52 79 C 67 84 67 114 52 118 C 42 121 34 114 33 100 C 31 85 41 75 52 79 z" fill="black"/><!-- width=99 height=150 -->
<path id="gl31011" d="M 19 14 C 9 24 9 28 9 67 C 9 110 9 115 19 124 C 48 144 76 129 81 91 C 86 62 67 43 48 48 C 33 52 28 52 28 43 C 28 28 43 24 57 28 C 76 43 86 33 72 14 C 57 4 33 4 19 14 M 57 72 C 67 96 52 120 38 105 C 24 96 28 62 43 62 C 52 62 57 67 57 72 z" fill="black"/><!-- width=96 height=144 -->
</defs>
<use xlink:href="#gl30493" x="0" y="9"/>
<use xlink:href="#gl26627" x="85" y="21"/>
<use xlink:href="#gl26651" x="173" y="31"/>
<use xlink:href="#gl26628" x="256" y="31"/>
<use xlink:href="#gl30996" x="354" y="38"/>
<use xlink:href="#gl30208" x="428" y="32"/>
<use xlink:href="#gl29464" x="513" y="0"/>
<use xlink:href="#gl28431" x="595" y="32"/>
<use xlink:href="#gl28430" x="617" y="29"/>
<use xlink:href="#gl28429" x="701" y="29"/>
<use xlink:href="#gl29464" x="729" y="0"/>
<use xlink:href="#gl30997" x="815" y="38"/>
<use xlink:href="#gl25116" x="888" y="130"/>
<use xlink:href="#gl28431" x="960" y="34"/>
<use xlink:href="#gl26635" x="993" y="34"/>
<use xlink:href="#gl28428" x="1071" y="32"/>
<use xlink:href="#gl2844" x="1167" y="132"/>
<use xlink:href="#gl25116" x="1208" y="131"/>
<use xlink:href="#gl26628" x="1274" y="33"/>
<use xlink:href="#gl30998" x="1377" y="38"/>
<use xlink:href="#gl28425" x="1429" y="12"/>
<use xlink:href="#gl26631" x="1514" y="0"/>
<use xlink:href="#gl2844" x="1597" y="133"/>
<use xlink:href="#gl26641" x="1668" y="36"/>
<use xlink:href="#gl26639" x="1741" y="37"/>
<use xlink:href="#gl29707" x="1840" y="132"/>
<use xlink:href="#gl28425" x="1895" y="13"/>
<use xlink:href="#gl2844" x="1976" y="134"/>
<use xlink:href="#gl26114" x="2009" y="32"/>
<use xlink:href="#gl2844" x="2103" y="134"/>
<use xlink:href="#gl28436" x="2175" y="36"/>
<use xlink:href="#gl26651" x="2262" y="35"/>
<use xlink:href="#gl26642" x="2350" y="35"/>
<use xlink:href="#gl26643" x="2478" y="30"/>
<use xlink:href="#gl28445" x="2549" y="40"/>
<use xlink:href="#gl28445" x="2626" y="40"/>
<use xlink:href="#gl26646" x="2698" y="37"/>
<use xlink:href="#gl28437" x="2770" y="42"/>
<use xlink:href="#gl25116" x="2855" y="133"/>
<use xlink:href="#gl26626" x="2914" y="12"/>
<use xlink:href="#gl26114" x="3001" y="33"/>
<use xlink:href="#gl29462" x="3092" y="27"/>
<use xlink:href="#gl29464" x="3172" y="7"/>
<use xlink:href="#gl26648" x="3232" y="46"/>
<use xlink:href="#gl30214" x="3316" y="43"/>
<use xlink:href="#gl26635" x="3405" y="39"/>
<use xlink:href="#gl26628" x="3484" y="39"/>
<use xlink:href="#gl25116" x="3584" y="135"/>
<use xlink:href="#gl26651" x="3657" y="38"/>
<use xlink:href="#gl26627" x="3743" y="30"/>
<use xlink:href="#gl28448" x="3869" y="41"/>
<use xlink:href="#gl26653" x="3945" y="19"/>
<use xlink:href="#gl29470" x="4022" y="47"/>
<use xlink:href="#gl26643" x="4108" y="32"/>
<use xlink:href="#gl28445" x="4180" y="42"/>
<use xlink:href="#gl30216" x="4256" y="107"/>
<use xlink:href="#gl30999" x="4314" y="48"/>
<use xlink:href="#gl28445" x="4391" y="43"/>
<use xlink:href="#gl28448" x="4464" y="41"/>
<use xlink:href="#gl31000" x="4545" y="48"/>
<use xlink:href="#gl25377" x="585" y="195"/>
<use xlink:href="#gl30498" x="674" y="254"/>
<use xlink:href="#gl28450" x="758" y="231"/>
<use xlink:href="#gl30498" x="794" y="255"/>
<use xlink:href="#gl25612" x="867" y="239"/>
<use xlink:href="#gl28171" x="953" y="234"/>
<use xlink:href="#gl25604" x="1042" y="255"/>
<use xlink:href="#gl25615" x="1126" y="250"/>
<use xlink:href="#gl30498" x="1210" y="256"/>
<use xlink:href="#gl30508" x="1295" y="262"/>
<use xlink:href="#gl26664" x="1384" y="222"/>
<use xlink:href="#gl26402" x="1456" y="292"/>
<use xlink:href="#gl26892" x="1516" y="234"/>
<use xlink:href="#gl26881" x="1596" y="235"/>
<use xlink:href="#gl26882" x="1676" y="234"/>
<use xlink:href="#gl26402" x="1764" y="293"/>
<use xlink:href="#gl31001" x="1827" y="237"/>
<use xlink:href="#gl31002" x="1909" y="240"/>
<use xlink:href="#gl31003" x="2005" y="240"/>
<use xlink:href="#gl26402" x="2071" y="293"/>
<use xlink:href="#gl26888" x="2129" y="239"/>
<use xlink:href="#gl31004" x="2221" y="240"/>
<use xlink:href="#gl31005" x="2308" y="245"/>
<use xlink:href="#gl28456" x="2377" y="238"/>
<use xlink:href="#gl31006" x="2634" y="240"/>
<use xlink:href="#gl25617" x="2703" y="262"/>
<use xlink:href="#gl26891" x="2782" y="263"/>
<use xlink:href="#gl31007" x="2874" y="273"/>
<use xlink:href="#gl26664" x="2954" y="226"/>
<use xlink:href="#gl26402" x="3027" y="295"/>
<use xlink:href="#gl30220" x="3089" y="237"/>
<use xlink:href="#gl26882" x="3168" y="238"/>
<use xlink:href="#gl26882" x="3246" y="237"/>
<use xlink:href="#gl26402" x="3333" y="296"/>
<use xlink:href="#gl31001" x="3397" y="240"/>
<use xlink:href="#gl31008" x="3479" y="245"/>
<use xlink:href="#gl31009" x="3565" y="245"/>
<use xlink:href="#gl26402" x="3640" y="297"/>
<use xlink:href="#gl28673" x="3701" y="242"/>
<use xlink:href="#gl31010" x="3791" y="245"/>
<use xlink:href="#gl26887" x="3870" y="240"/>
<use xlink:href="#gl31011" x="3954" y="245"/>
</svg>
