<?xml version='1.0' encoding='utf-8'?>
<svg xmlns="http://www.w3.org/2000/svg" xmlns:xlink="http://www.w3.org/1999/xlink" width="462px" height="40px" viewBox="0 0 4627 407" version="1.1">
<defs>
<path id="gl28425" d="M 35 36 C 32 36 30 39 29 43 C 29 45 29 63 29 83 C 29 110 29 122 28 126 C 27 133 27 144 28 147 C 29 156 41 157 45 150 C 46 147 46 143 45 124 C 45 106 45 105 61 105 C 71 105 71 105 76 103 C 89 98 96 87 96 70 C 96 52 90 43 75 37 C 73 36 72 36 70 35 C 64 35 59 35 53 35 C 44 35 36 35 35 36 M 67 51 C 77 54 82 66 79 78 C 76 85 72 89 64 90 C 53 93 47 91 46 85 C 45 81 45 60 46 56 C 48 50 57 48 67 51 z" fill="black"/><!-- width=110 height=165 -->
<path id="gl29996" d="M 22 20 C 16 22 17 20 16 75 C 16 100 16 124 16 128 C 16 133 16 134 18 135 C 21 139 29 139 31 135 C 34 132 34 130 32 104 C 31 90 33 86 46 86 C 55 86 58 87 62 91 C 66 96 67 98 67 114 C 67 132 69 136 75 138 C 79 139 82 138 85 135 C 85 135 86 134 87 133 C 87 132 87 130 87 129 C 87 127 86 124 85 122 C 85 120 84 115 84 112 C 82 96 81 93 77 88 C 73 84 73 77 76 73 C 84 63 85 46 79 34 C 74 24 66 19 49 19 C 25 19 25 19 22 20 M 56 36 C 64 39 67 43 67 52 C 67 60 65 65 62 67 C 52 76 37 76 33 68 C 31 66 31 66 32 54 C 32 38 33 36 39 34 C 43 33 52 34 56 36 z" fill="black"/><!-- width=97 height=148 -->
<path id="gl26114" d="M 45 14 C 29 18 20 30 16 50 C 14 59 14 92 16 102 C 21 127 33 139 55 139 C 77 139 89 126 93 97 C 95 89 94 55 93 49 C 88 30 81 20 67 15 C 63 13 49 13 45 14 M 62 31 C 69 34 73 40 75 51 C 78 62 78 90 75 100 C 73 113 70 118 63 121 C 52 126 42 122 36 111 C 31 100 30 72 33 54 C 36 40 39 35 45 31 C 51 28 57 28 62 31 z" fill="black"/><!-- width=109 height=154 -->
<path id="gl26628" d="M 27 13 C 24 15 23 16 22 18 C 21 22 21 124 22 127 C 24 133 24 133 42 133 C 69 133 76 130 85 118 C 92 108 96 94 96 73 C 96 33 85 15 58 13 C 48 12 28 12 27 13 M 60 29 C 73 32 78 43 79 69 C 80 101 71 117 52 117 C 44 118 41 117 39 113 C 39 112 38 111 37 111 C 37 97 37 85 37 72 C 37 30 37 32 42 29 C 44 28 54 28 60 29 z" fill="black"/><!-- width=111 height=147 -->
<path id="gl28427" d="M 18 8 C 14 10 13 13 13 24 C 13 30 14 49 14 66 C 14 76 14 87 14 97 C 15 99 15 102 16 103 C 21 121 31 129 49 129 C 67 129 75 123 82 104 C 83 102 84 100 84 99 C 84 84 84 70 84 56 C 84 9 85 12 81 9 C 77 6 70 7 68 11 C 67 13 67 15 67 46 C 67 103 68 101 63 107 C 58 113 52 115 44 113 C 39 112 34 108 32 102 C 32 100 31 99 31 97 C 31 84 31 70 31 56 C 31 28 31 13 30 13 C 28 7 23 6 18 8 z" fill="black"/><!-- width=99 height=145 -->
<path id="gl30208" d="M 52 12 C 36 15 27 25 21 46 C 19 52 19 54 19 67 C 18 86 19 94 23 109 C 24 114 31 124 36 127 C 47 136 61 138 75 131 C 85 126 93 112 93 99 C 93 94 90 90 86 90 C 80 89 77 92 75 102 C 73 109 71 112 68 115 C 59 123 46 120 41 108 C 37 100 36 92 36 73 C 36 55 36 49 40 40 C 42 36 48 29 51 28 C 63 25 72 30 75 40 C 78 51 84 55 90 51 C 94 48 94 36 90 28 C 83 17 66 9 52 12 z" fill="black"/><!-- width=103 height=148 -->
<path id="gl26631" d="M 18 46 C 12 48 10 53 12 58 C 14 63 15 63 25 63 C 36 63 37 63 40 67 C 41 69 41 69 40 116 C 39 162 39 161 40 163 C 44 170 54 171 57 164 C 58 161 58 139 57 91 C 57 72 57 70 57 67 C 59 63 61 62 69 63 C 84 64 88 61 87 54 C 87 48 82 45 71 46 C 63 46 34 46 25 46 C 22 46 19 46 18 46 z" fill="black"/><!-- width=98 height=180 -->
<path id="gl28431" d="M 18 14 C 14 17 14 12 14 73 C 14 133 14 130 18 132 C 21 133 25 133 27 132 C 31 129 31 131 31 82 C 31 46 31 37 31 31 C 33 22 32 20 30 17 C 27 13 22 12 18 14 z" fill="black"/><!-- width=45 height=145 -->
<path id="gl30209" d="M 62 9 C 57 9 57 28 52 48 C 43 96 33 96 24 48 C 19 19 19 9 9 9 C 0 4 0 4 14 67 C 28 124 28 129 43 124 C 52 120 76 14 72 4 C 67 4 62 4 62 9 z" fill="black"/><!-- width=86 height=134 -->
<path id="gl28431" d="M 18 14 C 14 17 14 12 14 73 C 14 133 14 130 18 132 C 21 133 25 133 27 132 C 31 129 31 131 31 82 C 31 46 31 37 31 31 C 33 22 32 20 30 17 C 27 13 22 12 18 14 z" fill="black"/><!-- width=45 height=145 -->
<path id="gl28432" d="M 19 45 C 15 46 11 50 10 53 C 9 61 13 64 24 63 C 39 61 40 63 40 79 C 39 88 39 139 39 153 C 39 162 39 163 44 166 C 48 168 53 167 55 163 C 57 161 57 154 57 126 C 56 69 56 70 57 67 C 60 63 61 63 69 63 C 91 64 91 64 92 57 C 93 51 92 49 89 48 C 88 48 86 47 85 46 C 84 45 77 45 57 46 C 50 46 42 46 39 46 C 32 45 21 45 19 45 z" fill="black"/><!-- width=99 height=176 -->
<path id="gl28433" d="M 16 27 C 15 27 15 29 15 36 C 15 40 14 45 14 45 C 13 46 14 47 15 48 C 16 49 17 52 18 54 C 19 57 22 63 25 68 C 31 81 34 88 37 96 C 39 102 39 108 38 129 C 37 144 39 148 46 148 C 54 148 56 143 55 127 C 55 122 55 114 55 109 C 55 99 56 95 64 78 C 67 73 70 66 71 64 C 72 61 75 55 77 51 C 82 40 83 38 82 34 C 82 30 81 28 78 27 C 70 25 66 30 61 46 C 56 63 54 69 50 72 C 47 75 46 75 44 74 C 42 72 40 67 37 58 C 28 31 28 32 25 28 C 21 25 18 24 16 27 z" fill="black"/><!-- width=94 height=157 -->
<path id="gl25116" d="M 17 15 C 13 18 12 27 15 33 C 18 38 18 41 16 45 C 13 50 13 51 14 54 C 15 58 22 58 25 53 C 28 46 30 24 27 19 C 25 15 24 14 21 14 C 19 14 18 15 17 15 z" fill="black"/><!-- width=42 height=69 -->
<path id="gl24839" d="M 18 14 C 15 18 15 19 16 31 C 17 43 17 112 16 124 C 15 132 15 132 16 135 C 21 142 31 141 34 133 C 34 132 34 129 34 120 C 33 112 33 94 33 63 C 33 48 33 33 33 18 C 33 17 32 16 32 15 C 29 11 22 10 18 14 z" fill="black"/><!-- width=50 height=153 -->
<path id="gl26635" d="M 20 11 C 13 13 13 16 13 30 C 15 39 14 58 13 71 C 12 88 12 124 13 127 C 15 133 25 135 28 129 C 30 126 30 122 30 107 C 29 99 28 87 28 79 C 27 61 28 57 30 54 C 34 51 37 55 42 72 C 44 77 48 87 50 92 C 52 97 56 108 58 114 C 63 129 65 132 73 132 C 83 132 85 127 84 116 C 84 111 84 89 85 37 C 85 19 85 18 84 16 C 80 8 69 10 68 18 C 67 20 68 28 68 37 C 69 63 70 84 69 87 C 68 90 66 91 64 91 C 61 90 59 85 52 68 C 49 59 46 51 45 48 C 42 41 40 34 38 28 C 34 14 33 12 25 11 C 23 11 21 11 20 11 z" fill="black"/><!-- width=98 height=145 -->
<path id="gl29463" d="M 52 11 C 45 13 40 15 38 16 C 32 20 24 34 22 45 C 21 47 21 50 20 51 C 19 55 19 90 20 93 C 21 94 21 97 22 100 C 24 121 40 136 59 135 C 69 134 81 129 84 124 C 85 123 87 120 88 118 C 93 110 95 93 91 91 C 90 91 88 90 85 90 C 79 90 78 91 76 102 C 74 109 72 112 69 115 C 59 122 46 118 41 108 C 37 100 34 65 37 54 C 37 51 38 48 39 46 C 39 42 43 34 45 31 C 50 25 62 24 69 28 C 71 30 75 36 77 41 C 80 52 88 55 93 47 C 97 41 93 28 87 21 C 79 13 62 8 52 11 z" fill="black"/><!-- width=105 height=146 -->
<path id="gl2844" d="M 19 14 C 15 16 12 21 13 26 C 15 33 28 35 32 28 C 37 20 28 10 19 14 z" fill="black"/><!-- width=47 height=46 -->
<path id="gl25116" d="M 17 15 C 13 18 12 27 15 33 C 18 38 18 41 16 45 C 13 50 13 51 14 54 C 15 58 22 58 25 53 C 28 46 30 24 27 19 C 25 15 24 14 21 14 C 19 14 18 15 17 15 z" fill="black"/><!-- width=42 height=69 -->
<path id="gl26628" d="M 27 13 C 24 15 23 16 22 18 C 21 22 21 124 22 127 C 24 133 24 133 42 133 C 69 133 76 130 85 118 C 92 108 96 94 96 73 C 96 33 85 15 58 13 C 48 12 28 12 27 13 M 60 29 C 73 32 78 43 79 69 C 80 101 71 117 52 117 C 44 118 41 117 39 113 C 39 112 38 111 37 111 C 37 97 37 85 37 72 C 37 30 37 32 42 29 C 44 28 54 28 60 29 z" fill="black"/><!-- width=111 height=147 -->
<path id="gl30210" d="M 28 4 C 24 4 14 4 4 9 C 9 28 9 48 9 67 C 9 86 9 105 9 124 C 19 124 28 124 38 124 C 72 124 81 110 48 110 C 43 110 28 110 28 110 C 24 110 24 100 24 91 C 24 72 24 72 43 72 C 62 72 62 72 62 62 C 62 57 62 52 43 57 C 38 57 28 57 24 57 C 24 52 24 48 24 38 C 24 24 24 24 43 19 C 62 19 67 19 67 14 C 67 4 62 4 28 4 z" fill="black"/><!-- width=76 height=139 -->
<path id="gl26637" d="M 32 37 C 28 40 28 37 28 82 C 28 104 27 129 27 136 C 26 154 27 156 31 158 C 37 160 42 159 44 155 C 46 152 46 148 45 136 C 42 110 43 108 58 109 C 83 109 94 97 94 72 C 94 57 93 53 87 48 C 77 39 73 37 51 37 C 34 36 34 36 32 37 M 67 54 C 79 60 82 78 72 88 C 67 94 51 96 47 93 C 44 90 43 88 43 73 C 44 53 45 52 57 52 C 63 52 64 53 67 54 z" fill="black"/><!-- width=107 height=171 -->
<path id="gl26631" d="M 18 46 C 12 48 10 53 12 58 C 14 63 15 63 25 63 C 36 63 37 63 40 67 C 41 69 41 69 40 116 C 39 162 39 161 40 163 C 44 170 54 171 57 164 C 58 161 58 139 57 91 C 57 72 57 70 57 67 C 59 63 61 62 69 63 C 84 64 88 61 87 54 C 87 48 82 45 71 46 C 63 46 34 46 25 46 C 22 46 19 46 18 46 z" fill="black"/><!-- width=98 height=180 -->
<path id="gl2844" d="M 19 14 C 15 16 12 21 13 26 C 15 33 28 35 32 28 C 37 20 28 10 19 14 z" fill="black"/><!-- width=47 height=46 -->
<path id="gl28436" d="M 24 13 C 22 13 21 15 20 16 C 20 16 19 17 19 18 C 19 28 19 38 19 48 C 19 66 19 89 18 100 C 18 124 18 126 21 129 C 21 130 22 131 22 132 C 28 132 34 132 40 132 C 64 132 69 130 77 123 C 85 116 88 109 87 97 C 87 88 85 84 80 77 C 76 72 75 67 77 63 C 78 63 79 61 80 59 C 86 50 87 39 81 28 C 78 21 73 17 64 14 C 59 13 28 12 24 13 M 57 28 C 67 31 72 48 66 57 C 61 63 45 67 39 63 C 34 61 34 60 34 47 C 34 31 36 28 43 27 C 46 27 54 27 57 28 M 54 76 C 70 81 76 101 65 112 C 60 115 57 117 48 117 C 39 117 36 115 34 109 C 34 106 34 82 35 80 C 37 75 44 74 54 76 z" fill="black"/><!-- width=100 height=145 -->
<path id="gl26639" d="M 85 11 C 82 12 80 13 78 17 C 70 29 66 36 63 41 C 55 56 52 58 48 58 C 43 58 42 54 43 41 C 44 30 45 18 44 16 C 42 12 37 9 33 12 C 27 14 27 18 28 37 C 29 55 28 78 28 99 C 27 115 27 126 28 128 C 30 132 35 133 40 131 C 45 129 45 125 44 108 C 42 88 46 79 54 79 C 58 79 61 84 69 100 C 70 104 73 110 75 114 C 77 117 79 121 79 123 C 83 132 93 135 98 129 C 101 126 100 121 93 111 C 91 109 90 105 88 103 C 87 100 85 97 83 94 C 66 66 66 67 66 63 C 66 60 68 57 73 51 C 79 43 95 22 96 20 C 98 13 93 8 85 11 z" fill="black"/><!-- width=111 height=144 -->
<path id="gl26650" d="M 14 15 C 12 15 11 16 10 21 C 9 24 11 30 13 32 C 16 35 16 39 13 44 C 7 52 13 58 20 51 C 23 49 24 47 25 39 C 26 26 25 18 22 15 C 21 14 16 14 14 15 z" fill="black"/><!-- width=37 height=64 -->
<path id="gl26637" d="M 32 37 C 28 40 28 37 28 82 C 28 104 27 129 27 136 C 26 154 27 156 31 158 C 37 160 42 159 44 155 C 46 152 46 148 45 136 C 42 110 43 108 58 109 C 83 109 94 97 94 72 C 94 57 93 53 87 48 C 77 39 73 37 51 37 C 34 36 34 36 32 37 M 67 54 C 79 60 82 78 72 88 C 67 94 51 96 47 93 C 44 90 43 88 43 73 C 44 53 45 52 57 52 C 63 52 64 53 67 54 z" fill="black"/><!-- width=107 height=171 -->
<path id="gl2844" d="M 19 14 C 15 16 12 21 13 26 C 15 33 28 35 32 28 C 37 20 28 10 19 14 z" fill="black"/><!-- width=47 height=46 -->
<path id="gl26114" d="M 45 14 C 29 18 20 30 16 50 C 14 59 14 92 16 102 C 21 127 33 139 55 139 C 77 139 89 126 93 97 C 95 89 94 55 93 49 C 88 30 81 20 67 15 C 63 13 49 13 45 14 M 62 31 C 69 34 73 40 75 51 C 78 62 78 90 75 100 C 73 113 70 118 63 121 C 52 126 42 122 36 111 C 31 100 30 72 33 54 C 36 40 39 35 45 31 C 51 28 57 28 62 31 z" fill="black"/><!-- width=109 height=154 -->
<path id="gl2844" d="M 19 14 C 15 16 12 21 13 26 C 15 33 28 35 32 28 C 37 20 28 10 19 14 z" fill="black"/><!-- width=47 height=46 -->
<path id="gl26641" d="M 24 13 C 20 16 20 13 19 66 C 19 131 19 125 21 127 C 23 132 25 132 45 132 C 67 131 72 130 80 122 C 86 115 88 111 89 99 C 90 91 87 83 81 77 C 76 70 75 67 79 63 C 85 55 86 52 87 43 C 87 28 79 18 65 14 C 58 12 27 12 24 13 M 55 28 C 72 30 76 55 61 62 C 52 66 42 66 38 62 C 36 60 35 57 35 46 C 35 28 39 25 55 28 M 52 76 C 63 78 70 84 72 94 C 74 109 63 118 45 117 C 37 116 36 113 35 94 C 35 76 37 73 52 76 z" fill="black"/><!-- width=103 height=145 -->
<path id="gl26114" d="M 45 14 C 29 18 20 30 16 50 C 14 59 14 92 16 102 C 21 127 33 139 55 139 C 77 139 89 126 93 97 C 95 89 94 55 93 49 C 88 30 81 20 67 15 C 63 13 49 13 45 14 M 62 31 C 69 34 73 40 75 51 C 78 62 78 90 75 100 C 73 113 70 118 63 121 C 52 126 42 122 36 111 C 31 100 30 72 33 54 C 36 40 39 35 45 31 C 51 28 57 28 62 31 z" fill="black"/><!-- width=109 height=154 -->
<path id="gl30211" d="M 4 4 C 4 9 14 19 19 28 C 24 43 28 52 28 62 C 28 62 24 76 19 91 C 4 115 4 120 14 120 C 19 120 24 115 28 100 C 38 76 48 76 57 100 C 62 115 67 120 72 120 C 81 120 81 115 62 86 C 57 76 52 72 48 62 C 52 52 57 43 62 33 C 81 4 81 4 72 4 C 62 4 57 9 57 19 C 52 28 48 38 43 38 C 38 38 33 28 28 19 C 24 4 4 0 4 4 z" fill="black"/><!-- width=91 height=129 -->
<path id="gl26643" d="M 34 24 C 33 25 31 28 30 30 C 27 37 24 39 15 40 C 8 41 6 43 6 48 C 6 52 7 54 16 54 C 28 54 29 56 28 74 C 28 80 27 90 28 97 C 28 103 27 114 27 120 C 27 124 27 128 27 132 C 27 133 28 134 28 135 C 32 141 39 142 42 136 C 44 133 44 139 44 83 C 43 63 44 42 44 37 C 44 33 44 30 45 27 C 44 26 43 25 42 24 C 40 21 37 21 34 24 z" fill="black"/><!-- width=67 height=152 -->
<path id="gl28445" d="M 34 12 C 20 13 12 19 8 33 C 6 40 7 45 12 47 C 17 48 21 46 23 39 C 27 30 31 25 38 25 C 46 25 52 32 52 43 C 52 55 48 60 35 63 C 30 64 27 69 29 72 C 31 75 33 76 39 77 C 50 79 54 85 54 98 C 53 112 43 121 33 116 C 28 114 27 112 24 103 C 22 97 20 95 17 94 C 7 92 4 102 10 115 C 17 127 28 133 43 132 C 54 130 61 125 66 114 C 73 100 72 87 63 75 C 58 69 58 66 62 59 C 69 49 69 38 63 26 C 58 15 50 11 34 12 z" fill="black"/><!-- width=86 height=145 -->
<path id="gl28445" d="M 34 12 C 20 13 12 19 8 33 C 6 40 7 45 12 47 C 17 48 21 46 23 39 C 27 30 31 25 38 25 C 46 25 52 32 52 43 C 52 55 48 60 35 63 C 30 64 27 69 29 72 C 31 75 33 76 39 77 C 50 79 54 85 54 98 C 53 112 43 121 33 116 C 28 114 27 112 24 103 C 22 97 20 95 17 94 C 7 92 4 102 10 115 C 17 127 28 133 43 132 C 54 130 61 125 66 114 C 73 100 72 87 63 75 C 58 69 58 66 62 59 C 69 49 69 38 63 26 C 58 15 50 11 34 12 z" fill="black"/><!-- width=86 height=145 -->
<path id="gl26646" d="M 30 15 C 16 21 9 34 9 54 C 9 72 13 82 24 88 C 33 93 39 94 49 89 C 55 86 58 85 60 88 C 61 90 62 93 61 99 C 58 114 47 123 36 119 C 33 118 31 116 27 111 C 19 99 7 105 13 118 C 19 130 25 134 39 134 C 60 135 69 126 75 102 C 75 99 76 94 76 93 C 78 88 78 69 77 57 C 77 51 72 35 70 30 C 66 23 61 18 54 15 C 49 13 35 13 30 15 M 48 28 C 55 32 60 42 60 57 C 60 66 58 70 54 74 C 46 82 33 79 27 69 C 24 63 24 48 27 40 C 30 30 40 25 48 28 z" fill="black"/><!-- width=93 height=147 -->
<path id="gl28446" d="M 36 8 C 32 9 30 10 25 14 C 18 20 13 28 13 34 C 13 36 12 39 12 42 C 9 51 9 84 11 95 C 12 99 13 103 13 104 C 14 111 22 121 28 125 C 34 129 55 129 59 125 C 63 122 67 118 69 117 C 79 101 82 58 74 31 C 71 21 65 13 58 10 C 54 8 45 7 36 8 M 51 24 C 56 27 60 33 61 42 C 62 51 62 88 60 95 C 57 110 46 118 36 112 C 28 106 25 97 26 67 C 26 38 28 30 36 24 C 42 21 45 20 51 24 z" fill="black"/><!-- width=88 height=138 -->
<path id="gl25116" d="M 17 15 C 13 18 12 27 15 33 C 18 38 18 41 16 45 C 13 50 13 51 14 54 C 15 58 22 58 25 53 C 28 46 30 24 27 19 C 25 15 24 14 21 14 C 19 14 18 15 17 15 z" fill="black"/><!-- width=42 height=69 -->
<path id="gl26626" d="M 33 37 C 27 39 27 39 28 78 C 28 98 28 114 28 123 C 27 146 27 150 28 154 C 30 157 31 159 36 159 C 40 159 42 157 43 153 C 44 153 45 151 45 150 C 45 145 45 139 44 133 C 43 115 43 114 47 111 C 48 110 48 109 49 109 C 52 109 55 109 58 109 C 78 109 87 103 93 87 C 96 80 96 78 96 69 C 94 58 91 53 85 46 C 81 42 73 38 66 37 C 59 37 36 37 33 37 M 67 54 C 82 60 82 85 67 92 C 62 95 52 96 49 93 C 44 90 44 90 44 74 C 44 58 45 56 48 54 C 51 52 62 52 67 54 z" fill="black"/><!-- width=108 height=170 -->
<path id="gl26114" d="M 45 14 C 29 18 20 30 16 50 C 14 59 14 92 16 102 C 21 127 33 139 55 139 C 77 139 89 126 93 97 C 95 89 94 55 93 49 C 88 30 81 20 67 15 C 63 13 49 13 45 14 M 62 31 C 69 34 73 40 75 51 C 78 62 78 90 75 100 C 73 113 70 118 63 121 C 52 126 42 122 36 111 C 31 100 30 72 33 54 C 36 40 39 35 45 31 C 51 28 57 28 62 31 z" fill="black"/><!-- width=109 height=154 -->
<path id="gl26627" d="M 25 22 C 22 23 19 25 18 28 C 18 30 18 39 18 60 C 18 78 18 97 18 112 C 17 139 17 139 21 142 C 25 144 32 143 34 139 C 35 136 35 123 34 109 C 33 91 36 88 52 90 C 60 91 63 93 66 98 C 67 99 67 101 68 102 C 68 107 68 112 69 117 C 69 135 70 138 74 141 C 78 144 85 143 87 139 C 88 137 88 129 87 124 C 86 122 85 117 85 112 C 84 101 84 97 79 91 C 75 84 75 82 80 73 C 84 66 85 60 85 52 C 84 36 77 27 63 24 C 57 22 28 21 25 22 M 56 38 C 65 41 70 51 68 61 C 65 73 59 78 46 77 C 35 76 34 75 34 58 C 34 44 34 42 37 39 C 40 37 49 36 56 38 z" fill="black"/><!-- width=100 height=155 -->
<path id="gl30212" d="M 9 14 C 9 19 14 24 24 24 C 28 24 33 28 38 28 C 38 43 38 62 38 76 C 38 124 38 129 43 124 C 52 124 52 120 52 76 C 52 62 52 48 52 28 C 57 28 62 28 67 24 C 96 19 81 9 43 9 C 9 9 4 9 9 14 z" fill="black"/><!-- width=91 height=134 -->
<path id="gl30213" d="M 40 6 C 35 7 34 11 34 25 C 35 31 36 54 36 77 C 36 91 36 105 36 118 C 36 119 36 120 37 121 C 39 126 41 126 56 126 C 63 126 73 127 79 127 C 98 128 99 127 99 117 C 99 107 97 106 89 108 C 88 109 82 109 77 110 C 72 110 67 111 66 111 C 66 111 64 111 61 111 C 57 110 54 108 52 103 C 52 102 52 72 53 32 C 53 26 53 20 54 14 C 53 13 52 12 52 12 C 49 7 45 5 40 6 z" fill="black"/><!-- width=106 height=163 -->
<path id="gl30214" d="M 48 8 C 43 9 42 12 39 22 C 39 25 37 32 35 36 C 34 40 33 45 32 46 C 31 49 30 54 29 58 C 27 63 25 71 24 76 C 21 89 16 100 14 104 C 13 105 13 106 12 107 C 12 110 12 113 12 116 C 11 129 12 131 19 128 C 26 126 27 124 30 111 C 33 95 35 94 54 94 C 58 94 62 94 66 94 C 66 95 67 96 68 96 C 70 99 72 102 73 110 C 75 123 77 126 84 127 C 87 129 93 126 94 123 C 94 120 94 115 91 109 C 90 106 88 100 87 96 C 85 92 82 85 81 82 C 80 78 79 72 78 68 C 77 64 76 58 75 54 C 73 50 72 45 71 42 C 70 40 69 33 67 27 C 64 13 63 12 59 9 C 57 7 51 7 48 8 M 56 40 C 58 42 59 46 60 54 C 61 57 62 62 63 65 C 66 78 63 82 52 82 C 43 82 39 79 40 73 C 40 69 46 48 48 44 C 49 39 52 37 56 40 z" fill="black"/><!-- width=105 height=144 -->
<path id="gl26635" d="M 20 11 C 13 13 13 16 13 30 C 15 39 14 58 13 71 C 12 88 12 124 13 127 C 15 133 25 135 28 129 C 30 126 30 122 30 107 C 29 99 28 87 28 79 C 27 61 28 57 30 54 C 34 51 37 55 42 72 C 44 77 48 87 50 92 C 52 97 56 108 58 114 C 63 129 65 132 73 132 C 83 132 85 127 84 116 C 84 111 84 89 85 37 C 85 19 85 18 84 16 C 80 8 69 10 68 18 C 67 20 68 28 68 37 C 69 63 70 84 69 87 C 68 90 66 91 64 91 C 61 90 59 85 52 68 C 49 59 46 51 45 48 C 42 41 40 34 38 28 C 34 14 33 12 25 11 C 23 11 21 11 20 11 z" fill="black"/><!-- width=98 height=145 -->
<path id="gl26628" d="M 27 13 C 24 15 23 16 22 18 C 21 22 21 124 22 127 C 24 133 24 133 42 133 C 69 133 76 130 85 118 C 92 108 96 94 96 73 C 96 33 85 15 58 13 C 48 12 28 12 27 13 M 60 29 C 73 32 78 43 79 69 C 80 101 71 117 52 117 C 44 118 41 117 39 113 C 39 112 38 111 37 111 C 37 97 37 85 37 72 C 37 30 37 32 42 29 C 44 28 54 28 60 29 z" fill="black"/><!-- width=111 height=147 -->
<path id="gl25116" d="M 17 15 C 13 18 12 27 15 33 C 18 38 18 41 16 45 C 13 50 13 51 14 54 C 15 58 22 58 25 53 C 28 46 30 24 27 19 C 25 15 24 14 21 14 C 19 14 18 15 17 15 z" fill="black"/><!-- width=42 height=69 -->
<path id="gl26114" d="M 45 14 C 29 18 20 30 16 50 C 14 59 14 92 16 102 C 21 127 33 139 55 139 C 77 139 89 126 93 97 C 95 89 94 55 93 49 C 88 30 81 20 67 15 C 63 13 49 13 45 14 M 62 31 C 69 34 73 40 75 51 C 78 62 78 90 75 100 C 73 113 70 118 63 121 C 52 126 42 122 36 111 C 31 100 30 72 33 54 C 36 40 39 35 45 31 C 51 28 57 28 62 31 z" fill="black"/><!-- width=109 height=154 -->
<path id="gl29462" d="M 22 22 C 19 22 16 25 15 27 C 15 28 15 50 15 76 C 15 81 15 96 15 111 C 15 120 15 129 15 137 C 15 138 16 138 16 139 C 18 141 21 142 24 141 C 31 141 32 138 31 125 C 30 96 30 97 31 94 C 33 90 35 89 41 89 C 51 88 59 91 61 95 C 64 99 65 102 65 117 C 65 121 65 126 65 131 C 66 132 66 133 67 135 C 70 142 77 144 82 139 C 84 137 84 134 83 126 C 82 123 82 115 82 110 C 81 99 81 97 77 91 C 72 84 72 81 76 75 C 84 62 84 49 77 36 C 73 28 69 25 56 22 C 51 22 31 21 22 22 M 52 37 C 63 40 69 53 64 66 C 61 72 55 76 45 76 C 37 77 33 75 31 71 C 30 69 30 46 31 43 C 33 37 40 35 52 37 z" fill="black"/><!-- width=94 height=153 -->
<path id="gl28448" d="M 37 14 C 23 16 12 26 10 40 C 6 65 11 81 25 88 C 34 93 39 93 47 88 C 54 85 55 85 58 87 C 61 89 61 93 58 101 C 53 119 37 124 29 112 C 24 104 20 102 15 103 C 4 106 14 127 27 131 C 45 136 61 131 67 118 C 73 105 76 91 76 69 C 76 64 76 60 76 55 C 75 52 75 49 74 46 C 70 31 67 24 59 18 C 54 15 44 13 37 14 M 45 28 C 54 30 58 40 58 57 C 58 65 58 67 55 72 C 51 76 48 78 42 78 C 27 78 21 64 25 43 C 27 35 31 30 38 28 C 41 27 42 27 45 28 z" fill="black"/><!-- width=90 height=147 -->
<path id="gl30215" d="M 4 14 C 0 19 9 28 24 24 C 48 24 48 24 33 62 C 9 105 9 120 19 120 C 28 120 33 120 33 100 C 33 91 43 67 52 48 C 62 33 67 14 67 14 C 62 4 9 4 4 14 z" fill="black"/><!-- width=76 height=134 -->
<path id="gl29470" d="M 38 7 C 22 11 15 18 10 34 C 9 43 13 49 20 46 C 24 45 25 43 27 39 C 27 37 28 34 28 34 C 32 19 51 19 57 34 C 61 46 55 59 38 72 C 30 78 27 82 21 91 C 10 107 7 120 15 123 C 16 124 49 125 66 125 C 76 125 78 112 69 109 C 66 108 66 108 51 109 C 36 110 34 110 31 107 C 27 103 31 97 40 90 C 46 85 66 66 68 61 C 71 57 73 48 73 41 C 74 28 67 16 58 11 C 52 8 43 6 38 7 z" fill="black"/><!-- width=85 height=136 -->
<path id="gl28444" d="M 35 22 C 33 24 32 24 30 28 C 27 36 24 38 14 40 C 7 41 6 43 6 48 C 6 52 7 53 16 54 C 28 54 28 55 28 70 C 27 75 27 81 27 85 C 27 88 27 99 27 109 C 26 133 27 135 31 137 C 35 139 40 138 43 134 C 44 133 44 132 44 128 C 44 126 44 101 43 75 C 43 58 43 42 43 25 C 43 25 42 24 42 24 C 39 21 38 21 35 22 z" fill="black"/><!-- width=66 height=151 -->
<path id="gl28445" d="M 34 12 C 20 13 12 19 8 33 C 6 40 7 45 12 47 C 17 48 21 46 23 39 C 27 30 31 25 38 25 C 46 25 52 32 52 43 C 52 55 48 60 35 63 C 30 64 27 69 29 72 C 31 75 33 76 39 77 C 50 79 54 85 54 98 C 53 112 43 121 33 116 C 28 114 27 112 24 103 C 22 97 20 95 17 94 C 7 92 4 102 10 115 C 17 127 28 133 43 132 C 54 130 61 125 66 114 C 73 100 72 87 63 75 C 58 69 58 66 62 59 C 69 49 69 38 63 26 C 58 15 50 11 34 12 z" fill="black"/><!-- width=86 height=145 -->
<path id="gl30216" d="M 12 13 C 8 15 9 21 13 24 C 15 26 15 26 20 25 C 23 25 30 25 34 25 C 45 25 48 25 48 21 C 48 21 48 20 48 19 C 49 18 46 13 45 12 C 40 12 13 12 12 13 z" fill="black"/><!-- width=58 height=37 -->
<path id="gl26647" d="M 40 11 C 31 13 22 22 18 33 C 14 45 13 54 14 77 C 14 95 14 95 16 103 C 21 124 31 133 51 132 C 65 132 73 124 78 109 C 83 94 84 61 81 44 C 77 30 76 28 74 25 C 67 13 55 9 40 11 M 53 26 C 64 30 67 42 66 76 C 66 100 63 111 57 115 C 48 121 37 117 33 107 C 29 94 28 56 33 38 C 36 28 45 22 53 26 z" fill="black"/><!-- width=96 height=145 -->
<path id="gl28445" d="M 34 12 C 20 13 12 19 8 33 C 6 40 7 45 12 47 C 17 48 21 46 23 39 C 27 30 31 25 38 25 C 46 25 52 32 52 43 C 52 55 48 60 35 63 C 30 64 27 69 29 72 C 31 75 33 76 39 77 C 50 79 54 85 54 98 C 53 112 43 121 33 116 C 28 114 27 112 24 103 C 22 97 20 95 17 94 C 7 92 4 102 10 115 C 17 127 28 133 43 132 C 54 130 61 125 66 114 C 73 100 72 87 63 75 C 58 69 58 66 62 59 C 69 49 69 38 63 26 C 58 15 50 11 34 12 z" fill="black"/><!-- width=86 height=145 -->
<path id="gl26646" d="M 30 15 C 16 21 9 34 9 54 C 9 72 13 82 24 88 C 33 93 39 94 49 89 C 55 86 58 85 60 88 C 61 90 62 93 61 99 C 58 114 47 123 36 119 C 33 118 31 116 27 111 C 19 99 7 105 13 118 C 19 130 25 134 39 134 C 60 135 69 126 75 102 C 75 99 76 94 76 93 C 78 88 78 69 77 57 C 77 51 72 35 70 30 C 66 23 61 18 54 15 C 49 13 35 13 30 15 M 48 28 C 55 32 60 42 60 57 C 60 66 58 70 54 74 C 46 82 33 79 27 69 C 24 63 24 48 27 40 C 30 30 40 25 48 28 z" fill="black"/><!-- width=93 height=147 -->
<path id="gl29471" d="M 37 10 C 28 11 18 19 15 30 C 11 40 9 51 9 67 C 9 85 10 93 13 109 C 16 117 21 124 28 128 C 36 131 53 132 57 129 C 68 121 72 117 75 100 C 78 90 78 90 78 73 C 78 63 78 54 77 52 C 77 50 76 47 76 45 C 72 18 60 8 37 10 M 48 25 C 49 25 51 26 52 27 C 61 34 62 43 61 80 C 61 85 61 90 61 96 C 60 98 59 100 58 102 C 55 111 52 114 47 116 C 37 119 30 113 27 98 C 25 91 25 51 27 42 C 30 28 37 22 48 25 z" fill="black"/><!-- width=87 height=142 -->
<path id="gl25377" d="M 20 46 C 12 49 13 66 21 68 C 24 69 25 69 31 68 C 42 67 45 69 45 78 C 45 101 44 144 43 154 C 43 174 45 177 60 176 C 64 176 67 175 69 172 C 70 169 70 172 70 116 C 69 76 69 75 70 73 C 72 69 75 68 85 68 C 93 69 93 69 96 67 C 100 64 101 57 99 50 C 96 45 96 45 83 45 C 64 46 42 46 32 45 C 23 45 22 45 20 46 z" fill="black"/><!-- width=115 height=190 -->
<path id="gl26658" d="M 42 16 C 32 19 28 21 24 28 C 18 37 14 57 15 71 C 18 94 24 104 42 108 C 51 111 52 111 61 109 C 72 106 76 103 81 94 C 85 85 85 80 79 77 C 74 73 68 76 63 85 C 59 90 56 93 51 93 C 45 93 40 87 39 78 C 39 68 48 64 65 67 C 77 70 81 69 84 65 C 88 58 84 33 75 23 C 69 15 55 13 42 16 M 56 33 C 63 37 66 48 59 53 C 54 56 45 54 42 50 C 36 42 47 29 56 33 z" fill="black"/><!-- width=100 height=124 -->
<path id="gl25610" d="M 18 13 C 15 15 14 18 15 25 C 15 37 16 80 15 109 C 14 144 14 144 19 145 C 22 147 34 147 37 145 C 41 142 41 143 40 108 C 40 93 39 71 40 54 C 40 18 40 19 39 16 C 38 13 36 12 28 12 C 21 12 21 12 18 13 z" fill="black"/><!-- width=55 height=160 -->
<path id="gl26658" d="M 42 16 C 32 19 28 21 24 28 C 18 37 14 57 15 71 C 18 94 24 104 42 108 C 51 111 52 111 61 109 C 72 106 76 103 81 94 C 85 85 85 80 79 77 C 74 73 68 76 63 85 C 59 90 56 93 51 93 C 45 93 40 87 39 78 C 39 68 48 64 65 67 C 77 70 81 69 84 65 C 88 58 84 33 75 23 C 69 15 55 13 42 16 M 56 33 C 63 37 66 48 59 53 C 54 56 45 54 42 50 C 36 42 47 29 56 33 z" fill="black"/><!-- width=100 height=124 -->
<path id="gl30217" d="M 14 9 C 14 14 9 38 9 72 C 9 129 9 134 24 129 C 28 129 33 124 33 115 C 38 100 38 96 48 100 C 81 105 96 67 76 24 C 72 9 67 9 43 9 C 28 9 14 9 14 9 M 57 33 C 67 57 57 86 43 81 C 33 76 33 33 38 28 C 43 24 52 24 57 33 z" fill="black"/><!-- width=96 height=139 -->
<path id="gl25378" d="M 27 9 C 21 11 21 13 21 24 C 22 45 22 60 22 74 C 21 99 21 131 22 133 C 24 138 27 139 34 139 C 40 139 43 138 45 135 C 46 132 46 132 46 115 C 45 105 45 92 45 85 C 45 81 44 77 44 73 C 45 72 45 70 46 69 C 50 60 60 58 66 64 C 70 69 70 70 69 110 C 68 132 68 133 71 136 C 75 141 87 141 91 137 C 94 134 94 132 93 120 C 93 113 93 97 93 84 C 93 63 93 61 91 57 C 87 42 72 37 58 45 C 52 48 51 48 48 45 C 45 43 44 41 45 33 C 48 12 46 9 34 9 C 31 9 28 9 27 9 z" fill="black"/><!-- width=108 height=159 -->
<path id="gl26661" d="M 43 14 C 24 19 14 37 15 64 C 16 89 21 100 34 106 C 45 111 54 112 66 108 C 85 102 93 76 85 42 C 82 30 82 28 77 24 C 68 15 54 11 43 14 M 55 31 C 58 33 60 36 62 40 C 63 41 63 42 64 43 C 64 49 64 55 64 62 C 64 78 64 80 63 82 C 57 95 44 94 40 81 C 39 78 38 52 39 46 C 40 37 45 31 52 31 C 52 31 54 31 55 31 z" fill="black"/><!-- width=104 height=124 -->
<path id="gl25615" d="M 60 21 C 58 21 54 22 51 24 C 45 27 43 27 38 25 C 30 21 19 21 17 26 C 16 28 16 41 16 45 C 16 46 16 61 16 80 C 16 117 15 116 19 119 C 22 121 34 121 37 119 C 41 116 41 115 40 96 C 39 62 39 52 41 48 C 46 37 58 36 63 46 C 64 48 64 48 65 49 C 65 54 65 58 65 63 C 65 70 64 85 64 95 C 63 119 63 120 75 120 C 84 121 88 119 88 114 C 88 113 88 96 88 75 C 88 33 88 34 82 28 C 78 22 67 19 60 21 z" fill="black"/><!-- width=104 height=135 -->
<path id="gl26658" d="M 42 16 C 32 19 28 21 24 28 C 18 37 14 57 15 71 C 18 94 24 104 42 108 C 51 111 52 111 61 109 C 72 106 76 103 81 94 C 85 85 85 80 79 77 C 74 73 68 76 63 85 C 59 90 56 93 51 93 C 45 93 40 87 39 78 C 39 68 48 64 65 67 C 77 70 81 69 84 65 C 88 58 84 33 75 23 C 69 15 55 13 42 16 M 56 33 C 63 37 66 48 59 53 C 54 56 45 54 42 50 C 36 42 47 29 56 33 z" fill="black"/><!-- width=100 height=124 -->
<path id="gl26663" d="M 17 15 C 14 16 13 19 13 30 C 13 43 15 45 25 45 C 34 45 36 43 36 29 C 36 19 36 17 32 15 C 30 14 19 14 17 15 M 21 78 C 14 78 13 81 13 91 C 13 104 15 106 25 106 C 33 106 36 105 36 100 C 37 95 36 82 35 81 C 32 78 27 76 21 78 z" fill="black"/><!-- width=49 height=120 -->
<path id="gl28452" d="M 40 23 C 38 24 37 25 35 30 C 31 39 28 40 19 42 C 10 43 7 46 7 52 C 7 61 9 62 20 62 C 33 62 33 59 31 100 C 31 141 31 139 32 141 C 36 148 51 148 55 141 C 55 141 56 140 57 139 C 56 133 56 128 56 123 C 55 106 55 48 56 34 C 57 25 54 22 46 22 C 43 22 42 22 40 23 z" fill="black"/><!-- width=81 height=160 -->
<path id="gl26402" d="M 16 17 C 15 19 13 22 14 27 C 15 33 18 35 25 34 C 36 34 39 33 48 34 C 59 35 61 34 63 31 C 65 28 64 18 60 16 C 60 16 53 16 39 16 C 18 16 18 16 16 17 z" fill="black"/><!-- width=78 height=51 -->
<path id="gl26887" d="M 36 13 C 28 15 27 16 23 19 C 12 29 9 47 16 58 C 23 67 23 70 15 79 C 10 85 10 87 10 99 C 10 114 12 118 20 127 C 25 132 27 133 35 135 C 45 138 55 137 66 133 C 72 132 76 127 82 119 C 84 116 87 112 88 111 C 88 110 89 109 90 108 C 90 105 90 102 90 99 C 90 89 90 82 88 80 C 88 79 88 79 86 80 C 82 82 74 75 74 69 C 74 65 75 63 84 52 C 87 49 86 48 83 37 C 79 25 75 19 69 16 C 59 12 47 10 36 13 M 55 31 C 64 37 63 55 53 61 C 44 65 36 59 35 47 C 34 39 37 33 43 30 C 46 29 52 29 55 31 M 52 79 C 67 84 67 114 52 118 C 42 121 34 114 33 100 C 31 85 41 75 52 79 z" fill="black"/><!-- width=99 height=150 -->
<path id="gl26881" d="M 44 12 C 36 14 33 16 29 19 C 23 25 18 36 16 44 C 15 49 14 101 15 106 C 19 129 40 141 64 134 C 75 131 82 124 86 114 C 87 112 89 108 90 106 C 94 99 95 96 94 70 C 94 63 94 57 94 51 C 93 49 92 47 91 45 C 90 42 88 37 87 33 C 84 25 81 21 76 18 C 67 11 55 9 44 12 M 59 31 C 63 33 66 37 67 46 C 68 52 68 94 67 101 C 65 112 60 118 52 118 C 45 118 41 113 39 101 C 38 97 37 92 38 72 C 38 64 38 56 38 48 C 39 46 39 45 40 43 C 42 36 43 34 46 31 C 49 28 54 28 59 31 z" fill="black"/><!-- width=108 height=148 -->
<path id="gl26882" d="M 49 12 C 32 15 21 25 17 40 C 15 50 15 106 18 115 C 21 126 31 134 46 137 C 55 139 70 135 77 129 C 87 120 94 97 92 77 C 92 75 91 67 91 61 C 90 36 85 22 73 16 C 66 13 56 11 49 12 M 59 31 C 67 35 67 39 67 73 C 67 102 67 106 63 112 C 59 119 51 121 45 116 C 39 112 38 106 38 76 C 37 52 38 46 41 39 C 43 31 52 27 59 31 z" fill="black"/><!-- width=108 height=151 -->
<path id="gl26402" d="M 16 17 C 15 19 13 22 14 27 C 15 33 18 35 25 34 C 36 34 39 33 48 34 C 59 35 61 34 63 31 C 65 28 64 18 60 16 C 60 16 53 16 39 16 C 18 16 18 16 16 17 z" fill="black"/><!-- width=78 height=51 -->
<path id="gl28453" d="M 34 13 C 31 13 28 15 27 15 C 15 20 6 42 12 49 C 14 52 14 52 18 52 C 26 52 30 50 33 42 C 34 37 36 34 39 33 C 48 25 58 33 57 48 C 56 57 52 62 44 63 C 36 65 34 67 34 73 C 34 78 36 81 41 82 C 43 82 46 82 47 82 C 60 84 63 108 52 116 C 47 120 40 118 36 114 C 34 111 34 111 31 103 C 30 98 28 97 22 96 C 9 95 4 100 9 113 C 16 133 36 141 60 135 C 68 132 76 125 81 114 C 84 109 84 109 84 105 C 82 90 81 87 75 81 C 69 74 69 71 73 64 C 82 49 82 46 79 36 C 75 22 69 16 58 13 C 49 11 42 11 34 13 z" fill="black"/><!-- width=101 height=150 -->
<path id="gl26895" d="M 46 10 C 36 12 24 18 21 24 C 14 34 12 42 13 57 C 13 73 15 79 22 85 C 30 93 37 94 49 91 C 56 90 60 90 62 91 C 69 95 64 113 55 116 C 49 118 43 117 40 112 C 36 104 33 102 24 103 C 15 103 13 105 14 112 C 18 129 37 138 60 133 C 73 131 79 126 85 112 C 87 108 89 105 90 105 C 90 105 91 106 93 106 C 96 110 97 108 97 96 C 97 82 97 79 93 79 C 90 78 89 76 89 62 C 89 43 85 28 78 20 C 73 15 54 9 46 10 M 54 29 C 57 30 61 33 63 36 C 64 40 65 63 63 67 C 60 74 55 77 48 75 C 40 74 35 66 35 53 C 35 36 43 26 54 29 z" fill="black"/><!-- width=108 height=147 -->
<path id="gl29474" d="M 60 8 C 59 9 56 9 53 9 C 46 9 44 10 42 18 C 41 21 39 24 39 25 C 38 27 37 28 37 29 C 37 30 33 39 28 45 C 27 47 23 54 20 59 C 17 65 13 71 12 73 C 11 75 9 78 9 78 C 8 82 7 104 9 107 C 9 108 9 109 9 109 C 10 109 12 109 13 109 C 16 109 21 109 25 108 C 42 106 46 107 49 112 C 50 113 50 118 49 122 C 49 126 50 130 52 132 C 55 134 64 135 68 133 C 70 132 72 127 72 121 C 72 113 73 111 79 107 C 82 105 84 102 84 96 C 84 91 83 90 79 88 C 75 88 72 84 70 82 C 70 79 70 43 71 28 C 72 15 72 12 69 10 C 67 8 63 7 60 8 M 48 58 C 51 61 52 78 48 84 C 44 90 35 90 31 85 C 28 80 33 66 40 58 C 43 54 45 54 48 58 z" fill="black"/><!-- width=96 height=147 -->
<path id="gl26402" d="M 16 17 C 15 19 13 22 14 27 C 15 33 18 35 25 34 C 36 34 39 33 48 34 C 59 35 61 34 63 31 C 65 28 64 18 60 16 C 60 16 53 16 39 16 C 18 16 18 16 16 17 z" fill="black"/><!-- width=78 height=51 -->
<path id="gl26888" d="M 54 7 C 31 12 25 18 19 43 C 17 53 16 95 18 103 C 19 108 23 115 26 119 C 30 124 34 127 42 130 C 55 134 62 134 72 129 C 81 126 84 123 89 115 C 91 112 92 111 94 109 C 97 108 98 107 98 96 C 99 85 98 81 95 77 C 94 75 92 72 91 69 C 87 62 80 55 75 54 C 69 52 63 52 58 54 C 46 58 40 55 41 43 C 42 34 48 25 56 25 C 62 25 64 27 69 36 C 72 40 73 41 79 41 C 87 42 91 39 92 35 C 93 28 85 16 76 12 C 69 9 59 7 54 7 M 63 71 C 65 72 67 75 69 78 C 70 81 70 82 70 91 C 70 103 70 105 66 111 C 60 117 48 115 44 107 C 43 104 42 87 43 82 C 45 71 54 66 63 71 z" fill="black"/><!-- width=110 height=144 -->
<path id="gl26887" d="M 36 13 C 28 15 27 16 23 19 C 12 29 9 47 16 58 C 23 67 23 70 15 79 C 10 85 10 87 10 99 C 10 114 12 118 20 127 C 25 132 27 133 35 135 C 45 138 55 137 66 133 C 72 132 76 127 82 119 C 84 116 87 112 88 111 C 88 110 89 109 90 108 C 90 105 90 102 90 99 C 90 89 90 82 88 80 C 88 79 88 79 86 80 C 82 82 74 75 74 69 C 74 65 75 63 84 52 C 87 49 86 48 83 37 C 79 25 75 19 69 16 C 59 12 47 10 36 13 M 55 31 C 64 37 63 55 53 61 C 44 65 36 59 35 47 C 34 39 37 33 43 30 C 46 29 52 29 55 31 M 52 79 C 67 84 67 114 52 118 C 42 121 34 114 33 100 C 31 85 41 75 52 79 z" fill="black"/><!-- width=99 height=150 -->
<path id="gl30218" d="M 42 10 C 33 12 31 13 27 18 C 20 25 15 36 14 45 C 13 55 13 104 15 108 C 16 111 23 122 25 124 C 31 129 47 133 55 132 C 70 131 78 126 84 116 C 87 112 88 111 90 110 C 93 108 94 107 94 95 C 94 83 93 81 90 77 C 90 76 87 72 85 69 C 78 55 69 51 52 55 C 41 58 37 57 36 49 C 34 36 45 24 55 26 C 59 27 61 29 64 35 C 68 41 70 42 78 42 C 83 42 83 42 85 40 C 89 37 89 35 87 28 C 84 21 76 13 70 12 C 60 7 52 7 42 10 M 57 72 C 63 74 66 81 67 92 C 67 108 61 117 51 115 C 42 114 39 109 39 94 C 37 82 40 76 46 73 C 50 71 52 71 57 72 z" fill="black"/><!-- width=102 height=145 -->
<path id="gl30219" d="M 42 10 C 28 13 21 19 16 33 C 15 36 14 40 14 42 C 14 47 18 56 21 61 C 24 65 25 69 24 72 C 22 74 19 77 16 79 C 12 81 12 82 12 97 C 12 112 12 113 17 119 C 27 132 42 136 62 133 C 79 130 89 117 88 99 C 88 88 87 84 82 79 C 80 76 78 73 76 72 C 76 70 76 70 75 69 C 76 68 76 67 76 66 C 78 64 79 62 80 61 C 88 51 88 34 79 21 C 73 12 58 7 42 10 M 55 28 C 62 31 66 44 61 53 C 58 60 51 64 45 60 C 38 57 34 45 38 37 C 42 29 47 26 55 28 M 55 78 C 61 81 65 86 65 96 C 66 108 61 115 51 116 C 44 117 41 115 37 109 C 30 93 40 73 55 78 z" fill="black"/><!-- width=101 height=145 -->
<path id="gl26889" d="M 84 31 C 81 31 69 31 58 31 C 51 31 44 31 37 31 C 36 32 36 33 35 33 C 32 35 31 37 32 56 C 33 75 33 122 31 139 C 31 154 32 157 40 159 C 46 160 54 159 56 156 C 58 154 58 148 57 138 C 54 105 55 103 75 105 C 94 108 96 107 99 99 C 102 87 96 82 79 85 C 63 87 60 86 57 80 C 55 77 55 76 55 69 C 55 60 56 58 59 55 C 61 53 69 52 75 54 C 77 54 82 54 87 54 C 99 55 101 53 101 42 C 101 31 98 30 84 31 z" fill="black"/><!-- width=113 height=170 -->
<path id="gl26890" d="M 37 10 C 36 10 33 11 30 12 C 19 14 11 24 10 34 C 10 41 12 43 21 42 C 23 42 25 42 25 42 C 27 42 30 37 31 36 C 36 22 52 24 52 37 C 52 46 47 51 37 52 C 26 53 13 60 10 66 C 9 69 9 88 10 93 C 13 101 21 107 30 107 C 35 107 38 106 45 102 C 46 101 48 100 50 99 C 51 99 51 99 52 99 C 54 100 55 101 57 102 C 62 106 72 107 76 104 C 78 102 78 101 76 93 C 75 87 75 83 75 58 C 74 34 74 29 73 27 C 70 19 68 16 63 13 C 57 10 42 8 37 10 M 48 63 C 52 64 54 66 54 73 C 54 78 52 81 49 84 C 41 95 27 87 31 73 C 33 68 36 65 42 63 C 43 63 45 63 45 63 C 45 62 46 63 48 63 z" fill="black"/><!-- width=88 height=121 -->
<path id="gl26891" d="M 16 14 C 11 17 12 21 17 29 C 30 50 33 58 31 64 C 30 69 21 84 16 91 C 10 99 10 105 13 108 C 15 109 16 109 22 109 C 33 109 35 108 38 97 C 40 87 45 84 50 86 C 54 88 55 90 56 95 C 58 106 61 109 71 109 C 79 109 83 107 83 103 C 83 100 82 99 78 91 C 61 65 61 63 63 56 C 63 53 76 31 80 25 C 85 18 82 13 72 13 C 62 13 59 15 56 25 C 53 34 49 37 43 34 C 41 32 40 30 38 24 C 36 15 33 13 24 13 C 18 13 18 13 16 14 z" fill="black"/><!-- width=94 height=123 -->
<path id="gl26663" d="M 17 15 C 14 16 13 19 13 30 C 13 43 15 45 25 45 C 34 45 36 43 36 29 C 36 19 36 17 32 15 C 30 14 19 14 17 15 M 21 78 C 14 78 13 81 13 91 C 13 104 15 106 25 106 C 33 106 36 105 36 100 C 37 95 36 82 35 81 C 32 78 27 76 21 78 z" fill="black"/><!-- width=49 height=120 -->
<path id="gl28452" d="M 40 23 C 38 24 37 25 35 30 C 31 39 28 40 19 42 C 10 43 7 46 7 52 C 7 61 9 62 20 62 C 33 62 33 59 31 100 C 31 141 31 139 32 141 C 36 148 51 148 55 141 C 55 141 56 140 57 139 C 56 133 56 128 56 123 C 55 106 55 48 56 34 C 57 25 54 22 46 22 C 43 22 42 22 40 23 z" fill="black"/><!-- width=81 height=160 -->
<path id="gl26402" d="M 16 17 C 15 19 13 22 14 27 C 15 33 18 35 25 34 C 36 34 39 33 48 34 C 59 35 61 34 63 31 C 65 28 64 18 60 16 C 60 16 53 16 39 16 C 18 16 18 16 16 17 z" fill="black"/><!-- width=78 height=51 -->
<path id="gl30220" d="M 40 13 C 28 15 19 22 16 30 C 14 34 12 41 12 43 C 12 48 16 57 20 63 C 24 67 23 71 16 79 C 10 87 9 90 10 101 C 12 120 19 130 34 135 C 40 137 48 138 50 138 C 68 135 79 127 84 114 C 86 110 87 110 89 112 C 92 115 92 115 93 107 C 94 100 93 46 93 42 C 92 39 91 40 90 43 C 88 47 88 51 88 60 C 89 71 89 78 87 82 C 87 84 86 84 84 84 C 81 84 81 84 78 79 C 72 70 72 67 79 58 C 81 54 83 52 84 51 C 85 50 83 34 79 28 C 78 25 71 18 67 16 C 63 14 48 12 40 13 M 51 30 C 58 32 61 37 61 46 C 61 54 59 57 52 61 C 48 63 44 63 39 58 C 30 50 34 32 45 30 C 49 29 49 29 51 30 M 56 80 C 60 82 61 85 63 93 C 66 110 55 123 42 117 C 31 112 30 87 40 81 C 46 76 51 76 56 80 z" fill="black"/><!-- width=102 height=151 -->
<path id="gl30221" d="M 33 4 C 33 9 28 9 24 9 C 24 9 19 9 19 9 C 0 14 0 96 9 115 C 24 134 24 129 24 76 C 24 24 28 14 43 24 C 57 33 57 96 43 105 C 24 115 28 124 48 124 C 57 124 62 124 67 115 C 72 105 81 100 81 100 C 81 105 81 91 81 72 C 81 48 81 38 81 38 C 76 38 72 38 72 33 C 72 19 43 0 33 4 z" fill="black"/><!-- width=91 height=139 -->
<path id="gl26882" d="M 49 12 C 32 15 21 25 17 40 C 15 50 15 106 18 115 C 21 126 31 134 46 137 C 55 139 70 135 77 129 C 87 120 94 97 92 77 C 92 75 91 67 91 61 C 90 36 85 22 73 16 C 66 13 56 11 49 12 M 59 31 C 67 35 67 39 67 73 C 67 102 67 106 63 112 C 59 119 51 121 45 116 C 39 112 38 106 38 76 C 37 52 38 46 41 39 C 43 31 52 27 59 31 z" fill="black"/><!-- width=108 height=151 -->
<path id="gl26893" d="M 12 15 C 11 16 11 29 12 31 C 12 33 12 33 13 34 C 15 33 16 33 18 33 C 24 33 47 33 52 33 C 58 34 60 32 60 25 C 60 16 58 13 51 14 C 42 14 24 14 18 13 C 13 13 13 13 12 15 z" fill="black"/><!-- width=71 height=47 -->
<path id="gl30222" d="M 28 14 C 14 19 4 28 4 43 C 4 52 24 52 28 43 C 33 28 43 24 48 33 C 57 43 52 57 38 62 C 28 67 28 81 38 81 C 48 81 52 81 52 91 C 57 115 33 124 28 100 C 24 91 4 91 4 105 C 4 120 24 134 43 134 C 72 134 86 110 72 81 C 72 72 72 67 72 57 C 86 24 57 0 28 14 z" fill="black"/><!-- width=91 height=144 -->
<path id="gl26895" d="M 46 10 C 36 12 24 18 21 24 C 14 34 12 42 13 57 C 13 73 15 79 22 85 C 30 93 37 94 49 91 C 56 90 60 90 62 91 C 69 95 64 113 55 116 C 49 118 43 117 40 112 C 36 104 33 102 24 103 C 15 103 13 105 14 112 C 18 129 37 138 60 133 C 73 131 79 126 85 112 C 87 108 89 105 90 105 C 90 105 91 106 93 106 C 96 110 97 108 97 96 C 97 82 97 79 93 79 C 90 78 89 76 89 62 C 89 43 85 28 78 20 C 73 15 54 9 46 10 M 54 29 C 57 30 61 33 63 36 C 64 40 65 63 63 67 C 60 74 55 77 48 75 C 40 74 35 66 35 53 C 35 36 43 26 54 29 z" fill="black"/><!-- width=108 height=147 -->
<path id="gl26896" d="M 50 10 C 44 11 42 13 36 27 C 34 33 30 40 28 43 C 27 47 23 52 21 56 C 19 59 16 65 14 68 C 9 77 9 78 9 94 C 9 113 8 112 17 111 C 26 109 27 109 33 109 C 40 108 43 109 45 112 C 47 114 47 114 47 121 C 47 130 48 132 52 133 C 57 136 65 135 68 130 C 69 129 69 128 69 122 C 69 114 70 112 75 110 C 80 107 81 105 81 99 C 81 93 80 92 75 90 C 68 87 68 87 68 60 C 68 48 69 33 69 27 C 70 12 69 10 58 10 C 55 10 51 10 50 10 M 46 60 C 49 65 48 82 45 86 C 43 90 37 91 33 89 C 28 87 27 82 30 75 C 36 60 43 53 46 60 z" fill="black"/><!-- width=93 height=148 -->
<path id="gl26402" d="M 16 17 C 15 19 13 22 14 27 C 15 33 18 35 25 34 C 36 34 39 33 48 34 C 59 35 61 34 63 31 C 65 28 64 18 60 16 C 60 16 53 16 39 16 C 18 16 18 16 16 17 z" fill="black"/><!-- width=78 height=51 -->
<path id="gl30223" d="M 43 4 C 24 9 14 24 14 62 C 9 105 19 120 38 129 C 76 139 100 105 81 67 C 72 48 72 48 52 52 C 38 57 33 57 38 43 C 38 24 52 19 62 33 C 67 38 96 43 96 38 C 96 19 62 4 43 4 M 62 76 C 72 100 57 120 43 110 C 38 100 33 76 38 72 C 43 67 57 67 62 76 z" fill="black"/><!-- width=100 height=139 -->
<path id="gl30224" d="M 40 7 C 32 9 28 11 21 17 C 16 21 13 30 13 37 C 13 38 12 40 12 42 C 10 45 10 45 12 47 C 15 51 17 52 23 52 C 31 52 34 49 36 42 C 37 30 41 25 50 25 C 60 25 64 33 63 45 C 61 56 58 59 43 73 C 31 84 25 91 22 94 C 21 96 19 98 18 99 C 15 102 14 105 13 110 C 12 112 12 116 12 118 C 10 121 12 125 14 127 C 16 128 16 128 40 128 C 54 128 67 129 71 129 C 81 130 85 129 87 123 C 87 121 90 113 90 112 C 90 111 84 108 79 108 C 76 107 73 108 68 108 C 49 112 42 107 48 97 C 50 95 51 94 51 94 C 52 94 54 92 57 90 C 60 87 63 84 65 82 C 79 71 85 58 86 44 C 87 31 79 15 70 10 C 63 7 50 6 40 7 z" fill="black"/><!-- width=101 height=140 -->
<path id="gl26880" d="M 39 12 C 27 14 23 17 18 25 C 11 37 11 52 18 62 C 23 68 23 72 18 78 C 16 80 13 83 13 85 C 12 86 11 87 10 88 C 10 92 10 96 10 99 C 10 115 11 118 20 126 C 27 133 35 136 48 136 C 64 136 75 131 82 120 C 82 118 84 115 86 114 C 90 109 91 106 91 96 C 91 88 90 79 89 79 C 89 78 88 79 88 79 C 85 84 84 84 81 81 C 73 75 72 67 78 60 C 81 57 82 55 84 51 C 84 49 85 48 85 46 C 85 45 84 43 84 41 C 80 26 75 19 67 15 C 61 12 49 10 39 12 M 53 30 C 58 31 61 37 61 45 C 61 64 42 70 36 54 C 30 40 40 25 53 30 M 54 80 C 57 81 61 87 63 91 C 65 101 61 114 54 117 C 42 123 30 112 33 94 C 34 82 44 76 54 80 z" fill="black"/><!-- width=99 height=150 -->
<path id="gl26898" d="M 45 12 C 32 16 27 20 21 32 C 17 42 16 46 16 80 C 16 111 16 109 21 117 C 27 127 31 130 44 133 C 54 136 57 136 65 133 C 85 128 93 116 91 91 C 91 77 89 71 82 64 C 75 56 66 54 55 58 C 48 61 45 61 43 60 C 34 55 39 35 49 30 C 54 28 61 30 64 35 C 70 45 71 45 78 45 C 89 46 93 40 88 30 C 85 24 78 16 75 15 C 65 10 57 10 45 12 M 60 75 C 66 78 69 84 69 95 C 69 104 68 108 65 112 C 59 120 47 119 42 110 C 40 105 39 89 42 83 C 44 75 52 72 60 75 z" fill="black"/><!-- width=105 height=149 -->
</defs>
<use xlink:href="#gl28425" x="0" y="12"/>
<use xlink:href="#gl29996" x="90" y="28"/>
<use xlink:href="#gl26114" x="172" y="30"/>
<use xlink:href="#gl26628" x="258" y="34"/>
<use xlink:href="#gl28427" x="353" y="39"/>
<use xlink:href="#gl30208" x="431" y="32"/>
<use xlink:href="#gl26631" x="515" y="0"/>
<use xlink:href="#gl28431" x="597" y="33"/>
<use xlink:href="#gl30209" x="633" y="42"/>
<use xlink:href="#gl28431" x="703" y="33"/>
<use xlink:href="#gl28432" x="731" y="1"/>
<use xlink:href="#gl28433" x="807" y="20"/>
<use xlink:href="#gl25116" x="891" y="131"/>
<use xlink:href="#gl24839" x="962" y="32"/>
<use xlink:href="#gl26635" x="996" y="36"/>
<use xlink:href="#gl29463" x="1076" y="35"/>
<use xlink:href="#gl2844" x="1170" y="134"/>
<use xlink:href="#gl25116" x="1211" y="131"/>
<use xlink:href="#gl26628" x="1276" y="35"/>
<use xlink:href="#gl30210" x="1382" y="42"/>
<use xlink:href="#gl26637" x="1434" y="10"/>
<use xlink:href="#gl26631" x="1516" y="0"/>
<use xlink:href="#gl2844" x="1600" y="134"/>
<use xlink:href="#gl28436" x="1671" y="35"/>
<use xlink:href="#gl26639" x="1744" y="36"/>
<use xlink:href="#gl26650" x="1845" y="134"/>
<use xlink:href="#gl26637" x="1900" y="11"/>
<use xlink:href="#gl2844" x="1979" y="134"/>
<use xlink:href="#gl26114" x="2012" y="32"/>
<use xlink:href="#gl2844" x="2106" y="135"/>
<use xlink:href="#gl26641" x="2176" y="36"/>
<use xlink:href="#gl26114" x="2262" y="32"/>
<use xlink:href="#gl30211" x="2357" y="47"/>
<use xlink:href="#gl26643" x="2480" y="29"/>
<use xlink:href="#gl28445" x="2552" y="39"/>
<use xlink:href="#gl28445" x="2629" y="40"/>
<use xlink:href="#gl26646" x="2702" y="37"/>
<use xlink:href="#gl28446" x="2777" y="43"/>
<use xlink:href="#gl25116" x="2858" y="133"/>
<use xlink:href="#gl26626" x="2916" y="12"/>
<use xlink:href="#gl26114" x="3002" y="33"/>
<use xlink:href="#gl26627" x="3091" y="27"/>
<use xlink:href="#gl30212" x="3177" y="42"/>
<use xlink:href="#gl30213" x="3231" y="43"/>
<use xlink:href="#gl30214" x="3317" y="42"/>
<use xlink:href="#gl26635" x="3405" y="39"/>
<use xlink:href="#gl26628" x="3485" y="37"/>
<use xlink:href="#gl25116" x="3586" y="134"/>
<use xlink:href="#gl26114" x="3654" y="34"/>
<use xlink:href="#gl29462" x="3747" y="29"/>
<use xlink:href="#gl28448" x="3869" y="39"/>
<use xlink:href="#gl30215" x="3955" y="47"/>
<use xlink:href="#gl29470" x="4023" y="46"/>
<use xlink:href="#gl28444" x="4109" y="32"/>
<use xlink:href="#gl28445" x="4180" y="40"/>
<use xlink:href="#gl30216" x="4256" y="105"/>
<use xlink:href="#gl26647" x="4304" y="41"/>
<use xlink:href="#gl28445" x="4391" y="41"/>
<use xlink:href="#gl26646" x="4463" y="39"/>
<use xlink:href="#gl29471" x="4540" y="43"/>
<use xlink:href="#gl25377" x="589" y="195"/>
<use xlink:href="#gl26658" x="676" y="259"/>
<use xlink:href="#gl25610" x="761" y="227"/>
<use xlink:href="#gl26658" x="797" y="259"/>
<use xlink:href="#gl30217" x="883" y="268"/>
<use xlink:href="#gl25378" x="955" y="232"/>
<use xlink:href="#gl26661" x="1047" y="260"/>
<use xlink:href="#gl25615" x="1130" y="252"/>
<use xlink:href="#gl26658" x="1213" y="260"/>
<use xlink:href="#gl26663" x="1299" y="263"/>
<use xlink:href="#gl28452" x="1385" y="223"/>
<use xlink:href="#gl26402" x="1460" y="296"/>
<use xlink:href="#gl26887" x="1523" y="234"/>
<use xlink:href="#gl26881" x="1601" y="235"/>
<use xlink:href="#gl26882" x="1680" y="234"/>
<use xlink:href="#gl26402" x="1766" y="297"/>
<use xlink:href="#gl28453" x="1831" y="234"/>
<use xlink:href="#gl26895" x="1908" y="236"/>
<use xlink:href="#gl29474" x="1996" y="237"/>
<use xlink:href="#gl26402" x="2074" y="297"/>
<use xlink:href="#gl26888" x="2131" y="239"/>
<use xlink:href="#gl26887" x="2220" y="235"/>
<use xlink:href="#gl30218" x="2298" y="239"/>
<use xlink:href="#gl30219" x="2381" y="237"/>
<use xlink:href="#gl26889" x="2613" y="212"/>
<use xlink:href="#gl26890" x="2710" y="265"/>
<use xlink:href="#gl26891" x="2786" y="263"/>
<use xlink:href="#gl26663" x="2869" y="264"/>
<use xlink:href="#gl28452" x="2954" y="224"/>
<use xlink:href="#gl26402" x="3029" y="297"/>
<use xlink:href="#gl30220" x="3091" y="236"/>
<use xlink:href="#gl30221" x="3182" y="244"/>
<use xlink:href="#gl26882" x="3249" y="236"/>
<use xlink:href="#gl26893" x="3337" y="300"/>
<use xlink:href="#gl30222" x="3403" y="239"/>
<use xlink:href="#gl26895" x="3476" y="238"/>
<use xlink:href="#gl26896" x="3566" y="238"/>
<use xlink:href="#gl26402" x="3641" y="299"/>
<use xlink:href="#gl30223" x="3705" y="244"/>
<use xlink:href="#gl30224" x="3786" y="242"/>
<use xlink:href="#gl26880" x="3870" y="238"/>
<use xlink:href="#gl26898" x="3946" y="238"/>
</svg>
