<?xml version='1.0' encoding='utf-8'?>
<svg xmlns="http://www.w3.org/2000/svg" xmlns:xlink="http://www.w3.org/1999/xlink" width="462px" height="40px" viewBox="0 0 4629 402" version="1.1">
<defs>
<path id="gl30493" d="M 30 36 C 26 39 26 38 26 69 C 27 85 26 106 26 120 C 25 144 25 147 28 150 C 31 153 36 154 40 151 C 43 148 44 144 42 123 C 42 111 42 109 45 106 C 46 105 46 105 47 104 C 51 104 54 104 58 103 C 66 103 70 103 72 102 C 86 97 94 85 94 70 C 94 52 87 42 72 36 C 69 36 67 35 66 34 C 60 34 55 34 49 34 C 43 34 38 34 33 34 C 32 34 31 35 30 36 M 60 49 C 71 51 76 57 76 67 C 77 81 70 88 56 90 C 48 91 43 88 42 83 C 41 78 42 57 43 54 C 46 49 51 48 60 49 z" fill="black"/><!-- width=105 height=163 -->
<path id="gl26627" d="M 25 22 C 22 23 19 25 18 28 C 18 30 18 39 18 60 C 18 78 18 97 18 112 C 17 139 17 139 21 142 C 25 144 32 143 34 139 C 35 136 35 123 34 109 C 33 91 36 88 52 90 C 60 91 63 93 66 98 C 67 99 67 101 68 102 C 68 107 68 112 69 117 C 69 135 70 138 74 141 C 78 144 85 143 87 139 C 88 137 88 129 87 124 C 86 122 85 117 85 112 C 84 101 84 97 79 91 C 75 84 75 82 80 73 C 84 66 85 60 85 52 C 84 36 77 27 63 24 C 57 22 28 21 25 22 M 56 38 C 65 41 70 51 68 61 C 65 73 59 78 46 77 C 35 76 34 75 34 58 C 34 44 34 42 37 39 C 40 37 49 36 56 38 z" fill="black"/><!-- width=100 height=155 -->
<path id="gl26651" d="M 46 10 C 29 13 18 25 14 48 C 11 63 12 91 15 104 C 22 130 42 140 66 131 C 75 128 84 115 87 99 C 90 88 90 60 88 49 C 83 25 73 13 55 10 C 50 10 50 10 46 10 M 59 28 C 69 33 72 45 72 73 C 72 91 72 97 69 105 C 62 122 41 123 34 107 C 27 92 27 51 34 37 C 39 27 49 23 59 28 z" fill="black"/><!-- width=102 height=147 -->
<path id="gl30494" d="M 4 62 C 4 129 9 129 43 124 C 67 120 81 105 81 62 C 81 19 67 4 28 4 C 24 4 14 4 4 4 C 4 24 4 43 4 62 M 52 28 C 76 43 62 105 38 105 C 33 105 28 105 24 105 C 24 96 24 81 24 72 C 19 19 28 9 52 28 z" fill="black"/><!-- width=91 height=134 -->
<path id="gl28427" d="M 18 8 C 14 10 13 13 13 24 C 13 30 14 49 14 66 C 14 76 14 87 14 97 C 15 99 15 102 16 103 C 21 121 31 129 49 129 C 67 129 75 123 82 104 C 83 102 84 100 84 99 C 84 84 84 70 84 56 C 84 9 85 12 81 9 C 77 6 70 7 68 11 C 67 13 67 15 67 46 C 67 103 68 101 63 107 C 58 113 52 115 44 113 C 39 112 34 108 32 102 C 32 100 31 99 31 97 C 31 84 31 70 31 56 C 31 28 31 13 30 13 C 28 7 23 6 18 8 z" fill="black"/><!-- width=99 height=145 -->
<path id="gl30208" d="M 52 12 C 36 15 27 25 21 46 C 19 52 19 54 19 67 C 18 86 19 94 23 109 C 24 114 31 124 36 127 C 47 136 61 138 75 131 C 85 126 93 112 93 99 C 93 94 90 90 86 90 C 80 89 77 92 75 102 C 73 109 71 112 68 115 C 59 123 46 120 41 108 C 37 100 36 92 36 73 C 36 55 36 49 40 40 C 42 36 48 29 51 28 C 63 25 72 30 75 40 C 78 51 84 55 90 51 C 94 48 94 36 90 28 C 83 17 66 9 52 12 z" fill="black"/><!-- width=103 height=148 -->
<path id="gl29464" d="M 16 43 C 9 45 7 55 15 59 C 16 60 18 60 25 60 C 34 59 34 59 36 61 C 40 63 40 64 40 79 C 40 87 39 107 39 125 C 39 135 39 146 39 157 C 39 158 40 159 40 160 C 43 165 51 166 54 162 C 57 159 57 159 56 117 C 56 95 55 75 55 72 C 55 61 58 59 69 60 C 79 60 81 60 83 59 C 88 55 87 48 82 45 C 80 43 79 43 67 44 C 50 44 40 44 29 43 C 23 43 18 43 16 43 z" fill="black"/><!-- width=96 height=174 -->
<path id="gl28431" d="M 18 14 C 14 17 14 12 14 73 C 14 133 14 130 18 132 C 21 133 25 133 27 132 C 31 129 31 131 31 82 C 31 46 31 37 31 31 C 33 22 32 20 30 17 C 27 13 22 12 18 14 z" fill="black"/><!-- width=45 height=145 -->
<path id="gl28430" d="M 16 16 C 12 20 12 26 18 45 C 20 50 22 58 23 62 C 24 69 26 74 32 96 C 35 106 37 116 39 123 C 39 132 42 135 50 135 C 59 135 60 133 65 112 C 67 104 70 94 71 92 C 72 89 73 85 73 83 C 73 81 75 76 76 71 C 78 66 80 58 81 52 C 84 43 86 36 88 31 C 90 27 90 24 89 21 C 87 17 85 16 81 16 C 72 16 71 18 66 45 C 66 50 64 56 63 60 C 63 63 61 66 61 67 C 61 69 60 75 59 79 C 58 85 57 90 57 92 C 55 100 49 103 47 98 C 46 96 45 90 42 78 C 42 73 40 66 39 62 C 39 58 37 52 36 48 C 33 24 30 17 24 16 C 21 15 18 15 16 16 z" fill="black"/><!-- width=102 height=148 -->
<path id="gl28431" d="M 18 14 C 14 17 14 12 14 73 C 14 133 14 130 18 132 C 21 133 25 133 27 132 C 31 129 31 131 31 82 C 31 46 31 37 31 31 C 33 22 32 20 30 17 C 27 13 22 12 18 14 z" fill="black"/><!-- width=45 height=145 -->
<path id="gl29467" d="M 70 43 C 66 44 31 44 27 43 C 20 43 13 43 11 46 C 9 47 9 48 10 52 C 10 60 10 60 25 59 C 31 58 32 59 34 60 C 39 63 39 60 39 110 C 37 160 38 162 42 163 C 48 165 53 163 55 158 C 55 156 55 102 55 79 C 54 66 55 64 57 61 C 60 59 61 59 72 60 C 74 60 76 60 79 60 C 80 60 80 59 81 58 C 82 56 83 55 82 49 C 82 43 80 42 70 43 z" fill="black"/><!-- width=94 height=174 -->
<path id="gl29465" d="M 12 31 C 11 31 10 32 9 33 C 5 38 6 42 12 48 C 16 51 19 58 19 60 C 19 60 27 76 32 85 C 39 100 39 104 38 125 C 37 141 37 144 40 147 C 41 150 43 151 47 151 C 55 151 57 148 56 131 C 54 106 55 97 63 83 C 64 81 67 74 70 69 C 85 37 84 39 79 34 C 79 33 78 31 76 31 C 75 31 75 31 73 31 C 68 32 65 36 61 48 C 53 74 49 80 43 75 C 41 73 40 71 36 60 C 28 36 28 35 24 33 C 21 31 14 30 12 31 z" fill="black"/><!-- width=92 height=162 -->
<path id="gl30495" d="M 15 16 C 11 17 10 19 10 25 C 10 28 10 29 14 33 C 17 37 16 42 13 46 C 10 49 11 52 15 54 C 21 55 25 48 25 35 C 26 23 24 16 21 16 C 20 16 19 16 19 15 C 18 14 18 14 15 16 z" fill="black"/><!-- width=37 height=64 -->
<path id="gl28429" d="M 16 18 C 12 21 13 21 13 44 C 13 56 13 80 13 97 C 13 132 13 133 16 136 C 18 138 22 138 25 136 C 27 135 30 131 30 128 C 30 127 30 106 30 82 C 30 50 30 38 30 33 C 31 27 31 24 28 21 C 25 16 19 15 16 18 z" fill="black"/><!-- width=43 height=153 -->
<path id="gl26635" d="M 20 11 C 13 13 13 16 13 30 C 15 39 14 58 13 71 C 12 88 12 124 13 127 C 15 133 25 135 28 129 C 30 126 30 122 30 107 C 29 99 28 87 28 79 C 27 61 28 57 30 54 C 34 51 37 55 42 72 C 44 77 48 87 50 92 C 52 97 56 108 58 114 C 63 129 65 132 73 132 C 83 132 85 127 84 116 C 84 111 84 89 85 37 C 85 19 85 18 84 16 C 80 8 69 10 68 18 C 67 20 68 28 68 37 C 69 63 70 84 69 87 C 68 90 66 91 64 91 C 61 90 59 85 52 68 C 49 59 46 51 45 48 C 42 41 40 34 38 28 C 34 14 33 12 25 11 C 23 11 21 11 20 11 z" fill="black"/><!-- width=98 height=145 -->
<path id="gl30208" d="M 52 12 C 36 15 27 25 21 46 C 19 52 19 54 19 67 C 18 86 19 94 23 109 C 24 114 31 124 36 127 C 47 136 61 138 75 131 C 85 126 93 112 93 99 C 93 94 90 90 86 90 C 80 89 77 92 75 102 C 73 109 71 112 68 115 C 59 123 46 120 41 108 C 37 100 36 92 36 73 C 36 55 36 49 40 40 C 42 36 48 29 51 28 C 63 25 72 30 75 40 C 78 51 84 55 90 51 C 94 48 94 36 90 28 C 83 17 66 9 52 12 z" fill="black"/><!-- width=103 height=148 -->
<path id="gl2844" d="M 19 14 C 15 16 12 21 13 26 C 15 33 28 35 32 28 C 37 20 28 10 19 14 z" fill="black"/><!-- width=47 height=46 -->
<path id="gl30495" d="M 15 16 C 11 17 10 19 10 25 C 10 28 10 29 14 33 C 17 37 16 42 13 46 C 10 49 11 52 15 54 C 21 55 25 48 25 35 C 26 23 24 16 21 16 C 20 16 19 16 19 15 C 18 14 18 14 15 16 z" fill="black"/><!-- width=37 height=64 -->
<path id="gl26628" d="M 27 13 C 24 15 23 16 22 18 C 21 22 21 124 22 127 C 24 133 24 133 42 133 C 69 133 76 130 85 118 C 92 108 96 94 96 73 C 96 33 85 15 58 13 C 48 12 28 12 27 13 M 60 29 C 73 32 78 43 79 69 C 80 101 71 117 52 117 C 44 118 41 117 39 113 C 39 112 38 111 37 111 C 37 97 37 85 37 72 C 37 30 37 32 42 29 C 44 28 54 28 60 29 z" fill="black"/><!-- width=111 height=147 -->
<path id="gl29466" d="M 46 9 C 25 10 27 8 27 36 C 27 62 27 62 27 94 C 27 124 27 123 31 127 C 31 127 32 128 33 129 C 38 129 43 129 49 129 C 58 129 69 129 73 129 C 82 130 85 130 87 127 C 89 125 90 121 88 117 C 87 112 85 112 75 112 C 57 114 49 114 48 112 C 44 111 43 106 42 92 C 42 74 43 73 63 75 C 83 78 88 76 87 66 C 87 59 84 58 69 60 C 42 62 43 63 42 43 C 42 24 43 22 64 25 C 81 27 84 26 88 22 C 91 18 90 12 85 10 C 83 9 75 9 46 9 z" fill="black"/><!-- width=99 height=140 -->
<path id="gl30493" d="M 30 36 C 26 39 26 38 26 69 C 27 85 26 106 26 120 C 25 144 25 147 28 150 C 31 153 36 154 40 151 C 43 148 44 144 42 123 C 42 111 42 109 45 106 C 46 105 46 105 47 104 C 51 104 54 104 58 103 C 66 103 70 103 72 102 C 86 97 94 85 94 70 C 94 52 87 42 72 36 C 69 36 67 35 66 34 C 60 34 55 34 49 34 C 43 34 38 34 33 34 C 32 34 31 35 30 36 M 60 49 C 71 51 76 57 76 67 C 77 81 70 88 56 90 C 48 91 43 88 42 83 C 41 78 42 57 43 54 C 46 49 51 48 60 49 z" fill="black"/><!-- width=105 height=163 -->
<path id="gl29464" d="M 16 43 C 9 45 7 55 15 59 C 16 60 18 60 25 60 C 34 59 34 59 36 61 C 40 63 40 64 40 79 C 40 87 39 107 39 125 C 39 135 39 146 39 157 C 39 158 40 159 40 160 C 43 165 51 166 54 162 C 57 159 57 159 56 117 C 56 95 55 75 55 72 C 55 61 58 59 69 60 C 79 60 81 60 83 59 C 88 55 87 48 82 45 C 80 43 79 43 67 44 C 50 44 40 44 29 43 C 23 43 18 43 16 43 z" fill="black"/><!-- width=96 height=174 -->
<path id="gl2844" d="M 19 14 C 15 16 12 21 13 26 C 15 33 28 35 32 28 C 37 20 28 10 19 14 z" fill="black"/><!-- width=47 height=46 -->
<path id="gl26641" d="M 24 13 C 20 16 20 13 19 66 C 19 131 19 125 21 127 C 23 132 25 132 45 132 C 67 131 72 130 80 122 C 86 115 88 111 89 99 C 90 91 87 83 81 77 C 76 70 75 67 79 63 C 85 55 86 52 87 43 C 87 28 79 18 65 14 C 58 12 27 12 24 13 M 55 28 C 72 30 76 55 61 62 C 52 66 42 66 38 62 C 36 60 35 57 35 46 C 35 28 39 25 55 28 M 52 76 C 63 78 70 84 72 94 C 74 109 63 118 45 117 C 37 116 36 113 35 94 C 35 76 37 73 52 76 z" fill="black"/><!-- width=103 height=145 -->
<path id="gl26639" d="M 85 11 C 82 12 80 13 78 17 C 70 29 66 36 63 41 C 55 56 52 58 48 58 C 43 58 42 54 43 41 C 44 30 45 18 44 16 C 42 12 37 9 33 12 C 27 14 27 18 28 37 C 29 55 28 78 28 99 C 27 115 27 126 28 128 C 30 132 35 133 40 131 C 45 129 45 125 44 108 C 42 88 46 79 54 79 C 58 79 61 84 69 100 C 70 104 73 110 75 114 C 77 117 79 121 79 123 C 83 132 93 135 98 129 C 101 126 100 121 93 111 C 91 109 90 105 88 103 C 87 100 85 97 83 94 C 66 66 66 67 66 63 C 66 60 68 57 73 51 C 79 43 95 22 96 20 C 98 13 93 8 85 11 z" fill="black"/><!-- width=111 height=144 -->
<path id="gl30495" d="M 15 16 C 11 17 10 19 10 25 C 10 28 10 29 14 33 C 17 37 16 42 13 46 C 10 49 11 52 15 54 C 21 55 25 48 25 35 C 26 23 24 16 21 16 C 20 16 19 16 19 15 C 18 14 18 14 15 16 z" fill="black"/><!-- width=37 height=64 -->
<path id="gl28425" d="M 35 36 C 32 36 30 39 29 43 C 29 45 29 63 29 83 C 29 110 29 122 28 126 C 27 133 27 144 28 147 C 29 156 41 157 45 150 C 46 147 46 143 45 124 C 45 106 45 105 61 105 C 71 105 71 105 76 103 C 89 98 96 87 96 70 C 96 52 90 43 75 37 C 73 36 72 36 70 35 C 64 35 59 35 53 35 C 44 35 36 35 35 36 M 67 51 C 77 54 82 66 79 78 C 76 85 72 89 64 90 C 53 93 47 91 46 85 C 45 81 45 60 46 56 C 48 50 57 48 67 51 z" fill="black"/><!-- width=110 height=165 -->
<path id="gl2844" d="M 19 14 C 15 16 12 21 13 26 C 15 33 28 35 32 28 C 37 20 28 10 19 14 z" fill="black"/><!-- width=47 height=46 -->
<path id="gl26651" d="M 46 10 C 29 13 18 25 14 48 C 11 63 12 91 15 104 C 22 130 42 140 66 131 C 75 128 84 115 87 99 C 90 88 90 60 88 49 C 83 25 73 13 55 10 C 50 10 50 10 46 10 M 59 28 C 69 33 72 45 72 73 C 72 91 72 97 69 105 C 62 122 41 123 34 107 C 27 92 27 51 34 37 C 39 27 49 23 59 28 z" fill="black"/><!-- width=102 height=147 -->
<path id="gl2844" d="M 19 14 C 15 16 12 21 13 26 C 15 33 28 35 32 28 C 37 20 28 10 19 14 z" fill="black"/><!-- width=47 height=46 -->
<path id="gl28436" d="M 24 13 C 22 13 21 15 20 16 C 20 16 19 17 19 18 C 19 28 19 38 19 48 C 19 66 19 89 18 100 C 18 124 18 126 21 129 C 21 130 22 131 22 132 C 28 132 34 132 40 132 C 64 132 69 130 77 123 C 85 116 88 109 87 97 C 87 88 85 84 80 77 C 76 72 75 67 77 63 C 78 63 79 61 80 59 C 86 50 87 39 81 28 C 78 21 73 17 64 14 C 59 13 28 12 24 13 M 57 28 C 67 31 72 48 66 57 C 61 63 45 67 39 63 C 34 61 34 60 34 47 C 34 31 36 28 43 27 C 46 27 54 27 57 28 M 54 76 C 70 81 76 101 65 112 C 60 115 57 117 48 117 C 39 117 36 115 34 109 C 34 106 34 82 35 80 C 37 75 44 74 54 76 z" fill="black"/><!-- width=100 height=145 -->
<path id="gl26651" d="M 46 10 C 29 13 18 25 14 48 C 11 63 12 91 15 104 C 22 130 42 140 66 131 C 75 128 84 115 87 99 C 90 88 90 60 88 49 C 83 25 73 13 55 10 C 50 10 50 10 46 10 M 59 28 C 69 33 72 45 72 73 C 72 91 72 97 69 105 C 62 122 41 123 34 107 C 27 92 27 51 34 37 C 39 27 49 23 59 28 z" fill="black"/><!-- width=102 height=147 -->
<path id="gl26642" d="M 69 13 C 64 15 63 18 57 33 C 52 47 50 49 46 49 C 42 49 40 47 33 29 C 28 14 27 13 18 13 C 7 14 8 18 30 56 C 36 67 37 73 35 78 C 33 81 30 87 30 88 C 29 88 27 93 24 98 C 15 114 14 116 12 119 C 8 126 8 128 12 132 C 18 137 25 133 29 123 C 34 111 40 97 42 95 C 43 93 43 93 46 93 C 49 93 52 96 56 108 C 59 116 65 129 67 130 C 72 136 78 135 82 130 C 84 127 82 124 77 115 C 75 111 72 106 71 104 C 69 99 65 93 63 89 C 53 74 53 71 61 57 C 63 55 66 49 68 45 C 70 40 74 34 75 31 C 79 25 80 22 80 18 C 80 13 75 10 69 13 z" fill="black"/><!-- width=92 height=146 -->
<path id="gl26655" d="M 37 21 C 36 22 34 24 33 26 C 29 33 26 35 17 37 C 10 38 9 39 7 42 C 6 48 10 51 18 51 C 25 49 29 51 31 55 C 31 58 31 58 31 99 C 31 109 31 120 31 131 C 31 132 31 132 32 133 C 36 139 45 138 46 132 C 48 129 48 117 46 70 C 46 55 46 45 47 37 C 48 25 47 23 45 21 C 43 19 39 19 37 21 z" fill="black"/><!-- width=73 height=146 -->
<path id="gl28445" d="M 34 12 C 20 13 12 19 8 33 C 6 40 7 45 12 47 C 17 48 21 46 23 39 C 27 30 31 25 38 25 C 46 25 52 32 52 43 C 52 55 48 60 35 63 C 30 64 27 69 29 72 C 31 75 33 76 39 77 C 50 79 54 85 54 98 C 53 112 43 121 33 116 C 28 114 27 112 24 103 C 22 97 20 95 17 94 C 7 92 4 102 10 115 C 17 127 28 133 43 132 C 54 130 61 125 66 114 C 73 100 72 87 63 75 C 58 69 58 66 62 59 C 69 49 69 38 63 26 C 58 15 50 11 34 12 z" fill="black"/><!-- width=86 height=145 -->
<path id="gl28445" d="M 34 12 C 20 13 12 19 8 33 C 6 40 7 45 12 47 C 17 48 21 46 23 39 C 27 30 31 25 38 25 C 46 25 52 32 52 43 C 52 55 48 60 35 63 C 30 64 27 69 29 72 C 31 75 33 76 39 77 C 50 79 54 85 54 98 C 53 112 43 121 33 116 C 28 114 27 112 24 103 C 22 97 20 95 17 94 C 7 92 4 102 10 115 C 17 127 28 133 43 132 C 54 130 61 125 66 114 C 73 100 72 87 63 75 C 58 69 58 66 62 59 C 69 49 69 38 63 26 C 58 15 50 11 34 12 z" fill="black"/><!-- width=86 height=145 -->
<path id="gl29469" d="M 37 13 C 24 15 15 21 12 29 C 7 43 6 53 9 67 C 10 75 12 78 15 82 C 24 91 37 93 46 88 C 57 81 63 87 58 100 C 54 111 54 112 48 115 C 39 121 31 119 25 109 C 22 103 17 102 12 105 C 9 106 9 109 10 115 C 15 126 24 132 37 132 C 58 133 66 126 72 104 C 75 90 76 83 75 71 C 75 66 75 60 75 60 C 75 55 71 36 67 28 C 62 18 51 12 37 13 M 46 28 C 54 31 58 42 57 58 C 57 66 56 67 53 72 C 50 76 48 76 41 76 C 34 76 34 76 31 75 C 24 70 22 65 22 52 C 22 43 23 39 26 34 C 31 27 38 25 46 28 z" fill="black"/><!-- width=87 height=145 -->
<path id="gl28437" d="M 38 10 C 28 13 21 22 16 36 C 12 50 12 54 12 70 C 12 75 12 80 12 85 C 13 88 13 92 15 96 C 19 114 22 120 31 125 C 36 129 39 129 49 129 C 60 129 62 128 68 122 C 79 112 82 100 82 70 C 82 53 82 49 79 36 C 76 24 69 15 63 12 C 57 10 44 9 38 10 M 54 25 C 57 27 61 31 63 35 C 65 43 66 46 66 67 C 66 95 64 104 58 110 C 49 119 38 115 33 102 C 30 93 30 94 30 71 C 30 49 30 45 33 36 C 36 26 45 21 54 25 z" fill="black"/><!-- width=94 height=141 -->
<path id="gl30495" d="M 15 16 C 11 17 10 19 10 25 C 10 28 10 29 14 33 C 17 37 16 42 13 46 C 10 49 11 52 15 54 C 21 55 25 48 25 35 C 26 23 24 16 21 16 C 20 16 19 16 19 15 C 18 14 18 14 15 16 z" fill="black"/><!-- width=37 height=64 -->
<path id="gl30493" d="M 30 36 C 26 39 26 38 26 69 C 27 85 26 106 26 120 C 25 144 25 147 28 150 C 31 153 36 154 40 151 C 43 148 44 144 42 123 C 42 111 42 109 45 106 C 46 105 46 105 47 104 C 51 104 54 104 58 103 C 66 103 70 103 72 102 C 86 97 94 85 94 70 C 94 52 87 42 72 36 C 69 36 67 35 66 34 C 60 34 55 34 49 34 C 43 34 38 34 33 34 C 32 34 31 35 30 36 M 60 49 C 71 51 76 57 76 67 C 77 81 70 88 56 90 C 48 91 43 88 42 83 C 41 78 42 57 43 54 C 46 49 51 48 60 49 z" fill="black"/><!-- width=105 height=163 -->
<path id="gl26651" d="M 46 10 C 29 13 18 25 14 48 C 11 63 12 91 15 104 C 22 130 42 140 66 131 C 75 128 84 115 87 99 C 90 88 90 60 88 49 C 83 25 73 13 55 10 C 50 10 50 10 46 10 M 59 28 C 69 33 72 45 72 73 C 72 91 72 97 69 105 C 62 122 41 123 34 107 C 27 92 27 51 34 37 C 39 27 49 23 59 28 z" fill="black"/><!-- width=102 height=147 -->
<path id="gl29996" d="M 22 20 C 16 22 17 20 16 75 C 16 100 16 124 16 128 C 16 133 16 134 18 135 C 21 139 29 139 31 135 C 34 132 34 130 32 104 C 31 90 33 86 46 86 C 55 86 58 87 62 91 C 66 96 67 98 67 114 C 67 132 69 136 75 138 C 79 139 82 138 85 135 C 85 135 86 134 87 133 C 87 132 87 130 87 129 C 87 127 86 124 85 122 C 85 120 84 115 84 112 C 82 96 81 93 77 88 C 73 84 73 77 76 73 C 84 63 85 46 79 34 C 74 24 66 19 49 19 C 25 19 25 19 22 20 M 56 36 C 64 39 67 43 67 52 C 67 60 65 65 62 67 C 52 76 37 76 33 68 C 31 66 31 66 32 54 C 32 38 33 36 39 34 C 43 33 52 34 56 36 z" fill="black"/><!-- width=97 height=148 -->
<path id="gl26631" d="M 18 46 C 12 48 10 53 12 58 C 14 63 15 63 25 63 C 36 63 37 63 40 67 C 41 69 41 69 40 116 C 39 162 39 161 40 163 C 44 170 54 171 57 164 C 58 161 58 139 57 91 C 57 72 57 70 57 67 C 59 63 61 62 69 63 C 84 64 88 61 87 54 C 87 48 82 45 71 46 C 63 46 34 46 25 46 C 22 46 19 46 18 46 z" fill="black"/><!-- width=98 height=180 -->
<path id="gl30213" d="M 40 6 C 35 7 34 11 34 25 C 35 31 36 54 36 77 C 36 91 36 105 36 118 C 36 119 36 120 37 121 C 39 126 41 126 56 126 C 63 126 73 127 79 127 C 98 128 99 127 99 117 C 99 107 97 106 89 108 C 88 109 82 109 77 110 C 72 110 67 111 66 111 C 66 111 64 111 61 111 C 57 110 54 108 52 103 C 52 102 52 72 53 32 C 53 26 53 20 54 14 C 53 13 52 12 52 12 C 49 7 45 5 40 6 z" fill="black"/><!-- width=106 height=163 -->
<path id="gl30214" d="M 48 8 C 43 9 42 12 39 22 C 39 25 37 32 35 36 C 34 40 33 45 32 46 C 31 49 30 54 29 58 C 27 63 25 71 24 76 C 21 89 16 100 14 104 C 13 105 13 106 12 107 C 12 110 12 113 12 116 C 11 129 12 131 19 128 C 26 126 27 124 30 111 C 33 95 35 94 54 94 C 58 94 62 94 66 94 C 66 95 67 96 68 96 C 70 99 72 102 73 110 C 75 123 77 126 84 127 C 87 129 93 126 94 123 C 94 120 94 115 91 109 C 90 106 88 100 87 96 C 85 92 82 85 81 82 C 80 78 79 72 78 68 C 77 64 76 58 75 54 C 73 50 72 45 71 42 C 70 40 69 33 67 27 C 64 13 63 12 59 9 C 57 7 51 7 48 8 M 56 40 C 58 42 59 46 60 54 C 61 57 62 62 63 65 C 66 78 63 82 52 82 C 43 82 39 79 40 73 C 40 69 46 48 48 44 C 49 39 52 37 56 40 z" fill="black"/><!-- width=105 height=144 -->
<path id="gl26635" d="M 20 11 C 13 13 13 16 13 30 C 15 39 14 58 13 71 C 12 88 12 124 13 127 C 15 133 25 135 28 129 C 30 126 30 122 30 107 C 29 99 28 87 28 79 C 27 61 28 57 30 54 C 34 51 37 55 42 72 C 44 77 48 87 50 92 C 52 97 56 108 58 114 C 63 129 65 132 73 132 C 83 132 85 127 84 116 C 84 111 84 89 85 37 C 85 19 85 18 84 16 C 80 8 69 10 68 18 C 67 20 68 28 68 37 C 69 63 70 84 69 87 C 68 90 66 91 64 91 C 61 90 59 85 52 68 C 49 59 46 51 45 48 C 42 41 40 34 38 28 C 34 14 33 12 25 11 C 23 11 21 11 20 11 z" fill="black"/><!-- width=98 height=145 -->
<path id="gl26628" d="M 27 13 C 24 15 23 16 22 18 C 21 22 21 124 22 127 C 24 133 24 133 42 133 C 69 133 76 130 85 118 C 92 108 96 94 96 73 C 96 33 85 15 58 13 C 48 12 28 12 27 13 M 60 29 C 73 32 78 43 79 69 C 80 101 71 117 52 117 C 44 118 41 117 39 113 C 39 112 38 111 37 111 C 37 97 37 85 37 72 C 37 30 37 32 42 29 C 44 28 54 28 60 29 z" fill="black"/><!-- width=111 height=147 -->
<path id="gl25116" d="M 17 15 C 13 18 12 27 15 33 C 18 38 18 41 16 45 C 13 50 13 51 14 54 C 15 58 22 58 25 53 C 28 46 30 24 27 19 C 25 15 24 14 21 14 C 19 14 18 15 17 15 z" fill="black"/><!-- width=42 height=69 -->
<path id="gl26651" d="M 46 10 C 29 13 18 25 14 48 C 11 63 12 91 15 104 C 22 130 42 140 66 131 C 75 128 84 115 87 99 C 90 88 90 60 88 49 C 83 25 73 13 55 10 C 50 10 50 10 46 10 M 59 28 C 69 33 72 45 72 73 C 72 91 72 97 69 105 C 62 122 41 123 34 107 C 27 92 27 51 34 37 C 39 27 49 23 59 28 z" fill="black"/><!-- width=102 height=147 -->
<path id="gl26652" d="M 27 22 C 22 22 21 23 19 25 C 18 27 17 41 18 54 C 18 58 18 76 18 93 C 17 142 16 138 19 140 C 22 145 31 144 33 139 C 34 136 35 124 34 120 C 34 120 33 114 33 108 C 33 97 33 97 34 94 C 37 90 43 88 54 90 C 66 93 68 98 67 118 C 67 137 70 143 79 143 C 84 143 85 142 87 139 C 88 136 87 136 86 127 C 85 123 84 115 84 110 C 84 100 82 96 78 88 C 75 84 75 81 78 75 C 85 61 86 48 80 36 C 75 25 67 22 48 22 C 40 22 34 21 33 21 C 32 21 29 21 27 22 M 55 37 C 63 40 67 46 67 55 C 67 65 64 71 57 75 C 53 77 42 78 38 76 C 34 73 33 72 33 58 C 33 42 33 40 39 37 C 41 36 51 36 55 37 z" fill="black"/><!-- width=99 height=154 -->
<path id="gl28448" d="M 37 14 C 23 16 12 26 10 40 C 6 65 11 81 25 88 C 34 93 39 93 47 88 C 54 85 55 85 58 87 C 61 89 61 93 58 101 C 53 119 37 124 29 112 C 24 104 20 102 15 103 C 4 106 14 127 27 131 C 45 136 61 131 67 118 C 73 105 76 91 76 69 C 76 64 76 60 76 55 C 75 52 75 49 74 46 C 70 31 67 24 59 18 C 54 15 44 13 37 14 M 45 28 C 54 30 58 40 58 57 C 58 65 58 67 55 72 C 51 76 48 78 42 78 C 27 78 21 64 25 43 C 27 35 31 30 38 28 C 41 27 42 27 45 28 z" fill="black"/><!-- width=90 height=147 -->
<path id="gl26653" d="M 15 37 C 9 40 9 49 14 52 C 16 54 24 54 37 53 C 57 51 60 55 49 70 C 42 81 40 85 32 106 C 27 122 22 139 22 145 C 22 150 25 154 30 154 C 37 154 40 150 42 139 C 44 117 57 81 70 60 C 77 51 78 45 75 41 C 73 37 71 37 52 37 C 43 37 31 37 25 37 C 18 36 16 37 15 37 z" fill="black"/><!-- width=89 height=163 -->
<path id="gl29470" d="M 38 7 C 22 11 15 18 10 34 C 9 43 13 49 20 46 C 24 45 25 43 27 39 C 27 37 28 34 28 34 C 32 19 51 19 57 34 C 61 46 55 59 38 72 C 30 78 27 82 21 91 C 10 107 7 120 15 123 C 16 124 49 125 66 125 C 76 125 78 112 69 109 C 66 108 66 108 51 109 C 36 110 34 110 31 107 C 27 103 31 97 40 90 C 46 85 66 66 68 61 C 71 57 73 48 73 41 C 74 28 67 16 58 11 C 52 8 43 6 38 7 z" fill="black"/><!-- width=85 height=136 -->
<path id="gl28444" d="M 35 22 C 33 24 32 24 30 28 C 27 36 24 38 14 40 C 7 41 6 43 6 48 C 6 52 7 53 16 54 C 28 54 28 55 28 70 C 27 75 27 81 27 85 C 27 88 27 99 27 109 C 26 133 27 135 31 137 C 35 139 40 138 43 134 C 44 133 44 132 44 128 C 44 126 44 101 43 75 C 43 58 43 42 43 25 C 43 25 42 24 42 24 C 39 21 38 21 35 22 z" fill="black"/><!-- width=66 height=151 -->
<path id="gl28445" d="M 34 12 C 20 13 12 19 8 33 C 6 40 7 45 12 47 C 17 48 21 46 23 39 C 27 30 31 25 38 25 C 46 25 52 32 52 43 C 52 55 48 60 35 63 C 30 64 27 69 29 72 C 31 75 33 76 39 77 C 50 79 54 85 54 98 C 53 112 43 121 33 116 C 28 114 27 112 24 103 C 22 97 20 95 17 94 C 7 92 4 102 10 115 C 17 127 28 133 43 132 C 54 130 61 125 66 114 C 73 100 72 87 63 75 C 58 69 58 66 62 59 C 69 49 69 38 63 26 C 58 15 50 11 34 12 z" fill="black"/><!-- width=86 height=145 -->
<path id="gl30216" d="M 12 13 C 8 15 9 21 13 24 C 15 26 15 26 20 25 C 23 25 30 25 34 25 C 45 25 48 25 48 21 C 48 21 48 20 48 19 C 49 18 46 13 45 12 C 40 12 13 12 12 13 z" fill="black"/><!-- width=58 height=37 -->
<path id="gl26647" d="M 40 11 C 31 13 22 22 18 33 C 14 45 13 54 14 77 C 14 95 14 95 16 103 C 21 124 31 133 51 132 C 65 132 73 124 78 109 C 83 94 84 61 81 44 C 77 30 76 28 74 25 C 67 13 55 9 40 11 M 53 26 C 64 30 67 42 66 76 C 66 100 63 111 57 115 C 48 121 37 117 33 107 C 29 94 28 56 33 38 C 36 28 45 22 53 26 z" fill="black"/><!-- width=96 height=145 -->
<path id="gl28445" d="M 34 12 C 20 13 12 19 8 33 C 6 40 7 45 12 47 C 17 48 21 46 23 39 C 27 30 31 25 38 25 C 46 25 52 32 52 43 C 52 55 48 60 35 63 C 30 64 27 69 29 72 C 31 75 33 76 39 77 C 50 79 54 85 54 98 C 53 112 43 121 33 116 C 28 114 27 112 24 103 C 22 97 20 95 17 94 C 7 92 4 102 10 115 C 17 127 28 133 43 132 C 54 130 61 125 66 114 C 73 100 72 87 63 75 C 58 69 58 66 62 59 C 69 49 69 38 63 26 C 58 15 50 11 34 12 z" fill="black"/><!-- width=86 height=145 -->
<path id="gl26646" d="M 30 15 C 16 21 9 34 9 54 C 9 72 13 82 24 88 C 33 93 39 94 49 89 C 55 86 58 85 60 88 C 61 90 62 93 61 99 C 58 114 47 123 36 119 C 33 118 31 116 27 111 C 19 99 7 105 13 118 C 19 130 25 134 39 134 C 60 135 69 126 75 102 C 75 99 76 94 76 93 C 78 88 78 69 77 57 C 77 51 72 35 70 30 C 66 23 61 18 54 15 C 49 13 35 13 30 15 M 48 28 C 55 32 60 42 60 57 C 60 66 58 70 54 74 C 46 82 33 79 27 69 C 24 63 24 48 27 40 C 30 30 40 25 48 28 z" fill="black"/><!-- width=93 height=147 -->
<path id="gl26647" d="M 40 11 C 31 13 22 22 18 33 C 14 45 13 54 14 77 C 14 95 14 95 16 103 C 21 124 31 133 51 132 C 65 132 73 124 78 109 C 83 94 84 61 81 44 C 77 30 76 28 74 25 C 67 13 55 9 40 11 M 53 26 C 64 30 67 42 66 76 C 66 100 63 111 57 115 C 48 121 37 117 33 107 C 29 94 28 56 33 38 C 36 28 45 22 53 26 z" fill="black"/><!-- width=96 height=145 -->
<path id="gl25377" d="M 20 46 C 12 49 13 66 21 68 C 24 69 25 69 31 68 C 42 67 45 69 45 78 C 45 101 44 144 43 154 C 43 174 45 177 60 176 C 64 176 67 175 69 172 C 70 169 70 172 70 116 C 69 76 69 75 70 73 C 72 69 75 68 85 68 C 93 69 93 69 96 67 C 100 64 101 57 99 50 C 96 45 96 45 83 45 C 64 46 42 46 32 45 C 23 45 22 45 20 46 z" fill="black"/><!-- width=115 height=190 -->
<path id="gl26658" d="M 42 16 C 32 19 28 21 24 28 C 18 37 14 57 15 71 C 18 94 24 104 42 108 C 51 111 52 111 61 109 C 72 106 76 103 81 94 C 85 85 85 80 79 77 C 74 73 68 76 63 85 C 59 90 56 93 51 93 C 45 93 40 87 39 78 C 39 68 48 64 65 67 C 77 70 81 69 84 65 C 88 58 84 33 75 23 C 69 15 55 13 42 16 M 56 33 C 63 37 66 48 59 53 C 54 56 45 54 42 50 C 36 42 47 29 56 33 z" fill="black"/><!-- width=100 height=124 -->
<path id="gl26659" d="M 19 9 C 15 11 14 13 15 23 C 15 32 15 112 14 119 C 13 132 14 134 25 135 C 38 136 41 134 39 121 C 39 112 38 37 39 29 C 40 16 40 12 36 10 C 34 8 24 8 19 9 z" fill="black"/><!-- width=54 height=146 -->
<path id="gl26658" d="M 42 16 C 32 19 28 21 24 28 C 18 37 14 57 15 71 C 18 94 24 104 42 108 C 51 111 52 111 61 109 C 72 106 76 103 81 94 C 85 85 85 80 79 77 C 74 73 68 76 63 85 C 59 90 56 93 51 93 C 45 93 40 87 39 78 C 39 68 48 64 65 67 C 77 70 81 69 84 65 C 88 58 84 33 75 23 C 69 15 55 13 42 16 M 56 33 C 63 37 66 48 59 53 C 54 56 45 54 42 50 C 36 42 47 29 56 33 z" fill="black"/><!-- width=100 height=124 -->
<path id="gl30496" d="M 9 9 C 9 14 4 38 4 72 C 4 91 4 110 4 124 C 9 124 14 124 19 124 C 28 124 28 124 28 110 C 28 100 33 96 43 100 C 67 105 76 96 76 62 C 81 19 72 9 38 9 C 24 9 9 9 9 9 M 52 52 C 57 76 48 91 33 81 C 28 76 28 33 33 28 C 43 19 52 28 52 52 z" fill="black"/><!-- width=91 height=139 -->
<path id="gl25378" d="M 27 9 C 21 11 21 13 21 24 C 22 45 22 60 22 74 C 21 99 21 131 22 133 C 24 138 27 139 34 139 C 40 139 43 138 45 135 C 46 132 46 132 46 115 C 45 105 45 92 45 85 C 45 81 44 77 44 73 C 45 72 45 70 46 69 C 50 60 60 58 66 64 C 70 69 70 70 69 110 C 68 132 68 133 71 136 C 75 141 87 141 91 137 C 94 134 94 132 93 120 C 93 113 93 97 93 84 C 93 63 93 61 91 57 C 87 42 72 37 58 45 C 52 48 51 48 48 45 C 45 43 44 41 45 33 C 48 12 46 9 34 9 C 31 9 28 9 27 9 z" fill="black"/><!-- width=108 height=159 -->
<path id="gl30497" d="M 24 19 C 9 28 9 33 9 57 C 9 91 14 100 38 105 C 62 110 81 96 81 57 C 81 14 52 0 24 19 M 52 52 C 57 81 52 96 38 81 C 28 76 28 38 38 33 C 48 19 52 28 52 52 z" fill="black"/><!-- width=96 height=120 -->
<path id="gl25615" d="M 60 21 C 58 21 54 22 51 24 C 45 27 43 27 38 25 C 30 21 19 21 17 26 C 16 28 16 41 16 45 C 16 46 16 61 16 80 C 16 117 15 116 19 119 C 22 121 34 121 37 119 C 41 116 41 115 40 96 C 39 62 39 52 41 48 C 46 37 58 36 63 46 C 64 48 64 48 65 49 C 65 54 65 58 65 63 C 65 70 64 85 64 95 C 63 119 63 120 75 120 C 84 121 88 119 88 114 C 88 113 88 96 88 75 C 88 33 88 34 82 28 C 78 22 67 19 60 21 z" fill="black"/><!-- width=104 height=135 -->
<path id="gl30498" d="M 42 16 C 23 21 15 36 15 70 C 15 76 17 91 19 96 C 21 100 28 108 32 110 C 34 111 43 114 48 114 C 52 115 63 113 70 109 C 77 106 84 91 82 84 C 79 74 68 75 63 86 C 55 100 39 97 39 80 C 39 70 45 66 60 69 C 79 72 84 70 85 60 C 87 49 80 27 73 22 C 65 16 53 14 42 16 M 55 34 C 61 36 64 45 61 51 C 58 55 51 57 45 54 C 34 48 43 29 55 34 z" fill="black"/><!-- width=99 height=129 -->
<path id="gl26663" d="M 17 15 C 14 16 13 19 13 30 C 13 43 15 45 25 45 C 34 45 36 43 36 29 C 36 19 36 17 32 15 C 30 14 19 14 17 15 M 21 78 C 14 78 13 81 13 91 C 13 104 15 106 25 106 C 33 106 36 105 36 100 C 37 95 36 82 35 81 C 32 78 27 76 21 78 z" fill="black"/><!-- width=49 height=120 -->
<path id="gl28452" d="M 40 23 C 38 24 37 25 35 30 C 31 39 28 40 19 42 C 10 43 7 46 7 52 C 7 61 9 62 20 62 C 33 62 33 59 31 100 C 31 141 31 139 32 141 C 36 148 51 148 55 141 C 55 141 56 140 57 139 C 56 133 56 128 56 123 C 55 106 55 48 56 34 C 57 25 54 22 46 22 C 43 22 42 22 40 23 z" fill="black"/><!-- width=81 height=160 -->
<path id="gl26402" d="M 16 17 C 15 19 13 22 14 27 C 15 33 18 35 25 34 C 36 34 39 33 48 34 C 59 35 61 34 63 31 C 65 28 64 18 60 16 C 60 16 53 16 39 16 C 18 16 18 16 16 17 z" fill="black"/><!-- width=78 height=51 -->
<path id="gl26880" d="M 39 12 C 27 14 23 17 18 25 C 11 37 11 52 18 62 C 23 68 23 72 18 78 C 16 80 13 83 13 85 C 12 86 11 87 10 88 C 10 92 10 96 10 99 C 10 115 11 118 20 126 C 27 133 35 136 48 136 C 64 136 75 131 82 120 C 82 118 84 115 86 114 C 90 109 91 106 91 96 C 91 88 90 79 89 79 C 89 78 88 79 88 79 C 85 84 84 84 81 81 C 73 75 72 67 78 60 C 81 57 82 55 84 51 C 84 49 85 48 85 46 C 85 45 84 43 84 41 C 80 26 75 19 67 15 C 61 12 49 10 39 12 M 53 30 C 58 31 61 37 61 45 C 61 64 42 70 36 54 C 30 40 40 25 53 30 M 54 80 C 57 81 61 87 63 91 C 65 101 61 114 54 117 C 42 123 30 112 33 94 C 34 82 44 76 54 80 z" fill="black"/><!-- width=99 height=150 -->
<path id="gl30499" d="M 24 14 C 9 24 0 86 14 115 C 33 153 91 124 91 72 C 91 19 62 -5 24 14 M 62 43 C 67 72 57 110 48 110 C 33 115 28 100 28 72 C 28 38 33 24 48 28 C 52 28 57 33 62 43 z" fill="black"/><!-- width=96 height=144 -->
<path id="gl26881" d="M 44 12 C 36 14 33 16 29 19 C 23 25 18 36 16 44 C 15 49 14 101 15 106 C 19 129 40 141 64 134 C 75 131 82 124 86 114 C 87 112 89 108 90 106 C 94 99 95 96 94 70 C 94 63 94 57 94 51 C 93 49 92 47 91 45 C 90 42 88 37 87 33 C 84 25 81 21 76 18 C 67 11 55 9 44 12 M 59 31 C 63 33 66 37 67 46 C 68 52 68 94 67 101 C 65 112 60 118 52 118 C 45 118 41 113 39 101 C 38 97 37 92 38 72 C 38 64 38 56 38 48 C 39 46 39 45 40 43 C 42 36 43 34 46 31 C 49 28 54 28 59 31 z" fill="black"/><!-- width=108 height=148 -->
<path id="gl26402" d="M 16 17 C 15 19 13 22 14 27 C 15 33 18 35 25 34 C 36 34 39 33 48 34 C 59 35 61 34 63 31 C 65 28 64 18 60 16 C 60 16 53 16 39 16 C 18 16 18 16 16 17 z" fill="black"/><!-- width=78 height=51 -->
<path id="gl26894" d="M 31 12 C 19 14 12 21 9 33 C 4 46 9 52 21 49 C 25 49 27 47 28 41 C 31 32 34 28 41 28 C 49 28 55 38 52 49 C 51 55 51 57 48 58 C 45 62 45 63 40 63 C 32 64 30 66 30 73 C 30 79 33 81 39 81 C 46 81 49 82 51 87 C 55 96 56 102 53 109 C 50 117 43 120 36 117 C 32 115 30 112 28 103 C 26 97 25 96 17 96 C 5 96 2 99 6 112 C 10 123 18 132 30 135 C 40 138 58 135 64 130 C 70 125 78 113 79 108 C 79 107 79 102 79 98 C 78 88 77 87 70 79 C 65 73 65 69 70 61 C 76 52 77 47 76 39 C 74 31 72 25 66 19 C 59 12 45 9 31 12 z" fill="black"/><!-- width=93 height=148 -->
<path id="gl26895" d="M 46 10 C 36 12 24 18 21 24 C 14 34 12 42 13 57 C 13 73 15 79 22 85 C 30 93 37 94 49 91 C 56 90 60 90 62 91 C 69 95 64 113 55 116 C 49 118 43 117 40 112 C 36 104 33 102 24 103 C 15 103 13 105 14 112 C 18 129 37 138 60 133 C 73 131 79 126 85 112 C 87 108 89 105 90 105 C 90 105 91 106 93 106 C 96 110 97 108 97 96 C 97 82 97 79 93 79 C 90 78 89 76 89 62 C 89 43 85 28 78 20 C 73 15 54 9 46 10 M 54 29 C 57 30 61 33 63 36 C 64 40 65 63 63 67 C 60 74 55 77 48 75 C 40 74 35 66 35 53 C 35 36 43 26 54 29 z" fill="black"/><!-- width=108 height=147 -->
<path id="gl26896" d="M 50 10 C 44 11 42 13 36 27 C 34 33 30 40 28 43 C 27 47 23 52 21 56 C 19 59 16 65 14 68 C 9 77 9 78 9 94 C 9 113 8 112 17 111 C 26 109 27 109 33 109 C 40 108 43 109 45 112 C 47 114 47 114 47 121 C 47 130 48 132 52 133 C 57 136 65 135 68 130 C 69 129 69 128 69 122 C 69 114 70 112 75 110 C 80 107 81 105 81 99 C 81 93 80 92 75 90 C 68 87 68 87 68 60 C 68 48 69 33 69 27 C 70 12 69 10 58 10 C 55 10 51 10 50 10 M 46 60 C 49 65 48 82 45 86 C 43 90 37 91 33 89 C 28 87 27 82 30 75 C 36 60 43 53 46 60 z" fill="black"/><!-- width=93 height=148 -->
<path id="gl30488" d="M 48 12 C 43 13 32 14 26 13 C 24 12 21 12 19 12 C 17 12 13 16 13 18 C 11 28 13 33 21 33 C 32 33 47 33 51 33 C 59 33 62 31 63 25 C 63 15 58 10 48 12 z" fill="black"/><!-- width=76 height=46 -->
<path id="gl26888" d="M 54 7 C 31 12 25 18 19 43 C 17 53 16 95 18 103 C 19 108 23 115 26 119 C 30 124 34 127 42 130 C 55 134 62 134 72 129 C 81 126 84 123 89 115 C 91 112 92 111 94 109 C 97 108 98 107 98 96 C 99 85 98 81 95 77 C 94 75 92 72 91 69 C 87 62 80 55 75 54 C 69 52 63 52 58 54 C 46 58 40 55 41 43 C 42 34 48 25 56 25 C 62 25 64 27 69 36 C 72 40 73 41 79 41 C 87 42 91 39 92 35 C 93 28 85 16 76 12 C 69 9 59 7 54 7 M 63 71 C 65 72 67 75 69 78 C 70 81 70 82 70 91 C 70 103 70 105 66 111 C 60 117 48 115 44 107 C 43 104 42 87 43 82 C 45 71 54 66 63 71 z" fill="black"/><!-- width=110 height=144 -->
<path id="gl26880" d="M 39 12 C 27 14 23 17 18 25 C 11 37 11 52 18 62 C 23 68 23 72 18 78 C 16 80 13 83 13 85 C 12 86 11 87 10 88 C 10 92 10 96 10 99 C 10 115 11 118 20 126 C 27 133 35 136 48 136 C 64 136 75 131 82 120 C 82 118 84 115 86 114 C 90 109 91 106 91 96 C 91 88 90 79 89 79 C 89 78 88 79 88 79 C 85 84 84 84 81 81 C 73 75 72 67 78 60 C 81 57 82 55 84 51 C 84 49 85 48 85 46 C 85 45 84 43 84 41 C 80 26 75 19 67 15 C 61 12 49 10 39 12 M 53 30 C 58 31 61 37 61 45 C 61 64 42 70 36 54 C 30 40 40 25 53 30 M 54 80 C 57 81 61 87 63 91 C 65 101 61 114 54 117 C 42 123 30 112 33 94 C 34 82 44 76 54 80 z" fill="black"/><!-- width=99 height=150 -->
<path id="gl30218" d="M 42 10 C 33 12 31 13 27 18 C 20 25 15 36 14 45 C 13 55 13 104 15 108 C 16 111 23 122 25 124 C 31 129 47 133 55 132 C 70 131 78 126 84 116 C 87 112 88 111 90 110 C 93 108 94 107 94 95 C 94 83 93 81 90 77 C 90 76 87 72 85 69 C 78 55 69 51 52 55 C 41 58 37 57 36 49 C 34 36 45 24 55 26 C 59 27 61 29 64 35 C 68 41 70 42 78 42 C 83 42 83 42 85 40 C 89 37 89 35 87 28 C 84 21 76 13 70 12 C 60 7 52 7 42 10 M 57 72 C 63 74 66 81 67 92 C 67 108 61 117 51 115 C 42 114 39 109 39 94 C 37 82 40 76 46 73 C 50 71 52 71 57 72 z" fill="black"/><!-- width=102 height=145 -->
<path id="gl30219" d="M 42 10 C 28 13 21 19 16 33 C 15 36 14 40 14 42 C 14 47 18 56 21 61 C 24 65 25 69 24 72 C 22 74 19 77 16 79 C 12 81 12 82 12 97 C 12 112 12 113 17 119 C 27 132 42 136 62 133 C 79 130 89 117 88 99 C 88 88 87 84 82 79 C 80 76 78 73 76 72 C 76 70 76 70 75 69 C 76 68 76 67 76 66 C 78 64 79 62 80 61 C 88 51 88 34 79 21 C 73 12 58 7 42 10 M 55 28 C 62 31 66 44 61 53 C 58 60 51 64 45 60 C 38 57 34 45 38 37 C 42 29 47 26 55 28 M 55 78 C 61 81 65 86 65 96 C 66 108 61 115 51 116 C 44 117 41 115 37 109 C 30 93 40 73 55 78 z" fill="black"/><!-- width=101 height=145 -->
<path id="gl26889" d="M 84 31 C 81 31 69 31 58 31 C 51 31 44 31 37 31 C 36 32 36 33 35 33 C 32 35 31 37 32 56 C 33 75 33 122 31 139 C 31 154 32 157 40 159 C 46 160 54 159 56 156 C 58 154 58 148 57 138 C 54 105 55 103 75 105 C 94 108 96 107 99 99 C 102 87 96 82 79 85 C 63 87 60 86 57 80 C 55 77 55 76 55 69 C 55 60 56 58 59 55 C 61 53 69 52 75 54 C 77 54 82 54 87 54 C 99 55 101 53 101 42 C 101 31 98 30 84 31 z" fill="black"/><!-- width=113 height=170 -->
<path id="gl28672" d="M 44 8 C 42 8 39 9 37 9 C 36 10 33 10 32 10 C 24 12 15 21 12 30 C 10 39 15 43 25 41 C 29 40 30 39 33 34 C 39 24 49 22 54 32 C 58 42 51 49 34 51 C 32 51 30 52 28 52 C 27 53 25 54 24 55 C 19 56 15 60 12 64 C 12 65 11 66 10 67 C 10 70 10 73 10 76 C 10 85 10 85 12 90 C 18 105 33 109 46 100 C 51 97 54 96 57 99 C 61 102 64 103 69 103 C 78 103 81 100 79 93 C 77 85 76 84 76 56 C 76 46 76 37 76 28 C 76 27 75 25 75 24 C 73 18 69 13 61 10 C 57 9 50 7 49 7 C 48 7 46 7 44 8 M 52 64 C 55 66 56 67 55 72 C 55 83 45 90 37 85 C 31 81 30 73 35 67 C 39 63 48 61 52 64 z" fill="black"/><!-- width=93 height=116 -->
<path id="gl26891" d="M 16 14 C 11 17 12 21 17 29 C 30 50 33 58 31 64 C 30 69 21 84 16 91 C 10 99 10 105 13 108 C 15 109 16 109 22 109 C 33 109 35 108 38 97 C 40 87 45 84 50 86 C 54 88 55 90 56 95 C 58 106 61 109 71 109 C 79 109 83 107 83 103 C 83 100 82 99 78 91 C 61 65 61 63 63 56 C 63 53 76 31 80 25 C 85 18 82 13 72 13 C 62 13 59 15 56 25 C 53 34 49 37 43 34 C 41 32 40 30 38 24 C 36 15 33 13 24 13 C 18 13 18 13 16 14 z" fill="black"/><!-- width=94 height=123 -->
<path id="gl26663" d="M 17 15 C 14 16 13 19 13 30 C 13 43 15 45 25 45 C 34 45 36 43 36 29 C 36 19 36 17 32 15 C 30 14 19 14 17 15 M 21 78 C 14 78 13 81 13 91 C 13 104 15 106 25 106 C 33 106 36 105 36 100 C 37 95 36 82 35 81 C 32 78 27 76 21 78 z" fill="black"/><!-- width=49 height=120 -->
<path id="gl28452" d="M 40 23 C 38 24 37 25 35 30 C 31 39 28 40 19 42 C 10 43 7 46 7 52 C 7 61 9 62 20 62 C 33 62 33 59 31 100 C 31 141 31 139 32 141 C 36 148 51 148 55 141 C 55 141 56 140 57 139 C 56 133 56 128 56 123 C 55 106 55 48 56 34 C 57 25 54 22 46 22 C 43 22 42 22 40 23 z" fill="black"/><!-- width=81 height=160 -->
<path id="gl26402" d="M 16 17 C 15 19 13 22 14 27 C 15 33 18 35 25 34 C 36 34 39 33 48 34 C 59 35 61 34 63 31 C 65 28 64 18 60 16 C 60 16 53 16 39 16 C 18 16 18 16 16 17 z" fill="black"/><!-- width=78 height=51 -->
<path id="gl26880" d="M 39 12 C 27 14 23 17 18 25 C 11 37 11 52 18 62 C 23 68 23 72 18 78 C 16 80 13 83 13 85 C 12 86 11 87 10 88 C 10 92 10 96 10 99 C 10 115 11 118 20 126 C 27 133 35 136 48 136 C 64 136 75 131 82 120 C 82 118 84 115 86 114 C 90 109 91 106 91 96 C 91 88 90 79 89 79 C 89 78 88 79 88 79 C 85 84 84 84 81 81 C 73 75 72 67 78 60 C 81 57 82 55 84 51 C 84 49 85 48 85 46 C 85 45 84 43 84 41 C 80 26 75 19 67 15 C 61 12 49 10 39 12 M 53 30 C 58 31 61 37 61 45 C 61 64 42 70 36 54 C 30 40 40 25 53 30 M 54 80 C 57 81 61 87 63 91 C 65 101 61 114 54 117 C 42 123 30 112 33 94 C 34 82 44 76 54 80 z" fill="black"/><!-- width=99 height=150 -->
<path id="gl26881" d="M 44 12 C 36 14 33 16 29 19 C 23 25 18 36 16 44 C 15 49 14 101 15 106 C 19 129 40 141 64 134 C 75 131 82 124 86 114 C 87 112 89 108 90 106 C 94 99 95 96 94 70 C 94 63 94 57 94 51 C 93 49 92 47 91 45 C 90 42 88 37 87 33 C 84 25 81 21 76 18 C 67 11 55 9 44 12 M 59 31 C 63 33 66 37 67 46 C 68 52 68 94 67 101 C 65 112 60 118 52 118 C 45 118 41 113 39 101 C 38 97 37 92 38 72 C 38 64 38 56 38 48 C 39 46 39 45 40 43 C 42 36 43 34 46 31 C 49 28 54 28 59 31 z" fill="black"/><!-- width=108 height=148 -->
<path id="gl26881" d="M 44 12 C 36 14 33 16 29 19 C 23 25 18 36 16 44 C 15 49 14 101 15 106 C 19 129 40 141 64 134 C 75 131 82 124 86 114 C 87 112 89 108 90 106 C 94 99 95 96 94 70 C 94 63 94 57 94 51 C 93 49 92 47 91 45 C 90 42 88 37 87 33 C 84 25 81 21 76 18 C 67 11 55 9 44 12 M 59 31 C 63 33 66 37 67 46 C 68 52 68 94 67 101 C 65 112 60 118 52 118 C 45 118 41 113 39 101 C 38 97 37 92 38 72 C 38 64 38 56 38 48 C 39 46 39 45 40 43 C 42 36 43 34 46 31 C 49 28 54 28 59 31 z" fill="black"/><!-- width=108 height=148 -->
<path id="gl26402" d="M 16 17 C 15 19 13 22 14 27 C 15 33 18 35 25 34 C 36 34 39 33 48 34 C 59 35 61 34 63 31 C 65 28 64 18 60 16 C 60 16 53 16 39 16 C 18 16 18 16 16 17 z" fill="black"/><!-- width=78 height=51 -->
<path id="gl26883" d="M 43 9 C 43 9 39 10 35 11 C 21 13 14 19 10 33 C 7 46 12 52 22 50 C 27 49 30 46 31 40 C 36 26 47 23 54 34 C 58 41 56 54 51 60 C 49 61 44 62 41 62 C 35 62 31 69 33 75 C 34 79 36 80 43 81 C 54 81 57 85 57 99 C 57 110 52 117 44 117 C 37 117 33 113 30 102 C 30 100 29 99 27 97 C 27 96 26 96 25 95 C 23 95 21 95 19 95 C 9 95 6 97 7 106 C 10 125 29 137 51 133 C 70 130 80 120 81 103 C 82 92 80 84 75 79 C 69 73 67 70 70 65 C 82 44 82 42 76 29 C 72 19 66 13 60 12 C 48 9 44 9 43 9 M 85 42 C 84 48 85 51 87 49 C 88 48 88 47 87 43 C 87 41 86 41 85 42 z" fill="black"/><!-- width=99 height=145 -->
<path id="gl30500" d="M 28 9 C 0 24 0 91 38 86 C 57 81 67 96 52 105 C 48 115 43 115 33 105 C 14 96 4 100 14 120 C 28 134 57 134 72 115 C 81 105 86 100 91 100 C 91 100 96 96 96 86 C 96 81 91 76 91 76 C 86 76 86 62 81 48 C 76 14 57 0 28 9 M 52 28 C 67 43 52 81 38 67 C 28 62 28 33 38 28 C 43 19 43 19 52 28 z" fill="black"/><!-- width=100 height=144 -->
<path id="gl26896" d="M 50 10 C 44 11 42 13 36 27 C 34 33 30 40 28 43 C 27 47 23 52 21 56 C 19 59 16 65 14 68 C 9 77 9 78 9 94 C 9 113 8 112 17 111 C 26 109 27 109 33 109 C 40 108 43 109 45 112 C 47 114 47 114 47 121 C 47 130 48 132 52 133 C 57 136 65 135 68 130 C 69 129 69 128 69 122 C 69 114 70 112 75 110 C 80 107 81 105 81 99 C 81 93 80 92 75 90 C 68 87 68 87 68 60 C 68 48 69 33 69 27 C 70 12 69 10 58 10 C 55 10 51 10 50 10 M 46 60 C 49 65 48 82 45 86 C 43 90 37 91 33 89 C 28 87 27 82 30 75 C 36 60 43 53 46 60 z" fill="black"/><!-- width=93 height=148 -->
<path id="gl26402" d="M 16 17 C 15 19 13 22 14 27 C 15 33 18 35 25 34 C 36 34 39 33 48 34 C 59 35 61 34 63 31 C 65 28 64 18 60 16 C 60 16 53 16 39 16 C 18 16 18 16 16 17 z" fill="black"/><!-- width=78 height=51 -->
<path id="gl26886" d="M 48 11 C 39 13 36 13 31 18 C 21 28 16 47 16 86 C 16 100 19 110 24 120 C 30 129 40 135 55 136 C 64 137 78 132 84 125 C 96 112 99 95 93 76 C 85 56 73 50 53 57 C 42 61 37 52 42 39 C 45 32 48 29 54 28 C 61 28 64 30 68 36 C 72 43 79 45 87 43 C 93 42 94 37 90 28 C 82 14 67 7 48 11 M 63 73 C 68 76 70 83 70 96 C 70 105 69 109 64 114 C 60 118 54 119 49 115 C 43 111 42 107 43 91 C 43 81 43 81 45 78 C 48 72 56 70 63 73 z" fill="black"/><!-- width=109 height=148 -->
<path id="gl30224" d="M 40 7 C 32 9 28 11 21 17 C 16 21 13 30 13 37 C 13 38 12 40 12 42 C 10 45 10 45 12 47 C 15 51 17 52 23 52 C 31 52 34 49 36 42 C 37 30 41 25 50 25 C 60 25 64 33 63 45 C 61 56 58 59 43 73 C 31 84 25 91 22 94 C 21 96 19 98 18 99 C 15 102 14 105 13 110 C 12 112 12 116 12 118 C 10 121 12 125 14 127 C 16 128 16 128 40 128 C 54 128 67 129 71 129 C 81 130 85 129 87 123 C 87 121 90 113 90 112 C 90 111 84 108 79 108 C 76 107 73 108 68 108 C 49 112 42 107 48 97 C 50 95 51 94 51 94 C 52 94 54 92 57 90 C 60 87 63 84 65 82 C 79 71 85 58 86 44 C 87 31 79 15 70 10 C 63 7 50 6 40 7 z" fill="black"/><!-- width=101 height=140 -->
<path id="gl26880" d="M 39 12 C 27 14 23 17 18 25 C 11 37 11 52 18 62 C 23 68 23 72 18 78 C 16 80 13 83 13 85 C 12 86 11 87 10 88 C 10 92 10 96 10 99 C 10 115 11 118 20 126 C 27 133 35 136 48 136 C 64 136 75 131 82 120 C 82 118 84 115 86 114 C 90 109 91 106 91 96 C 91 88 90 79 89 79 C 89 78 88 79 88 79 C 85 84 84 84 81 81 C 73 75 72 67 78 60 C 81 57 82 55 84 51 C 84 49 85 48 85 46 C 85 45 84 43 84 41 C 80 26 75 19 67 15 C 61 12 49 10 39 12 M 53 30 C 58 31 61 37 61 45 C 61 64 42 70 36 54 C 30 40 40 25 53 30 M 54 80 C 57 81 61 87 63 91 C 65 101 61 114 54 117 C 42 123 30 112 33 94 C 34 82 44 76 54 80 z" fill="black"/><!-- width=99 height=150 -->
<path id="gl26898" d="M 45 12 C 32 16 27 20 21 32 C 17 42 16 46 16 80 C 16 111 16 109 21 117 C 27 127 31 130 44 133 C 54 136 57 136 65 133 C 85 128 93 116 91 91 C 91 77 89 71 82 64 C 75 56 66 54 55 58 C 48 61 45 61 43 60 C 34 55 39 35 49 30 C 54 28 61 30 64 35 C 70 45 71 45 78 45 C 89 46 93 40 88 30 C 85 24 78 16 75 15 C 65 10 57 10 45 12 M 60 75 C 66 78 69 84 69 95 C 69 104 68 108 65 112 C 59 120 47 119 42 110 C 40 105 39 89 42 83 C 44 75 52 72 60 75 z" fill="black"/><!-- width=105 height=149 -->
</defs>
<use xlink:href="#gl30493" x="0" y="10"/>
<use xlink:href="#gl26627" x="86" y="21"/>
<use xlink:href="#gl26651" x="174" y="31"/>
<use xlink:href="#gl30494" x="273" y="38"/>
<use xlink:href="#gl28427" x="351" y="36"/>
<use xlink:href="#gl30208" x="429" y="31"/>
<use xlink:href="#gl29464" x="515" y="0"/>
<use xlink:href="#gl28431" x="596" y="32"/>
<use xlink:href="#gl28430" x="619" y="29"/>
<use xlink:href="#gl28431" x="702" y="31"/>
<use xlink:href="#gl29467" x="731" y="1"/>
<use xlink:href="#gl29465" x="806" y="14"/>
<use xlink:href="#gl30495" x="893" y="130"/>
<use xlink:href="#gl28429" x="965" y="29"/>
<use xlink:href="#gl26635" x="996" y="33"/>
<use xlink:href="#gl30208" x="1077" y="31"/>
<use xlink:href="#gl2844" x="1171" y="130"/>
<use xlink:href="#gl30495" x="1214" y="130"/>
<use xlink:href="#gl26628" x="1277" y="33"/>
<use xlink:href="#gl29466" x="1361" y="37"/>
<use xlink:href="#gl30493" x="1436" y="13"/>
<use xlink:href="#gl29464" x="1519" y="3"/>
<use xlink:href="#gl2844" x="1601" y="131"/>
<use xlink:href="#gl26641" x="1671" y="34"/>
<use xlink:href="#gl26639" x="1745" y="35"/>
<use xlink:href="#gl30495" x="1848" y="130"/>
<use xlink:href="#gl28425" x="1900" y="13"/>
<use xlink:href="#gl2844" x="1981" y="132"/>
<use xlink:href="#gl26651" x="2017" y="34"/>
<use xlink:href="#gl2844" x="2108" y="132"/>
<use xlink:href="#gl28436" x="2180" y="35"/>
<use xlink:href="#gl26651" x="2267" y="35"/>
<use xlink:href="#gl26642" x="2355" y="34"/>
<use xlink:href="#gl26655" x="2480" y="31"/>
<use xlink:href="#gl28445" x="2554" y="38"/>
<use xlink:href="#gl28445" x="2631" y="38"/>
<use xlink:href="#gl29469" x="2706" y="37"/>
<use xlink:href="#gl28437" x="2775" y="41"/>
<use xlink:href="#gl30495" x="2862" y="133"/>
<use xlink:href="#gl30493" x="2920" y="15"/>
<use xlink:href="#gl26651" x="3007" y="36"/>
<use xlink:href="#gl29996" x="3094" y="29"/>
<use xlink:href="#gl26631" x="3173" y="0"/>
<use xlink:href="#gl30213" x="3234" y="42"/>
<use xlink:href="#gl30214" x="3319" y="41"/>
<use xlink:href="#gl26635" x="3407" y="37"/>
<use xlink:href="#gl26628" x="3487" y="36"/>
<use xlink:href="#gl25116" x="3587" y="132"/>
<use xlink:href="#gl26651" x="3658" y="37"/>
<use xlink:href="#gl26652" x="3745" y="27"/>
<use xlink:href="#gl28448" x="3869" y="38"/>
<use xlink:href="#gl26653" x="3945" y="17"/>
<use xlink:href="#gl29470" x="4023" y="45"/>
<use xlink:href="#gl28444" x="4108" y="31"/>
<use xlink:href="#gl28445" x="4179" y="40"/>
<use xlink:href="#gl30216" x="4256" y="105"/>
<use xlink:href="#gl26647" x="4303" y="41"/>
<use xlink:href="#gl28445" x="4390" y="40"/>
<use xlink:href="#gl26646" x="4462" y="38"/>
<use xlink:href="#gl26647" x="4533" y="41"/>
<use xlink:href="#gl25377" x="587" y="190"/>
<use xlink:href="#gl26658" x="675" y="253"/>
<use xlink:href="#gl26659" x="761" y="228"/>
<use xlink:href="#gl26658" x="797" y="254"/>
<use xlink:href="#gl30496" x="887" y="263"/>
<use xlink:href="#gl25378" x="956" y="226"/>
<use xlink:href="#gl30497" x="1055" y="259"/>
<use xlink:href="#gl25615" x="1130" y="246"/>
<use xlink:href="#gl30498" x="1215" y="251"/>
<use xlink:href="#gl26663" x="1300" y="256"/>
<use xlink:href="#gl28452" x="1386" y="218"/>
<use xlink:href="#gl26402" x="1461" y="291"/>
<use xlink:href="#gl26880" x="1523" y="229"/>
<use xlink:href="#gl30499" x="1607" y="235"/>
<use xlink:href="#gl26881" x="1681" y="230"/>
<use xlink:href="#gl26402" x="1768" y="292"/>
<use xlink:href="#gl26894" x="1838" y="230"/>
<use xlink:href="#gl26895" x="1910" y="231"/>
<use xlink:href="#gl26896" x="2001" y="231"/>
<use xlink:href="#gl30488" x="2078" y="295"/>
<use xlink:href="#gl26888" x="2134" y="234"/>
<use xlink:href="#gl26880" x="2223" y="231"/>
<use xlink:href="#gl30218" x="2301" y="235"/>
<use xlink:href="#gl30219" x="2384" y="233"/>
<use xlink:href="#gl26889" x="2615" y="208"/>
<use xlink:href="#gl28672" x="2710" y="263"/>
<use xlink:href="#gl26891" x="2787" y="259"/>
<use xlink:href="#gl26663" x="2871" y="260"/>
<use xlink:href="#gl28452" x="2956" y="221"/>
<use xlink:href="#gl26402" x="3031" y="294"/>
<use xlink:href="#gl26880" x="3093" y="232"/>
<use xlink:href="#gl26881" x="3170" y="233"/>
<use xlink:href="#gl26881" x="3250" y="233"/>
<use xlink:href="#gl26402" x="3336" y="294"/>
<use xlink:href="#gl26883" x="3402" y="235"/>
<use xlink:href="#gl30500" x="3484" y="239"/>
<use xlink:href="#gl26896" x="3568" y="234"/>
<use xlink:href="#gl26402" x="3643" y="295"/>
<use xlink:href="#gl26886" x="3700" y="234"/>
<use xlink:href="#gl30224" x="3787" y="239"/>
<use xlink:href="#gl26880" x="3870" y="234"/>
<use xlink:href="#gl26898" x="3946" y="234"/>
</svg>
